<svg xmlns="http://www.w3.org/2000/svg" xmlns:xlink="http://www.w3.org/1999/xlink" width="113" height="113" viewBox="0 0 113 113">
  <defs>
    <filter id="Trazado_982547" x="0" y="0" width="113" height="113" filterUnits="userSpaceOnUse">
      <feOffset dy="3" input="SourceAlpha"/>
      <feGaussianBlur stdDeviation="3" result="blur"/>
      <feFlood flood-opacity="0.161"/>
      <feComposite operator="in" in2="blur"/>
      <feComposite in="SourceGraphic"/>
    </filter>
  </defs>
  <g id="Grupo_1237629" data-name="Grupo 1237629" transform="translate(-323 -1482.7)">
    <g id="Grupo_1236927" data-name="Grupo 1236927" transform="translate(-2.651 166.899)">
      <g id="Grupo_1223803" data-name="Grupo 1223803" transform="translate(0 -108)">
        <g id="Grupo_1211531" data-name="Grupo 1211531" transform="translate(0 -678)">
          <g id="Grupo_1210969" data-name="Grupo 1210969" transform="translate(334.651 2107.801)">
            <g id="Grupo_1210937" data-name="Grupo 1210937" transform="translate(0 0)">
              <g id="Grupo_1174742" data-name="Grupo 1174742">
                <g id="Grupo_1163948" data-name="Grupo 1163948">
                  <g id="Grupo_1158168" data-name="Grupo 1158168" transform="translate(0)">
                    <g id="Grupo_1152576" data-name="Grupo 1152576">
                      <g id="Grupo_1148633" data-name="Grupo 1148633">
                        <g id="Grupo_1148525" data-name="Grupo 1148525">
                          <g transform="matrix(1, 0, 0, 1, -9, -6)" filter="url(#Trazado_982547)">
                            <g id="Trazado_982547-2" data-name="Trazado 982547" transform="translate(9 6)" fill="#fbe7b2">
                              <path d="M 47.5 93.5 C 41.28937149047852 93.5 35.26533508300781 92.28397369384766 29.59518623352051 89.88570404052734 C 24.11771965026855 87.56893157958984 19.19813346862793 84.25196075439453 14.97309303283691 80.02691650390625 C 10.74804019927979 75.80186462402344 7.431066513061523 70.88229370117188 5.114293098449707 65.40481567382812 C 2.716026782989502 59.73468017578125 1.5 53.71062850952148 1.5 47.5 C 1.5 41.28937149047852 2.716026782989502 35.26533508300781 5.114293098449707 29.59518623352051 C 7.431066513061523 24.11771965026855 10.74804019927979 19.19813346862793 14.97309303283691 14.97309303283691 C 19.19813346862793 10.74804019927979 24.11771965026855 7.431066513061523 29.59518623352051 5.114293098449707 C 35.26533508300781 2.716026782989502 41.28937149047852 1.5 47.5 1.5 C 53.71062850952148 1.5 59.73468017578125 2.716026782989502 65.40481567382812 5.114293098449707 C 70.88229370117188 7.431066513061523 75.80186462402344 10.74804019927979 80.02691650390625 14.97309303283691 C 84.25196075439453 19.19813346862793 87.56893157958984 24.11771965026855 89.88570404052734 29.59518623352051 C 92.28397369384766 35.26533508300781 93.5 41.28937149047852 93.5 47.5 C 93.5 53.71062850952148 92.28397369384766 59.73468017578125 89.88570404052734 65.40481567382812 C 87.56893157958984 70.88229370117188 84.25196075439453 75.80186462402344 80.02691650390625 80.02691650390625 C 75.80186462402344 84.25196075439453 70.88229370117188 87.56893157958984 65.40481567382812 89.88570404052734 C 59.73468017578125 92.28397369384766 53.71062850952148 93.5 47.5 93.5 Z" stroke="none"/>
                              <path d="M 47.5 3 C 41.49121475219727 3 35.66376876831055 4.176155090332031 30.17950439453125 6.495796203613281 C 24.88084411621094 8.736953735351562 20.12152099609375 11.94598388671875 16.03375244140625 16.03375244140625 C 11.94598388671875 20.12152099609375 8.736953735351562 24.88084411621094 6.495796203613281 30.17950439453125 C 4.176155090332031 35.66376876831055 3 41.49121475219727 3 47.5 C 3 53.50878524780273 4.176155090332031 59.33623123168945 6.495796203613281 64.82049560546875 C 8.736953735351562 70.11915588378906 11.94598388671875 74.87847900390625 16.03375244140625 78.96624755859375 C 20.12152099609375 83.05401611328125 24.88084411621094 86.26304626464844 30.17950439453125 88.50419616699219 C 35.66376876831055 90.82384490966797 41.49121475219727 92 47.5 92 C 53.50878524780273 92 59.33623123168945 90.82384490966797 64.82049560546875 88.50419616699219 C 70.11915588378906 86.26304626464844 74.87847900390625 83.05401611328125 78.96624755859375 78.96624755859375 C 83.05401611328125 74.87847900390625 86.26304626464844 70.11915588378906 88.50419616699219 64.82049560546875 C 90.82384490966797 59.33623123168945 92 53.50878524780273 92 47.5 C 92 41.49121475219727 90.82384490966797 35.66376876831055 88.50419616699219 30.17950439453125 C 86.26304626464844 24.88084411621094 83.05401611328125 20.12152099609375 78.96624755859375 16.03375244140625 C 74.87847900390625 11.94598388671875 70.11915588378906 8.736953735351562 64.82049560546875 6.495796203613281 C 59.33623123168945 4.176155090332031 53.50878524780273 3 47.5 3 M 47.5 0 C 73.7335205078125 0 95 21.2664794921875 95 47.5 C 95 73.7335205078125 73.7335205078125 95 47.5 95 C 21.2664794921875 95 0 73.7335205078125 0 47.5 C 0 21.2664794921875 21.2664794921875 0 47.5 0 Z" stroke="none" fill="#f5b104"/>
                            </g>
                          </g>
                        </g>
                      </g>
                    </g>
                  </g>
                </g>
              </g>
            </g>
          </g>
        </g>
      </g>
    </g>
    <g id="plan" transform="translate(350.491 1499.516)">
      <g id="Grupo_1237627" data-name="Grupo 1237627" transform="translate(0.85 14.045)">
        <path id="Trazado_1238466" data-name="Trazado 1238466" d="M26.448,96.321h49.3a.639.639,0,0,0,.636-.634V59.939H25.812V95.687a.641.641,0,0,0,.636.634Z" transform="translate(-23.737 -55.492)" fill="#99e6fc" fill-rule="evenodd"/>
        <path id="Trazado_1238467" data-name="Trazado 1238467" d="M25.812,66.4H71.494c2.008,0,1.751.8,1.751,2.736V98.284h2.5a.639.639,0,0,0,.636-.634v-35.5H25.812Z" transform="translate(-23.737 -57.455)" fill="#62dbfb" fill-rule="evenodd"/>
        <path id="Trazado_1238468" data-name="Trazado 1238468" d="M9.575,26.526H61.286a.94.94,0,0,0,.938-.936v-3.96a.94.94,0,0,0-.938-.936H8.438a.938.938,0,0,0-.938.936v3.96a.938.938,0,0,0,.938.936Z" transform="translate(-7.5 -20.695)" fill="#d77f4a" fill-rule="evenodd"/>
        <path id="Trazado_1238469" data-name="Trazado 1238469" d="M414.729,21.631v3.96a.94.94,0,0,1-.938.936h7.748a.94.94,0,0,0,.938-.936v-3.96a.94.94,0,0,0-.938-.936h-7.748A.938.938,0,0,1,414.729,21.631Z" transform="translate(-367.752 -20.695)" fill="#c86d36" fill-rule="evenodd"/>
        <path id="Trazado_1238470" data-name="Trazado 1238470" d="M376.234,137.662a2.517,2.517,0,1,1,2.521-2.515A2.519,2.519,0,0,1,376.234,137.662Z" transform="translate(-332.212 -119.945)" fill="#fd4755" fill-rule="evenodd"/>
        <path id="Trazado_1238471" data-name="Trazado 1238471" d="M74.483,143.309c0,4.373,3.154,4.9,3.154,8.964H84.28c0-4.066,3.161-4.591,3.158-8.964a6.477,6.477,0,1,0-12.954,0Z" transform="translate(-66.893 -123.631)" fill="#ffd15b" fill-rule="evenodd"/>
        <path id="Trazado_1238472" data-name="Trazado 1238472" d="M105.641,273.459H102.32v2.432a2.444,2.444,0,0,0,2.438,2.432h1.77a2.441,2.441,0,0,0,2.435-2.432v-2.432Z" transform="translate(-91.576 -244.817)" fill="#004281" fill-rule="evenodd"/>
        <path id="Trazado_1238473" data-name="Trazado 1238473" d="M124.627,143.309c.006,4.373-3.154,4.9-3.154,8.964h2.746c0-4.066,3.161-4.591,3.158-8.964a6.249,6.249,0,0,0-6.479-6.523,7.031,7.031,0,0,0-1.372.135A6.159,6.159,0,0,1,124.627,143.309Z" transform="translate(-106.832 -123.631)" fill="#ffc344" fill-rule="evenodd"/>
        <path id="Trazado_1238474" data-name="Trazado 1238474" d="M124.219,273.459h-2.746v2.432a2.44,2.44,0,0,1-1.947,2.38,2.448,2.448,0,0,0,.488.051h1.77a2.441,2.441,0,0,0,2.435-2.432v-2.432Z" transform="translate(-106.832 -244.817)" fill="#00366d" fill-rule="evenodd"/>
        <path id="Trazado_1238475" data-name="Trazado 1238475" d="M350.6,288.879a8.009,8.009,0,0,0-2.126-.881v-.865a.757.757,0,0,0-.755-.753h-2.518a.754.754,0,0,0-.752.753V288a7.987,7.987,0,0,0-2.13.881l-.613-.615a.76.76,0,0,0-1.066,0l-1.78,1.775a.749.749,0,0,0,0,1.064l.613.615a8.134,8.134,0,0,0-.883,2.121h-.867a.757.757,0,0,0-.755.753V297.1a.754.754,0,0,0,.755.75h.867a8.158,8.158,0,0,0,.883,2.124l-.613.612a.749.749,0,0,0,0,1.064l1.78,1.775a.759.759,0,0,0,1.066,0l.613-.612a8.087,8.087,0,0,0,2.13.878v.868a.752.752,0,0,0,.752.75h2.518a.754.754,0,0,0,.755-.75v-.868a8.108,8.108,0,0,0,2.126-.878l.614.612a.759.759,0,0,0,1.066,0l1.78-1.775a.749.749,0,0,0,0-1.064l-.613-.612a8.091,8.091,0,0,0,.883-2.124h.867a.754.754,0,0,0,.755-.75v-2.512a.757.757,0,0,0-.755-.753h-.867a8.03,8.03,0,0,0-.883-2.121l.613-.615a.749.749,0,0,0,0-1.064l-1.78-1.775a.759.759,0,0,0-1.066,0Z" transform="translate(-299.639 -256.274)" fill="#3c87d0" fill-rule="evenodd"/>
        <path id="Trazado_1238476" data-name="Trazado 1238476" d="M388.364,341.3a3.668,3.668,0,1,0,3.668-3.659A3.664,3.664,0,0,0,388.364,341.3Z" transform="translate(-345.207 -301.725)" fill="#f2fbff" fill-rule="evenodd"/>
        <path id="Trazado_1238477" data-name="Trazado 1238477" d="M411.773,341.112a3.66,3.66,0,0,1-2.942,3.585,3.66,3.66,0,1,0,1.349-7.058,3.837,3.837,0,0,0-.723.07A3.664,3.664,0,0,1,411.773,341.112Z" transform="translate(-363.355 -301.725)" fill="#dff6fd" fill-rule="evenodd"/>
        <path id="Trazado_1238478" data-name="Trazado 1238478" d="M443.555,301.2a11.77,11.77,0,0,1,0,15.356,8.123,8.123,0,0,0,1.555-.708l.614.612a.759.759,0,0,0,1.066,0l1.779-1.775a.749.749,0,0,0,0-1.064l-.614-.612a8.091,8.091,0,0,0,.883-2.124h.867a.754.754,0,0,0,.755-.75v-2.512a.757.757,0,0,0-.755-.753h-.867a8.028,8.028,0,0,0-.883-2.121l.614-.615a.749.749,0,0,0,0-1.064l-1.779-1.775a.759.759,0,0,0-1.066,0l-.614.615A8.134,8.134,0,0,0,443.555,301.2Z" transform="translate(-394.144 -269.303)" fill="#4f66d0" fill-rule="evenodd"/>
      </g>
      <g id="Grupo_1237628" data-name="Grupo 1237628" transform="translate(0 13.195)">
        <path id="Trazado_1238479" data-name="Trazado 1238479" d="M206.688,136.119a.85.85,0,0,0-1.2,0l-1.5,1.5a1.392,1.392,0,0,0,0,1.963l1.5,1.5a.85.85,0,0,0,1.2-1.2l-.427-.426h17.869a2.1,2.1,0,0,0,2.1-2.1v-5.6a3.374,3.374,0,1,0-1.7,0v5.6a.407.407,0,0,1-.4.4H206.256l.43-.429A.85.85,0,0,0,206.688,136.119Zm17.018-7.62a1.673,1.673,0,1,1,1.675,1.665A1.673,1.673,0,0,1,223.706,128.5Z" transform="translate(-180.51 -112.446)"/>
        <path id="Trazado_1238480" data-name="Trazado 1238480" d="M247.262,280.57a.85.85,0,0,0-1.2,0l-.868.866-.868-.866a.85.85,0,0,0-1.2,1.2l.865.862-.865.862a.85.85,0,0,0,1.2,1.2l.868-.866.868.866a.85.85,0,1,0,1.2-1.2l-.865-.862.865-.862A.85.85,0,0,0,247.262,280.57Z" transform="translate(-215.353 -250.051)"/>
        <path id="Trazado_1238481" data-name="Trazado 1238481" d="M73.424,151.335h1.77a3.287,3.287,0,0,0,3.285-3.282v-2.432a6.214,6.214,0,0,1,1.394-3.83,8.372,8.372,0,0,0,1.764-5.136,7.186,7.186,0,0,0-2.311-5.524,7.734,7.734,0,0,0-10.034,0,7.187,7.187,0,0,0-2.31,5.524,8.376,8.376,0,0,0,1.762,5.135,6.218,6.218,0,0,1,1.392,3.83v2.432A3.289,3.289,0,0,0,73.424,151.335Zm3.355-3.282a1.585,1.585,0,0,1-1.585,1.582h-1.77a1.587,1.587,0,0,1-1.588-1.582v-1.582h4.943Zm-8.1-11.395a5.627,5.627,0,1,1,11.254,0,6.76,6.76,0,0,1-1.479,4.191,8.266,8.266,0,0,0-1.633,3.922H75.157v-6.1h.583a.85.85,0,0,0,0-1.7H72.878a.85.85,0,0,0,0,1.7h.579v6.1H71.79a8.271,8.271,0,0,0-1.631-3.922A6.764,6.764,0,0,1,68.682,136.659Z" transform="translate(-59.392 -116.13)"/>
        <path id="Trazado_1238482" data-name="Trazado 1238482" d="M283.118,171.184a.85.85,0,0,0,1.2,0l.868-.865.868.865a.85.85,0,0,0,1.2-1.2l-.865-.862.865-.862a.85.85,0,1,0-1.2-1.2l-.868.865-.868-.865a.85.85,0,1,0-1.2,1.2l.865.862-.865.862A.85.85,0,0,0,283.118,171.184Z" transform="translate(-250.817 -149.399)"/>
        <path id="Trazado_1238483" data-name="Trazado 1238483" d="M56.412,50.759h-.233a8.887,8.887,0,0,0-.467-1.12l.16-.161a1.6,1.6,0,0,0,0-2.27l-1.53-1.526V20.726h.29a1.789,1.789,0,0,0,1.788-1.785V14.98a1.789,1.789,0,0,0-1.788-1.785H1.788A1.789,1.789,0,0,0,0,14.98v3.96a1.789,1.789,0,0,0,1.788,1.785h.287V36.881a.85.85,0,1,0,1.7,0V20.726H26.052a.85.85,0,0,0,0-1.7H1.788A.088.088,0,0,1,1.7,18.94V14.98a.088.088,0,0,1,.088-.086H54.636a.09.09,0,0,1,.088.086v3.96a.09.09,0,0,1-.088.086H29.974a.85.85,0,1,0,0,1.7H52.646V45a1.613,1.613,0,0,0-.818.435l-.164.165a8.859,8.859,0,0,0-1.124-.465V44.9a1.606,1.606,0,0,0-1.6-1.6H46.416a1.6,1.6,0,0,0-1.6,1.6v.229a8.862,8.862,0,0,0-1.127.466l-.169-.17a1.612,1.612,0,0,0-2.263,0l-1.779,1.775a1.6,1.6,0,0,0,0,2.266l.166.166a8.989,8.989,0,0,0-.466,1.12h-.235a1.606,1.606,0,0,0-1.6,1.6v1.662H3.775V40.8a.85.85,0,1,0-1.7,0V54.239a1.487,1.487,0,0,0,1.486,1.484h23.8V61.6a3.374,3.374,0,1,0,1.7,0V55.724h8.521a1.6,1.6,0,0,0,1.357.75h.235a9.054,9.054,0,0,0,.466,1.121l-.161.16a1.6,1.6,0,0,0,0,2.27l1.78,1.775a1.613,1.613,0,0,0,2.267,0l.166-.165a8.957,8.957,0,0,0,1.128.465v.233a1.6,1.6,0,0,0,1.6,1.6h2.518a1.6,1.6,0,0,0,1.6-1.6V62.1a8.96,8.96,0,0,0,1.124-.464l.169.168a1.612,1.612,0,0,0,2.263,0l1.779-1.775a1.6,1.6,0,0,0,0-2.267l-.164-.163a8.961,8.961,0,0,0,.467-1.121h.233a1.6,1.6,0,0,0,1.6-1.6V52.362a1.606,1.606,0,0,0-1.605-1.6Zm-26.527,14.1a1.673,1.673,0,1,1-1.675-1.668A1.672,1.672,0,0,1,29.885,64.857ZM56.317,54.773h-.772a.85.85,0,0,0-.824.64,7.253,7.253,0,0,1-.791,1.9.85.85,0,0,0,.131,1.035l.543.542-1.642,1.638-.547-.545a.85.85,0,0,0-1.033-.13,7.253,7.253,0,0,1-1.9.786.85.85,0,0,0-.64.824v.768H46.515v-.768a.85.85,0,0,0-.641-.824,7.235,7.235,0,0,1-1.906-.786.85.85,0,0,0-1.033.13l-.547.545-1.642-1.638.543-.542a.85.85,0,0,0,.131-1.034,7.369,7.369,0,0,1-.792-1.9.85.85,0,0,0-.823-.637h-.772V52.459h.772a.85.85,0,0,0,.823-.637,7.3,7.3,0,0,1,.791-1.9.85.85,0,0,0-.129-1.035l-.545-.546L42.388,46.7l.545.547a.85.85,0,0,0,1.037.13,7.137,7.137,0,0,1,1.9-.787.85.85,0,0,0,.641-.824V45h2.325v.768a.85.85,0,0,0,.64.824,7.158,7.158,0,0,1,1.9.787.85.85,0,0,0,1.037-.13l.545-.547L54.6,48.341l-.545.546a.85.85,0,0,0-.129,1.035,7.184,7.184,0,0,1,.79,1.9.85.85,0,0,0,.824.64h.772Z" transform="translate(0 -13.195)"/>
        <path id="Trazado_1238484" data-name="Trazado 1238484" d="M385.382,330.139a4.507,4.507,0,1,0,4.518,4.508A4.518,4.518,0,0,0,385.382,330.139Zm0,7.314a2.807,2.807,0,1,1,2.818-2.806A2.815,2.815,0,0,1,385.382,337.453Z" transform="translate(-337.707 -294.225)"/>
      </g>
    </g>
  </g>
</svg>
