<svg xmlns="http://www.w3.org/2000/svg" xmlns:xlink="http://www.w3.org/1999/xlink" width="113" height="113" viewBox="0 0 113 113">
  <defs>
    <filter id="Trazado_982547" x="0" y="0" width="113" height="113" filterUnits="userSpaceOnUse">
      <feOffset dy="3" input="SourceAlpha"/>
      <feGaussianBlur stdDeviation="3" result="blur"/>
      <feFlood flood-opacity="0.161"/>
      <feComposite operator="in" in2="blur"/>
      <feComposite in="SourceGraphic"/>
    </filter>
  </defs>
  <g id="Grupo_1237633" data-name="Grupo 1237633" transform="translate(-743.5 -1483.611)">
    <g id="Grupo_1236928" data-name="Grupo 1236928" transform="translate(0 166.899)">
      <g id="Grupo_1223811" data-name="Grupo 1223811" transform="translate(0 -108)">
        <g id="Grupo_1211532" data-name="Grupo 1211532" transform="translate(418.729 -678)">
          <g id="Grupo_1210969" data-name="Grupo 1210969" transform="translate(333.771 2108.712)">
            <g id="Grupo_1210937" data-name="Grupo 1210937" transform="translate(0 0)">
              <g id="Grupo_1174742" data-name="Grupo 1174742">
                <g id="Grupo_1163948" data-name="Grupo 1163948">
                  <g id="Grupo_1158168" data-name="Grupo 1158168" transform="translate(0)">
                    <g id="Grupo_1152576" data-name="Grupo 1152576">
                      <g id="Grupo_1148633" data-name="Grupo 1148633">
                        <g id="Grupo_1148525" data-name="Grupo 1148525">
                          <g transform="matrix(1, 0, 0, 1, -9, -6)" filter="url(#Trazado_982547)">
                            <g id="Trazado_982547-2" data-name="Trazado 982547" transform="translate(9 6)" fill="#fbe7b2">
                              <path d="M 47.5 93.5 C 41.28937149047852 93.5 35.26533508300781 92.28397369384766 29.59518623352051 89.88570404052734 C 24.11771965026855 87.56893157958984 19.19813346862793 84.25196075439453 14.97309303283691 80.02691650390625 C 10.74804019927979 75.80186462402344 7.431066513061523 70.88229370117188 5.114293098449707 65.40481567382812 C 2.716026782989502 59.73468017578125 1.5 53.71062850952148 1.5 47.5 C 1.5 41.28937149047852 2.716026782989502 35.26533508300781 5.114293098449707 29.59518623352051 C 7.431066513061523 24.11771965026855 10.74804019927979 19.19813346862793 14.97309303283691 14.97309303283691 C 19.19813346862793 10.74804019927979 24.11771965026855 7.431066513061523 29.59518623352051 5.114293098449707 C 35.26533508300781 2.716026782989502 41.28937149047852 1.5 47.5 1.5 C 53.71062850952148 1.5 59.73468017578125 2.716026782989502 65.40481567382812 5.114293098449707 C 70.88229370117188 7.431066513061523 75.80186462402344 10.74804019927979 80.02691650390625 14.97309303283691 C 84.25196075439453 19.19813346862793 87.56893157958984 24.11771965026855 89.88570404052734 29.59518623352051 C 92.28397369384766 35.26533508300781 93.5 41.28937149047852 93.5 47.5 C 93.5 53.71062850952148 92.28397369384766 59.73468017578125 89.88570404052734 65.40481567382812 C 87.56893157958984 70.88229370117188 84.25196075439453 75.80186462402344 80.02691650390625 80.02691650390625 C 75.80186462402344 84.25196075439453 70.88229370117188 87.56893157958984 65.40481567382812 89.88570404052734 C 59.73468017578125 92.28397369384766 53.71062850952148 93.5 47.5 93.5 Z" stroke="none"/>
                              <path d="M 47.5 3 C 41.49121475219727 3 35.66376876831055 4.176155090332031 30.17950439453125 6.495796203613281 C 24.88084411621094 8.736953735351562 20.12152099609375 11.94598388671875 16.03375244140625 16.03375244140625 C 11.94598388671875 20.12152099609375 8.736953735351562 24.88084411621094 6.495796203613281 30.17950439453125 C 4.176155090332031 35.66376876831055 3 41.49121475219727 3 47.5 C 3 53.50878524780273 4.176155090332031 59.33623123168945 6.495796203613281 64.82049560546875 C 8.736953735351562 70.11915588378906 11.94598388671875 74.87847900390625 16.03375244140625 78.96624755859375 C 20.12152099609375 83.05401611328125 24.88084411621094 86.26304626464844 30.17950439453125 88.50419616699219 C 35.66376876831055 90.82384490966797 41.49121475219727 92 47.5 92 C 53.50878524780273 92 59.33623123168945 90.82384490966797 64.82049560546875 88.50419616699219 C 70.11915588378906 86.26304626464844 74.87847900390625 83.05401611328125 78.96624755859375 78.96624755859375 C 83.05401611328125 74.87847900390625 86.26304626464844 70.11915588378906 88.50419616699219 64.82049560546875 C 90.82384490966797 59.33623123168945 92 53.50878524780273 92 47.5 C 92 41.49121475219727 90.82384490966797 35.66376876831055 88.50419616699219 30.17950439453125 C 86.26304626464844 24.88084411621094 83.05401611328125 20.12152099609375 78.96624755859375 16.03375244140625 C 74.87847900390625 11.94598388671875 70.11915588378906 8.736953735351562 64.82049560546875 6.495796203613281 C 59.33623123168945 4.176155090332031 53.50878524780273 3 47.5 3 M 47.5 0 C 73.7335205078125 0 95 21.2664794921875 95 47.5 C 95 73.7335205078125 73.7335205078125 95 47.5 95 C 21.2664794921875 95 0 73.7335205078125 0 47.5 C 0 21.2664794921875 21.2664794921875 0 47.5 0 Z" stroke="none" fill="#f5b104"/>
                            </g>
                          </g>
                        </g>
                      </g>
                    </g>
                  </g>
                </g>
              </g>
            </g>
          </g>
        </g>
      </g>
    </g>
    <g id="algoritmo" transform="translate(762.381 1499.492)">
      <path id="Trazado_1238485" data-name="Trazado 1238485" d="M98.866,104h36.307a2.866,2.866,0,0,1,2.866,2.866v35.352H96V106.866A2.866,2.866,0,0,1,98.866,104Z" transform="translate(-77.49 -84.535)" fill="#83d8f4"/>
      <g id="Grupo_1237631" data-name="Grupo 1237631" transform="translate(8.955 8.955)">
        <path id="Trazado_1238486" data-name="Trazado 1238486" d="M202.195,87.208A7.649,7.649,0,0,1,192,80h7.644Z" transform="translate(-170.98 -72.356)" fill="#ab2300"/>
        <circle id="Elipse_12810" data-name="Elipse 12810" cx="7.722" cy="7.722" r="7.722" transform="translate(20.847 41.742)" fill="#ff9811"/>
        <path id="Trazado_1238487" data-name="Trazado 1238487" d="M207.287,23.644a7.647,7.647,0,0,1-5.093,7.208l-2.551-7.208H192a7.644,7.644,0,1,1,15.287,0Z" transform="translate(-170.98 -16)" fill="#ffda44"/>
        <path id="Trazado_1238488" data-name="Trazado 1238488" d="M16,16h6.688v3.822H16Z" transform="translate(-16 -16)" fill="#ab2300"/>
        <path id="Trazado_1238489" data-name="Trazado 1238489" d="M0,0H6.688V3.822H0Z" transform="translate(57.327 57.327) rotate(180)" fill="#ab2300"/>
        <path id="Trazado_1238490" data-name="Trazado 1238490" d="M24,176H43.109v19.109H24Z" transform="translate(-23.045 -156.891)" fill="#ffeb99"/>
        <g id="Grupo_1237630" data-name="Grupo 1237630" transform="translate(3.822 21.975)">
          <path id="Trazado_1238491" data-name="Trazado 1238491" d="M48,200H61.376v4.777H48Z" transform="translate(-48 -200)" fill="#ff9811"/>
          <path id="Trazado_1238492" data-name="Trazado 1238492" d="M0,0H8.107V8.107H0Z" transform="translate(42.032 6.691) rotate(-45)" fill="#ff9811"/>
        </g>
      </g>
      <g id="Grupo_1237632" data-name="Grupo 1237632" transform="translate(8 8)">
        <path id="Trazado_1238493" data-name="Trazado 1238493" d="M192.6,8a8.6,8.6,0,1,0,8.6,8.6A8.6,8.6,0,0,0,192.6,8Zm0,1.911a6.653,6.653,0,0,1,4,1.334l-4.4,4.4H185.98A6.7,6.7,0,0,1,192.6,9.911Zm0,13.376a6.7,6.7,0,0,1-6.619-5.733h5.944l1.983,5.6A6.736,6.736,0,0,1,192.6,23.287Zm3.109-.769L193.7,16.849l4.252-4.253a6.68,6.68,0,0,1-2.245,9.922Z" transform="translate(-162.98 -8)"/>
        <path id="Trazado_1238494" data-name="Trazado 1238494" d="M192.6,360a8.6,8.6,0,1,0,8.6,8.6A8.6,8.6,0,0,0,192.6,360Zm0,15.287a6.688,6.688,0,1,1,6.688-6.688,6.688,6.688,0,0,1-6.688,6.688Z" transform="translate(-162.98 -317.96)"/>
        <path id="Trazado_1238495" data-name="Trazado 1238495" d="M27.109,13.733H25.593L22.052,10.19a.956.956,0,0,0-.676-.279H16.6V8.955A.955.955,0,0,0,15.644,8H8.955A.955.955,0,0,0,8,8.955v3.822a.955.955,0,0,0,.955.955h6.688a.955.955,0,0,0,.955-.955v-.955h4.382l3.541,3.542a.956.956,0,0,0,.676.279h1.911a.955.955,0,0,0,0-1.911ZM14.688,11.822H9.911V9.911h4.777Z" transform="translate(-8 -8)"/>
        <path id="Trazado_1238496" data-name="Trazado 1238496" d="M355.109,441.911h-6.688a.955.955,0,0,0-.955.955v.955h-4.382l-3.542-3.542a.956.956,0,0,0-.676-.28h-1.911a.955.955,0,1,0,0,1.911h1.515l3.542,3.542a.955.955,0,0,0,.676.28h4.777v.955a.955.955,0,0,0,.955.955h6.688a.955.955,0,0,0,.955-.955v-3.822A.955.955,0,0,0,355.109,441.911Zm-.955,3.822h-4.777v-1.911h4.777Z" transform="translate(-296.827 -388.406)"/>
        <path id="Trazado_1238497" data-name="Trazado 1238497" d="M37.02,188.064V168.955a.955.955,0,0,0-.955-.955H16.955a.955.955,0,0,0-.955.955v19.109a.955.955,0,0,0,.955.955H36.064A.955.955,0,0,0,37.02,188.064Zm-1.911-.955h-17.2v-17.2h17.2Z" transform="translate(-15.045 -148.891)"/>
        <path id="Trazado_1238498" data-name="Trazado 1238498" d="M40.955,198.688H54.332a.955.955,0,0,0,.955-.955v-4.777a.955.955,0,0,0-.955-.955H40.955a.955.955,0,0,0-.955.955v4.777A.955.955,0,0,0,40.955,198.688Zm.955-4.777H53.376v2.866H41.911Z" transform="translate(-36.178 -170.025)"/>
        <path id="Trazado_1238499" data-name="Trazado 1238499" d="M40.955,257.911H54.332a.955.955,0,0,0,0-1.911H40.955a.955.955,0,0,0,0,1.911Z" transform="translate(-36.178 -226.381)"/>
        <path id="Trazado_1238500" data-name="Trazado 1238500" d="M40.955,281.911H54.332a.955.955,0,1,0,0-1.911H40.955a.955.955,0,1,0,0,1.911Z" transform="translate(-36.178 -247.515)"/>
        <path id="Trazado_1238501" data-name="Trazado 1238501" d="M40.955,305.911h6.688a.955.955,0,0,0,0-1.911H40.955a.955.955,0,0,0,0,1.911Z" transform="translate(-36.178 -268.648)"/>
        <path id="Trazado_1238502" data-name="Trazado 1238502" d="M121.911,304h-.955a.955.955,0,0,0,0,1.911h.955a.955.955,0,0,0,0-1.911Z" transform="translate(-106.624 -268.648)"/>
        <path id="Trazado_1238503" data-name="Trazado 1238503" d="M97.554,96H91.822A3.826,3.826,0,0,0,88,99.822v2.866a.955.955,0,0,0,1.911,0V99.822a1.913,1.913,0,0,1,1.911-1.911h5.733a.955.955,0,0,0,0-1.911Z" transform="translate(-78.446 -85.49)"/>
        <path id="Trazado_1238504" data-name="Trazado 1238504" d="M97.554,357.733H91.822a1.913,1.913,0,0,1-1.911-1.911v-2.866a.955.955,0,1,0-1.911,0v2.866a3.826,3.826,0,0,0,3.822,3.822h5.733a.955.955,0,0,0,0-1.911Z" transform="translate(-78.446 -310.916)"/>
        <path id="Trazado_1238505" data-name="Trazado 1238505" d="M336.955,97.911h9.554a1.913,1.913,0,0,1,1.911,1.911v9.159l-5.453,5.453a.955.955,0,0,0,0,1.351l5.733,5.733a.955.955,0,0,0,1.351,0l5.733-5.733a.955.955,0,0,0,0-1.351l-5.453-5.453V99.822A3.826,3.826,0,0,0,346.51,96h-9.554a.955.955,0,1,0,0,1.911Zm12.421,21.58-4.382-4.382,4.382-4.382,4.382,4.382Z" transform="translate(-296.827 -85.49)"/>
        <path id="Trazado_1238506" data-name="Trazado 1238506" d="M361.911,249.911a.955.955,0,0,0,0-1.911h-.955a.955.955,0,1,0,0,1.911Z" transform="translate(-317.96 -219.337)"/>
        <path id="Trazado_1238507" data-name="Trazado 1238507" d="M329.911,249.911a.955.955,0,0,0,0-1.911h-.955a.955.955,0,1,0,0,1.911Z" transform="translate(-289.782 -219.337)"/>
        <path id="Trazado_1238508" data-name="Trazado 1238508" d="M296.956,248a.955.955,0,1,0,0,1.911h.955a.955.955,0,0,0,0-1.911Z" transform="translate(-261.604 -219.337)"/>
        <path id="Trazado_1238509" data-name="Trazado 1238509" d="M264.955,248a.955.955,0,0,0,0,1.911h.955a.955.955,0,1,0,0-1.911Z" transform="translate(-233.426 -219.337)"/>
        <path id="Trazado_1238510" data-name="Trazado 1238510" d="M232.955,248a.955.955,0,1,0,0,1.911h.955a.955.955,0,1,0,0-1.911Z" transform="translate(-205.247 -219.337)"/>
        <path id="Trazado_1238511" data-name="Trazado 1238511" d="M200.955,248a.955.955,0,1,0,0,1.911h.955a.955.955,0,1,0,0-1.911Z" transform="translate(-177.069 -219.337)"/>
        <path id="Trazado_1238512" data-name="Trazado 1238512" d="M55.287,424H40.955a.955.955,0,1,0,0,1.911H55.287a.955.955,0,1,0,0-1.911Z" transform="translate(-36.178 -374.317)"/>
        <path id="Trazado_1238513" data-name="Trazado 1238513" d="M336,416.955a.955.955,0,0,0,.955.955h8.6a.955.955,0,0,0,0-1.911h-8.6A.955.955,0,0,0,336,416.955Z" transform="translate(-296.827 -367.272)"/>
        <path id="Trazado_1238514" data-name="Trazado 1238514" d="M132.777,448h-3.822a.955.955,0,1,0,0,1.911h3.822a.955.955,0,1,0,0-1.911Z" transform="translate(-113.668 -395.45)"/>
        <path id="Trazado_1238515" data-name="Trazado 1238515" d="M336.955,49.911h15.287a.955.955,0,1,0,0-1.911H336.955a.955.955,0,1,0,0,1.911Z" transform="translate(-296.827 -43.223)"/>
        <path id="Trazado_1238516" data-name="Trazado 1238516" d="M336.955,73.911h1.911a.955.955,0,0,0,0-1.911h-1.911a.955.955,0,1,0,0,1.911Z" transform="translate(-296.827 -64.356)"/>
        <path id="Trazado_1238517" data-name="Trazado 1238517" d="M441.911,320.955a.955.955,0,1,0-1.911,0v.955a.955.955,0,1,0,1.911,0Z" transform="translate(-388.406 -282.738)"/>
        <path id="Trazado_1238518" data-name="Trazado 1238518" d="M441.911,352.955a.955.955,0,1,0-1.911,0v.955a.955.955,0,0,0,1.911,0Z" transform="translate(-388.406 -310.916)"/>
        <path id="Trazado_1238519" data-name="Trazado 1238519" d="M441.911,384.955a.955.955,0,0,0-1.911,0v.955a.955.955,0,1,0,1.911,0Z" transform="translate(-388.406 -339.094)"/>
        <path id="Trazado_1238520" data-name="Trazado 1238520" d="M440.955,416a.955.955,0,0,0-.955.955v.955a.955.955,0,1,0,1.911,0v-.955A.955.955,0,0,0,440.955,416Z" transform="translate(-388.406 -367.272)"/>
      </g>
    </g>
  </g>
</svg>
