<svg xmlns="http://www.w3.org/2000/svg" xmlns:xlink="http://www.w3.org/1999/xlink" width="102.884" height="102.884" viewBox="0 0 102.884 102.884">
  <defs>
    <filter id="Trazado_904820" x="0" y="0" width="102.884" height="102.884" filterUnits="userSpaceOnUse">
      <feOffset dy="3" input="SourceAlpha"/>
      <feGaussianBlur stdDeviation="3" result="blur"/>
      <feFlood flood-opacity="0.161"/>
      <feComposite operator="in" in2="blur"/>
      <feComposite in="SourceGraphic"/>
    </filter>
  </defs>
  <g id="Grupo_1238881" data-name="Grupo 1238881" transform="translate(-197 -4992.038)">
    <g id="Grupo_1237550" data-name="Grupo 1237550" transform="translate(206 4998.038)">
      <g id="Grupo_1226551" data-name="Grupo 1226551">
        <g id="Grupo_1225716" data-name="Grupo 1225716" transform="translate(0 0)">
          <g id="Grupo_1211534" data-name="Grupo 1211534">
            <g id="Grupo_1173585" data-name="Grupo 1173585">
              <g id="Grupo_1173428" data-name="Grupo 1173428">
                <g id="Grupo_1171958" data-name="Grupo 1171958">
                  <g id="Grupo_1167341" data-name="Grupo 1167341">
                    <g id="Grupo_1166792" data-name="Grupo 1166792">
                      <g transform="matrix(1, 0, 0, 1, -9, -6)" filter="url(#Trazado_904820)">
                        <g id="Trazado_904820-2" data-name="Trazado 904820" transform="translate(9 6)" fill="#ebfefd">
                          <path d="M 42.4418830871582 83.38380432128906 C 36.91410827636719 83.38380432128906 31.55247116088867 82.30150604248047 26.50591850280762 80.16700744628906 C 21.63076591491699 78.10498046875 17.25211906433105 75.1527099609375 13.49160099029541 71.39218902587891 C 9.731082916259766 67.63167572021484 6.778812408447266 63.25302886962891 4.716800689697266 58.37787628173828 C 2.582283020019531 53.33132171630859 1.500000715255737 47.96968460083008 1.500000715255737 42.44190979003906 C 1.500000715255737 36.91413497924805 2.582283020019531 31.55249786376953 4.716800689697266 26.50594520568848 C 6.778812408447266 21.63079261779785 9.731082916259766 17.25214576721191 13.49160099029541 13.49162769317627 C 17.25211906433105 9.731109619140625 21.63076591491699 6.778839111328125 26.50591850280762 4.71681547164917 C 31.55247116088867 2.582309722900391 36.91410827636719 1.500015616416931 42.4418830871582 1.500015616416931 C 47.96965789794922 1.500015616416931 53.33129501342773 2.582309722900391 58.37786102294922 4.71681547164917 C 63.25300216674805 6.778839111328125 67.63164520263672 9.731109619140625 71.39216613769531 13.49162769317627 C 75.15267944335938 17.25214576721191 78.10494995117188 21.63079261779785 80.16696166992188 26.50594520568848 C 82.30148315429688 31.55249786376953 83.38376617431641 36.91413497924805 83.38376617431641 42.44190979003906 C 83.38376617431641 47.96968460083008 82.30148315429688 53.33132171630859 80.16696166992188 58.37787628173828 C 78.10494995117188 63.25302886962891 75.15267944335938 67.63167572021484 71.39216613769531 71.39218902587891 C 67.63164520263672 75.1527099609375 63.25300216674805 78.10498046875 58.37786102294922 80.16700744628906 C 53.33129501342773 82.30150604248047 47.96965789794922 83.38380432128906 42.4418830871582 83.38380432128906 Z" stroke="none"/>
                          <path d="M 42.4418830871582 3.000015258789062 C 37.11593627929688 3.000015258789062 31.95090866088867 4.042442321777344 27.09024429321289 6.098320007324219 C 22.39389801025391 8.084724426269531 18.17550659179688 10.92904663085938 14.55226898193359 14.55228424072266 C 10.92901611328125 18.17552185058594 8.084693908691406 22.3939094543457 6.098312377929688 27.09027099609375 C 4.042427062988281 31.95093536376953 3 37.11596298217773 3 42.44190979003906 C 3 47.76785659790039 4.042427062988281 52.93288421630859 6.098312377929688 57.79354858398438 C 8.084693908691406 62.48991012573242 10.92901611328125 66.70829772949219 14.55226898193359 70.33153533935547 C 18.17550659179688 73.95477294921875 22.39389801025391 76.79909515380859 27.09024429321289 78.78549957275391 C 31.95090866088867 80.84137725830078 37.11593627929688 81.88380432128906 42.4418830871582 81.88380432128906 C 47.76782989501953 81.88380432128906 52.93285369873047 80.84137725830078 57.79352569580078 78.78549957275391 C 62.4898681640625 76.79909515380859 66.708251953125 73.95477294921875 70.33149719238281 70.33153533935547 C 73.95475006103516 66.70829772949219 76.799072265625 62.48991012573242 78.78545379638672 57.79354858398438 C 80.84133911132812 52.93288421630859 81.88376617431641 47.76785659790039 81.88376617431641 42.44190979003906 C 81.88376617431641 37.11596298217773 80.84133911132812 31.95093536376953 78.78545379638672 27.09027099609375 C 76.799072265625 22.3939094543457 73.95475006103516 18.17552185058594 70.33149719238281 14.55228424072266 C 66.708251953125 10.92904663085938 62.4898681640625 8.084724426269531 57.79352569580078 6.098320007324219 C 52.93285369873047 4.042442321777344 47.76782989501953 3.000015258789062 42.4418830871582 3.000015258789062 M 42.4418830871582 1.52587890625e-05 C 65.88188171386719 1.52587890625e-05 84.88376617431641 19.00190734863281 84.88376617431641 42.44190979003906 C 84.88376617431641 65.88191223144531 65.88188171386719 84.88380432128906 42.4418830871582 84.88380432128906 C 19.00188446044922 84.88380432128906 0 65.88191223144531 0 42.44190979003906 C 0 19.00190734863281 19.00188446044922 1.52587890625e-05 42.4418830871582 1.52587890625e-05 Z" stroke="none" fill="#268985"/>
                        </g>
                      </g>
                    </g>
                  </g>
                </g>
              </g>
            </g>
          </g>
        </g>
      </g>
    </g>
    <g id="Layer_x0020_1" transform="translate(223.355 5017.503)">
      <path id="Trazado_1240073" data-name="Trazado 1240073" d="M47.436,34.485H31.18v4.858h1.938a3.272,3.272,0,0,1,3.268,3.268V44.7H41.01a.588.588,0,0,1,0,1.176H9.163a.588.588,0,0,1,0-1.176h4.624V42.611a3.272,3.272,0,0,1,3.267-3.268h1.938V34.485H2.736A2.739,2.739,0,0,1,0,31.749V2.81A2.739,2.739,0,0,1,2.736.074h44.7A2.739,2.739,0,0,1,50.172,2.81V31.749a2.739,2.739,0,0,1-2.736,2.736Zm-9.712-3.92h3.188v2.77H37.724Zm-1.176,2.743V30.565H6.018a2.1,2.1,0,0,1-2.1-2.1V6.091a2.1,2.1,0,0,1,2.1-2.1H44.155a2.1,2.1,0,0,1,2.1,2.1V28.467a2.1,2.1,0,0,1-2.1,2.1H42.088v2.743h5.349A1.562,1.562,0,0,0,49,31.749V2.81a1.562,1.562,0,0,0-1.56-1.56H2.736a1.562,1.562,0,0,0-1.56,1.56V31.749a1.562,1.562,0,0,0,1.56,1.56H36.548ZM19.379,28.476H12.23a.588.588,0,0,1,0-1.176h7.149A.588.588,0,0,1,19.379,28.476Zm-9.421,0c-.791,0-1.788.182-1.788-.588s1-.588,1.788-.588A.588.588,0,0,1,9.958,28.476Zm9.42-1.954c-.791,0-1.788.182-1.788-.588s1-.588,1.788-.588A.588.588,0,0,1,19.379,26.522Zm-3.472,0H8.757a.588.588,0,0,1,0-1.176h7.149A.588.588,0,0,1,15.906,26.522Zm3.473-1.954H12.23a.588.588,0,0,1,0-1.176h7.149A.588.588,0,0,1,19.379,24.568Zm-9.421,0c-.791,0-1.788.182-1.788-.588s1-.588,1.788-.588A.588.588,0,0,1,9.958,24.568Zm31.456-9.246c-.791,0-1.788.182-1.788-.588s1-.588,1.788-.588a.588.588,0,0,1,0,1.176Zm-3.473,0H30.793a.588.588,0,0,1,0-1.176h7.149A.588.588,0,0,1,37.942,15.321Zm3.473-2.3H34.266a.588.588,0,0,1,0-1.176h7.149A.588.588,0,0,1,41.415,13.023Zm-9.421,0c-.791,0-1.788.182-1.788-.588s1-.588,1.788-.588a.588.588,0,0,1,0,1.176Zm9.421-2.3c-.791,0-1.788.182-1.788-.588s1-.588,1.788-.588a.588.588,0,0,1,0,1.176Zm-3.473,0H30.793a.588.588,0,0,1,0-1.176h7.149A.588.588,0,0,1,37.942,10.724Zm3.473-2.3H34.266a.588.588,0,0,1,0-1.176h7.149A.588.588,0,0,1,41.415,8.425Zm-9.421,0c-.791,0-1.788.182-1.788-.588s1-.588,1.788-.588a.588.588,0,0,1,0,1.176Zm7.846,16.964H34.811a.588.588,0,0,1,0-1.176h5.028A.588.588,0,0,1,39.839,25.389Zm-6.626,0c-.566,0-1.432.143-1.432-.588s.867-.588,1.432-.588a.588.588,0,0,1,0,1.176Zm6.552-2.048H32.442a.588.588,0,0,1-.588-.588V19.941a.588.588,0,0,1,.588-.588h7.323a.588.588,0,0,1,.588.588v2.813A.588.588,0,0,1,39.765,23.341Zm-6.735-1.176h6.147V20.528H33.031Zm8.542,5.519H30.635a1.059,1.059,0,0,1-1.058-1.058V23.477h-3.9v5.912H44.155a.923.923,0,0,0,.922-.922V6.092a.923.923,0,0,0-.922-.922H6.018a.923.923,0,0,0-.922.922V28.468a.923.923,0,0,0,.922.922H24.5V18.271h-3.9v3.15a1.059,1.059,0,0,1-1.058,1.058H8.6a1.059,1.059,0,0,1-1.057-1.058V13.253A1.059,1.059,0,0,1,8.6,12.2H19.537a1.059,1.059,0,0,1,1.058,1.058V17.1h3.9V13.089a7.9,7.9,0,0,1-1.49.639.589.589,0,0,1-.582-.665l.267-2L21.3,9.593a.589.589,0,0,1,.319-.984l1.989-.365.962-1.779a.589.589,0,0,1,1.035,0l.961,1.779,1.989.365a.589.589,0,0,1,.319.984l-1.394,1.465.267,2a.59.59,0,0,1-.837.608l-1.235-.592V22.3h3.9V18.458A1.059,1.059,0,0,1,30.635,17.4H41.573a1.059,1.059,0,0,1,1.058,1.057v8.168a1.059,1.059,0,0,1-1.058,1.057ZM30.754,26.508h10.7V18.577h-10.7ZM17.8,20.183c-.566,0-1.432.143-1.432-.588s.866-.588,1.432-.588a.588.588,0,0,1,0,1.176Zm-2.442,0H10.333a.588.588,0,0,1,0-1.176h5.028A.588.588,0,0,1,15.361,20.183Zm2.369-2.048H10.407a.588.588,0,0,1-.588-.588V14.735a.588.588,0,0,1,.588-.588H17.73a.588.588,0,0,1,.588.588v2.813A.588.588,0,0,1,17.73,18.135ZM10.995,16.96h6.147V15.323H10.995ZM8.718,21.3h10.7V13.371H8.718ZM22.9,9.569c1.219,1.281,1.069.818.835,2.571.567-.272.87-.446,1.1-.525a.656.656,0,0,1,.509,0c.228.079.531.253,1.1.523-.234-1.752-.384-1.29.835-2.571-1.739-.319-1.346-.034-2.186-1.589-.841,1.555-.448,1.269-2.187,1.589ZM30.6,40.52H17.054a2.094,2.094,0,0,0-2.092,2.091V44.7H35.21V42.611a2.094,2.094,0,0,0-2.091-2.091H30.6ZM20.168,39.343H30V34.486H20.168v4.858Z" transform="translate(0)" fill="#000002" fill-rule="evenodd"/>
      <path id="Trazado_1240074" data-name="Trazado 1240074" d="M.374,2.23H6.522V.593H.374Z" transform="translate(10.62 14.73)" fill="#95e29f" fill-rule="evenodd"/>
      <path id="Trazado_1240075" data-name="Trazado 1240075" d="M6.94,6.163a.588.588,0,0,1,0,1.176H1.912a.588.588,0,0,1,0-1.176Zm2.369-.872H1.985A.588.588,0,0,1,1.4,4.7V1.89A.588.588,0,0,1,1.985,1.3H9.309A.588.588,0,0,1,9.9,1.89V4.7A.588.588,0,0,1,9.309,5.291ZM.3,8.458H11V.527H.3ZM9.382,7.339c-.566,0-1.432.143-1.432-.588s.866-.588,1.432-.588a.588.588,0,0,1,0,1.176Z" transform="translate(8.421 12.844)" fill="#4bcd5c" fill-rule="evenodd"/>
      <path id="Trazado_1240076" data-name="Trazado 1240076" d="M1.614,4.5c.567-.272.87-.446,1.1-.525a.656.656,0,0,1,.509,0c.228.079.531.253,1.1.523-.234-1.752-.384-1.29.835-2.571C3.414,1.613,3.806,1.9,2.966.343,2.125,1.9,2.518,1.613.779,1.932,2,3.213,1.848,2.751,1.614,4.5Z" transform="translate(22.12 7.636)" fill="#79a8d5" fill-rule="evenodd"/>
      <path id="Trazado_1240077" data-name="Trazado 1240077" d="M7.27.77H1.124V2.407H7.27Z" transform="translate(31.907 19.758)" fill="#ffdf9b" fill-rule="evenodd"/>
      <path id="Trazado_1240078" data-name="Trazado 1240078" d="M10.058,1.479a.588.588,0,0,1,.588.588V4.88a.588.588,0,0,1-.588.588H2.734a.588.588,0,0,1-.588-.588V2.067a.588.588,0,0,1,.588-.588ZM1.046,8.635h10.7V.7H1.046ZM5.1,6.34h5.028a.588.588,0,0,1,0,1.176H5.1A.588.588,0,0,1,5.1,6.34Zm-1.6,0a.588.588,0,0,1,0,1.176c-.566,0-1.432.143-1.432-.588S2.94,6.34,3.505,6.34Z" transform="translate(29.708 17.873)" fill="#ffc143" fill-rule="evenodd"/>
      <path id="Trazado_1240079" data-name="Trazado 1240079" d="M36.651,12.479a1.059,1.059,0,0,1,1.058,1.057V21.7a1.059,1.059,0,0,1-1.058,1.057H25.713A1.059,1.059,0,0,1,24.655,21.7V18.555h-3.9v5.912h18.48a.923.923,0,0,0,.922-.922V1.17a.923.923,0,0,0-.922-.922H1.1a.923.923,0,0,0-.922.922V23.546a.923.923,0,0,0,.922.922h18.48V13.349h-3.9V16.5a1.059,1.059,0,0,1-1.058,1.058H3.677A1.059,1.059,0,0,1,2.62,16.5V8.331A1.059,1.059,0,0,1,3.677,7.274H14.615a1.059,1.059,0,0,1,1.058,1.058v3.842h3.9V8.167a7.9,7.9,0,0,1-1.49.639A.589.589,0,0,1,17.5,8.14l.267-2L16.376,4.671a.589.589,0,0,1,.319-.984l1.989-.365.962-1.779a.589.589,0,0,1,1.035,0l.961,1.779,1.989.365a.589.589,0,0,1,.319.984L22.557,6.135l.267,2a.59.59,0,0,1-.837.608l-1.235-.592v9.223h3.9V13.537a1.059,1.059,0,0,1,1.058-1.057H36.65Zm-29.343,9.9h7.149a.588.588,0,0,1,0,1.176H7.307a.588.588,0,0,1,0-1.176Zm7.149-3.908a.588.588,0,0,1,0,1.176H7.307a.588.588,0,0,1,0-1.176Zm-3.473,1.954a.588.588,0,0,1,0,1.176H3.835a.588.588,0,0,1,0-1.176ZM5.036,22.378a.588.588,0,0,1,0,1.176c-.791,0-1.788.182-1.788-.588S4.245,22.378,5.036,22.378Zm9.42-1.954a.588.588,0,0,1,0,1.176c-.791,0-1.788.182-1.788-.588S13.666,20.424,14.456,20.424ZM5.036,18.47a.588.588,0,0,1,0,1.176c-.791,0-1.788.182-1.788-.588s1-.588,1.788-.588ZM36.492,9.224a.588.588,0,0,1,0,1.176c-.791,0-1.788.182-1.788-.588s1-.588,1.788-.588Zm-3.473,0a.588.588,0,0,1,0,1.176H25.87a.588.588,0,0,1,0-1.176ZM36.493,8.1H29.343a.588.588,0,0,1,0-1.176h7.149A.588.588,0,0,1,36.493,8.1Zm-9.421,0c-.791,0-1.788.182-1.788-.588s1-.588,1.788-.588a.588.588,0,0,1,0,1.176Zm9.421-2.3c-.791,0-1.788.182-1.788-.588s1-.588,1.788-.588a.588.588,0,0,1,0,1.176Zm-3.473,0H25.87a.588.588,0,0,1,0-1.176H33.02A.588.588,0,0,1,33.02,5.8Zm3.473-2.3H29.344a.588.588,0,0,1,0-1.176h7.149A.588.588,0,0,1,36.493,3.5Zm-9.421,0c-.791,0-1.788.182-1.788-.588s1-.588,1.788-.588a.588.588,0,0,1,0,1.176Z" transform="translate(4.922 4.922)" fill="#e6faff" fill-rule="evenodd"/>
      <path id="Trazado_1240080" data-name="Trazado 1240080" d="M4.882,2.858H43.019a2.1,2.1,0,0,1,2.1,2.1V27.332a2.1,2.1,0,0,1-2.1,2.1H40.951v2.743H46.3a1.562,1.562,0,0,0,1.56-1.56V1.674A1.562,1.562,0,0,0,46.3.114H1.6A1.562,1.562,0,0,0,.04,1.674V30.613a1.562,1.562,0,0,0,1.56,1.56H35.412V29.429H4.882a2.1,2.1,0,0,1-2.1-2.1V4.956a2.1,2.1,0,0,1,2.1-2.1Z" transform="translate(1.136 1.136)" fill="#5993cb" fill-rule="evenodd"/>
      <path id="Trazado_1240081" data-name="Trazado 1240081" d="M4.471,1.111H1.283v2.77H4.471Z" transform="translate(36.44 29.454)" fill="#79a8d5" fill-rule="evenodd"/>
      <path id="Trazado_1240082" data-name="Trazado 1240082" d="M10.522,6.1V1.245H.686V6.1Z" transform="translate(19.482 33.241)" fill="#4371ac" fill-rule="evenodd"/>
      <path id="Trazado_1240083" data-name="Trazado 1240083" d="M16.139,1.45H2.6A2.094,2.094,0,0,0,.509,3.542V5.633H20.756V3.541A2.094,2.094,0,0,0,18.665,1.45H16.139Z" transform="translate(14.453 39.07)" fill="#5993cb" fill-rule="evenodd"/>
    </g>
  </g>
</svg>
