<svg xmlns="http://www.w3.org/2000/svg" xmlns:xlink="http://www.w3.org/1999/xlink" width="102.884" height="102.884" viewBox="0 0 102.884 102.884">
  <defs>
    <filter id="Trazado_904820" x="0" y="0" width="102.884" height="102.884" filterUnits="userSpaceOnUse">
      <feOffset dy="3" input="SourceAlpha"/>
      <feGaussianBlur stdDeviation="3" result="blur"/>
      <feFlood flood-opacity="0.161"/>
      <feComposite operator="in" in2="blur"/>
      <feComposite in="SourceGraphic"/>
    </filter>
  </defs>
  <g id="Grupo_1237636" data-name="Grupo 1237636" transform="translate(-171 -3409.947)">
    <g id="Grupo_1236936" data-name="Grupo 1236936" transform="translate(0 -2712.281)">
      <g id="Grupo_1226551" data-name="Grupo 1226551" transform="translate(180 6128.228)">
        <g id="Grupo_1225716" data-name="Grupo 1225716" transform="translate(0 0)">
          <g id="Grupo_1211534" data-name="Grupo 1211534">
            <g id="Grupo_1173585" data-name="Grupo 1173585">
              <g id="Grupo_1173428" data-name="Grupo 1173428">
                <g id="Grupo_1171958" data-name="Grupo 1171958">
                  <g id="Grupo_1167341" data-name="Grupo 1167341">
                    <g id="Grupo_1166792" data-name="Grupo 1166792">
                      <g transform="matrix(1, 0, 0, 1, -9, -6)" filter="url(#Trazado_904820)">
                        <g id="Trazado_904820-2" data-name="Trazado 904820" transform="translate(9 6)" fill="#fceefb">
                          <path d="M 42.4418830871582 83.38380432128906 C 36.91410827636719 83.38380432128906 31.55247116088867 82.30150604248047 26.50591850280762 80.16700744628906 C 21.63076591491699 78.10498046875 17.25211906433105 75.1527099609375 13.49160099029541 71.39218902587891 C 9.731082916259766 67.63167572021484 6.778812408447266 63.25302886962891 4.716800689697266 58.37787628173828 C 2.582283020019531 53.33132171630859 1.500000715255737 47.96968460083008 1.500000715255737 42.44190979003906 C 1.500000715255737 36.91413497924805 2.582283020019531 31.55249786376953 4.716800689697266 26.50594520568848 C 6.778812408447266 21.63079261779785 9.731082916259766 17.25214576721191 13.49160099029541 13.49162769317627 C 17.25211906433105 9.731109619140625 21.63076591491699 6.778839111328125 26.50591850280762 4.71681547164917 C 31.55247116088867 2.582309722900391 36.91410827636719 1.500015616416931 42.4418830871582 1.500015616416931 C 47.96965789794922 1.500015616416931 53.33129501342773 2.582309722900391 58.37786102294922 4.71681547164917 C 63.25300216674805 6.778839111328125 67.63164520263672 9.731109619140625 71.39216613769531 13.49162769317627 C 75.15267944335938 17.25214576721191 78.10494995117188 21.63079261779785 80.16696166992188 26.50594520568848 C 82.30148315429688 31.55249786376953 83.38376617431641 36.91413497924805 83.38376617431641 42.44190979003906 C 83.38376617431641 47.96968460083008 82.30148315429688 53.33132171630859 80.16696166992188 58.37787628173828 C 78.10494995117188 63.25302886962891 75.15267944335938 67.63167572021484 71.39216613769531 71.39218902587891 C 67.63164520263672 75.1527099609375 63.25300216674805 78.10498046875 58.37786102294922 80.16700744628906 C 53.33129501342773 82.30150604248047 47.96965789794922 83.38380432128906 42.4418830871582 83.38380432128906 Z" stroke="none"/>
                          <path d="M 42.4418830871582 3.000015258789062 C 37.11593627929688 3.000015258789062 31.95090866088867 4.042442321777344 27.09024429321289 6.098320007324219 C 22.39389801025391 8.084724426269531 18.17550659179688 10.92904663085938 14.55226898193359 14.55228424072266 C 10.92901611328125 18.17552185058594 8.084693908691406 22.3939094543457 6.098312377929688 27.09027099609375 C 4.042427062988281 31.95093536376953 3 37.11596298217773 3 42.44190979003906 C 3 47.76785659790039 4.042427062988281 52.93288421630859 6.098312377929688 57.79354858398438 C 8.084693908691406 62.48991012573242 10.92901611328125 66.70829772949219 14.55226898193359 70.33153533935547 C 18.17550659179688 73.95477294921875 22.39389801025391 76.79909515380859 27.09024429321289 78.78549957275391 C 31.95090866088867 80.84137725830078 37.11593627929688 81.88380432128906 42.4418830871582 81.88380432128906 C 47.76782989501953 81.88380432128906 52.93285369873047 80.84137725830078 57.79352569580078 78.78549957275391 C 62.4898681640625 76.79909515380859 66.708251953125 73.95477294921875 70.33149719238281 70.33153533935547 C 73.95475006103516 66.70829772949219 76.799072265625 62.48991012573242 78.78545379638672 57.79354858398438 C 80.84133911132812 52.93288421630859 81.88376617431641 47.76785659790039 81.88376617431641 42.44190979003906 C 81.88376617431641 37.11596298217773 80.84133911132812 31.95093536376953 78.78545379638672 27.09027099609375 C 76.799072265625 22.3939094543457 73.95475006103516 18.17552185058594 70.33149719238281 14.55228424072266 C 66.708251953125 10.92904663085938 62.4898681640625 8.084724426269531 57.79352569580078 6.098320007324219 C 52.93285369873047 4.042442321777344 47.76782989501953 3.000015258789062 42.4418830871582 3.000015258789062 M 42.4418830871582 1.52587890625e-05 C 65.88188171386719 1.52587890625e-05 84.88376617431641 19.00190734863281 84.88376617431641 42.44190979003906 C 84.88376617431641 65.88191223144531 65.88188171386719 84.88380432128906 42.4418830871582 84.88380432128906 C 19.00188446044922 84.88380432128906 0 65.88191223144531 0 42.44190979003906 C 0 19.00190734863281 19.00188446044922 1.52587890625e-05 42.4418830871582 1.52587890625e-05 Z" stroke="none" fill="#e761e1"/>
                        </g>
                      </g>
                    </g>
                  </g>
                </g>
              </g>
            </g>
          </g>
        </g>
      </g>
    </g>
    <g id="agregar-usuario_9_" data-name="agregar-usuario (9)" transform="translate(194.264 3430.214)">
      <path id="Trazado_1238544" data-name="Trazado 1238544" d="M18.553,54.68v.88A26.411,26.411,0,1,1,58.578,45.073,9.683,9.683,0,0,0,44.27,48.516H39.684v-3.83a12.333,12.333,0,0,0,7.044-11.138V23.863a5.277,5.277,0,0,0-5.283-5.283v-4.4h-8.8A10.556,10.556,0,0,0,22.075,24.744v8.8a12.331,12.331,0,0,0,7.044,11.138v3.83h-4.4a6.16,6.16,0,0,0-6.163,6.165Zm0,0" transform="translate(-7.105 -7.134)" fill="#ac92ec"/>
      <path id="Trazado_1238545" data-name="Trazado 1238545" d="M233.749,8.015c-.593,0-1.178.027-1.761.064a26.406,26.406,0,0,1,0,52.7c.583.039,1.168.065,1.761.065a26.413,26.413,0,1,0,0-52.826Zm0,0" transform="translate(-206.453 -7.133)" fill="#967adc"/>
      <path id="Trazado_1238546" data-name="Trazado 1238546" d="M343.406,329.824a10.143,10.143,0,0,1,1.162,1,9.681,9.681,0,0,1-13.692,13.691,10.173,10.173,0,0,1-.994-1.153,9.687,9.687,0,0,1,13.524-13.533Zm0,0" transform="translate(-291.934 -291.884)" fill="#a0d468"/>
      <path id="Trazado_1238547" data-name="Trazado 1238547" d="M129.7,376.016h.009a9.691,9.691,0,0,0,.785,10.09,26.444,26.444,0,0,1-26.5-3.046v-.88a6.158,6.158,0,0,1,6.163-6.163h4.4l2.641,1.761,2.641-.88,2.641.88,2.641-1.761Zm0,0" transform="translate(-92.54 -334.633)" fill="#e6e9ed"/>
      <path id="Trazado_1238548" data-name="Trazado 1238548" d="M210.553,341.215v3.83l-2.641,1.761-2.641-.88-2.641.88-2.641-1.761v-3.83a12.333,12.333,0,0,0,10.565,0Zm0,0" transform="translate(-177.975 -303.662)" fill="#f5f7fa"/>
      <path id="Trazado_1238549" data-name="Trazado 1238549" d="M160.641,171.545v4.4a12.324,12.324,0,0,1-12.326,12.326,12.191,12.191,0,0,1-5.283-1.189,12.331,12.331,0,0,1-7.044-11.138v-4.419l3.522-3.5a22.892,22.892,0,0,0,17.609,0Zm0,0" transform="translate(-121.018 -149.532)" fill="#eac6bb"/>
      <path id="Trazado_1238550" data-name="Trazado 1238550" d="M242.553,168.016v7.924a12.333,12.333,0,0,1-7.044,11.138,12.136,12.136,0,0,1-3.522,1.049,12.422,12.422,0,0,0,1.761.139,12.2,12.2,0,0,0,5.283-1.189,12.333,12.333,0,0,0,7.044-11.138v-4.4Zm0,0" transform="translate(-206.453 -149.525)" fill="#d3b1a9"/>
      <path id="Trazado_1238551" data-name="Trazado 1238551" d="M160.641,73.7v5.283l-3.522-3.522a22.892,22.892,0,0,1-17.609,0l-3.522,3.5V74.581a10.556,10.556,0,0,1,10.565-10.565h8.8v4.4A5.277,5.277,0,0,1,160.641,73.7Zm0,0" transform="translate(-121.018 -56.971)" fill="#965353"/>
      <path id="Trazado_1238552" data-name="Trazado 1238552" d="M283.51,68.418v-4.4h-3.522v6.163c2.921,0,5.283,1.479,5.283,4.4v.88l3.522,3.522V73.7A5.277,5.277,0,0,0,283.51,68.418Zm0,0" transform="translate(-249.17 -56.971)" fill="#844646"/>
      <path id="Trazado_1238553" data-name="Trazado 1238553" d="M293.462,369.761h-4.578a.88.88,0,0,1,0-1.761h4.578a.88.88,0,1,1,0,1.761Zm0,0" transform="translate(-256.304 -327.499)"/>
      <path id="Trazado_1238554" data-name="Trazado 1238554" d="M96.884,375.924a.879.879,0,0,1-.88-.88A7.052,7.052,0,0,1,103.048,368a.88.88,0,1,1,0,1.761,5.288,5.288,0,0,0-5.283,5.283A.879.879,0,0,1,96.884,375.924Zm0,0" transform="translate(-85.435 -327.499)"/>
      <path id="Trazado_1238555" data-name="Trazado 1238555" d="M157.287,369.761h-4.4a.88.88,0,1,1,0-1.761h4.4a.88.88,0,0,1,0,1.761Zm0,0" transform="translate(-135.272 -327.499)"/>
      <path id="Trazado_1238556" data-name="Trazado 1238556" d="M96.884,427.676a.879.879,0,0,1-.88-.88v-.755a.88.88,0,0,1,1.761,0v.755A.879.879,0,0,1,96.884,427.676Zm0,0" transform="translate(-85.435 -378.368)"/>
      <path id="Trazado_1238557" data-name="Trazado 1238557" d="M192.884,338.8a.879.879,0,0,1-.88-.88V334.1a.88.88,0,1,1,1.761,0v3.828A.879.879,0,0,1,192.884,338.8Zm0,0" transform="translate(-170.869 -296.543)"/>
      <path id="Trazado_1238558" data-name="Trazado 1238558" d="M288.884,338.8a.879.879,0,0,1-.88-.88V334.1a.88.88,0,1,1,1.761,0v3.828A.879.879,0,0,1,288.884,338.8Zm0,0" transform="translate(-256.304 -296.543)"/>
      <path id="Trazado_1238559" data-name="Trazado 1238559" d="M141.211,246.087A13.222,13.222,0,0,1,128,232.88a.88.88,0,0,1,1.761,0,11.446,11.446,0,1,0,22.892,0,.88.88,0,0,1,1.761,0A13.222,13.222,0,0,1,141.211,246.087Zm0,0" transform="translate(-113.913 -206.467)"/>
      <path id="Trazado_1238560" data-name="Trazado 1238560" d="M128.884,162.545a.88.88,0,0,1-.88-.88V152.88a.88.88,0,0,1,1.761,0v8.784A.88.88,0,0,1,128.884,162.545Zm0,0" transform="translate(-113.913 -135.271)"/>
      <path id="Trazado_1238561" data-name="Trazado 1238561" d="M352.884,155.454a.88.88,0,0,1-.88-.88v-9.685a.88.88,0,1,1,1.761,0v9.685A.88.88,0,0,1,352.884,155.454Zm0,0" transform="translate(-313.26 -128.159)"/>
      <path id="Trazado_1238562" data-name="Trazado 1238562" d="M310.167,103.044a.88.88,0,0,1-.88-.88,4.407,4.407,0,0,0-4.4-4.4.88.88,0,1,1,0-1.761,6.171,6.171,0,0,1,6.163,6.163A.88.88,0,0,1,310.167,103.044Zm0,0" transform="translate(-270.543 -85.435)"/>
      <path id="Trazado_1238563" data-name="Trazado 1238563" d="M304.884,62.163a.88.88,0,0,1-.88-.88v-4.4a.88.88,0,0,1,1.761,0v4.4A.88.88,0,0,1,304.884,62.163Zm0,0" transform="translate(-270.543 -49.837)"/>
      <path id="Trazado_1238564" data-name="Trazado 1238564" d="M128.884,68.326a.88.88,0,0,1-.88-.88A11.459,11.459,0,0,1,139.45,56a.88.88,0,1,1,0,1.761,9.7,9.7,0,0,0-9.685,9.685A.88.88,0,0,1,128.884,68.326Zm0,0" transform="translate(-113.913 -49.837)"/>
      <path id="Trazado_1238565" data-name="Trazado 1238565" d="M324.4,165.28a.879.879,0,0,1-.622-.258l-3.522-3.522a.88.88,0,0,1,1.245-1.245l3.522,3.522a.88.88,0,0,1-.622,1.5Zm0,0" transform="translate(-284.78 -142.388)"/>
      <path id="Trazado_1238566" data-name="Trazado 1238566" d="M169.693,163.518a25.2,25.2,0,0,1-9.157-1.835.881.881,0,0,1,.705-1.614,22.013,22.013,0,0,0,16.9,0,.88.88,0,1,1,.7,1.613A25.2,25.2,0,0,1,169.693,163.518Zm0,0" transform="translate(-142.395 -142.387)"/>
      <path id="Trazado_1238567" data-name="Trazado 1238567" d="M128.882,165.272a.88.88,0,0,1-.622-1.5l3.522-3.511a.88.88,0,0,1,1.243,1.247l-3.522,3.511A.874.874,0,0,1,128.882,165.272Zm0,0" transform="translate(-113.91 -142.391)"/>
      <path id="Trazado_1238568" data-name="Trazado 1238568" d="M195.52,371.522a.887.887,0,0,1-.488-.148l-2.641-1.761a.881.881,0,0,1,.978-1.465l2.641,1.761a.881.881,0,0,1-.49,1.613Zm0,0" transform="translate(-170.864 -327.499)"/>
      <path id="Trazado_1238569" data-name="Trazado 1238569" d="M216.887,378.632a.881.881,0,0,1-.278-1.716l2.641-.88a.881.881,0,1,1,.557,1.671l-2.641.88A.9.9,0,0,1,216.887,378.632Zm0,0" transform="translate(-192.23 -334.61)"/>
      <path id="Trazado_1238570" data-name="Trazado 1238570" d="M264.881,371.522a.881.881,0,0,1-.49-1.613l2.641-1.761a.881.881,0,0,1,.978,1.465l-2.641,1.761A.887.887,0,0,1,264.881,371.522Zm0,0" transform="translate(-234.941 -327.499)"/>
      <path id="Trazado_1238571" data-name="Trazado 1238571" d="M243.529,378.633a.888.888,0,0,1-.278-.046l-2.641-.88a.881.881,0,0,1,.557-1.671l2.641.88a.881.881,0,0,1-.279,1.716Zm0,0" transform="translate(-213.59 -334.611)"/>
      <path id="Trazado_1238572" data-name="Trazado 1238572" d="M241.088,417.761a.88.88,0,0,1-.009-1.761h.009a.88.88,0,1,1,0,1.761Zm0,0" transform="translate(-213.764 -370.217)"/>
      <path id="Trazado_1238573" data-name="Trazado 1238573" d="M241.088,449.761a.88.88,0,0,1-.009-1.761h.009a.88.88,0,1,1,0,1.761Zm0,0" transform="translate(-213.764 -398.695)"/>
      <path id="Trazado_1238574" data-name="Trazado 1238574" d="M233.689,57.761h-8.8a.88.88,0,1,1,0-1.761h8.8a.88.88,0,1,1,0,1.761Zm0,0" transform="translate(-199.348 -49.837)"/>
      <path id="Trazado_1238575" data-name="Trazado 1238575" d="M27.3,54.588A27.273,27.273,0,1,1,52.28,38.3a.88.88,0,0,1-1.611-.709A25.513,25.513,0,1,0,37.594,50.666a.88.88,0,1,1,.71,1.611A27.085,27.085,0,0,1,27.3,54.588Zm0,0"/>
      <path id="Trazado_1238576" data-name="Trazado 1238576" d="M330.569,341.132a10.568,10.568,0,1,1,7.47-3.095,10.49,10.49,0,0,1-7.47,3.095Zm0-19.371a8.808,8.808,0,1,0,6.225,2.58A8.739,8.739,0,0,0,330.569,321.761Zm0,0" transform="translate(-284.782 -284.782)"/>
      <path id="Trazado_1238577" data-name="Trazado 1238577" d="M377.689,409.761h-8.8a.88.88,0,0,1,0-1.761h8.8a.88.88,0,0,1,0,1.761Zm0,0" transform="translate(-327.499 -363.097)"/>
      <path id="Trazado_1238578" data-name="Trazado 1238578" d="M408.884,378.565a.879.879,0,0,1-.88-.88v-8.8a.88.88,0,1,1,1.761,0v8.8A.879.879,0,0,1,408.884,378.565Zm0,0" transform="translate(-363.097 -327.499)"/>
    </g>
  </g>
</svg>
