<svg xmlns="http://www.w3.org/2000/svg" width="324.344" height="342.554" viewBox="0 0 324.344 342.554">
  <g id="Grupo_1238884" data-name="Grupo 1238884" transform="translate(-638 -2023)">
    <path id="Trazado_1240157" data-name="Trazado 1240157" d="M33.9,0C52.619,0,67.8,15.6,67.8,34.853S52.619,69.705,33.9,69.705,0,54.1,0,34.853,15.177,0,33.9,0Z" transform="translate(766.566 2295.849)" fill="#c3b7ef"/>
    <g id="Grupo_1236960" data-name="Grupo 1236960" transform="translate(776.592 2307.785)">
      <rect id="Rectángulo_422427" data-name="Rectángulo 422427" width="47.743" height="45.834" rx="10" transform="translate(0 0)" fill="#6c4dd8"/>
      <g id="Layer_x0020_1" transform="translate(6.438 10.488)">
        <g id="_294706288" transform="translate(0 0)">
          <path id="_294706360" d="M5.041,6.223H30.734a2.731,2.731,0,0,1,2.723,2.723v18.2H2.318V8.946A2.731,2.731,0,0,1,5.041,6.223Zm-.96,19.164H31.694V8.946a.967.967,0,0,0-.96-.96H5.041a.967.967,0,0,0-.96.96Z" transform="translate(-0.453 -6.223)" fill="#fff" fill-rule="evenodd"/>
          <path id="_294706768" d="M0,33.117H34.868V34.73a1.617,1.617,0,0,1-1.613,1.613H1.613A1.617,1.617,0,0,1,0,34.73V33.117Zm14.867,2.52H20v-1.36H14.867Z" transform="translate(0 -11.484)" fill="#fff" fill-rule="evenodd"/>
        </g>
      </g>
    </g>
    <path id="Trazado_1240158" data-name="Trazado 1240158" d="M33.9,0C52.619,0,67.8,15.6,67.8,34.853S52.619,69.705,33.9,69.705,0,54.1,0,34.853,15.177,0,33.9,0Z" transform="translate(766.566 2023)" fill="#c3b7ef"/>
    <g id="Grupo_1236961" data-name="Grupo 1236961" transform="translate(776.592 2034.936)">
      <rect id="Rectángulo_422427-2" data-name="Rectángulo 422427" width="47.743" height="45.834" rx="10" transform="translate(0 0)" fill="#6c4dd8"/>
      <g id="Layer_x0020_1-2" data-name="Layer_x0020_1" transform="translate(6.438 10.488)">
        <g id="_294706288-2" data-name="_294706288" transform="translate(0 0)">
          <path id="_294706360-2" data-name="_294706360" d="M5.041,6.223H30.734a2.731,2.731,0,0,1,2.723,2.723v18.2H2.318V8.946A2.731,2.731,0,0,1,5.041,6.223Zm-.96,19.164H31.694V8.946a.967.967,0,0,0-.96-.96H5.041a.967.967,0,0,0-.96.96Z" transform="translate(-0.453 -6.223)" fill="#fff" fill-rule="evenodd"/>
          <path id="_294706768-2" data-name="_294706768" d="M0,33.117H34.868V34.73a1.617,1.617,0,0,1-1.613,1.613H1.613A1.617,1.617,0,0,1,0,34.73V33.117Zm14.867,2.52H20v-1.36H14.867Z" transform="translate(0 -11.484)" fill="#fff" fill-rule="evenodd"/>
        </g>
      </g>
    </g>
    <path id="cancelar" d="M12.831,2A10.831,10.831,0,1,0,23.662,12.831,10.831,10.831,0,0,0,12.831,2Zm3.834,13.127a1.092,1.092,0,0,1,0,1.538,1.129,1.129,0,0,1-.769.314,1.109,1.109,0,0,1-.769-.314l-2.3-2.3-2.3,2.3a1.109,1.109,0,0,1-.769.314A1.129,1.129,0,0,1,9,16.665a1.092,1.092,0,0,1,0-1.538l2.3-2.3L9,10.535A1.088,1.088,0,0,1,10.535,9l2.3,2.3,2.3-2.3a1.088,1.088,0,0,1,1.538,1.538l-2.3,2.3Z" transform="translate(938.182 2149.192)" fill="#ff9256" stroke="#707070" stroke-width="1"/>
    <path id="Trazado_1240159" data-name="Trazado 1240159" d="M5,0H91.4a5,5,0,0,1,5,5V36.157a5,5,0,0,1-5,5H5a5,5,0,0,1-5-5V5A5,5,0,0,1,5,0Z" transform="translate(638 2051.548)" fill="#f5b104"/>
    <path id="Trazado_1240160" data-name="Trazado 1240160" d="M-28.19-3.97V0h-1.23V-10.5h2.886a3.809,3.809,0,0,1,2.611.82A2.929,2.929,0,0,1-23-7.368a3.183,3.183,0,0,1-1.029,2.446,3.932,3.932,0,0,1-2.78.952Zm0-5.42v4.307H-26.9a2.882,2.882,0,0,0,1.945-.582,2.061,2.061,0,0,0,.67-1.644q0-2.08-2.461-2.08Zm10.922,3.105a1.469,1.469,0,0,0-.908-.242,1.533,1.533,0,0,0-1.285.725,3.352,3.352,0,0,0-.516,1.978V0h-1.2V-7.5h1.2v1.545h.029a2.619,2.619,0,0,1,.784-1.234,1.787,1.787,0,0,1,1.179-.443,1.961,1.961,0,0,1,.718.1Zm4.44,6.46A3.479,3.479,0,0,1-15.483-.875a3.893,3.893,0,0,1-.992-2.787,4.056,4.056,0,0,1,1.033-2.952,3.713,3.713,0,0,1,2.791-1.062,3.364,3.364,0,0,1,2.618,1.033,4.1,4.1,0,0,1,.941,2.864A4.029,4.029,0,0,1-10.107-.9,3.554,3.554,0,0,1-12.828.176Zm.088-6.841a2.285,2.285,0,0,0-1.831.787,3.234,3.234,0,0,0-.674,2.172,3.058,3.058,0,0,0,.681,2.1,2.315,2.315,0,0,0,1.824.769,2.2,2.2,0,0,0,1.791-.754,3.274,3.274,0,0,0,.626-2.146A3.33,3.33,0,0,0-10.949-5.9,2.186,2.186,0,0,0-12.74-6.665Zm6.8,5.581h-.029V3.45h-1.2V-7.5h1.2v1.318h.029A2.84,2.84,0,0,1-3.349-7.676,2.747,2.747,0,0,1-1.085-6.669a4.171,4.171,0,0,1,.813,2.7A4.649,4.649,0,0,1-1.188-.956,3.048,3.048,0,0,1-3.693.176,2.509,2.509,0,0,1-5.941-1.084Zm-.029-3.025v1.047a2.23,2.23,0,0,0,.6,1.578,2.006,2.006,0,0,0,1.534.648,2.011,2.011,0,0,0,1.71-.835A3.831,3.831,0,0,0-1.5-3.992a3.024,3.024,0,0,0-.579-1.963,1.915,1.915,0,0,0-1.567-.71,2.128,2.128,0,0,0-1.685.729A2.676,2.676,0,0,0-5.971-4.109ZM4.783.176A3.479,3.479,0,0,1,2.128-.875a3.893,3.893,0,0,1-.992-2.787A4.056,4.056,0,0,1,2.168-6.614,3.713,3.713,0,0,1,4.958-7.676,3.364,3.364,0,0,1,7.577-6.643a4.1,4.1,0,0,1,.941,2.864A4.029,4.029,0,0,1,7.5-.9,3.554,3.554,0,0,1,4.783.176Zm.088-6.841a2.285,2.285,0,0,0-1.831.787,3.234,3.234,0,0,0-.674,2.172,3.058,3.058,0,0,0,.681,2.1,2.315,2.315,0,0,0,1.824.769,2.2,2.2,0,0,0,1.791-.754,3.274,3.274,0,0,0,.626-2.146A3.33,3.33,0,0,0,6.661-5.9,2.186,2.186,0,0,0,4.871-6.665ZM9.984-.271V-1.56a3.555,3.555,0,0,0,2.161.725q1.582,0,1.582-1.055a.915.915,0,0,0-.135-.509,1.35,1.35,0,0,0-.366-.37,2.819,2.819,0,0,0-.542-.289q-.311-.128-.67-.267a8.631,8.631,0,0,1-.875-.4,2.644,2.644,0,0,1-.63-.454,1.69,1.69,0,0,1-.381-.575A2.034,2.034,0,0,1,10-5.508a1.792,1.792,0,0,1,.242-.934,2.143,2.143,0,0,1,.645-.681,3.006,3.006,0,0,1,.919-.414,4.077,4.077,0,0,1,1.066-.139,4.3,4.3,0,0,1,1.743.337v1.216a3.4,3.4,0,0,0-1.9-.542,2.226,2.226,0,0,0-.608.077,1.488,1.488,0,0,0-.465.216,1,1,0,0,0-.3.333.878.878,0,0,0-.106.428,1.028,1.028,0,0,0,.106.491,1.08,1.08,0,0,0,.311.352,2.379,2.379,0,0,0,.5.278q.293.125.667.271a9.276,9.276,0,0,1,.894.392,3.065,3.065,0,0,1,.674.454,1.774,1.774,0,0,1,.428.582,1.878,1.878,0,0,1,.15.784,1.848,1.848,0,0,1-.245.967,2.1,2.1,0,0,1-.656.681,3,3,0,0,1-.945.4,4.665,4.665,0,0,1-1.121.132A4.255,4.255,0,0,1,9.984-.271ZM22.833-3.45h-5.3a2.805,2.805,0,0,0,.674,1.934,2.323,2.323,0,0,0,1.772.681,3.685,3.685,0,0,0,2.329-.835V-.542A4.353,4.353,0,0,1,19.7.176,3.17,3.17,0,0,1,17.2-.846a4.182,4.182,0,0,1-.908-2.875,4.1,4.1,0,0,1,.992-2.853,3.182,3.182,0,0,1,2.465-1.1,2.82,2.82,0,0,1,2.278.952,3.97,3.97,0,0,1,.806,2.644ZM21.6-4.468a2.444,2.444,0,0,0-.5-1.619,1.709,1.709,0,0,0-1.373-.579,1.94,1.94,0,0,0-1.443.608,2.759,2.759,0,0,0-.732,1.589Zm3.466-1.567a.777.777,0,0,1-.575-.242.8.8,0,0,1-.238-.579.771.771,0,0,1,.238-.571.79.79,0,0,1,.575-.234.811.811,0,0,1,.586.234.766.766,0,0,1,.242.571.789.789,0,0,1-.242.579A.8.8,0,0,1,25.068-6.035Zm0,6.2a.777.777,0,0,1-.575-.242.8.8,0,0,1-.238-.579.808.808,0,0,1,.238-.582.772.772,0,0,1,.575-.245.792.792,0,0,1,.586.245.8.8,0,0,1,.242.582.789.789,0,0,1-.242.579A.8.8,0,0,1,25.068.161ZM-14.455,6.5-18.344,17H-19.7L-23.508,6.5h1.37l2.908,8.328a4.945,4.945,0,0,1,.212.93h.029a4.562,4.562,0,0,1,.242-.945L-15.781,6.5ZM-8.836,17h-1.2V15.828h-.029a2.515,2.515,0,0,1-2.307,1.348,2.466,2.466,0,0,1-1.754-.593,2.055,2.055,0,0,1-.634-1.575q0-2.1,2.476-2.446l2.249-.315q0-1.912-1.545-1.912a3.692,3.692,0,0,0-2.446.923v-1.23a4.648,4.648,0,0,1,2.549-.7q2.644,0,2.644,2.8Zm-1.2-3.794-1.809.249a2.937,2.937,0,0,0-1.26.414,1.193,1.193,0,0,0-.425,1.051,1.145,1.145,0,0,0,.392.9,1.514,1.514,0,0,0,1.044.348,1.928,1.928,0,0,0,1.476-.626,2.237,2.237,0,0,0,.582-1.586ZM-5.37,17h-1.2V5.9h1.2ZM.2,17.176a3.479,3.479,0,0,1-2.655-1.051,3.893,3.893,0,0,1-.992-2.787,4.056,4.056,0,0,1,1.033-2.952A3.713,3.713,0,0,1,.374,9.324a3.364,3.364,0,0,1,2.618,1.033,4.1,4.1,0,0,1,.941,2.864A4.029,4.029,0,0,1,2.919,16.1,3.554,3.554,0,0,1,.2,17.176Zm.088-6.841a2.285,2.285,0,0,0-1.831.787,3.234,3.234,0,0,0-.674,2.172,3.058,3.058,0,0,0,.681,2.1,2.315,2.315,0,0,0,1.824.769,2.2,2.2,0,0,0,1.791-.754A3.274,3.274,0,0,0,2.7,13.265,3.33,3.33,0,0,0,2.076,11.1,2.186,2.186,0,0,0,.286,10.335Zm9.479.381a1.469,1.469,0,0,0-.908-.242,1.533,1.533,0,0,0-1.285.725,3.352,3.352,0,0,0-.516,1.978V17h-1.2V9.5h1.2v1.545h.029a2.619,2.619,0,0,1,.784-1.234,1.787,1.787,0,0,1,1.179-.443,1.961,1.961,0,0,1,.718.1ZM23.471,17H22.109L21,14.056H16.543L15.5,17h-1.37L18.154,6.5h1.274Zm-2.878-4.05L18.945,8.475a4.285,4.285,0,0,1-.161-.7h-.029a3.923,3.923,0,0,1-.168.7L16.953,12.95Z" transform="translate(686.246 2068.714)" fill="#212429"/>
    <g id="Grupo_1226535" data-name="Grupo 1226535" transform="translate(697.779 2163.436) rotate(-65)">
      <path id="Trazado_1231820" data-name="Trazado 1231820" d="M0,0,16.36,6.729,95.787,37.76" fill="none" stroke="#707070" stroke-linecap="round" stroke-width="2"/>
      <path id="Polígono_1" data-name="Polígono 1" d="M7.04,0l7.04,8.665H0Z" transform="translate(104.796 34.423) rotate(115)" fill="#707070"/>
    </g>
    <g id="Grupo_1236964" data-name="Grupo 1236964" transform="translate(857.614 2184.728) rotate(-115)">
      <path id="Trazado_1231820-2" data-name="Trazado 1231820" d="M0,37.422,96.139,0" transform="translate(0 9.423)" fill="none" stroke="#707070" stroke-linecap="round" stroke-width="2"/>
      <path id="Polígono_1-2" data-name="Polígono 1" d="M7.04,0l7.04,8.665H0Z" transform="translate(99.198 0) rotate(65)" fill="#707070"/>
    </g>
    <g id="Grupo_1236965" data-name="Grupo 1236965" transform="translate(899.018 2221.602) rotate(115)">
      <path id="Trazado_1231820-3" data-name="Trazado 1231820" d="M17.43,7,0,0,98.118,38.524" transform="translate(0 0)" fill="none" stroke="#707070" stroke-linecap="round" stroke-width="2"/>
      <path id="Polígono_1-3" data-name="Polígono 1" d="M7.04,0l7.04,8.665H0Z" transform="translate(107.127 35.187) rotate(115)" fill="#707070"/>
    </g>
    <g id="Grupo_1236966" data-name="Grupo 1236966" transform="translate(741.79 2204.881) rotate(65)">
      <path id="Trazado_1231820-4" data-name="Trazado 1231820" d="M0,37.938,94.224,0" transform="translate(0 9.423)" fill="none" stroke="#707070" stroke-linecap="round" stroke-width="2"/>
      <path id="Polígono_1-4" data-name="Polígono 1" d="M7.04,0l7.04,8.665H0Z" transform="translate(97.282 0) rotate(65)" fill="#707070"/>
    </g>
    <g id="Grupo_1236967" data-name="Grupo 1236967" transform="translate(821.925 2185.667)">
      <path id="Polígono_1-5" data-name="Polígono 1" d="M7.04,0l7.04,8.665H0Z" transform="translate(55.492) rotate(90)" fill="#707070"/>
      <path id="Trazado_1231821" data-name="Trazado 1231821" d="M986.262,8125.759H939.434" transform="translate(-939.434 -8118.719)" fill="none" stroke="#707070" stroke-linecap="round" stroke-width="2"/>
    </g>
    <g id="Grupo_1236968" data-name="Grupo 1236968" transform="translate(807.504 2120.812) rotate(90)">
      <path id="Polígono_1-6" data-name="Polígono 1" d="M7.04,0l7.04,8.665H0Z" transform="translate(171.29 0) rotate(90)" fill="#707070"/>
      <path id="Trazado_1231821-2" data-name="Trazado 1231821" d="M162.625,0H0" transform="translate(0 7.04)" fill="none" stroke="#707070" stroke-linecap="round" stroke-width="2"/>
    </g>
    <g id="Grupo_1236970" data-name="Grupo 1236970" transform="translate(693.569 2096.496) rotate(90)">
      <path id="Polígono_1-7" data-name="Polígono 1" d="M7.04,0l7.04,8.665H0Z" transform="translate(59.807 0) rotate(90)" fill="#707070"/>
      <path id="Trazado_1231821-3" data-name="Trazado 1231821" d="M51.142,0H0" transform="translate(0 7.04)" fill="none" stroke="#707070" stroke-linecap="round" stroke-width="2"/>
    </g>
    <path id="Trazado_1236799" data-name="Trazado 1236799" d="M4005.718,2196.359s1.422,11.714-1.607,18.3-10.509,8.036-10.509,8.036" transform="translate(-3086.183 81.944)" fill="none" stroke="#707070" stroke-linecap="round" stroke-width="2"/>
    <path id="Trazado_1240161" data-name="Trazado 1240161" d="M8.906,0H7.441L5.684-2.944a6.413,6.413,0,0,0-.469-.7,2.672,2.672,0,0,0-.465-.472,1.611,1.611,0,0,0-.513-.267,2.108,2.108,0,0,0-.619-.084H2.607V0H1.377V-10.5H4.512a4.467,4.467,0,0,1,1.271.172,2.843,2.843,0,0,1,1.011.524,2.434,2.434,0,0,1,.67.875,2.9,2.9,0,0,1,.242,1.227A2.954,2.954,0,0,1,7.54-6.7a2.63,2.63,0,0,1-.469.817,2.841,2.841,0,0,1-.732.612,3.739,3.739,0,0,1-.963.392v.029a2.215,2.215,0,0,1,.458.267,2.519,2.519,0,0,1,.37.355,4.705,4.705,0,0,1,.348.465q.172.26.385.6Zm-6.3-9.39v3.809h1.67a2.533,2.533,0,0,0,.853-.139,1.975,1.975,0,0,0,.677-.4,1.81,1.81,0,0,0,.447-.637A2.133,2.133,0,0,0,6.416-7.6,1.646,1.646,0,0,0,5.87-8.917,2.344,2.344,0,0,0,4.292-9.39Zm13.17,5.94h-5.3a2.805,2.805,0,0,0,.674,1.934,2.323,2.323,0,0,0,1.772.681,3.685,3.685,0,0,0,2.329-.835V-.542a4.353,4.353,0,0,1-2.615.718,3.17,3.17,0,0,1-2.5-1.022,4.182,4.182,0,0,1-.908-2.875,4.1,4.1,0,0,1,.992-2.853,3.182,3.182,0,0,1,2.465-1.1,2.82,2.82,0,0,1,2.278.952,3.97,3.97,0,0,1,.806,2.644Zm-1.23-1.018a2.444,2.444,0,0,0-.5-1.619,1.709,1.709,0,0,0-1.373-.579,1.94,1.94,0,0,0-1.443.608A2.759,2.759,0,0,0,10.5-4.468ZM18.8-.315a4.7,4.7,0,0,1-.743,2.845,2.492,2.492,0,0,1-2.128,1,2.258,2.258,0,0,1-1-.234V2.175a1.988,1.988,0,0,0,1.025.33Q17.6,2.5,17.6-.117V-7.5h1.2ZM18.211-9.4a.761.761,0,0,1-.549-.22.742.742,0,0,1-.227-.557.754.754,0,0,1,.227-.56.755.755,0,0,1,.549-.223.776.776,0,0,1,.56.223.747.747,0,0,1,.231.56.742.742,0,0,1-.231.549A.769.769,0,0,1,18.211-9.4ZM27.258-3.45h-5.3a2.805,2.805,0,0,0,.674,1.934,2.323,2.323,0,0,0,1.772.681,3.685,3.685,0,0,0,2.329-.835V-.542a4.353,4.353,0,0,1-2.615.718,3.17,3.17,0,0,1-2.5-1.022,4.182,4.182,0,0,1-.908-2.875,4.1,4.1,0,0,1,.992-2.853,3.182,3.182,0,0,1,2.465-1.1,2.82,2.82,0,0,1,2.278.952,3.97,3.97,0,0,1,.806,2.644Zm-1.23-1.018a2.444,2.444,0,0,0-.5-1.619,1.709,1.709,0,0,0-1.373-.579,1.94,1.94,0,0,0-1.443.608,2.759,2.759,0,0,0-.732,1.589ZM34.188-.344a3.9,3.9,0,0,1-2.051.52A3.4,3.4,0,0,1,29.548-.868a3.782,3.782,0,0,1-.985-2.706,4.158,4.158,0,0,1,1.062-2.977A3.715,3.715,0,0,1,32.46-7.676,3.945,3.945,0,0,1,34.2-7.31v1.23a3.054,3.054,0,0,0-1.787-.586,2.415,2.415,0,0,0-1.886.824,3.127,3.127,0,0,0-.736,2.164,2.977,2.977,0,0,0,.692,2.08,2.386,2.386,0,0,0,1.857.762,3.01,3.01,0,0,0,1.846-.652Zm5.3.271a2.316,2.316,0,0,1-1.121.234q-1.97,0-1.97-2.2V-6.475H35.105V-7.5h1.289V-9.331l1.2-.388V-7.5h1.89v1.025H37.6v4.226a1.752,1.752,0,0,0,.256,1.077,1.023,1.023,0,0,0,.85.322,1.263,1.263,0,0,0,.784-.249Z" transform="translate(727.285 2187.729)" fill="#212429"/>
    <path id="Trazado_1240162" data-name="Trazado 1240162" d="M9.507,0H8.145L7.031-2.944H2.578L1.531,0H.161L4.189-10.5H5.464ZM6.628-4.05,4.98-8.525a4.285,4.285,0,0,1-.161-.7H4.79a3.923,3.923,0,0,1-.168.7L2.988-4.05ZM17.118,0H15.434L12.123-3.6h-.029V0h-1.2V-11.1h1.2v7.039h.029L15.272-7.5h1.575L13.368-3.882Zm7.458,0h-1.2V-4.277q0-2.388-1.743-2.388a1.891,1.891,0,0,0-1.49.677,2.511,2.511,0,0,0-.59,1.71V0h-1.2V-7.5h1.2v1.245h.029a2.707,2.707,0,0,1,2.461-1.421,2.3,2.3,0,0,1,1.882.795,3.54,3.54,0,0,1,.652,2.3Zm5.4.176A3.479,3.479,0,0,1,27.32-.875a3.893,3.893,0,0,1-.992-2.787A4.056,4.056,0,0,1,27.36-6.614a3.713,3.713,0,0,1,2.791-1.062,3.364,3.364,0,0,1,2.618,1.033,4.1,4.1,0,0,1,.941,2.864A4.029,4.029,0,0,1,32.7-.9,3.554,3.554,0,0,1,29.975.176Zm.088-6.841a2.285,2.285,0,0,0-1.831.787,3.234,3.234,0,0,0-.674,2.172,3.058,3.058,0,0,0,.681,2.1,2.315,2.315,0,0,0,1.824.769,2.2,2.2,0,0,0,1.791-.754,3.274,3.274,0,0,0,.626-2.146A3.33,3.33,0,0,0,31.854-5.9,2.186,2.186,0,0,0,30.063-6.665ZM45.079-7.5,42.831,0H41.586L40.04-5.369a3.5,3.5,0,0,1-.117-.7h-.029a3.284,3.284,0,0,1-.154.681L38.063,0h-1.2L34.591-7.5h1.26L37.4-1.86a3.4,3.4,0,0,1,.1.674h.059a3.152,3.152,0,0,1,.132-.688L39.425-7.5h1.1l1.553,5.654a4.037,4.037,0,0,1,.11.674h.059a3.117,3.117,0,0,1,.125-.674L43.893-7.5ZM47.674,0h-1.2V-11.1h1.2Zm8.461-3.45h-5.3a2.805,2.805,0,0,0,.674,1.934,2.323,2.323,0,0,0,1.772.681,3.685,3.685,0,0,0,2.329-.835V-.542A4.353,4.353,0,0,1,53,.176,3.17,3.17,0,0,1,50.5-.846a4.182,4.182,0,0,1-.908-2.875,4.1,4.1,0,0,1,.992-2.853,3.182,3.182,0,0,1,2.465-1.1,2.82,2.82,0,0,1,2.278.952,3.97,3.97,0,0,1,.806,2.644ZM54.9-4.468a2.444,2.444,0,0,0-.5-1.619,1.709,1.709,0,0,0-1.373-.579,1.94,1.94,0,0,0-1.443.608,2.759,2.759,0,0,0-.732,1.589ZM64.354,0h-1.2V-1.274h-.029A2.773,2.773,0,0,1,60.545.176a2.8,2.8,0,0,1-2.26-1.007,4.131,4.131,0,0,1-.846-2.743,4.5,4.5,0,0,1,.938-2.981,3.092,3.092,0,0,1,2.5-1.121A2.4,2.4,0,0,1,63.123-6.46h.029V-11.1h1.2Zm-1.2-3.391V-4.5a2.146,2.146,0,0,0-.6-1.538,2.014,2.014,0,0,0-1.523-.63,2.074,2.074,0,0,0-1.729.806,3.53,3.53,0,0,0-.63,2.227,3.175,3.175,0,0,0,.6,2.047A1.975,1.975,0,0,0,60.9-.835a2.052,2.052,0,0,0,1.63-.725A2.7,2.7,0,0,0,63.153-3.391ZM73.188-.6q0,4.131-3.955,4.131A5.31,5.31,0,0,1,66.8,3V1.8a4.994,4.994,0,0,0,2.417.7q2.769,0,2.769-2.944v-.82h-.029A2.809,2.809,0,0,1,69.38.176a2.816,2.816,0,0,1-2.252-1,4,4,0,0,1-.853-2.684,4.669,4.669,0,0,1,.919-3.04,3.071,3.071,0,0,1,2.516-1.128A2.445,2.445,0,0,1,71.958-6.46h.029V-7.5h1.2Zm-1.2-2.791V-4.5a2.146,2.146,0,0,0-.6-1.531,1.989,1.989,0,0,0-1.505-.637,2.086,2.086,0,0,0-1.743.809,3.612,3.612,0,0,0-.63,2.267,3.1,3.1,0,0,0,.6,2,1.952,1.952,0,0,0,1.6.751,2.091,2.091,0,0,0,1.644-.718A2.675,2.675,0,0,0,71.987-3.391Zm9.662-.059h-5.3a2.805,2.805,0,0,0,.674,1.934A2.323,2.323,0,0,0,78.8-.835a3.685,3.685,0,0,0,2.329-.835V-.542a4.353,4.353,0,0,1-2.615.718,3.17,3.17,0,0,1-2.5-1.022,4.182,4.182,0,0,1-.908-2.875A4.1,4.1,0,0,1,76.1-6.573a3.182,3.182,0,0,1,2.465-1.1,2.82,2.82,0,0,1,2.278.952,3.97,3.97,0,0,1,.806,2.644Zm-1.23-1.018a2.444,2.444,0,0,0-.5-1.619,1.709,1.709,0,0,0-1.373-.579,1.94,1.94,0,0,0-1.443.608,2.759,2.759,0,0,0-.732,1.589Z" transform="translate(809.762 2150.732) rotate(90)" fill="#212429"/>
    <g id="Grupo_1236972" data-name="Grupo 1236972" transform="translate(718.869 2192.708)">
      <path id="Trazado_1231821-4" data-name="Trazado 1231821" d="M1020.6,8125.759H939.434" transform="translate(-939.434 -8125.759)" fill="none" stroke="#707070" stroke-linecap="round" stroke-width="2"/>
    </g>
    <path id="Trazado_1240163" data-name="Trazado 1240163" d="M33.9,0C52.619,0,67.8,15.6,67.8,34.853S52.619,69.705,33.9,69.705,0,54.1,0,34.853,15.177,0,33.9,0Z" transform="translate(652.631 2159.38)" fill="#c3b7ef"/>
    <g id="Grupo_1226508" data-name="Grupo 1226508" transform="translate(662.657 2171.315)">
      <rect id="Rectángulo_422427-3" data-name="Rectángulo 422427" width="47.743" height="45.834" rx="10" transform="translate(0 0)" fill="#6c4dd8"/>
      <g id="Layer_x0020_1-3" data-name="Layer_x0020_1" transform="translate(6.438 10.488)">
        <g id="_294706288-3" data-name="_294706288" transform="translate(0 0)">
          <path id="_294706360-3" data-name="_294706360" d="M5.041,6.223H30.734a2.731,2.731,0,0,1,2.723,2.723v18.2H2.318V8.946A2.731,2.731,0,0,1,5.041,6.223Zm-.96,19.164H31.694V8.946a.967.967,0,0,0-.96-.96H5.041a.967.967,0,0,0-.96.96Z" transform="translate(-0.453 -6.223)" fill="#fff" fill-rule="evenodd"/>
          <path id="_294706768-3" data-name="_294706768" d="M0,33.117H34.868V34.73a1.617,1.617,0,0,1-1.613,1.613H1.613A1.617,1.617,0,0,1,0,34.73V33.117Zm14.867,2.52H20v-1.36H14.867Z" transform="translate(0 -11.484)" fill="#fff" fill-rule="evenodd"/>
        </g>
      </g>
    </g>
    <path id="Trazado_1240164" data-name="Trazado 1240164" d="M33.9,0C52.619,0,67.8,15.6,67.8,34.853S52.619,69.705,33.9,69.705,0,54.1,0,34.853,15.177,0,33.9,0Z" transform="translate(881.374 2159.38)" fill="#c3b7ef"/>
    <g id="Grupo_1236962" data-name="Grupo 1236962" transform="translate(891.4 2171.315)">
      <rect id="Rectángulo_422427-4" data-name="Rectángulo 422427" width="47.743" height="45.834" rx="10" transform="translate(0 0)" fill="#6c4dd8"/>
      <g id="Layer_x0020_1-4" data-name="Layer_x0020_1" transform="translate(6.438 10.488)">
        <g id="_294706288-4" data-name="_294706288" transform="translate(0 0)">
          <path id="_294706360-4" data-name="_294706360" d="M5.041,6.223H30.734a2.731,2.731,0,0,1,2.723,2.723v18.2H2.318V8.946A2.731,2.731,0,0,1,5.041,6.223Zm-.96,19.164H31.694V8.946a.967.967,0,0,0-.96-.96H5.041a.967.967,0,0,0-.96.96Z" transform="translate(-0.453 -6.223)" fill="#fff" fill-rule="evenodd"/>
          <path id="_294706768-4" data-name="_294706768" d="M0,33.117H34.868V34.73a1.617,1.617,0,0,1-1.613,1.613H1.613A1.617,1.617,0,0,1,0,34.73V33.117Zm14.867,2.52H20v-1.36H14.867Z" transform="translate(0 -11.484)" fill="#fff" fill-rule="evenodd"/>
        </g>
      </g>
    </g>
    <path id="Trazado_1240165" data-name="Trazado 1240165" d="M9.507,0H8.145L7.031-2.944H2.578L1.531,0H.161L4.189-10.5H5.464ZM6.628-4.05,4.98-8.525a4.285,4.285,0,0,1-.161-.7H4.79a3.923,3.923,0,0,1-.168.7L2.988-4.05ZM17.118,0H15.434L12.123-3.6h-.029V0h-1.2V-11.1h1.2v7.039h.029L15.272-7.5h1.575L13.368-3.882Zm7.458,0h-1.2V-4.277q0-2.388-1.743-2.388a1.891,1.891,0,0,0-1.49.677,2.511,2.511,0,0,0-.59,1.71V0h-1.2V-7.5h1.2v1.245h.029a2.707,2.707,0,0,1,2.461-1.421,2.3,2.3,0,0,1,1.882.795,3.54,3.54,0,0,1,.652,2.3Zm5.4.176A3.479,3.479,0,0,1,27.32-.875a3.893,3.893,0,0,1-.992-2.787A4.056,4.056,0,0,1,27.36-6.614a3.713,3.713,0,0,1,2.791-1.062,3.364,3.364,0,0,1,2.618,1.033,4.1,4.1,0,0,1,.941,2.864A4.029,4.029,0,0,1,32.7-.9,3.554,3.554,0,0,1,29.975.176Zm.088-6.841a2.285,2.285,0,0,0-1.831.787,3.234,3.234,0,0,0-.674,2.172,3.058,3.058,0,0,0,.681,2.1,2.315,2.315,0,0,0,1.824.769,2.2,2.2,0,0,0,1.791-.754,3.274,3.274,0,0,0,.626-2.146A3.33,3.33,0,0,0,31.854-5.9,2.186,2.186,0,0,0,30.063-6.665ZM45.079-7.5,42.831,0H41.586L40.04-5.369a3.5,3.5,0,0,1-.117-.7h-.029a3.284,3.284,0,0,1-.154.681L38.063,0h-1.2L34.591-7.5h1.26L37.4-1.86a3.4,3.4,0,0,1,.1.674h.059a3.152,3.152,0,0,1,.132-.688L39.425-7.5h1.1l1.553,5.654a4.037,4.037,0,0,1,.11.674h.059a3.117,3.117,0,0,1,.125-.674L43.893-7.5ZM47.674,0h-1.2V-11.1h1.2Zm8.461-3.45h-5.3a2.805,2.805,0,0,0,.674,1.934,2.323,2.323,0,0,0,1.772.681,3.685,3.685,0,0,0,2.329-.835V-.542A4.353,4.353,0,0,1,53,.176,3.17,3.17,0,0,1,50.5-.846a4.182,4.182,0,0,1-.908-2.875,4.1,4.1,0,0,1,.992-2.853,3.182,3.182,0,0,1,2.465-1.1,2.82,2.82,0,0,1,2.278.952,3.97,3.97,0,0,1,.806,2.644ZM54.9-4.468a2.444,2.444,0,0,0-.5-1.619,1.709,1.709,0,0,0-1.373-.579,1.94,1.94,0,0,0-1.443.608,2.759,2.759,0,0,0-.732,1.589ZM64.354,0h-1.2V-1.274h-.029A2.773,2.773,0,0,1,60.545.176a2.8,2.8,0,0,1-2.26-1.007,4.131,4.131,0,0,1-.846-2.743,4.5,4.5,0,0,1,.938-2.981,3.092,3.092,0,0,1,2.5-1.121A2.4,2.4,0,0,1,63.123-6.46h.029V-11.1h1.2Zm-1.2-3.391V-4.5a2.146,2.146,0,0,0-.6-1.538,2.014,2.014,0,0,0-1.523-.63,2.074,2.074,0,0,0-1.729.806,3.53,3.53,0,0,0-.63,2.227,3.175,3.175,0,0,0,.6,2.047A1.975,1.975,0,0,0,60.9-.835a2.052,2.052,0,0,0,1.63-.725A2.7,2.7,0,0,0,63.153-3.391ZM73.188-.6q0,4.131-3.955,4.131A5.31,5.31,0,0,1,66.8,3V1.8a4.994,4.994,0,0,0,2.417.7q2.769,0,2.769-2.944v-.82h-.029A2.809,2.809,0,0,1,69.38.176a2.816,2.816,0,0,1-2.252-1,4,4,0,0,1-.853-2.684,4.669,4.669,0,0,1,.919-3.04,3.071,3.071,0,0,1,2.516-1.128A2.445,2.445,0,0,1,71.958-6.46h.029V-7.5h1.2Zm-1.2-2.791V-4.5a2.146,2.146,0,0,0-.6-1.531,1.989,1.989,0,0,0-1.505-.637,2.086,2.086,0,0,0-1.743.809,3.612,3.612,0,0,0-.63,2.267,3.1,3.1,0,0,0,.6,2,1.952,1.952,0,0,0,1.6.751,2.091,2.091,0,0,0,1.644-.718A2.675,2.675,0,0,0,71.987-3.391Zm9.662-.059h-5.3a2.805,2.805,0,0,0,.674,1.934A2.323,2.323,0,0,0,78.8-.835a3.685,3.685,0,0,0,2.329-.835V-.542a4.353,4.353,0,0,1-2.615.718,3.17,3.17,0,0,1-2.5-1.022,4.182,4.182,0,0,1-.908-2.875A4.1,4.1,0,0,1,76.1-6.573a3.182,3.182,0,0,1,2.465-1.1,2.82,2.82,0,0,1,2.278.952,3.97,3.97,0,0,1,.806,2.644Zm-1.23-1.018a2.444,2.444,0,0,0-.5-1.619,1.709,1.709,0,0,0-1.373-.579,1.94,1.94,0,0,0-1.443.608,2.759,2.759,0,0,0-.732,1.589Z" transform="translate(700.335 2153.069) rotate(-44)" fill="#212429"/>
    <path id="Trazado_1240166" data-name="Trazado 1240166" d="M9.507,0H8.145L7.031-2.944H2.578L1.531,0H.161L4.189-10.5H5.464ZM6.628-4.05,4.98-8.525a4.285,4.285,0,0,1-.161-.7H4.79a3.923,3.923,0,0,1-.168.7L2.988-4.05ZM17.118,0H15.434L12.123-3.6h-.029V0h-1.2V-11.1h1.2v7.039h.029L15.272-7.5h1.575L13.368-3.882Zm7.458,0h-1.2V-4.277q0-2.388-1.743-2.388a1.891,1.891,0,0,0-1.49.677,2.511,2.511,0,0,0-.59,1.71V0h-1.2V-7.5h1.2v1.245h.029a2.707,2.707,0,0,1,2.461-1.421,2.3,2.3,0,0,1,1.882.795,3.54,3.54,0,0,1,.652,2.3Zm5.4.176A3.479,3.479,0,0,1,27.32-.875a3.893,3.893,0,0,1-.992-2.787A4.056,4.056,0,0,1,27.36-6.614a3.713,3.713,0,0,1,2.791-1.062,3.364,3.364,0,0,1,2.618,1.033,4.1,4.1,0,0,1,.941,2.864A4.029,4.029,0,0,1,32.7-.9,3.554,3.554,0,0,1,29.975.176Zm.088-6.841a2.285,2.285,0,0,0-1.831.787,3.234,3.234,0,0,0-.674,2.172,3.058,3.058,0,0,0,.681,2.1,2.315,2.315,0,0,0,1.824.769,2.2,2.2,0,0,0,1.791-.754,3.274,3.274,0,0,0,.626-2.146A3.33,3.33,0,0,0,31.854-5.9,2.186,2.186,0,0,0,30.063-6.665ZM45.079-7.5,42.831,0H41.586L40.04-5.369a3.5,3.5,0,0,1-.117-.7h-.029a3.284,3.284,0,0,1-.154.681L38.063,0h-1.2L34.591-7.5h1.26L37.4-1.86a3.4,3.4,0,0,1,.1.674h.059a3.152,3.152,0,0,1,.132-.688L39.425-7.5h1.1l1.553,5.654a4.037,4.037,0,0,1,.11.674h.059a3.117,3.117,0,0,1,.125-.674L43.893-7.5ZM47.674,0h-1.2V-11.1h1.2Zm8.461-3.45h-5.3a2.805,2.805,0,0,0,.674,1.934,2.323,2.323,0,0,0,1.772.681,3.685,3.685,0,0,0,2.329-.835V-.542A4.353,4.353,0,0,1,53,.176,3.17,3.17,0,0,1,50.5-.846a4.182,4.182,0,0,1-.908-2.875,4.1,4.1,0,0,1,.992-2.853,3.182,3.182,0,0,1,2.465-1.1,2.82,2.82,0,0,1,2.278.952,3.97,3.97,0,0,1,.806,2.644ZM54.9-4.468a2.444,2.444,0,0,0-.5-1.619,1.709,1.709,0,0,0-1.373-.579,1.94,1.94,0,0,0-1.443.608,2.759,2.759,0,0,0-.732,1.589ZM64.354,0h-1.2V-1.274h-.029A2.773,2.773,0,0,1,60.545.176a2.8,2.8,0,0,1-2.26-1.007,4.131,4.131,0,0,1-.846-2.743,4.5,4.5,0,0,1,.938-2.981,3.092,3.092,0,0,1,2.5-1.121A2.4,2.4,0,0,1,63.123-6.46h.029V-11.1h1.2Zm-1.2-3.391V-4.5a2.146,2.146,0,0,0-.6-1.538,2.014,2.014,0,0,0-1.523-.63,2.074,2.074,0,0,0-1.729.806,3.53,3.53,0,0,0-.63,2.227,3.175,3.175,0,0,0,.6,2.047A1.975,1.975,0,0,0,60.9-.835a2.052,2.052,0,0,0,1.63-.725A2.7,2.7,0,0,0,63.153-3.391ZM73.188-.6q0,4.131-3.955,4.131A5.31,5.31,0,0,1,66.8,3V1.8a4.994,4.994,0,0,0,2.417.7q2.769,0,2.769-2.944v-.82h-.029A2.809,2.809,0,0,1,69.38.176a2.816,2.816,0,0,1-2.252-1,4,4,0,0,1-.853-2.684,4.669,4.669,0,0,1,.919-3.04,3.071,3.071,0,0,1,2.516-1.128A2.445,2.445,0,0,1,71.958-6.46h.029V-7.5h1.2Zm-1.2-2.791V-4.5a2.146,2.146,0,0,0-.6-1.531,1.989,1.989,0,0,0-1.505-.637,2.086,2.086,0,0,0-1.743.809,3.612,3.612,0,0,0-.63,2.267,3.1,3.1,0,0,0,.6,2,1.952,1.952,0,0,0,1.6.751,2.091,2.091,0,0,0,1.644-.718A2.675,2.675,0,0,0,71.987-3.391Zm9.662-.059h-5.3a2.805,2.805,0,0,0,.674,1.934A2.323,2.323,0,0,0,78.8-.835a3.685,3.685,0,0,0,2.329-.835V-.542a4.353,4.353,0,0,1-2.615.718,3.17,3.17,0,0,1-2.5-1.022,4.182,4.182,0,0,1-.908-2.875A4.1,4.1,0,0,1,76.1-6.573a3.182,3.182,0,0,1,2.465-1.1,2.82,2.82,0,0,1,2.278.952,3.97,3.97,0,0,1,.806,2.644Zm-1.23-1.018a2.444,2.444,0,0,0-.5-1.619,1.709,1.709,0,0,0-1.373-.579,1.94,1.94,0,0,0-1.443.608,2.759,2.759,0,0,0-.732,1.589Z" transform="matrix(0.731, 0.682, -0.682, 0.731, 835.525, 2094.424)" fill="#212429"/>
    <path id="Trazado_1240167" data-name="Trazado 1240167" d="M9.507,0H8.145L7.031-2.944H2.578L1.531,0H.161L4.189-10.5H5.464ZM6.628-4.05,4.98-8.525a4.285,4.285,0,0,1-.161-.7H4.79a3.923,3.923,0,0,1-.168.7L2.988-4.05ZM17.118,0H15.434L12.123-3.6h-.029V0h-1.2V-11.1h1.2v7.039h.029L15.272-7.5h1.575L13.368-3.882Zm7.458,0h-1.2V-4.277q0-2.388-1.743-2.388a1.891,1.891,0,0,0-1.49.677,2.511,2.511,0,0,0-.59,1.71V0h-1.2V-7.5h1.2v1.245h.029a2.707,2.707,0,0,1,2.461-1.421,2.3,2.3,0,0,1,1.882.795,3.54,3.54,0,0,1,.652,2.3Zm5.4.176A3.479,3.479,0,0,1,27.32-.875a3.893,3.893,0,0,1-.992-2.787A4.056,4.056,0,0,1,27.36-6.614a3.713,3.713,0,0,1,2.791-1.062,3.364,3.364,0,0,1,2.618,1.033,4.1,4.1,0,0,1,.941,2.864A4.029,4.029,0,0,1,32.7-.9,3.554,3.554,0,0,1,29.975.176Zm.088-6.841a2.285,2.285,0,0,0-1.831.787,3.234,3.234,0,0,0-.674,2.172,3.058,3.058,0,0,0,.681,2.1,2.315,2.315,0,0,0,1.824.769,2.2,2.2,0,0,0,1.791-.754,3.274,3.274,0,0,0,.626-2.146A3.33,3.33,0,0,0,31.854-5.9,2.186,2.186,0,0,0,30.063-6.665ZM45.079-7.5,42.831,0H41.586L40.04-5.369a3.5,3.5,0,0,1-.117-.7h-.029a3.284,3.284,0,0,1-.154.681L38.063,0h-1.2L34.591-7.5h1.26L37.4-1.86a3.4,3.4,0,0,1,.1.674h.059a3.152,3.152,0,0,1,.132-.688L39.425-7.5h1.1l1.553,5.654a4.037,4.037,0,0,1,.11.674h.059a3.117,3.117,0,0,1,.125-.674L43.893-7.5ZM47.674,0h-1.2V-11.1h1.2Zm8.461-3.45h-5.3a2.805,2.805,0,0,0,.674,1.934,2.323,2.323,0,0,0,1.772.681,3.685,3.685,0,0,0,2.329-.835V-.542A4.353,4.353,0,0,1,53,.176,3.17,3.17,0,0,1,50.5-.846a4.182,4.182,0,0,1-.908-2.875,4.1,4.1,0,0,1,.992-2.853,3.182,3.182,0,0,1,2.465-1.1,2.82,2.82,0,0,1,2.278.952,3.97,3.97,0,0,1,.806,2.644ZM54.9-4.468a2.444,2.444,0,0,0-.5-1.619,1.709,1.709,0,0,0-1.373-.579,1.94,1.94,0,0,0-1.443.608,2.759,2.759,0,0,0-.732,1.589ZM64.354,0h-1.2V-1.274h-.029A2.773,2.773,0,0,1,60.545.176a2.8,2.8,0,0,1-2.26-1.007,4.131,4.131,0,0,1-.846-2.743,4.5,4.5,0,0,1,.938-2.981,3.092,3.092,0,0,1,2.5-1.121A2.4,2.4,0,0,1,63.123-6.46h.029V-11.1h1.2Zm-1.2-3.391V-4.5a2.146,2.146,0,0,0-.6-1.538,2.014,2.014,0,0,0-1.523-.63,2.074,2.074,0,0,0-1.729.806,3.53,3.53,0,0,0-.63,2.227,3.175,3.175,0,0,0,.6,2.047A1.975,1.975,0,0,0,60.9-.835a2.052,2.052,0,0,0,1.63-.725A2.7,2.7,0,0,0,63.153-3.391ZM73.188-.6q0,4.131-3.955,4.131A5.31,5.31,0,0,1,66.8,3V1.8a4.994,4.994,0,0,0,2.417.7q2.769,0,2.769-2.944v-.82h-.029A2.809,2.809,0,0,1,69.38.176a2.816,2.816,0,0,1-2.252-1,4,4,0,0,1-.853-2.684,4.669,4.669,0,0,1,.919-3.04,3.071,3.071,0,0,1,2.516-1.128A2.445,2.445,0,0,1,71.958-6.46h.029V-7.5h1.2Zm-1.2-2.791V-4.5a2.146,2.146,0,0,0-.6-1.531,1.989,1.989,0,0,0-1.505-.637,2.086,2.086,0,0,0-1.743.809,3.612,3.612,0,0,0-.63,2.267,3.1,3.1,0,0,0,.6,2,1.952,1.952,0,0,0,1.6.751,2.091,2.091,0,0,0,1.644-.718A2.675,2.675,0,0,0,71.987-3.391Zm9.662-.059h-5.3a2.805,2.805,0,0,0,.674,1.934A2.323,2.323,0,0,0,78.8-.835a3.685,3.685,0,0,0,2.329-.835V-.542a4.353,4.353,0,0,1-2.615.718,3.17,3.17,0,0,1-2.5-1.022,4.182,4.182,0,0,1-.908-2.875A4.1,4.1,0,0,1,76.1-6.573a3.182,3.182,0,0,1,2.465-1.1,2.82,2.82,0,0,1,2.278.952,3.97,3.97,0,0,1,.806,2.644Zm-1.23-1.018a2.444,2.444,0,0,0-.5-1.619,1.709,1.709,0,0,0-1.373-.579,1.94,1.94,0,0,0-1.443.608,2.759,2.759,0,0,0-.732,1.589Z" transform="matrix(0.743, 0.669, -0.669, 0.743, 707.418, 2225.434)" fill="#212429"/>
    <path id="Trazado_1240168" data-name="Trazado 1240168" d="M33.9,0C52.619,0,67.8,15.6,67.8,34.853S52.619,69.705,33.9,69.705,0,54.1,0,34.853,15.177,0,33.9,0Z" transform="translate(856.623 2295.849)" fill="#c3b7ef"/>
    <g id="Grupo_1236963" data-name="Grupo 1236963" transform="translate(870.222 2316.23)">
      <g id="Layer_x0020_1-5" data-name="Layer_x0020_1" transform="translate(0 0)">
        <g id="_294706288-5" data-name="_294706288" transform="translate(0 0)">
          <path id="_294706360-5" data-name="_294706360" d="M5.488,6.223H35.4a3.18,3.18,0,0,1,3.171,3.171v21.2H2.318V9.393A3.18,3.18,0,0,1,5.488,6.223ZM4.371,28.536H36.522V9.393A1.126,1.126,0,0,0,35.4,8.276H5.488A1.126,1.126,0,0,0,4.371,9.393Z" transform="translate(-0.147 -6.223)" fill="#6c4dd8" fill-rule="evenodd"/>
          <path id="_294706768-5" data-name="_294706768" d="M0,33.117H40.6v1.878a1.883,1.883,0,0,1-1.878,1.878H1.878A1.883,1.883,0,0,1,0,34.995V33.117Zm17.311,2.934h5.977V34.468H17.311Z" transform="translate(0 -7.929)" fill="#6c4dd8" fill-rule="evenodd"/>
        </g>
      </g>
    </g>
    <path id="Trazado_1236800" data-name="Trazado 1236800" d="M5.415,0h70.4a5.415,5.415,0,0,1,5.415,5.415V22.745a5.415,5.415,0,0,1-5.415,5.415H5.415A5.415,5.415,0,0,1,0,22.745V5.415A5.415,5.415,0,0,1,5.415,0Z" transform="translate(877.344 2253.417)" fill="#85e4b6"/>
    <path id="Trazado_1240169" data-name="Trazado 1240169" d="M-22.109-.41a5.749,5.749,0,0,1-2.707.574,4.366,4.366,0,0,1-3.35-1.347,4.969,4.969,0,0,1-1.258-3.534,5.208,5.208,0,0,1,1.415-3.8,4.8,4.8,0,0,1,3.589-1.449,5.754,5.754,0,0,1,2.311.4V-8.34a4.686,4.686,0,0,0-2.324-.588A3.566,3.566,0,0,0-27.171-7.8,4.249,4.249,0,0,0-28.22-4.785a4.043,4.043,0,0,0,.981,2.854A3.338,3.338,0,0,0-24.666-.868a4.828,4.828,0,0,0,2.557-.656Zm4.773.574a3.247,3.247,0,0,1-2.478-.981,3.633,3.633,0,0,1-.926-2.6,3.785,3.785,0,0,1,.964-2.755,3.465,3.465,0,0,1,2.6-.991,3.14,3.14,0,0,1,2.444.964,3.822,3.822,0,0,1,.878,2.673A3.761,3.761,0,0,1-14.8-.844,3.317,3.317,0,0,1-17.336.164Zm.082-6.385a2.132,2.132,0,0,0-1.709.735,3.018,3.018,0,0,0-.629,2.027A2.854,2.854,0,0,0-18.956-1.5a2.161,2.161,0,0,0,1.7.718,2.049,2.049,0,0,0,1.671-.7,3.055,3.055,0,0,0,.584-2,3.108,3.108,0,0,0-.584-2.023A2.04,2.04,0,0,0-17.254-6.221ZM-6.247,0H-7.368V-3.992q0-2.229-1.627-2.229a1.765,1.765,0,0,0-1.391.632,2.344,2.344,0,0,0-.55,1.6V0h-1.121V-7h1.121v1.162h.027a2.526,2.526,0,0,1,2.3-1.326,2.142,2.142,0,0,1,1.757.742,3.3,3.3,0,0,1,.608,2.143Zm1.69-.253v-1.2A3.318,3.318,0,0,0-2.54-.779q1.477,0,1.477-.984a.854.854,0,0,0-.126-.475,1.26,1.26,0,0,0-.342-.345,2.631,2.631,0,0,0-.506-.27q-.291-.12-.625-.25a8.056,8.056,0,0,1-.817-.373A2.468,2.468,0,0,1-4.068-3.9a1.577,1.577,0,0,1-.355-.537,1.9,1.9,0,0,1-.12-.7,1.673,1.673,0,0,1,.226-.872,2,2,0,0,1,.6-.636,2.805,2.805,0,0,1,.858-.386,3.805,3.805,0,0,1,.995-.13A4.016,4.016,0,0,1-.237-6.85v1.135a3.171,3.171,0,0,0-1.777-.506,2.078,2.078,0,0,0-.567.072,1.389,1.389,0,0,0-.434.2.932.932,0,0,0-.28.311.819.819,0,0,0-.1.4.959.959,0,0,0,.1.458,1.008,1.008,0,0,0,.291.328,2.221,2.221,0,0,0,.465.26q.273.116.622.253a8.658,8.658,0,0,1,.834.366,2.86,2.86,0,0,1,.629.424,1.656,1.656,0,0,1,.4.543,1.753,1.753,0,0,1,.14.731,1.725,1.725,0,0,1-.229.9,1.963,1.963,0,0,1-.612.636,2.8,2.8,0,0,1-.882.376A4.354,4.354,0,0,1-2.684.164,3.971,3.971,0,0,1-4.557-.253ZM7.435-3.22H2.492a2.618,2.618,0,0,0,.629,1.8,2.168,2.168,0,0,0,1.654.636,3.439,3.439,0,0,0,2.174-.779V-.506a4.063,4.063,0,0,1-2.44.67A2.959,2.959,0,0,1,2.178-.79,3.9,3.9,0,0,1,1.33-3.473a3.828,3.828,0,0,1,.926-2.663,2.97,2.97,0,0,1,2.3-1.029,2.632,2.632,0,0,1,2.126.889,3.705,3.705,0,0,1,.752,2.468ZM6.286-4.17a2.281,2.281,0,0,0-.468-1.511,1.6,1.6,0,0,0-1.282-.54,1.811,1.811,0,0,0-1.347.567A2.575,2.575,0,0,0,2.506-4.17ZM14.942,0H13.821V-3.992q0-2.229-1.627-2.229a1.765,1.765,0,0,0-1.391.632,2.344,2.344,0,0,0-.55,1.6V0H9.131V-7h1.121v1.162h.027a2.526,2.526,0,0,1,2.3-1.326,2.142,2.142,0,0,1,1.757.742,3.3,3.3,0,0,1,.608,2.143Zm1.69-.253v-1.2a3.318,3.318,0,0,0,2.017.677q1.477,0,1.477-.984A.854.854,0,0,0,20-2.239a1.26,1.26,0,0,0-.342-.345,2.631,2.631,0,0,0-.506-.27q-.291-.12-.625-.25a8.056,8.056,0,0,1-.817-.373,2.468,2.468,0,0,1-.588-.424,1.577,1.577,0,0,1-.355-.537,1.9,1.9,0,0,1-.12-.7,1.673,1.673,0,0,1,.226-.872,2,2,0,0,1,.6-.636,2.805,2.805,0,0,1,.858-.386,3.805,3.805,0,0,1,.995-.13,4.016,4.016,0,0,1,1.627.314v1.135a3.171,3.171,0,0,0-1.777-.506,2.078,2.078,0,0,0-.567.072,1.389,1.389,0,0,0-.434.2.932.932,0,0,0-.28.311.819.819,0,0,0-.1.4.959.959,0,0,0,.1.458,1.008,1.008,0,0,0,.291.328,2.221,2.221,0,0,0,.465.26q.273.116.622.253a8.658,8.658,0,0,1,.834.366,2.86,2.86,0,0,1,.629.424,1.656,1.656,0,0,1,.4.543,1.753,1.753,0,0,1,.14.731,1.725,1.725,0,0,1-.229.9,1.963,1.963,0,0,1-.612.636,2.8,2.8,0,0,1-.882.376A4.354,4.354,0,0,1,18.5.164,3.971,3.971,0,0,1,16.632-.253Zm9.291.417a3.247,3.247,0,0,1-2.478-.981,3.633,3.633,0,0,1-.926-2.6,3.785,3.785,0,0,1,.964-2.755,3.465,3.465,0,0,1,2.6-.991,3.14,3.14,0,0,1,2.444.964,3.822,3.822,0,0,1,.878,2.673,3.761,3.761,0,0,1-.947,2.683A3.317,3.317,0,0,1,25.923.164Zm.082-6.385a2.132,2.132,0,0,0-1.709.735,3.018,3.018,0,0,0-.629,2.027A2.854,2.854,0,0,0,24.3-1.5a2.161,2.161,0,0,0,1.7.718,2.049,2.049,0,0,0,1.671-.7,3.055,3.055,0,0,0,.584-2,3.108,3.108,0,0,0-.584-2.023A2.04,2.04,0,0,0,26.005-6.221Z" transform="translate(918.344 2272.417)" fill="#212429"/>
  </g>
</svg>
