<svg xmlns="http://www.w3.org/2000/svg" width="114.27" height="114.289" viewBox="0 0 114.27 114.289">
  <g id="programador_2_" data-name="programador (2)" transform="translate(-0.042)">
    <path id="Trazado_1238083" data-name="Trazado 1238083" d="M130.145,223.876v12.96l14.273.448a.053.053,0,0,0,0-.006l.016-.01V223.817A17.1,17.1,0,0,1,130.145,223.876Z" transform="translate(-101.061 -173.857)" fill="#eab883"/>
    <path id="Trazado_1238084" data-name="Trazado 1238084" d="M136.844,225.614a16.52,16.52,0,0,1-6.7-1.532v12.96l8.195.257-1.037-2.867C136.562,232.385,136.953,231.262,136.844,225.614Z" transform="translate(-101.061 -174.062)" fill="#dda36f"/>
    <path id="Trazado_1238085" data-name="Trazado 1238085" d="M147.085,268.842a10.216,10.216,0,0,1-11.986-.071l-.092-.068V283h12.271V268.7Z" transform="translate(-104.838 -208.724)" fill="#efefef"/>
    <path id="Trazado_1238086" data-name="Trazado 1238086" d="M145.1,280.219l-3.431-9.484a10.643,10.643,0,0,1-6.665-2.03V283h6.74C142.919,282.144,145.1,280.219,145.1,280.219Z" transform="translate(-104.839 -208.725)" fill="#ddd"/>
    <path id="Trazado_1238087" data-name="Trazado 1238087" d="M76.486,309.9,70.6,273.3a8.042,8.042,0,0,0-6.141-6.243h0l-6.576-1.82-.8-.473-13.185,11.82,0-.008a1.968,1.968,0,0,1-3.682,0l0,.008-13.185-11.82-.8.473-6.576,1.82h0a8.043,8.043,0,0,0-6.141,6.243L7.624,309.9a7.1,7.1,0,0,0,6.963,8.381H69.524A7.1,7.1,0,0,0,76.486,309.9Z" transform="translate(-5.811 -205.666)" fill="#70b5e8"/>
    <g id="Grupo_1237063" data-name="Grupo 1237063" transform="translate(1.712 54.462)">
      <path id="Trazado_1238088" data-name="Trazado 1238088" d="M14.308,315.555,20.2,275.834a7.718,7.718,0,0,1,1.871-3.786l-2.413.668h0a8.043,8.043,0,0,0-6.141,6.243l-5.888,36.6a7.1,7.1,0,0,0,6.963,8.381h6.683A7.1,7.1,0,0,1,14.308,315.555Z" transform="translate(-7.524 -265.784)" fill="#52a5d8"/>
      <path id="Trazado_1238089" data-name="Trazado 1238089" d="M105.313,260.444,91.326,249.1l8.665-5.112V246.7Z" transform="translate(-72.62 -243.985)" fill="#52a5d8"/>
      <path id="Trazado_1238090" data-name="Trazado 1238090" d="M170.455,260.444,184.443,249.1l-8.7-5.112V246.7Z" transform="translate(-134.085 -243.985)" fill="#52a5d8"/>
    </g>
    <path id="Trazado_1238091" data-name="Trazado 1238091" d="M111.048,422.031v8.149h17.286v-8.149a4.824,4.824,0,0,1,3.655-4.671c-3.1-1.567-4.242-4.921-4.66-6.927a2.012,2.012,0,0,0-1.966-1.61H113.891a2.013,2.013,0,0,0-1.967,1.611c-.416,2-1.554,5.328-4.617,6.9A4.825,4.825,0,0,1,111.048,422.031Z" transform="translate(-83.322 -317.566)" fill="#a4d9f4"/>
    <path id="Trazado_1238092" data-name="Trazado 1238092" d="M116.823,430.18v-7.958a5.147,5.147,0,0,0-.975-3.02,4.209,4.209,0,0,1,.039-4.819,13.164,13.164,0,0,0,1.879-4.632,2.186,2.186,0,0,1,.44-.928h-4.314a2.013,2.013,0,0,0-1.967,1.611c-.416,2-1.554,5.328-4.617,6.9a4.825,4.825,0,0,1,3.74,4.693v8.149Z" transform="translate(-83.323 -317.566)" fill="#84c7ef"/>
    <g id="Grupo_1237064" data-name="Grupo 1237064" transform="translate(26.499 103.281)">
      <path id="Trazado_1238093" data-name="Trazado 1238093" d="M171.994,462.688h-.439a9.361,9.361,0,0,0-9.333,9.333h9.773v-9.333Z" transform="translate(-152.476 -462.688)" fill="#eab883"/>
      <path id="Trazado_1238094" data-name="Trazado 1238094" d="M118.563,462.688v9.333h9.745a9.361,9.361,0,0,0-9.334-9.333Z" transform="translate(-118.563 -462.688)" fill="#eab883"/>
    </g>
    <g id="Grupo_1237065" data-name="Grupo 1237065" transform="translate(26.499 107.948)">
      <path id="Trazado_1238095" data-name="Trazado 1238095" d="M162.222,488.261h9.773v-4.667h-8.511A9.252,9.252,0,0,0,162.222,488.261Z" transform="translate(-152.476 -483.594)" fill="#dda36f"/>
      <path id="Trazado_1238096" data-name="Trazado 1238096" d="M118.563,483.594v4.667h9.746a9.254,9.254,0,0,0-1.262-4.667Z" transform="translate(-118.563 -483.594)" fill="#dda36f"/>
    </g>
    <path id="Trazado_1238097" data-name="Trazado 1238097" d="M100.989,13.546a2.609,2.609,0,0,1-1.483-.907C93.7,5.4,78.255,6,70.225,14.031c-7.4,7.4-3.306,19.2-3.306,19.2h40.915C111.41,18.227,103.733,14.147,100.989,13.546Z" transform="translate(-51.071 -5.892)" fill="#93482b"/>
    <path id="Trazado_1238098" data-name="Trazado 1238098" d="M80.375,14.033a22.7,22.7,0,0,1,11.363-5.9c-6.986-1.627-16,.383-21.513,5.9-7.4,7.4-3.306,19.2-3.306,19.2h10.15S72.976,21.432,80.375,14.033Z" transform="translate(-51.071 -5.894)" fill="#843d26"/>
    <g id="Grupo_1237066" data-name="Grupo 1237066" transform="translate(13.877 25.327)">
      <path id="Trazado_1238099" data-name="Trazado 1238099" d="M64.016,114.442l-.006-.006a4.042,4.042,0,0,0,0,6.967l.006-.006a5.978,5.978,0,0,0,3.33.98v-8.914h0A5.978,5.978,0,0,0,64.016,114.442Z" transform="translate(-62.018 -113.462)" fill="#eab883"/>
      <path id="Trazado_1238100" data-name="Trazado 1238100" d="M242.4,114.443l.006-.006a4.367,4.367,0,0,1,1.93,2.8l0,.019c.012.066.022.133.03.2,0,.019,0,.037.006.056.006.057.012.114.016.172s0,.1.005.153c0,.026,0,.051,0,.077,0,0,0,0,0,.005s0,0,0,.005c0,.026,0,.051,0,.077,0,.051,0,.1-.005.153s-.01.115-.016.172c0,.019,0,.037-.006.056-.008.067-.019.133-.03.2l0,.019a4.366,4.366,0,0,1-1.93,2.8l-.006-.006a5.978,5.978,0,0,1-3.33.98v-8.913A6.036,6.036,0,0,1,242.4,114.443Z" transform="translate(-199.552 -113.464)" fill="#eab883"/>
    </g>
    <g id="Grupo_1237067" data-name="Grupo 1237067" transform="translate(13.875 27.779)">
      <path id="Trazado_1238101" data-name="Trazado 1238101" d="M64.006,125.924a4.729,4.729,0,0,1-1.421-1.478,4.005,4.005,0,0,0,1.421,5.489l.006-.006a5.978,5.978,0,0,0,3.33.98V126.9a5.975,5.975,0,0,1-3.33-.98Z" transform="translate(-62.013 -124.446)" fill="#dda36f"/>
      <path id="Trazado_1238102" data-name="Trazado 1238102" d="M244.4,126.368c0-.051,0-.1-.005-.153s-.01-.115-.016-.172c0-.019,0-.037-.006-.056-.008-.067-.019-.133-.03-.2l0-.019a3.94,3.94,0,0,0-.509-1.324,4.722,4.722,0,0,1-1.421,1.478l-.006-.006a5.978,5.978,0,0,1-3.33.98v4.01a5.978,5.978,0,0,0,3.33-.98l.006.006a4.365,4.365,0,0,0,1.93-2.8l0-.018c.012-.066.022-.133.03-.2,0-.019,0-.037.006-.056.006-.057.012-.114.016-.172s0-.1.005-.153c0-.026,0-.051,0-.077,0,0,0,0,0-.005s0,0,0-.005C244.4,126.419,244.4,126.393,244.4,126.368Z" transform="translate(-199.55 -124.445)" fill="#dda36f"/>
    </g>
    <path id="Trazado_1238103" data-name="Trazado 1238103" d="M119.931,107.9v-5.74a7.367,7.367,0,0,1-6.8-2.653,1.519,1.519,0,0,0-2.088-.31c-4.047,2.933-15.451,7.471-25.354,2.963v3.279h-.019c-.037,3.586,0,9.088.48,11.122a17.029,17.029,0,0,0,3.666,7.187c10.395,12.085,30.115,4.583,30.115-11.148,0-1.938,0-3.472,0-4.7h0Z" transform="translate(-66.504 -76.834)" fill="#f7cf9c"/>
    <path id="Trazado_1238104" data-name="Trazado 1238104" d="M92.786,127.864c-.481-2.033-.517-7.535-.48-11.121h.019v-1.506a21.254,21.254,0,0,1-6.637-1.773v3.279h-.019c-.037,3.586,0,9.088.48,11.121a16.993,16.993,0,0,0,19.8,12.84A17.2,17.2,0,0,1,92.786,127.864Z" transform="translate(-66.504 -88.136)" fill="#eab883"/>
    <path id="Trazado_1238105" data-name="Trazado 1238105" d="M288.278,229.271c-60.34,0-56.321-.117-57.147.332a2.75,2.75,0,0,0-1.44,2.419v43.96a2.751,2.751,0,0,0,2.751,2.751h55.836a2.751,2.751,0,0,0,2.751-2.751v-43.96A3.118,3.118,0,0,0,288.278,229.271Z" transform="translate(-178.386 -178.083)" fill="#efefef"/>
    <path id="Trazado_1238106" data-name="Trazado 1238106" d="M239.26,275.991v-43.96a2.751,2.751,0,0,1,2.751-2.751c-9.694.111-9.806-.252-10.881.332a2.75,2.75,0,0,0-1.44,2.419v43.96a2.751,2.751,0,0,0,2.751,2.751h9.569A2.751,2.751,0,0,1,239.26,275.991Z" transform="translate(-178.386 -178.091)" fill="#ddd"/>
    <path id="Trazado_1238107" data-name="Trazado 1238107" d="M338.013,79.936H302.256a2.686,2.686,0,0,0-2.678,2.678v18.078a2.686,2.686,0,0,0,2.678,2.678H333.73a2.941,2.941,0,0,1,1.979.765l2.609,2.371a1.419,1.419,0,0,0,2.374-1.05V82.615A2.687,2.687,0,0,0,338.013,79.936Z" transform="translate(-232.673 -62.093)" fill="#ffb70d"/>
    <path id="Trazado_1238108" data-name="Trazado 1238108" d="M307.02,100.692V82.614a2.686,2.686,0,0,1,2.678-2.678h-7.441a2.686,2.686,0,0,0-2.678,2.678v18.078a2.686,2.686,0,0,0,2.678,2.678H309.7A2.686,2.686,0,0,1,307.02,100.692Z" transform="translate(-232.674 -62.093)" fill="#f4a403"/>
    <circle id="Elipse_12798" data-name="Elipse 12798" cx="3.631" cy="3.631" r="3.631" transform="translate(78.301 60.169)" fill="#ccc"/>
    <path id="Trazado_1238109" data-name="Trazado 1238109" d="M354.251,269.56A3.629,3.629,0,1,0,357.392,275,3.627,3.627,0,0,1,354.251,269.56Z" transform="translate(-272.316 -209.389)" fill="#bcbbb8"/>
    <path id="Trazado_1238110" data-name="Trazado 1238110" d="M352.4,372.465V338.428a.006.006,0,0,0-.006-.006H339.837a.006.006,0,0,0-.006.006v34.037Z" transform="translate(-263.941 -262.879)" fill="#ddd"/>
    <path id="Trazado_1238111" data-name="Trazado 1238111" d="M346.115,338.428a.006.006,0,0,1,.006-.006h-6.284a.006.006,0,0,0-.006.006v34.037h6.284Z" transform="translate(-263.941 -262.879)" fill="#ccc"/>
    <path id="Trazado_1238112" data-name="Trazado 1238112" d="M337.721,480.388h0a3.029,3.029,0,0,0-3.029-3.03H317.07a3.03,3.03,0,0,0-3.03,3.03h0a3.029,3.029,0,0,0,3.03,3.03h17.622A3.03,3.03,0,0,0,337.721,480.388Z" transform="translate(-243.907 -370.802)" fill="#efefef"/>
    <path id="Trazado_1238113" data-name="Trazado 1238113" d="M323.049,480.388h0a3.03,3.03,0,0,1,3.03-3.03H317.07a3.03,3.03,0,0,0-3.03,3.03h0a3.029,3.029,0,0,0,3.03,3.03h9.008A3.03,3.03,0,0,1,323.049,480.388Z" transform="translate(-243.908 -370.802)" fill="#ddd"/>
    <path id="Trazado_1238114" data-name="Trazado 1238114" d="M343.117,267.353a5.305,5.305,0,1,0,5.305-5.305A5.311,5.311,0,0,0,343.117,267.353Zm7.262,0a1.957,1.957,0,1,1-1.957-1.957A1.96,1.96,0,0,1,350.379,267.353Z" transform="translate(-266.493 -203.554)"/>
    <path id="Trazado_1238115" data-name="Trazado 1238115" d="M255.175,410.5a1.674,1.674,0,1,0,0,3.348h5.152a1.674,1.674,0,1,0,0-3.348Z" transform="translate(-196.882 -318.871)"/>
    <path id="Trazado_1238116" data-name="Trazado 1238116" d="M304.81,410.994a1.665,1.665,0,0,0-1.823-.362,1.719,1.719,0,0,0-.29.154,1.629,1.629,0,0,0-.462.462,1.725,1.725,0,0,0-.25.6,1.667,1.667,0,0,0,1,1.873,1.67,1.67,0,0,0,2.185-2.185A2.239,2.239,0,0,0,304.81,410.994Z" transform="translate(-234.519 -318.872)"/>
    <path id="Trazado_1238117" data-name="Trazado 1238117" d="M339.882,105.26a1.674,1.674,0,0,0-2.367,0l-4.131,4.131a1.674,1.674,0,0,0,0,2.367l4.131,4.131a1.674,1.674,0,1,0,2.367-2.367l-2.948-2.948,2.948-2.947A1.674,1.674,0,0,0,339.882,105.26Z" transform="translate(-258.552 -81.383)"/>
    <path id="Trazado_1238118" data-name="Trazado 1238118" d="M414.909,116.38c1.2,0,1.3-.82,5.315-4.622a1.674,1.674,0,0,0,0-2.367l-4.131-4.131a1.674,1.674,0,0,0-2.367,2.367l2.948,2.947-2.948,2.948A1.676,1.676,0,0,0,414.909,116.38Z" transform="translate(-320.958 -81.383)"/>
    <path id="Trazado_1238119" data-name="Trazado 1238119" d="M375.857,97.474l-4.64,12.748a1.674,1.674,0,1,0,3.146,1.145L379,98.619a1.674,1.674,0,1,0-3.146-1.145Z" transform="translate(-288.242 -74.86)"/>
    <path id="Trazado_1238120" data-name="Trazado 1238120" d="M109.888,49.515c-58.188.188-56.1-.467-57.947.535a4.424,4.424,0,0,0-2.315,3.89v2.367l-4.581-2.786V52.342A18.439,18.439,0,0,0,55.064,35.764v-.025a7.421,7.421,0,0,0,2.427-.982,1.659,1.659,0,0,0,.172-.1,5.9,5.9,0,0,0,2.728-4.724,5.634,5.634,0,0,0-1.8-4.274c1.328-6.247.881-11.2-1.338-14.736a11,11,0,0,0-7.007-4.9A.94.94,0,0,1,49.7,5.7C44.987-.18,34.515-1.733,25.344,2.086a1.674,1.674,0,1,0,1.287,3.091c7.717-3.213,16.706-2.064,20.462,2.618a4.3,4.3,0,0,0,2.431,1.5A7.677,7.677,0,0,1,54.412,12.7c1.63,2.6,2,6.37,1.1,11.236a7.1,7.1,0,0,0-2.55-.241,5.644,5.644,0,0,1-5.06-2.06,3.19,3.19,0,0,0-4.385-.629c-3.723,2.7-14.308,6.909-23.456,2.889a1.655,1.655,0,0,0-.892-.244,1.091,1.091,0,0,0-.141,0,7.892,7.892,0,0,0-2.146.324c-1.261-5.467-.389-11.014,3.673-14.907h0a1.674,1.674,0,1,0-2.317-2.416c-5.243,5.026-6.3,12.255-4.366,19.079C10.416,29.2,12.4,34.7,17.535,35.752a26.862,26.862,0,0,0,.446,4.362,18.582,18.582,0,0,0,4.025,7.893,19.152,19.152,0,0,0,5.4,4.38v1.119L19.756,58.02c-.023.006-6.929,1.918-6.487,1.8a9.567,9.567,0,0,0-7.213,7.492c0,.021-.008.041-.011.062l-5.888,36.6a8.908,8.908,0,0,0,8.793,10.321H63.71a8.714,8.714,0,0,0,5.588-2.024,4.7,4.7,0,0,0,3.861,2.024H90.78a4.7,4.7,0,0,0,0-9.407h-.652v-2.558h6.714a1.674,1.674,0,0,0,0-3.348H90.129V76.991a1.675,1.675,0,0,0-.825-3.129H74.84a1.675,1.675,0,0,0-.628,3.225V98.976c-22.255,0-20.509.1-20.923-.316-.456-.456-.315,2.24-.315-44.721a1.076,1.076,0,0,1,1.077-1.077c59.486.046,55.9-.115,56.349.129a1.078,1.078,0,0,1,.565.948V97.9a1.077,1.077,0,0,1-.565.948c-.416.226-.287.087-5.745.129a1.674,1.674,0,0,0,0,3.348c4.98-.138,6.536.529,8.361-1.3a4.395,4.395,0,0,0,1.3-3.129V53.939A4.424,4.424,0,0,0,109.888,49.515ZM44.858,101.633a11.012,11.012,0,0,0-8.617,5.157,11.014,11.014,0,0,0-8.589-5.154,4.849,4.849,0,0,0-1.219-1.539,12.454,12.454,0,0,0,3.8-7.165H42.25a12.442,12.442,0,0,0,3.813,7.176A4.845,4.845,0,0,0,44.858,101.633ZM35.957,70.3,33.249,63.3a11.8,11.8,0,0,0,6.079.006l-2.754,7a.3.3,0,0,1-.307.209C36.042,70.518,36.013,70.437,35.957,70.3ZM41.7,53.722v3.57L41.065,58.9a8.521,8.521,0,0,1-9.519.007l-.791-2.042V53.785A18.718,18.718,0,0,0,41.7,53.722Zm7.5,6.244-7.222,5.751c3.148-8.005,3.107-7.694,3.066-8.279Zm5.864-27.716V27.317C57.662,28.356,57.738,31.181,55.065,32.251ZM17.474,27.317c-.023,1.307-.043,3.082-.025,4.922C14.8,31.157,14.882,28.354,17.474,27.317Zm7.071,18.507c-4.6-5.358-3.6-10.286-3.722-18.061,8.342,2.682,18.718.166,24.535-3.952a8.744,8.744,0,0,0,6.36,3.242c0,.815-.01,3.865,0,8.714C51.716,50,33.89,56.689,24.545,45.825ZM27.42,57.386c.059.467.234.622,3.149,8.27l-7.228-5.863ZM13.289,59.814q-.07.024-.138.055A1.194,1.194,0,0,1,13.289,59.814ZM3.463,104.5,9.345,67.936c1.04-5.106,5.826-4.885,10.686-6.518l5.7,4.628V76.8a1.674,1.674,0,1,0,3.348,0V68.762l3.975,3.225a3.679,3.679,0,0,0,6.414.008l3.98-3.169V76.8a1.674,1.674,0,1,0,3.348,0V66.159l2.826-2.251c.016,36.278-.034,33.954.037,34.538A6.336,6.336,0,0,1,46.526,95.3a11.892,11.892,0,0,1-1.144-4.124,1.674,1.674,0,0,0-1.672-1.589H28.773A1.678,1.678,0,0,0,27.1,91.168a11.893,11.893,0,0,1-1.144,4.13c-2.473,4.914-6.964,3.4-8.726,3.679l3.2-21.628a1.674,1.674,0,0,0-3.312-.49L13.846,98.977H12.12a1.674,1.674,0,1,0,0,3.348H23.35a1.473,1.473,0,0,1,1.472,1.467v7.149H8.951A5.559,5.559,0,0,1,3.463,104.5Zm24.707,6.441v-5.881a7.682,7.682,0,0,1,6.213,5.881Zm16.17-5.886v5.886H38.1A7.682,7.682,0,0,1,44.34,105.054Zm47.8,4.531a1.357,1.357,0,0,1-1.355,1.355H73.158a1.355,1.355,0,1,1,0-2.711H90.78A1.357,1.357,0,0,1,92.135,109.585Zm-14.575-4.7V77.216h9.221v27.666Zm-3.348,0a10.877,10.877,0,0,0-1.8.065c-.05-.7-.118-.9-.384-2.622h2.182Zm-5.573-2.558.383,2.381a5.382,5.382,0,0,1-5.312,6.235H47.688v-7.149a1.473,1.473,0,0,1,1.472-1.467Z" transform="translate(0 0)"/>
    <path id="Trazado_1238121" data-name="Trazado 1238121" d="M296.411,99.219h31.473c.831,0,1,.586,3.462,2.7a3.094,3.094,0,0,0,5.174-2.29V89.957a1.674,1.674,0,1,0-3.348,0v9.1c-1.619-1.246-2.685-3.184-5.288-3.184H296.411a1.018,1.018,0,0,1-1-1V76.789a1.018,1.018,0,0,1,1-1h35.757a1.018,1.018,0,0,1,1,1v5.356a1.674,1.674,0,1,0,3.348,0V76.789a4.357,4.357,0,0,0-4.352-4.352H296.411a4.357,4.357,0,0,0-4.352,4.352V94.867A4.357,4.357,0,0,0,296.411,99.219Z" transform="translate(-226.833 -56.268)"/>
  </g>
</svg>
