<svg xmlns="http://www.w3.org/2000/svg" xmlns:xlink="http://www.w3.org/1999/xlink" width="511.102" height="444.153" viewBox="0 0 511.102 444.153">
  <defs>
    <linearGradient id="linear-gradient" x1="4.185" y1="-8.13" x2="4.209" y2="-8.373" gradientUnits="objectBoundingBox">
      <stop offset="0" stop-color="#ae2a29"/>
      <stop offset="1" stop-color="#913540"/>
    </linearGradient>
  </defs>
  <g id="Grupo_1237575" data-name="Grupo 1237575" transform="translate(-569.107 -3881.762)">
    <g id="_391148165_f9899401-4d96-4900-895d-20872c7c0b05" data-name="391148165_f9899401-4d96-4900-895d-20872c7c0b05" transform="translate(310.889 3561.308)">
      <path id="Trazado_1238160" data-name="Trazado 1238160" d="M2365.2,642.876a3.856,3.856,0,0,1,1.947.184c.455.679.239,1.814.195,2.616a4.5,4.5,0,0,1-1.878-.215A4.818,4.818,0,0,1,2365.2,642.876Z" transform="translate(-1829.916 -279.997)" fill="#213ba8"/>
      <path id="Trazado_1238161" data-name="Trazado 1238161" d="M2461.173,645.163a6.02,6.02,0,0,1,2.033.138,4.7,4.7,0,0,1,.233,2.544,5.835,5.835,0,0,1-1.988-.208A4.583,4.583,0,0,1,2461.173,645.163Z" transform="translate(-1913.279 -281.995)" fill="#213ba8"/>
      <path id="Trazado_1238162" data-name="Trazado 1238162" d="M2646.379,645.525a4.576,4.576,0,0,1,2.26.1,4.665,4.665,0,0,1,.3,2.411,5.892,5.892,0,0,1-2.23-.205A4.12,4.12,0,0,1,2646.379,645.525Z" transform="translate(-2074.156 -282.249)" fill="#213ba8"/>
      <path id="Trazado_1238163" data-name="Trazado 1238163" d="M1441.729,644.648a4.537,4.537,0,0,1,2.255.121,3.8,3.8,0,0,1,.185,2.473,5.5,5.5,0,0,1-2.129-.117A4.442,4.442,0,0,1,1441.729,644.648Z" transform="translate(-1027.879 -281.498)" fill="#213ba8"/>
      <path id="Trazado_1238164" data-name="Trazado 1238164" d="M2412.555,644.021a4.664,4.664,0,0,1,2.233.282,4.13,4.13,0,0,1,.111,2.543,5.252,5.252,0,0,1-2.036-.181A4.651,4.651,0,0,1,2412.555,644.021Z" transform="translate(-1871.048 -281.014)" fill="#213ba8"/>
      <path id="Trazado_1238165" data-name="Trazado 1238165" d="M1250.338,644.86a5.068,5.068,0,0,1,2.2.169,4.338,4.338,0,0,1,.323,2.525,5.506,5.506,0,0,1-2.3-.2A4.077,4.077,0,0,1,1250.338,644.86Z" transform="translate(-861.604 -281.718)" fill="#213ba8"/>
      <path id="Trazado_1238166" data-name="Trazado 1238166" d="M2506.1,644.465a4.989,4.989,0,0,1,2.176.117,1.575,1.575,0,1,1-1.924,2.414A4.183,4.183,0,0,1,2506.1,644.465Z" transform="translate(-1952.266 -281.356)" fill="#213ba8"/>
      <path id="Trazado_1238167" data-name="Trazado 1238167" d="M2599.674,644.946a6.331,6.331,0,0,1,2.233.129,5,5,0,0,1,.284,2.6,5.372,5.372,0,0,1-2.233-.222A4.586,4.586,0,0,1,2599.674,644.946Z" transform="translate(-2033.568 -281.794)" fill="#213ba8"/>
      <path id="Trazado_1238168" data-name="Trazado 1238168" d="M1392.662,644.736a5.245,5.245,0,0,1,2.257.182,4.614,4.614,0,0,1,.281,2.487,4.167,4.167,0,0,1-2.384-.256A4.534,4.534,0,0,1,1392.662,644.736Z" transform="translate(-985.212 -281.613)" fill="#213ba8"/>
      <path id="Trazado_1238169" data-name="Trazado 1238169" d="M1583.724,645.163a5.6,5.6,0,0,1,2.263.136c.481.65.3,1.742.286,2.531a5.066,5.066,0,0,1-2.3-.2A3.848,3.848,0,0,1,1583.724,645.163Z" transform="translate(-1151.159 -281.974)" fill="#213ba8"/>
      <path id="Trazado_1238170" data-name="Trazado 1238170" d="M2533.117,3404.187a5.54,5.54,0,0,1,2.519.2,3.759,3.759,0,0,1,.217,2.324,6.391,6.391,0,0,1-2.417-.158A4.142,4.142,0,0,1,2533.117,3404.187Z" transform="translate(-1975.777 -2678.239)" fill="#213ba8"/>
      <path id="Trazado_1238171" data-name="Trazado 1238171" d="M2786.606,646.047a4.24,4.24,0,0,1,2.647.808,2.449,2.449,0,0,1-.716,1.63,2.1,2.1,0,0,1-1.373.718l-.506-.353A4.97,4.97,0,0,1,2786.606,646.047Z" transform="translate(-2195.8 -282.783)" fill="#213ba8"/>
      <path id="Trazado_1238172" data-name="Trazado 1238172" d="M1536.578,644.6a5.259,5.259,0,0,1,2.23.176c.485.7.265,1.8.213,2.621a5.13,5.13,0,0,1-2.2-.218A4.838,4.838,0,0,1,1536.578,644.6Z" transform="translate(-1110.234 -281.5)" fill="#213ba8"/>
      <path id="Trazado_1238173" data-name="Trazado 1238173" d="M650.75,2711.88a4.971,4.971,0,0,1,1.537,1.489,3.84,3.84,0,0,1-.863,2.361c-.706-.552-1.73-1.262-1.929-2.168C649.736,2712.715,650.123,2712.481,650.75,2711.88Z" transform="translate(-339.832 -2076.998)" fill="#152993"/>
      <path id="Trazado_1238174" data-name="Trazado 1238174" d="M2693.287,644.358a4.422,4.422,0,0,1,2.257.145,4.64,4.64,0,0,1,.239,2.632,4.077,4.077,0,0,1-2.3-.282A4.141,4.141,0,0,1,2693.287,644.358Z" transform="translate(-2114.821 -281.252)" fill="#213ba8"/>
      <path id="Trazado_1238175" data-name="Trazado 1238175" d="M1632.533,644.6a5.223,5.223,0,0,1,2.49.2,4.721,4.721,0,0,1-.176,2.521,3.122,3.122,0,0,1-2.11-.16A4.68,4.68,0,0,1,1632.533,644.6Z" transform="translate(-1193.554 -281.478)" fill="#213ba8"/>
      <path id="Trazado_1238176" data-name="Trazado 1238176" d="M1099.083,3269.89c.459.03.915.09,1.372.144a1.684,1.684,0,0,1,.805,1.268,2.531,2.531,0,0,1-.532,1.675,7.584,7.584,0,0,1-1.539-.181c-.412-.422-.831-.7-.833-1.348A2.133,2.133,0,0,1,1099.083,3269.89Z" transform="translate(-729.677 -2561.64)" fill="#213ba8"/>
      <path id="Trazado_1238177" data-name="Trazado 1238177" d="M1488.453,644.82a5.507,5.507,0,0,1,2.458.145,4.052,4.052,0,0,1,.291,2.451,5.852,5.852,0,0,1-2.51-.223A3.588,3.588,0,0,1,1488.453,644.82Z" transform="translate(-1068.412 -281.66)" fill="#213ba8"/>
      <path id="Trazado_1238178" data-name="Trazado 1238178" d="M1298.727,644.212a1.889,1.889,0,0,1,2.57,2.71,5.639,5.639,0,0,1-2.364-.168A4.844,4.844,0,0,1,1298.727,644.212Z" transform="translate(-903.645 -281.121)" fill="#213ba8"/>
      <path id="Trazado_1238179" data-name="Trazado 1238179" d="M2861.1,701.039a1.756,1.756,0,0,1,.162.157,3.609,3.609,0,0,1,1.016,2.412c-.437.722-.751.651-1.542.874a1.774,1.774,0,0,1-.88-.292c-.512-.388-.476-.652-.494-1.23A3.912,3.912,0,0,1,2861.1,701.039Z" transform="translate(-2259.142 -330.545)" fill="#213ba8"/>
      <path id="Trazado_1238180" data-name="Trazado 1238180" d="M1346.883,644.605a5.274,5.274,0,0,1,2.392.166,4.5,4.5,0,0,1,.266,2.541,6.03,6.03,0,0,1-2.37-.151A4.722,4.722,0,0,1,1346.883,644.605Z" transform="translate(-945.496 -281.483)" fill="#213ba8"/>
      <path id="Trazado_1238181" data-name="Trazado 1238181" d="M1100.327,3181.253a4.422,4.422,0,0,1,2.169.229c.507.746.271,1.945.226,2.814a3.583,3.583,0,0,1-2.123-.234A4.972,4.972,0,0,1,1100.327,3181.253Z" transform="translate(-731.331 -2484.633)" fill="#213ba8"/>
      <path id="Trazado_1238182" data-name="Trazado 1238182" d="M1199.876,646.525a3.6,3.6,0,0,1,2.447.335,2.322,2.322,0,0,1,.476,1.229,1.7,1.7,0,0,1-1.07.678,12.774,12.774,0,0,1-1.5.217,1.922,1.922,0,0,1-1.015-1.16A1.967,1.967,0,0,1,1199.876,646.525Z" transform="translate(-817.269 -283.152)" fill="#213ba8"/>
      <path id="Trazado_1238183" data-name="Trazado 1238183" d="M1221.543,3401.828a5.331,5.331,0,0,1,2.6.256,3.812,3.812,0,0,1,.225,2.317,8.522,8.522,0,0,1-2.6-.116A4.056,4.056,0,0,1,1221.543,3401.828Z" transform="translate(-836.601 -2676.201)" fill="#213ba8"/>
      <path id="Trazado_1238184" data-name="Trazado 1238184" d="M1504.061,3402.232a6.772,6.772,0,0,1,2.641.2,3.6,3.6,0,0,1,.332,2.348,6.3,6.3,0,0,1-2.661-.163A4.41,4.41,0,0,1,1504.061,3402.232Z" transform="translate(-1082.026 -2676.554)" fill="#213ba8"/>
      <path id="Trazado_1238185" data-name="Trazado 1238185" d="M1101.466,3312.783c.243-.036.68-.105.913-.114.8-.029.927.227,1.508.738a1.564,1.564,0,0,1,.022,1.394l-.773.4a10.817,10.817,0,0,1-1.327.328,3.118,3.118,0,0,1-.618-.563,1.8,1.8,0,0,1-.28-1.383C1101,3313.005,1101.044,3313.1,1101.466,3312.783Z" transform="translate(-731.868 -2598.793)" fill="#213ba8"/>
      <path id="Trazado_1238186" data-name="Trazado 1238186" d="M1144.446,3374.45a2.707,2.707,0,0,1,1.426,1.052,3.578,3.578,0,0,1-1.476,2.438,23.365,23.365,0,0,1-2.208-1.725C1142.969,3375.677,1143.7,3375.039,1144.446,3374.45Z" transform="translate(-767.745 -2652.452)" fill="#213ba8"/>
      <path id="Trazado_1238187" data-name="Trazado 1238187" d="M1456.814,3401.988a7.287,7.287,0,0,1,2.65.146,4.2,4.2,0,0,1,.5,2.337,7.56,7.56,0,0,1-2.767-.144A3.794,3.794,0,0,1,1456.814,3401.988Z" transform="translate(-1040.997 -2676.328)" fill="#213ba8"/>
      <path id="Trazado_1238188" data-name="Trazado 1238188" d="M1266.632,3401.867a6.33,6.33,0,0,1,2.7.159,4.161,4.161,0,0,1,.32,2.334,6.564,6.564,0,0,1-2.667-.126A4.1,4.1,0,0,1,1266.632,3401.867Z" transform="translate(-875.817 -2676.208)" fill="#213ba8"/>
      <path id="Trazado_1238189" data-name="Trazado 1238189" d="M620.344,2674.095c.558-.066,1.33-.242,1.8.145a1.783,1.783,0,0,1,.808,1.383c.035.89-.54,1.277-1.12,1.806l-.538.02a7.006,7.006,0,0,1-1.368-3.056Z" transform="translate(-314.154 -2044.096)" fill="#213ba8"/>
      <path id="Trazado_1238190" data-name="Trazado 1238190" d="M2740.676,642.078l1.054.1a1.881,1.881,0,0,1,.526,1.459,1.928,1.928,0,0,1-.843,1.647,3.485,3.485,0,0,1-1.574-.289,2.5,2.5,0,0,1-.55-1.563C2739.745,642.519,2739.756,642.511,2740.676,642.078Z" transform="translate(-2154.857 -279.336)" fill="#213ba8"/>
      <path id="Trazado_1238191" data-name="Trazado 1238191" d="M1099.827,3225.584a3.5,3.5,0,0,1,2.18.221,5.339,5.339,0,0,1,.221,2.9,4.108,4.108,0,0,1-2.238-.29C1099.5,3227.655,1099.764,3226.453,1099.827,3225.584Z" transform="translate(-730.843 -2523.104)" fill="#213ba8"/>
      <path id="Trazado_1238192" data-name="Trazado 1238192" d="M1362.014,3401.848a6.274,6.274,0,0,1,2.689.178,4.372,4.372,0,0,1,.289,2.377,6.025,6.025,0,0,1-2.707-.177A3.772,3.772,0,0,1,1362.014,3401.848Z" transform="translate(-958.617 -2676.199)" fill="#213ba8"/>
      <path id="Trazado_1238193" data-name="Trazado 1238193" d="M1313.857,3401.889a7.078,7.078,0,0,1,2.786.139,3.971,3.971,0,0,1,.341,2.281,6.2,6.2,0,0,1-2.81-.09A3.633,3.633,0,0,1,1313.857,3401.889Z" transform="translate(-916.81 -2676.225)" fill="#213ba8"/>
      <path id="Trazado_1238194" data-name="Trazado 1238194" d="M1408.556,3401.656a6.206,6.206,0,0,1,2.65.134,4.244,4.244,0,0,1,.351,2.416,6.441,6.441,0,0,1-2.706-.159A3.528,3.528,0,0,1,1408.556,3401.656Z" transform="translate(-999.036 -2676.015)" fill="#213ba8"/>
      <path id="Trazado_1238195" data-name="Trazado 1238195" d="M2484.9,3403.817a6.639,6.639,0,0,1,2.987.229,3.384,3.384,0,0,1,.268,2.259,9.489,9.489,0,0,1-2.676-.078A4.323,4.323,0,0,1,2484.9,3403.817Z" transform="translate(-1933.916 -2677.911)" fill="#213ba8"/>
      <path id="Trazado_1238196" data-name="Trazado 1238196" d="M607.813,2301.49c.5.006.992.029,1.49.054.454.433.738.62.821,1.283a2.824,2.824,0,0,1-.5,1.715,5.885,5.885,0,0,1-1.731-.106,2.545,2.545,0,0,1-.835-1.561C607.234,2302.264,607.278,2301.885,607.813,2301.49Z" transform="translate(-302.975 -1720.567)" fill="#213ba8"/>
      <path id="Trazado_1238197" data-name="Trazado 1238197" d="M688.727,2741.09a4.159,4.159,0,0,1,2.038,1.295,4.012,4.012,0,0,1-.668,2.441,5.645,5.645,0,0,1-2.389-1.521A4.07,4.07,0,0,1,688.727,2741.09Z" transform="translate(-373.02 -2102.368)" fill="#152993"/>
      <path id="Trazado_1238198" data-name="Trazado 1238198" d="M610.77,2626.55a26.219,26.219,0,0,1,.373,2.672,3.54,3.54,0,0,1-2.092.738,2.212,2.212,0,0,1-.634-1.132,1.844,1.844,0,0,1,.27-1.594C609.2,2626.546,610,2626.641,610.77,2626.55Z" transform="translate(-304.098 -2002.888)" fill="#213ba8"/>
      <path id="Trazado_1238199" data-name="Trazado 1238199" d="M1180.636,3391.39a3.637,3.637,0,0,1,2.305.912,4.992,4.992,0,0,1-.78,2.622q-.356-.092-.709-.193c-.726-.214-1.181-.306-1.561-.988Q1180.287,3392.573,1180.636,3391.39Z" transform="translate(-800.491 -2667.166)" fill="#213ba8"/>
      <path id="Trazado_1238200" data-name="Trazado 1238200" d="M1114.743,890.27a6.362,6.362,0,0,1,2.9.206,3.484,3.484,0,0,1,.231,2.309,6.278,6.278,0,0,1-2.822-.148A3.879,3.879,0,0,1,1114.743,890.27Z" transform="translate(-743.879 -494.839)" fill="#213ba8"/>
      <path id="Trazado_1238201" data-name="Trazado 1238201" d="M731.657,2760.16a6.585,6.585,0,0,1,2.6.911,3.452,3.452,0,0,1,.181,2.2c-.934-.073-2.253,0-2.948-.675A4.059,4.059,0,0,1,731.657,2760.16Z" transform="translate(-410.928 -2118.931)" fill="#152993"/>
      <path id="Trazado_1238202" data-name="Trazado 1238202" d="M1116.254,799.8l.128.13a2.045,2.045,0,0,1-.053,1.836,4.087,4.087,0,0,1-2.736.675,2.368,2.368,0,0,1-.605-1.115c-.128-.43.114-.6.321-.977A4.979,4.979,0,0,1,1116.254,799.8Z" transform="translate(-742.353 -416.325)" fill="#213ba8"/>
      <path id="Trazado_1238203" data-name="Trazado 1238203" d="M2830.176,661.4a8.24,8.24,0,0,1,2.463,2.05c.046.851-.245.939-.8,1.559a2.491,2.491,0,0,1-1.2,0,1.377,1.377,0,0,1-1.082-.985A3.6,3.6,0,0,1,2830.176,661.4Z" transform="translate(-2233.191 -296.116)" fill="#213ba8"/>
      <path id="Trazado_1238204" data-name="Trazado 1238204" d="M609.224,2393.833l.255.219a12.038,12.038,0,0,1-.054,2.379,4.03,4.03,0,0,1-2.4.338,1.064,1.064,0,0,1-.142-.178,2.46,2.46,0,0,1-.039-2.281A3.453,3.453,0,0,1,609.224,2393.833Z" transform="translate(-302.558 -1800.765)" fill="#213ba8"/>
      <path id="Trazado_1238205" data-name="Trazado 1238205" d="M1120.289,699.988c.652.406,1.292.816,1.918,1.261a4.65,4.65,0,0,1-.324,2.418l-2.927-.349C1119.337,702.175,1119.8,701.089,1120.289,699.988Z" transform="translate(-747.569 -329.632)" fill="#213ba8"/>
      <path id="Trazado_1238206" data-name="Trazado 1238206" d="M607.487,2347.753a4.742,4.742,0,0,1,2.508.209,4.42,4.42,0,0,1,.206,2.67,5.441,5.441,0,0,1-2.423-.085A5.271,5.271,0,0,1,607.487,2347.753Z" transform="translate(-303.309 -1760.691)" fill="#213ba8"/>
      <path id="Trazado_1238207" data-name="Trazado 1238207" d="M2866.353,938.806a5.75,5.75,0,0,1,2.859.229,4.025,4.025,0,0,1,.25,2.377c-.871.048-2.066.282-2.833-.181A4.014,4.014,0,0,1,2866.353,938.806Z" transform="translate(-2265.17 -536.993)" fill="#213ba8"/>
      <path id="Trazado_1238208" data-name="Trazado 1238208" d="M607.412,2579.7a4.574,4.574,0,0,1,2.53.284,4.474,4.474,0,0,1,.114,2.637,4.389,4.389,0,0,1-2.392-.027C607.145,2581.843,607.376,2580.589,607.412,2579.7Z" transform="translate(-303.211 -1962.167)" fill="#213ba8"/>
      <path id="Trazado_1238209" data-name="Trazado 1238209" d="M608.047,2531.43a4.875,4.875,0,0,1,2.385.473,5.171,5.171,0,0,1,.26,2.82,3.893,3.893,0,0,1-2.441-.291C607.758,2533.608,608,2532.362,608.047,2531.43Z" transform="translate(-303.746 -1920.274)" fill="#213ba8"/>
      <path id="Trazado_1238210" data-name="Trazado 1238210" d="M2865.619,890.068a5.948,5.948,0,0,1,2.97.2,3.747,3.747,0,0,1,.163,2.456,6.339,6.339,0,0,1-2.782-.072C2865.449,891.979,2865.61,890.9,2865.619,890.068Z" transform="translate(-2264.551 -494.646)" fill="#213ba8"/>
      <path id="Trazado_1238211" data-name="Trazado 1238211" d="M607.581,2484.514a4.444,4.444,0,0,1,2.425.279c.512.775.268,2.1.231,3.005a4.479,4.479,0,0,1-2.408-.27C607.3,2486.714,607.539,2485.453,607.581,2484.514Z" transform="translate(-303.352 -1879.497)" fill="#213ba8"/>
      <path id="Trazado_1238212" data-name="Trazado 1238212" d="M2865.291,795.233a5.337,5.337,0,0,1,2.8.178,4.2,4.2,0,0,1,.2,2.525,13.038,13.038,0,0,1-2.1.027c-.7-.1-.8-.258-1.146-.8A9.9,9.9,0,0,1,2865.291,795.233Z" transform="translate(-2264.074 -412.27)" fill="#213ba8"/>
      <path id="Trazado_1238213" data-name="Trazado 1238213" d="M1120.85,3345.3a5.443,5.443,0,0,1,1.991,1.859,28.282,28.282,0,0,1-2.389,1.785,1.977,1.977,0,0,1-1.038-.425,1.439,1.439,0,0,1-.37-1.319C1119.135,3346.238,1120.148,3345.786,1120.85,3345.3Z" transform="translate(-747.629 -2627.135)" fill="#213ba8"/>
      <path id="Trazado_1238214" data-name="Trazado 1238214" d="M1149.358,659.746a6.379,6.379,0,0,1,1.13,1.966l-2.731,2.086-1.679-1.654A33.921,33.921,0,0,1,1149.358,659.746Z" transform="translate(-771.123 -294.681)" fill="#213ba8"/>
      <path id="Trazado_1238215" data-name="Trazado 1238215" d="M1114.974,751.289a5.832,5.832,0,0,1,2.873.326,4.172,4.172,0,0,1,.266,2.555,6.422,6.422,0,0,1-2.857-.158A4.814,4.814,0,0,1,1114.974,751.289Z" transform="translate(-744.061 -374.169)" fill="#213ba8"/>
      <path id="Trazado_1238216" data-name="Trazado 1238216" d="M607.252,2439.206a4.747,4.747,0,0,1,2.5.262c.52.819.288,2.065.248,3.005a4.775,4.775,0,0,1-2.47-.2C606.982,2441.457,607.218,2440.154,607.252,2439.206Z" transform="translate(-303.074 -1840.141)" fill="#213ba8"/>
      <path id="Trazado_1238217" data-name="Trazado 1238217" d="M2868.392,749.074l.281.216a5.622,5.622,0,0,1,0,2.3c-.684.685-1.715.458-2.666.469l-.434-.163a4.466,4.466,0,0,1,.344-2.389A4.55,4.55,0,0,1,2868.392,749.074Z" transform="translate(-2264.523 -372.264)" fill="#213ba8"/>
      <path id="Trazado_1238218" data-name="Trazado 1238218" d="M1114.083,843.32a6.97,6.97,0,0,1,3.053.2,3.451,3.451,0,0,1,.19,2.324c-.922.113-2.057.544-2.951.249C1113.879,845.358,1114.063,844.187,1114.083,843.32Z" transform="translate(-743.292 -454.058)" fill="#213ba8"/>
      <path id="Trazado_1238219" data-name="Trazado 1238219" d="M2865.371,842.638l3.22,0,.016,3a6.35,6.35,0,0,1-2.91-.207A5.136,5.136,0,0,1,2865.371,842.638Z" transform="translate(-2264.334 -453.525)" fill="#213ba8"/>
      <path id="Trazado_1238220" data-name="Trazado 1238220" d="M3577.77,2187.846c4.785-1.262,20.1-3.077,24.85-2.8a6.847,6.847,0,0,1,.478,2.836l-.83.115a53.664,53.664,0,0,0-7.754-.1Q3586.142,2187.965,3577.77,2187.846Z" transform="translate(-2883.094 -1619.407)" fill="#dad4d2"/>
      <path id="Trazado_1238221" data-name="Trazado 1238221" d="M3366.132,2822.49q5.625.148,11.251.132c2.405,0,5.458-.374,7.779.155a3.582,3.582,0,0,1,.3,2.192,153.3,153.3,0,0,1-19,0A4.6,4.6,0,0,1,3366.132,2822.49Z" transform="translate(-2699.267 -2173.065)" fill="#558cde"/>
      <path id="Trazado_1238222" data-name="Trazado 1238222" d="M3366.7,2760.005c6.092.4,13.188-.544,19.012.166a6.361,6.361,0,0,1,.229,2.511c-3.608.125-7.25.052-10.861.069a67.8,67.8,0,0,1-8.1-.109A5.94,5.94,0,0,1,3366.7,2760.005Z" transform="translate(-2699.763 -2118.702)" fill="#558cde"/>
      <path id="Trazado_1238223" data-name="Trazado 1238223" d="M3366.715,2790.593q5.881.091,11.762.009a48.491,48.491,0,0,1,7.054.127,5.477,5.477,0,0,1,.253,2.686c-5.22.039-14,.571-18.811-.025A6.85,6.85,0,0,1,3366.715,2790.593Z" transform="translate(-2699.773 -2145.313)" fill="#558cde"/>
      <path id="Trazado_1238224" data-name="Trazado 1238224" d="M3366.787,2696.064c2.817-.035,17.128-.635,18.53.306a4.309,4.309,0,0,1,.3,2.49l-11.572.022a44.464,44.464,0,0,1-7.334-.152l-.313-.51A5.034,5.034,0,0,1,3366.787,2696.064Z" transform="translate(-2699.511 -2063.071)" fill="#558cde"/>
      <path id="Trazado_1238225" data-name="Trazado 1238225" d="M3366.264,2728.48l19.233.014.021,2.815c-3.174.17-16.469.519-19.019-.065A6.949,6.949,0,0,1,3366.264,2728.48Z" transform="translate(-2699.375 -2091.416)" fill="#558cde"/>
      <path id="Trazado_1238226" data-name="Trazado 1238226" d="M1048.813,2522.04a51.835,51.835,0,0,0,5.032,5.492l-16.9.044-3.721.014c1.3-1.584,2.637-3.143,3.957-4.713a9.584,9.584,0,0,0,3.885,1.509C1044.145,2524.865,1046.4,2523.807,1048.813,2522.04Z" transform="translate(-673.106 -1912.119)" fill="#d84100"/>
      <path id="Trazado_1238227" data-name="Trazado 1238227" d="M2571.887,1800.24c6.5.253,13.05.09,19.556.084,7.032-.006,14.095.128,21.123-.042a2.684,2.684,0,0,1,.237,1.448c-.4.462-.38.344-.974.386-4.986.354-10.193.048-15.2.038-8.322-.016-16.653.1-24.974.017A16.152,16.152,0,0,1,2571.887,1800.24Z" transform="translate(-2009.264 -1285.222)" fill="#558cde"/>
      <path id="Trazado_1238228" data-name="Trazado 1238228" d="M3110.15,2547.808c8.963-.115,17.938-.041,26.9-.064,4.891-.012,10.145-.408,15,.1a2.74,2.74,0,0,1,.068,1.708q-14.28.073-28.557.389c-4.176.051-8.792.475-12.92-.047A3.432,3.432,0,0,1,3110.15,2547.808Z" transform="translate(-2476.957 -1934.305)" fill="#dad4d2"/>
      <path id="Trazado_1238229" data-name="Trazado 1238229" d="M3109.71,2522.149l30.151-.03c2.725,0,10.865-.452,12.968.179.073.717-.2.958-.546,1.564-1.15.675-38.248.433-42.174.252A3.848,3.848,0,0,1,3109.71,2522.149Z" transform="translate(-2476.575 -1912.05)" fill="#dad4d2"/>
      <path id="Trazado_1238230" data-name="Trazado 1238230" d="M1991.34,1013.52l2.113.061c.264,5.4.091,10.874.091,16.285l.024,29.439-2.057-.038Z" transform="translate(-1505.25 -601.94)" fill="#558cde"/>
      <path id="Trazado_1238231" data-name="Trazado 1238231" d="M1993.73,2873.9l2.244.021c.559,15.427.1,31.024.058,46.465-.706-.059-1.441-.037-2.15-.052C1994.044,2904.865,1993.788,2889.371,1993.73,2873.9Z" transform="translate(-1507.325 -2217.716)" fill="#558cde"/>
      <path id="Trazado_1238232" data-name="Trazado 1238232" d="M3108.776,2493.524c9.148-.482,18.518.094,27.692.111l16.164.021c1.857,0,3.8-.264,5.64-.149a3.119,3.119,0,0,1,1.726.537,1.993,1.993,0,0,1,.021,1.442l-.606.24c-12.2-.3-24.447-.11-36.65-.1-3.554,0-10.875.575-13.971-.193a1.159,1.159,0,0,1-.969-.689C3108.067,2494.012,3108.144,2493.988,3108.776,2493.524Z" transform="translate(-2474.937 -1887.185)" fill="#dad4d2"/>
      <path id="Trazado_1238233" data-name="Trazado 1238233" d="M3111.29,2573.375c6.676-.044,51.71-.573,53.441.13a2.376,2.376,0,0,1,.248,1.715,75.984,75.984,0,0,1-9.375.154h-17.37l-17.823.045a67.446,67.446,0,0,1-8.926-.145A3.784,3.784,0,0,1,3111.29,2573.375Z" transform="translate(-2477.924 -1956.502)" fill="#dad4d2"/>
      <path id="Trazado_1238234" data-name="Trazado 1238234" d="M1529.432,2802.706c-13.949-.185-27.917-.015-41.868-.019-6.11,0-12.529.43-18.59-.083a3.356,3.356,0,0,1-1.294-.388l-.141-.438a1.731,1.731,0,0,1,.123-.2,3.717,3.717,0,0,1,2.439-.891c1.755-.146,3.621.036,5.39.044l12.374.041q20.815.111,41.63-.008Z" transform="translate(-1050.319 -2154.08)" fill="#558cde"/>
      <path id="Trazado_1238235" data-name="Trazado 1238235" d="M2133.452,1445.92a11.789,11.789,0,0,1,7.789,4.757,12.4,12.4,0,0,1,1.644,9.4,18.32,18.32,0,0,1-2.623,5.939c-.009.088-.02.176-.029.264-.321,3.22.783,8.609-.524,11.384a2,2,0,0,1-1.65.55c-.81-.087-.915-.264-1.382-.862a91.344,91.344,0,0,0-.04-15.735c-.352-3.2-1.341-5.781-3.91-7.831C2132.432,1452.147,2133.374,1447.9,2133.452,1445.92Z" transform="translate(-1627.998 -977.488)" fill="#403949"/>
      <path id="Trazado_1238236" data-name="Trazado 1238236" d="M961.555,1556.23c1.832.36,4.508,1.314,5.55,2.97,1.513,2.4.795,24.917,1.024,29.671,4.21-.011,8.5-.192,12.7.076-6.149.327-12.408.146-18.563.049C962.321,1583.28,962.92,1560.06,961.555,1556.23Z" transform="translate(-610.862 -1073.294)" fill="#dad4d2"/>
      <path id="Trazado_1238237" data-name="Trazado 1238237" d="M1062.535,1460.01c.969-2.4,2.04-4.475,4.561-5.563a7.473,7.473,0,0,1,5.713.008q.353.147.69.328t.653.4a7.722,7.722,0,0,1,1.174.974q.268.272.508.57t.45.617q.209.32.386.659t.319.694a11.649,11.649,0,0,1,.606,3.264c-.453,2.464-1.126,4.673-3.33,6.148a10.964,10.964,0,0,1-2.824,1.24l-2.249.144a8.408,8.408,0,0,1-4.9-2.691C1062.6,1464.816,1062.379,1462.513,1062.535,1460.01Z" transform="translate(-698.529 -984.405)" fill="#d84100"/>
      <path id="Trazado_1238238" data-name="Trazado 1238238" d="M1047.254,2408.194a9.913,9.913,0,0,1,4.334.513,7.942,7.942,0,0,1,4.615,4.444q.136.348.237.708t.164.729a7.329,7.329,0,0,1,.091.741q.027.373.016.746t-.058.744a7.452,7.452,0,0,1-.133.734q-.085.364-.205.718a7.426,7.426,0,0,1-.276.693c-1.09,2.435-3.069,3.674-5.458,4.594a9.631,9.631,0,0,1-5.346-.8,7.554,7.554,0,0,1-3.453-10.39C1042.956,2410.051,1044.877,2408.954,1047.254,2408.194Z" transform="translate(-679.785 -1813.209)" fill="#d84100"/>
      <path id="Trazado_1238239" data-name="Trazado 1238239" d="M1075.423,2430.3a5.065,5.065,0,0,1,1.691.886,4.133,4.133,0,0,1,1.777,2.968,4.417,4.417,0,0,1-1.08,3.2c-1.056,1.222-2.151,1.389-3.7,1.538a7.9,7.9,0,0,1-1.42-.615,4.257,4.257,0,0,1-2.04-2.676,4.027,4.027,0,0,1,.689-3.17C1072.384,2430.919,1073.693,2430.573,1075.423,2430.3Z" transform="translate(-705.544 -1832.441)" fill="#cd7c82"/>
      <path id="Trazado_1238240" data-name="Trazado 1238240" d="M1061.561,3036.948a10.113,10.113,0,0,1,4.146.32,7.493,7.493,0,0,1,4.508,3.79,8.1,8.1,0,0,1,.241,6.376c-1.06,2.8-3.145,4.2-5.752,5.349a7.662,7.662,0,0,1-3.828-.328,8.247,8.247,0,0,1-4.7-4.494,7.828,7.828,0,0,1-.169-6.3C1057.118,3039.189,1059.169,3037.939,1061.561,3036.948Z" transform="translate(-692.393 -2359.262)" fill="url(#linear-gradient)"/>
      <path id="Trazado_1238241" data-name="Trazado 1238241" d="M1084.585,3062.432a12.819,12.819,0,0,1,2.379.021,4.561,4.561,0,0,1,2.955,2.052,3.84,3.84,0,0,1,.185.338q.084.174.15.355a3.727,3.727,0,0,1,.114.368c.031.125.057.251.076.378s.031.256.036.384a3.795,3.795,0,0,1-.043.769q-.031.191-.08.377a5.8,5.8,0,0,1-2.906,3.386,6.966,6.966,0,0,1-2.745-.083,5.268,5.268,0,0,1-2.936-2.561q-.086-.177-.155-.362c-.045-.123-.085-.248-.118-.375s-.059-.255-.08-.385-.034-.26-.042-.391-.008-.262,0-.393.018-.262.036-.391a3.885,3.885,0,0,1,.075-.386q.047-.191.113-.376C1082.12,3063.7,1083.266,3063.067,1084.585,3062.432Z" transform="translate(-714.924 -2381.419)" fill="#cd7c82"/>
      <path id="Trazado_1238242" data-name="Trazado 1238242" d="M789.373,2720.92a8.886,8.886,0,0,1,4.454.747,8.124,8.124,0,0,1,2.087,1.368,7.971,7.971,0,0,1,.59.59,8.121,8.121,0,0,1,1.672,2.865,7.579,7.579,0,0,1,.381,2.313,7.59,7.59,0,0,1-.148,1.559,7.633,7.633,0,0,1-.465,1.5,7.677,7.677,0,0,1-.346.7,9.113,9.113,0,0,1-5.757,4.24,10.362,10.362,0,0,1-4.934-.645,8.094,8.094,0,0,1-4.433-4.757,7.608,7.608,0,0,1,.494-5.782C784.329,2722.925,786.632,2721.765,789.373,2720.92Z" transform="translate(-455.016 -2084.834)" fill="#a32b2c"/>
      <path id="Trazado_1238243" data-name="Trazado 1238243" d="M812.849,2746.006a7.433,7.433,0,0,1,2.326.076,4.665,4.665,0,0,1,2.746,2.089,4.168,4.168,0,0,1,.365,3.374c-.5,1.631-1.627,2.316-3.085,3.029a8.852,8.852,0,0,1-1.961-.035,4.732,4.732,0,0,1-3.087-2.139,4.051,4.051,0,0,1-.339-3.311A5.371,5.371,0,0,1,812.849,2746.006Z" transform="translate(-478.893 -2106.59)" fill="#cd7c82"/>
      <path id="Trazado_1238244" data-name="Trazado 1238244" d="M1938.331,2756c.7-2.574,1.563-4.571,4.054-5.917a8.3,8.3,0,0,1,.753-.358q.386-.16.786-.281a8.355,8.355,0,0,1,1.635-.32,8.338,8.338,0,0,1,.834-.036,8.381,8.381,0,0,1,1.657.179q.409.086.807.213a7.573,7.573,0,0,1,4.5,3.833,13.077,13.077,0,0,1,.785,2.67l.02,1.892a9.03,9.03,0,0,1-3.2,6.227,8.14,8.14,0,0,1-3.156,1.419l-2.244-.022a8.845,8.845,0,0,1-4.2-1.692,8.383,8.383,0,0,1-3.1-5.866Z" transform="translate(-1459.156 -2109.312)" fill="#d84100"/>
      <path id="Trazado_1238245" data-name="Trazado 1238245" d="M1335.948,2724.292a11.67,11.67,0,0,1,4.4.285q.405.124.8.288t.763.366a8.393,8.393,0,0,1,.722.441q.35.238.675.51a8.445,8.445,0,0,1,1.674,1.9q.229.356.423.733a7.9,7.9,0,0,1,.34.742,7.785,7.785,0,0,1,.26.774,7.662,7.662,0,0,1,.179.8,7.8,7.8,0,0,1-.38,4.021,7.779,7.779,0,0,1-10.639,4.981,8.427,8.427,0,0,1-4.581-4.665,8.566,8.566,0,0,1-.012-6.569C1331.631,2726.435,1333.544,2725.2,1335.948,2724.292Z" transform="translate(-930.791 -2087.712)" fill="#d84100"/>
      <path id="Trazado_1238246" data-name="Trazado 1238246" d="M1362.973,2750.34a6.718,6.718,0,0,1,2.315.474,4.438,4.438,0,0,1,2.207,2.507,4.345,4.345,0,0,1,.195.852,4.137,4.137,0,0,1,.032.436,4.252,4.252,0,0,1-.013.438,4.365,4.365,0,0,1-.057.434,4.262,4.262,0,0,1-.1.426,4.3,4.3,0,0,1-.328.81,4.558,4.558,0,0,1-3.145,2.352,5.874,5.874,0,0,1-2.478-.336,4.535,4.535,0,0,1-2.423-2.7,4.262,4.262,0,0,1-.175-.831,4.118,4.118,0,0,1-.024-.425,4.208,4.208,0,0,1,.328-1.658,4.155,4.155,0,0,1,.184-.384A5.112,5.112,0,0,1,1362.973,2750.34Z" transform="translate(-956.031 -2110.402)" fill="#cd7c82"/>
      <path id="Trazado_1238247" data-name="Trazado 1238247" d="M2180.426,2801.3l-.007,1.932-121.4-.082-.019-1.892c3.347-.119,6.758.066,10.115.055l26.821-.032Z" transform="translate(-1564.011 -2154.591)" fill="#558cde"/>
      <path id="Trazado_1238248" data-name="Trazado 1238248" d="M3104.1,1650.232c.731-1.44,1.522-2.818,3.128-3.4a4.312,4.312,0,0,1,3.377.479,3.939,3.939,0,0,1,1.989,2.357,4.612,4.612,0,0,1-.609,3.706,5.036,5.036,0,0,1-3.222,2.312,3.73,3.73,0,0,1-3.046-.849,6.535,6.535,0,0,1-1.536-2.279l-23.056,0c-2.442,2.525-4.6,5.4-6.827,8.115-2.074,2.534-4.292,5.006-6.186,7.677-4.52-.381-9.02-1.037-13.528-1.546a44.432,44.432,0,0,1-4.6-.844c-2.094,2.357-2.008.969-3.958,2.072-2.682,1.516-5.612,5.563-7.925,7.863-1.394,1.385-2.883,2.69-4.339,4.01a8.523,8.523,0,0,1-.786,2.611,3.011,3.011,0,0,1-2.083,1.475,2.435,2.435,0,0,1-1.834-.642,3.179,3.179,0,0,1-1.1-2.439,2.925,2.925,0,0,1,.064-.539c.738-2.7,2.688-1.807,4.617-2.344,1.661-.462,9.708-9.308,11.507-11.127a8.807,8.807,0,0,1,0-2.682,2.968,2.968,0,0,1,1.639-2.012,6.585,6.585,0,0,1,.673-.278,3.173,3.173,0,0,1,1.306-.217c1.694.1,1.442,2.242,2.809,2.676,4.718,1.5,11.343.538,16.224,2.276,4.126-4.9,9.7-11.171,13.163-16.393Z" transform="translate(-2405.574 -1151.836)" fill="#251f4c"/>
      <path id="Trazado_1238249" data-name="Trazado 1238249" d="M3037.756,1969.235l7.667-.07q-.088,9.875-.077,19.749l-6.36-.033-7.8,0-.007-19.584Z" transform="translate(-2408.366 -1431.936)" fill="#4db6d0"/>
      <path id="Trazado_1238250" data-name="Trazado 1238250" d="M851.651,2468.21c.824.617.764,2.684,1.3,3.725a13.533,13.533,0,0,0,2.659,3.4q-10.642,12.776-22.032,24.888c-.867-.337-1.785-.569-2.677-.831-1.272-.166-3.248.447-4.3-.39a4.743,4.743,0,0,1-.283-2.854,7.406,7.406,0,0,1,1.376-3.306c2.481-3.015,6.915-6.962,9.813-9.957C841.11,2479.166,848.128,2470.573,851.651,2468.21Z" transform="translate(-493.327 -1865.366)" fill="#f98847"/>
      <path id="Trazado_1238251" data-name="Trazado 1238251" d="M1460.04,1739.843c.273-3.064,1.144-5.756,3.64-7.761a10.015,10.015,0,0,1,7.588-2.031q.253.035.5.083t.5.108q.248.06.493.133t.486.158q.241.085.477.182t.467.206q.231.109.457.23t.444.252q.219.132.431.274t.417.3q.205.153.4.316t.385.336q.188.172.367.355t.349.373q.169.191.329.391t.309.406a10.471,10.471,0,0,1,1.626,8.118,9.776,9.776,0,0,1-4.164,6.48,10.163,10.163,0,0,1-7.754,1.484,9.751,9.751,0,0,1-6.285-4.565,13.95,13.95,0,0,1-1.42-3.866Z" transform="translate(-1043.806 -1224.178)" fill="#d84100"/>
      <path id="Trazado_1238252" data-name="Trazado 1238252" d="M1491.611,1767.141a9.093,9.093,0,0,1,3.211.078,5.781,5.781,0,0,1,3.467,2.842,5.232,5.232,0,0,1,.305,4.3,6.472,6.472,0,0,1-3.735,3.461,6.341,6.341,0,0,1-4.63-.451c-1.78-1.037-2.349-2.788-2.851-4.647.137-.586.284-1.17.475-1.741C1488.531,1768.964,1489.773,1768.064,1491.611,1767.141Z" transform="translate(-1067.55 -1256.384)" fill="#fdfdfd"/>
      <path id="Trazado_1238253" data-name="Trazado 1238253" d="M832.115,2849.93c1.444.827,4.458,4.457,5.861,5.867,6.252,6.285,12.537,12.494,18.712,18.859a17.345,17.345,0,0,0-4.152,5.278l-3.392-.016a7.466,7.466,0,0,1-2.213-1.645c-5-4.861-9.492-10.271-14.263-15.351-1.56-1.661-6.736-6.479-7.638-8.113a3.74,3.74,0,0,1-.1-2.848,3.421,3.421,0,0,1,.363-.72c.606-.459,4.689-.183,6.56-1.168C831.941,2850.026,832.028,2849.978,832.115,2849.93Z" transform="translate(-491.999 -2196.897)" fill="#f98847"/>
      <path id="Trazado_1238254" data-name="Trazado 1238254" d="M1185.212,2852.8c1.574.457,3.027,1.32,4.644,1.624,1.009.19,3.319-.252,4.047.27a4.7,4.7,0,0,1,.043,1.034,3,3,0,0,1-.767,1.6c-2.971,3.58-7.147,7.175-10.46,10.516-4.576,4.612-8.947,9.563-13.736,13.945-1.49.924-3.049.684-4.724.594a18.5,18.5,0,0,0-3.917-5.492C1169.148,2869.5,1176.794,2860.642,1185.212,2852.8Z" transform="translate(-783.51 -2199.39)" fill="#f98847"/>
      <path id="Trazado_1238255" data-name="Trazado 1238255" d="M986.245,1571.64l2.248-.144.045,30.727,43.276,0,.045,1.955c-14.431.23-28.89.057-43.325.064-.326,17.605.025,35.251.032,52.862,0,6.46.268,13.026-.012,19.476a6.571,6.571,0,0,1-.542,2.615c-.582.27-.727.058-1.313-.14a1.3,1.3,0,0,1-.277-.792c-.212-7.848.044-15.782.053-23.639l-.034-50.4-13.76.014-5.694.03v-2.011c6.155.1,12.414.278,18.563-.049l.562-.024a1.775,1.775,0,0,0,.327-.386C986.746,1601.085,986.332,1574.692,986.245,1571.64Z" transform="translate(-615.58 -1086.553)" fill="#558cde"/>
      <path id="Trazado_1238256" data-name="Trazado 1238256" d="M1163.742,2461.106a8.359,8.359,0,0,1,2.229.13,3.658,3.658,0,0,1,1.572.869c1.923,1.7,3.643,3.855,5.443,5.7,5.371,5.511,10.744,10.985,15.915,16.687,1.259,1.389,3.1,3.023,3.989,4.65a5.653,5.653,0,0,1,.552,3.921c-.763.523-2.759.206-3.735.188a28.7,28.7,0,0,0-3.409,1.055c-5.525-5.024-10.643-10.472-15.873-15.8-3.354-3.416-7.048-6.714-10.092-10.405.038-.06.078-.12.115-.181.061-.1.119-.205.18-.307a26.622,26.622,0,0,0,1.93-5.17A1.776,1.776,0,0,1,1163.742,2461.106Z" transform="translate(-783.504 -1859.182)" fill="#f98847"/>
      <path id="Trazado_1238257" data-name="Trazado 1238257" d="M3158.16,1907.884c5.265.062,10.542-.014,15.809-.027l.052,27.173c-1.954.431-13.284-.168-15.807-.476Z" transform="translate(-2518.655 -1378.689)" fill="#f98847"/>
      <path id="Trazado_1238258" data-name="Trazado 1238258" d="M2383.96,1738.054q-.948-.833-1.865-1.7c-1.859-1.78-1.929-3.816-1.992-6.232-.089-3.41-.69-7.518,1.958-10.161,3.44-3.433,10.21-2.359,14.715-2.265a30.293,30.293,0,0,1,2.386,3.008c2.145,2.217,5.131,4.73,6.254,7.644a16.118,16.118,0,0,0-.232,1.931l.01.173c-2.643,3.035-4.817,6.493-7.388,9.605-3.793-.134-7.574-.106-11.369-.06A20.816,20.816,0,0,1,2383.96,1738.054Z" transform="translate(-1842.793 -1213.329)" fill="#d84100"/>
      <path id="Trazado_1238259" data-name="Trazado 1238259" d="M2422.375,1774.956c-1.049-1.858-1.1-4.187-1.894-5.412l-.936-.158c-.092-.5-.163-.367.1-.779a3.677,3.677,0,0,1,2.644-1.373c2.029-.332,5.158-.182,6.942.867a1.643,1.643,0,0,1,.24,1.549c-.665,2.427-1.96,4.035-1.721,6.715l-.236.672-.461.2-.31-.289a17.813,17.813,0,0,1-.564-5.348c.007-.073.016-.146.025-.218l-.267-.274a2.762,2.762,0,0,0-1.77.122,6.059,6.059,0,0,1,.489,1.184,1.816,1.816,0,0,1-.746,1.184,3.5,3.5,0,0,0-.853.971c.059.037.122.071.178.113a2.328,2.328,0,0,1,.954,1.841c-.381.554-.377.451-.975.638C2422.529,1776.7,2422.539,1775.747,2422.375,1774.956Z" transform="translate(-1877.081 -1256.419)" fill="#fdfdfd"/>
      <path id="Trazado_1238260" data-name="Trazado 1238260" d="M3306.67,1857.21l15.458.054c.276,3.877.115,7.849.115,11.739l.048,20.048-15.53.033Q3306.815,1873.148,3306.67,1857.21Z" transform="translate(-2647.639 -1334.701)" fill="#d84100"/>
      <path id="Trazado_1238261" data-name="Trazado 1238261" d="M1757.837,3283.59a9.658,9.658,0,0,1,4.555,5.546c.726,2.026.8,9.721.979,9.954a22.394,22.394,0,0,1,2.314.189,6.337,6.337,0,0,1,.019,2.755l-.364.116-1.871.294c-.626,1.184-.136,3.951-.075,5.3.15,3.313.075,6.659.079,9.975a49.253,49.253,0,0,1-.291,8.807,13.923,13.923,0,0,1-9.2,10.826c-5.195,1.611-13.107.3-18.551.146-4.378-.126-8.78-.05-13.161-.039l-38,.271c-5.229-.005-10.545.171-15.764-.109a12.915,12.915,0,0,1-5.748-1.291,4.8,4.8,0,0,1-2.292-2.126c4.924,1.256,10.756.632,15.809.6l19.557-.091,31.894-.09c5.585-.015,11.219.146,16.8-.073a16.013,16.013,0,0,0,4.865-.761q.344-.127.682-.27t.667-.3q.33-.16.652-.335t.634-.367q.313-.191.616-.4t.595-.428q.292-.221.573-.457t.55-.484q.269-.248.526-.511t.5-.535q.243-.275.473-.56t.444-.583q.215-.3.415-.6t.385-.624q.185-.316.354-.642t.322-.658a12.541,12.541,0,0,0,1.128-4.092c.444-4.031.122-8.306.189-12.37.111-6.693.7-13.747.059-20.417A23.44,23.44,0,0,0,1757.837,3283.59Z" transform="translate(-1217.878 -2573.54)" fill="#dad4d2"/>
      <path id="Trazado_1238262" data-name="Trazado 1238262" d="M2440.516,3405.781a5.54,5.54,0,0,1-1.988-.255,1.808,1.808,0,0,1-.677-1.207,4.294,4.294,0,0,1,.494-.822c.592-.661,1.7-.554,2.516-.589a6.334,6.334,0,0,1,.019,2.756Z" transform="translate(-1893.053 -2677.17)" fill="#152993"/>
      <path id="Trazado_1238263" data-name="Trazado 1238263" d="M3111.1,2666.569c3.559.143,22.486-.421,24.047.643a2,2,0,0,1,.24.781c.216,1.657.216,21.147-.048,21.712a4.2,4.2,0,0,1-.466.641c-8.2-.036-16.4.107-24.6-.012-.148-5-.035-10.048-.038-15.057,0-2.417-.337-5.39.117-7.727C3110.47,2666.934,3110.606,2666.908,3111.1,2666.569Z" transform="translate(-2476.924 -2037.623)" fill="#d84100"/>
      <path id="Trazado_1238264" data-name="Trazado 1238264" d="M3141.32,2717.48a24.877,24.877,0,0,1,7.228-.081c.7.127.694.276,1.071.84a21.253,21.253,0,0,1-7.024.133C3141.8,2718.247,3141.789,2718.1,3141.32,2717.48Z" transform="translate(-2504.029 -2081.591)" fill="#fdfdfd"/>
      <path id="Trazado_1238265" data-name="Trazado 1238265" d="M3140.72,2781.993a32.721,32.721,0,0,1,8.253-.073c.758.112.745.213,1.163.814a24.656,24.656,0,0,1-8.706.094C3140.927,2782.682,3140.953,2782.434,3140.72,2781.993Z" transform="translate(-2503.508 -2137.632)" fill="#fdfdfd"/>
      <path id="Trazado_1238266" data-name="Trazado 1238266" d="M3142.715,2747.886c2.381.013,12.438-.582,13.784.4l-.058.5-.441.234c-2.515-.024-12.893.577-14.231-.573l.188-.365Z" transform="translate(-2504.418 -2108.125)" fill="#fdfdfd"/>
      <path id="Trazado_1238267" data-name="Trazado 1238267" d="M3457.98,1748.04c4.325.025,8.657,0,12.978.2-.01,1.5.019,3.012.032,4.517-.171,14.68-.044,29.372-.036,44.053-4.177.165-8.49.1-12.666-.065-.518-5.407-.186-11.152-.208-16.593Z" transform="translate(-2779.054 -1239.885)" fill="#558cde"/>
      <path id="Trazado_1238268" data-name="Trazado 1238268" d="M2981.122,2367.526l.03-37.651c0-5.375-.582-13.862.34-18.859a11.127,11.127,0,0,1,3.1-5.784c3.731-3.76,8.541-3.5,13.411-3.417l1.52.032,0,4.395c-3.461-.119-6.768.031-9.452,2.562-2.772,2.614-2.758,6.077-2.785,9.613l-.052,40.627c-.022,8.536-.31,17.188-.005,25.712-.333,4.429-1.189,10.614,1.877,14.179.265.31.546.6.83.892a69.391,69.391,0,0,1-8.268-1.83c-1.272-2.824-.57-24.419-.553-28.54Z" transform="translate(-2364.707 -1720.816)" fill="#646372"/>
      <path id="Trazado_1238269" data-name="Trazado 1238269" d="M3575.787,1749.4c2.927-.731,10.474-.127,13.913-.052l.194,48.318-14.146-.008-.017-3.7c.274-4.95.055-10.026.059-14.993Z" transform="translate(-2881.322 -1240.753)" fill="#d84100"/>
      <path id="Trazado_1238270" data-name="Trazado 1238270" d="M1928.942,1871.81c5.022,1.685,10.206,1.311,15.413.9-.028,1.1-.016,2.222-.1,3.322-4.12.463-11.595,1.014-15.392-.382Z" transform="translate(-1450.99 -1347.382)" fill="#251f4c"/>
      <path id="Trazado_1238271" data-name="Trazado 1238271" d="M3154.969,2138.213c-.009-2.707-.409-7.553.008-10a3.423,3.423,0,0,1,.926-1.765l.413-.064c1.411,2.187.04,14.614.641,18.3,5.09-.065,17.885.475,22.076-.382l.284-.392c-.039-3.164-.814-14.867.586-17.113l.478-.078c.133.146.322.256.4.438.559,1.312.259,13.525.168,15.717-.009.22-.028.44-.05.66l.2.108.134.512c1.681.829,7.662.263,9.764.242q.171,8.477-.044,16.953l-45.607-.194q.025-8.287-.059-16.573l9.681,0Z" transform="translate(-2507.469 -1568.48)" fill="#d84100"/>
      <path id="Trazado_1238272" data-name="Trazado 1238272" d="M942.7,972.664c1.875.586,4.471,1.117,5.47,3.025a6.151,6.151,0,0,1,.554,2.637c.439,11.745.027,23.9.032,35.688,0,4.239.659,21.106-.151,23.636a5.4,5.4,0,0,1-2.958,3.193c-5.074,2.393-29.717-.156-32.217,1.162a7.38,7.38,0,0,1-.144,2,11.647,11.647,0,0,0-.606-3.264q-.142-.355-.319-.694t-.386-.659a7.6,7.6,0,0,0-.45-.617q-.241-.3-.508-.57t-.563-.516a7.578,7.578,0,0,0-.611-.458q-.317-.214-.654-.4t-.69-.328a7.473,7.473,0,0,0-5.713-.008c-2.521,1.088-3.593,3.16-4.561,5.563-4.388-.775-14.12-.287-18.967-.34-.321-.178-.633-.354-.94-.554a11.953,11.953,0,0,1-5.01-7.381c4.6.182,9.262.006,13.869.014l26.561.02,14.016-.069c2.937,0,6,.152,8.923-.134a7.184,7.184,0,0,0,3.962-1.3,5.279,5.279,0,0,0,1.9-3.17c.626-3.917.064-8.892.07-12.917l-.051-28.064c-.01-5.022-.265-10.214.123-15.215Z" transform="translate(-534.214 -566.456)" fill="#dad4d2"/>
      <path id="Trazado_1238273" data-name="Trazado 1238273" d="M2595.569,3070.25c3.311,2.218,7.057,3.978,10.538,5.942q9.831,5.625,19.72,11.151c-5.605,3.972-11.837,7.132-17.811,10.517-4.2,2.379-8.275,5.019-12.488,7.343q-15-9.05-30.482-17.265C2574.787,3081.419,2585.908,3076.875,2595.569,3070.25Z" transform="translate(-2003.524 -2388.25)" fill="#f2a772"/>
      <path id="Trazado_1238274" data-name="Trazado 1238274" d="M3101.006,2368.71a29.025,29.025,0,0,1,2.591,3.962l-.145,52.289.108,16.752a71.112,71.112,0,0,1-.156,9.621,8.434,8.434,0,0,1-2.58,5.291,8.288,8.288,0,0,1-4.9,2.372,54.369,54.369,0,0,1-8.7.225l-14.806-.016c-12.713-.007-25.544.482-38.243.134a8.32,8.32,0,0,1-4.895-1.378c-.284-.293-.564-.583-.83-.892-3.065-3.565-2.209-9.751-1.876-14.179a73.344,73.344,0,0,1,.095,7.445c8.211.516,16.693-.036,24.935-.031q23.306.189,46.612.127c.552-8.682-.141-79.387.7-80.911C3099.121,2369.146,3100.584,2368.83,3101.006,2368.71Z" transform="translate(-2404.049 -1778.949)" fill="#dad4d2"/>
      <path id="Trazado_1238275" data-name="Trazado 1238275" d="M373.456,1820.53l5.694-.03q-.163,18.3-.082,36.608c.009,4.8.525,12.413-.2,16.881a7.291,7.291,0,0,1-2.077,4.027,5.361,5.361,0,0,1-2.792,1.393c-3.63.6-7.931.2-11.632.205l-24.214.034c-2.467.015-6.293-.336-8.616.113a.821.821,0,0,0-.727.518,4.123,4.123,0,0,1-2.123.362c-.476-.076-.5-.31-.761-.673-1.463-.661-4.755-.295-6.41-.3-5.529-.007-28.278.79-31.764-1.092-2.208-1.192-3.459-5.239-4.146-7.53,3.03.59,6.589.232,9.693.222l16.308-.031c20.109-.032,40.3.266,60.4-.209a10.07,10.07,0,0,0,1.773-1.381,5.609,5.609,0,0,0,1.59-3.228c.616-4.113.131-10.2.121-14.515Z" transform="translate(-22.049 -1302.818)" fill="#dad4d2"/>
      <path id="Trazado_1238276" data-name="Trazado 1238276" d="M605.473,2259.679c.214-.8.192-1.424,1.023-1.817.635-.3.882-.152,1.469.1.543.792.417,1.091.391,2.029a4.117,4.117,0,0,1-2.123.361C605.758,2260.276,605.734,2260.043,605.473,2259.679Z" transform="translate(-301.598 -1682.53)" fill="#152993"/>
      <path id="Trazado_1238277" data-name="Trazado 1238277" d="M2563.835,3204.78q15.478,8.214,30.482,17.265l-.032,23.787c0,3.744-.289,7.711.009,11.426q-15.09-9.058-30.562-17.447C2563.619,3228.158,2563.605,3216.429,2563.835,3204.78Z" transform="translate(-2002.314 -2505.091)" fill="#f98847"/>
      <path id="Trazado_1238278" data-name="Trazado 1238278" d="M2826.127,3200.25a1.717,1.717,0,0,1,.312.875c.307,5.224.009,10.62.008,15.858,0,6.214.255,12.487.079,18.692-7.1,4.53-14.537,8.6-21.86,12.756-2.763,1.568-5.9,3.813-8.861,4.892-.3-3.715-.01-7.682-.008-11.426l.032-23.787c4.213-2.324,8.293-4.964,12.488-7.343C2814.29,3207.381,2820.522,3204.224,2826.127,3200.25Z" transform="translate(-2203.825 -2501.157)" fill="#d84100"/>
      <path id="Trazado_1238279" data-name="Trazado 1238279" d="M3056.973,2312.245c5.1.009,11.618-.95,15.486,3.032a12.484,12.484,0,0,1,3.149,5.375,48.746,48.746,0,0,1,.269,8.091l.1,17.549.052,38.342c-.014,6.632.116,13.313-.13,19.939a11.538,11.538,0,0,1-4.022,8.51,12.186,12.186,0,0,1-5.9,3.029c-4.4.619-9.37.091-13.836.078l-28.008.008q-8.069-.04-16.139.058c-3.14.047-6.465.365-9.59.1a13.169,13.169,0,0,1-9.127-4.643,16.051,16.051,0,0,1-2.58-4.7,69.361,69.361,0,0,0,8.267,1.83,8.323,8.323,0,0,0,4.9,1.379c12.7.348,25.53-.141,38.242-.134l14.806.015a54.338,54.338,0,0,0,8.7-.224,8.293,8.293,0,0,0,4.9-2.372,8.433,8.433,0,0,0,2.579-5.291,70.949,70.949,0,0,0,.155-9.621l-.108-16.752.145-52.289a29.046,29.046,0,0,0-2.59-3.962,10.639,10.639,0,0,0-8.265-3.558q-.737-.019-1.473,0Z" transform="translate(-2369.737 -1729.825)" fill="#251f4c"/>
      <path id="Trazado_1238280" data-name="Trazado 1238280" d="M1822.411,1524.5c-1.642-1.9-3.787-2.2-6.136-2.38.035-1.392.011-2.779-.014-4.171-.01.088-.02.176-.029.264-.32,3.22.783,8.609-.524,11.384a2.005,2.005,0,0,1-1.65.55c-.81-.087-.914-.264-1.382-.862a91.319,91.319,0,0,0-.04-15.735c-.351-3.2-1.34-5.781-3.911-7.831l-.374.321c-1.524,1.336-2.645,3.112-4.237,4.38-5.574,4.441-14.521,6.065-21.467,5.711a24.993,24.993,0,0,1-12.389-3.956c-.028,6.023-.157,12.062-.07,18.084-.357.026-.719.054-1.077.054a1.806,1.806,0,0,1-1.443-.571c-1.521-1.8-.722-6.523-.605-8.766l-.261.885c-3.157,1.52-5.52,1.562-6.769,5.424a9.425,9.425,0,0,0,.723,7.215,9.3,9.3,0,0,0,5.4,4.583c.611.178,1.232.315,1.852.455,3.588,7.364,6.692,10.426,13.938,14.314l-.075,3.841c3.8,1.4,11.272.844,15.391.381.081-1.1.069-2.219.1-3.322a14.135,14.135,0,0,1,1.793-.6c8.139-2.825,12.494-7.232,16.15-14.851a12.458,12.458,0,0,0,4.806-2.07,10.459,10.459,0,0,0,3.766-7.023A7.361,7.361,0,0,0,1822.411,1524.5Z" transform="translate(-1303.996 -1029.421)" fill="#e9b38d"/>
      <path id="Trazado_1238281" data-name="Trazado 1238281" d="M1783.736,1319.66c5.161,3.927,10.834,5.242,17.232,5.5l2.057.038c5.025.226,9.962.731,13.608,4.666,1.874,2.021,2.255,4.133,3.528,6.4-.078,1.981-1.02,6.227-.725,7.862l-.374.321c-1.524,1.336-2.646,3.112-4.237,4.38-5.574,4.441-14.521,6.064-21.467,5.711a24.994,24.994,0,0,1-12.389-3.956c-.028,6.023-.157,12.062-.07,18.084-.358.026-.719.054-1.077.055a1.805,1.805,0,0,1-1.443-.571c-1.521-1.8-.722-6.523-.605-8.766l-.023-3.251a14.506,14.506,0,0,1-3.854-4.789c-2.56-5.124-2.431-11.42-.557-16.742a15.945,15.945,0,0,1,8.555-9.5,24.13,24.13,0,0,1,2.9,1.23A43.716,43.716,0,0,1,1783.736,1319.66Z" transform="translate(-1314.707 -867.829)" fill="#646372"/>
      <path id="Trazado_1238282" data-name="Trazado 1238282" d="M2701.914,1026.34a9.127,9.127,0,0,1,4.474,5.282c1.081,3.856.415,11.794.432,16.142l.208,27.883c.042,6.02-.112,12.124.318,18.127.873,7.008.708,16.574.761,23.779-5.8,1.1-12.516.218-18.427.138-9.619-.13-19.252-.057-28.874-.089-3.814-.012-8.727-.6-12.383.436-3.464.346-22.519.429-24.62-.491-3.712-1.627-9.194-10.817-10.767-14.585a9.627,9.627,0,0,0,1.316.213c4.98.383,10.224.056,15.234.06l30.944.019,23.991.036c3.854.005,8.047.329,11.867-.115a5.429,5.429,0,0,0,3.555-1.62,6.238,6.238,0,0,0,1.855-3.853,62.709,62.709,0,0,0,.15-8.063l-.022-13.6Z" transform="translate(-2045.204 -613.075)" fill="#dad4d2"/>
      <path id="Trazado_1238283" data-name="Trazado 1238283" d="M1698.8,1901.02c3.8,1.4,11.272.844,15.392.381a5.134,5.134,0,0,0,.529,2.6l.312.134c1.854-.13,4.51-.624,6.263.04a1.349,1.349,0,0,1,.285,1.016c.117.044.233.09.35.132,2.131.754,4.8.725,7.047,1.369,9.757,2.794,19.2,8.91,23.894,18.119a47.644,47.644,0,0,1,2.235,4.964c-5.055.289-10.152.183-15.215.2l-49.577.173c-8.743.016-17.616.359-26.344-.034a33.719,33.719,0,0,1,6.4-13.194,26.8,26.8,0,0,1,15.129-9.083c1.838-.36,3.7-.379,5.552-.567l.155-.467a2.658,2.658,0,0,1,.515-1.318,5.848,5.848,0,0,1,3.178-.25,4.565,4.565,0,0,0,3.014-.24C1698.684,1904.041,1698.661,1902.206,1698.8,1901.02Z" transform="translate(-1220.925 -1372.751)" fill="#d84100"/>
      <path id="Trazado_1238284" data-name="Trazado 1238284" d="M1903.093,1901.02c3.8,1.4,11.272.844,15.391.381a5.135,5.135,0,0,0,.529,2.6l.312.134c.029,1.132.08,2.268.046,3.4a10.025,10.025,0,0,1-6.384,4.637,13.121,13.121,0,0,1-9.9-2.265,11.379,11.379,0,0,1-3.846-4.576l-.053-.1a4.564,4.564,0,0,0,3.014-.24C1902.976,1904.041,1902.953,1902.206,1903.093,1901.02Z" transform="translate(-1425.217 -1372.751)" fill="#e9b38d"/>
      <path id="Trazado_1238285" data-name="Trazado 1238285" d="M909.418,2576.44a77.053,77.053,0,0,0,9.53.241l14.577-.046q6.165,6.738,12.6,13.217a50.586,50.586,0,0,0,6.044,5.75c-2.3,1.672-3.816,3.534-4.208,6.452a11.161,11.161,0,0,0,2.064,8.04,16.165,16.165,0,0,0,1.379,1.5c-3.329,3.172-6.5,6.686-10.007,9.638-2.409,2.459-4.849,5.021-7.441,7.283l-19.694.38c.015.477-.063.235.372.667,6.005.4,12.22.091,18.247.032a84.932,84.932,0,0,1-6.374,6.189,12.519,12.519,0,0,0-9.194.341c-3-2.78-24.145-23.351-24.742-24.936a8.937,8.937,0,0,0,3.8-6.1,10.569,10.569,0,0,0-2.164-8.043,13.149,13.149,0,0,0-1.645-1.64C898.365,2589.295,903.916,2582.828,909.418,2576.44Z" transform="translate(-550.937 -1959.366)" fill="#f98847"/>
      <path id="Trazado_1238286" data-name="Trazado 1238286" d="M844.733,1005.616c-.268-.083-.538-.163-.8-.261a4.7,4.7,0,0,1-2.852-2.533,10.943,10.943,0,0,1-.516-3.8c-.32-10.378,0-20.863.01-31.255,0-6.9-.429-15.283.091-21.961a7.626,7.626,0,0,1,.669-2.726,4.669,4.669,0,0,1,2.769-2.537c2.222-.573,5.42-.176,7.745-.174l16.147.014,26.828-.032c4.779-.011,9.6-.159,14.379.02a5.271,5.271,0,0,1,2.653.625,5.148,5.148,0,0,1,2.271,3.5l-.024.286c-.388,5-.133,10.193-.123,15.215l.051,28.064c-.006,4.024.556,9-.07,12.916a5.278,5.278,0,0,1-1.9,3.169,7.182,7.182,0,0,1-3.962,1.3c-2.918.287-5.986.13-8.923.134l-14.016.069-26.561-.02C854,1005.621,849.334,1005.8,844.733,1005.616Z" transform="translate(-505.644 -538.286)" fill="#038a99"/>
      <path id="Trazado_1238287" data-name="Trazado 1238287" d="M938.273,1341.28c4.051-.013,26.636-.362,28.595.282.63.208.793.593,1.056,1.15a2.671,2.671,0,0,1-.891,1.735c-5.143.428-10.616.083-15.785.075-4.158-.005-8.953.442-13.045-.227a1.9,1.9,0,0,1-.76-1.124A3.511,3.511,0,0,1,938.273,1341.28Z" transform="translate(-589.919 -886.515)" fill="#fdfdfd"/>
      <path id="Trazado_1238288" data-name="Trazado 1238288" d="M943.792,1231.768c4.385-.212,46.912-.346,48.531.173.678.218.786.49,1.144,1.052a3.063,3.063,0,0,1-.669,1.914c-10.473.343-21.057-.009-31.542.006-3.149,0-15,.453-16.9-.11-.691-.2-.753-.482-1.062-1.07A3.108,3.108,0,0,1,943.792,1231.768Z" transform="translate(-594.998 -791.33)" fill="#fdfdfd"/>
      <path id="Trazado_1238289" data-name="Trazado 1238289" d="M943.654,1286.475c5.292-.086,46.848-.486,48.363.207.666.305.713.51.958,1.141a3.124,3.124,0,0,1-.734,1.911c-10.9.31-21.9.044-32.8.036-3.488,0-12.81.46-15.739-.24-.5-.436-.8-.628-.853-1.354A2.119,2.119,0,0,1,943.654,1286.475Z" transform="translate(-594.608 -838.839)" fill="#fdfdfd"/>
      <path id="Trazado_1238290" data-name="Trazado 1238290" d="M898.085,1008.42c20.393.184,40.8-.032,61.188.346.121,6.652.015,13.325.015,19.979l-61.25-.062Z" transform="translate(-555.696 -597.511)" fill="#fdfdfd"/>
      <path id="Trazado_1238291" data-name="Trazado 1238291" d="M935.706,1073.585c2.149-.051,8.751-.715,10.143.491-.165.662-.166.654-.716,1.06-2.86.009-6.242.389-9.048-.008a1.617,1.617,0,0,1-1.373-.819C935.018,1073.767,935.155,1073.823,935.706,1073.585Z" transform="translate(-587.548 -653.911)" fill="#f98847"/>
      <path id="Trazado_1238292" data-name="Trazado 1238292" d="M933.957,1105.828c7.062.01,15.448-.53,22.374.111.56.482.444.991.528,1.7q-6.7-.066-13.4-.035c-2.954.01-5.985.163-8.927-.1A2.815,2.815,0,0,1,933.957,1105.828Z" transform="translate(-586.893 -681.936)" fill="#f98847"/>
      <path id="Trazado_1238293" data-name="Trazado 1238293" d="M1627.436,2176.4c-.213-16.137.1-32.294-.141-48.43-.037-2.468-.191-4.985-2.14-6.756s-4.218-1.866-6.681-1.75c-5.055.289-10.152.183-15.215.2l-49.577.174c-8.743.016-17.616.359-26.344-.034-3.115-.012-6.653-.2-9.081,2.135a5.962,5.962,0,0,0-1.759,3.8c-.656,4.407-.165,9.937-.165,14.448,0,11.809.326,23.731-.058,35.531-.123.032-.246.067-.37.1-2.323.563-7.372-.877-9.1.617a1.753,1.753,0,0,0,.122,1.645,15.694,15.694,0,0,0,2.934,3.711,25.322,25.322,0,0,0,5.1,4.54c2.479,1.564,4.78,1.895,7.631,2.1,5.571.4,11.286.145,16.873.161l34.57-.022,34.307.01c5.029-.014,13.057.592,17.777-.572,4-.987,6.3-3.031,8.42-6.452,1.47-1.706,1.471-3.026,1.488-5.163Zm-1.784,5.456c.808.027,1.623.052,2.436.065C1627.274,2181.906,1626.459,2181.881,1625.651,2181.855Zm3.279.073c.826,0,1.647-.01,2.455-.051C1630.577,2181.918,1629.756,2181.931,1628.931,2181.928Z" transform="translate(-1084.29 -1562.443)" fill="#646372"/>
      <path id="Trazado_1238294" data-name="Trazado 1238294" d="M1954.48,2314.417a8.713,8.713,0,0,1,4.1.426,6.644,6.644,0,0,1,.6.292,6.561,6.561,0,0,1,.568.35,6.587,6.587,0,0,1,1.836,1.915,6.417,6.417,0,0,1,.326.583,6.528,6.528,0,0,1,.266.612,6.709,6.709,0,0,1-.134,5.228,7.214,7.214,0,0,1-4.483,3.632,6.982,6.982,0,0,1-3.582-.12,6.265,6.265,0,0,1-3.836-3.361q-.139-.3-.248-.622t-.184-.644q-.076-.326-.12-.659t-.053-.667q-.01-.335.013-.67a6.7,6.7,0,0,1,.08-.666q.056-.33.145-.654t.209-.636A7.514,7.514,0,0,1,1954.48,2314.417Z" transform="translate(-1468.941 -1731.746)" fill="#fdfdfd"/>
      <path id="Trazado_1238295" data-name="Trazado 1238295" d="M1638.278,3226.34c.709.014,1.445-.007,2.15.052,9.146.355,18.422-.062,27.582-.052,4.935.006,10.8-.6,15.548.975a16.2,16.2,0,0,1,6.612,4.781,11.659,11.659,0,0,0,1.512,1.675,23.5,23.5,0,0,1,1.311,5.562c.641,6.67.052,13.723-.059,20.417-.067,4.064.254,8.338-.19,12.37a12.54,12.54,0,0,1-1.128,4.092q-.153.333-.322.658t-.354.641q-.185.317-.385.624t-.415.6q-.215.3-.444.583t-.473.56q-.243.274-.5.536t-.525.51q-.269.249-.55.485t-.573.457q-.292.22-.595.427t-.616.4q-.312.192-.634.367t-.652.335q-.33.159-.667.3t-.682.269a16.02,16.02,0,0,1-4.865.761c-5.578.219-11.211.059-16.8.073l-31.894.091-19.557.091c-5.053.035-10.886.658-15.809-.6a18.025,18.025,0,0,1-4.537-2.728,14.324,14.324,0,0,1-5.3-10.055c-.391-5.147-.02-10.585-.009-15.761.012-5.27-.573-14.114.442-19.021a12.563,12.563,0,0,1,2.987-5.795,13.845,13.845,0,0,1,6.981-4.151c4.071-.948,8.961-.452,13.148-.44C1618.026,3226.463,1628.31,3226.975,1638.278,3226.34Z" transform="translate(-1151.722 -2523.721)" fill="#d84100"/>
      <path id="Trazado_1238296" data-name="Trazado 1238296" d="M2158.176,3545c1.731-.057,3.252-.2,4.688.92.147.308.344.527.272.879a3.284,3.284,0,0,1-1.561,1.843c-1.317.148-3.023.4-4.113-.591-.539-.49-.48-.731-.5-1.406A4.157,4.157,0,0,1,2158.176,3545Z" transform="translate(-1649.092 -2800.543)" fill="#fdfdfd"/>
      <path id="Trazado_1238297" data-name="Trazado 1238297" d="M2221.03,3545.044a8.815,8.815,0,0,1,4.809.691,1.43,1.43,0,0,1,.458,1.262,4.818,4.818,0,0,1-1.423,1.764,5.06,5.06,0,0,1-3.577-.283,2.045,2.045,0,0,1-1.16-1.522A3.094,3.094,0,0,1,2221.03,3545.044Z" transform="translate(-1703.964 -2800.585)" fill="#fdfdfd"/>
      <path id="Trazado_1238298" data-name="Trazado 1238298" d="M2284.14,3546.74a15.324,15.324,0,0,1,3.211,0,3.283,3.283,0,0,1,2.36,1.379l-.136.6a6.38,6.38,0,0,1-1.594,1.327c-1.55.028-4.251.254-5.4-1.01-.284-.312-.176-.457-.15-.841A5.154,5.154,0,0,1,2284.14,3546.74Z" transform="translate(-1758.035 -2802.011)" fill="#fdfdfd"/>
      <path id="Trazado_1238299" data-name="Trazado 1238299" d="M1658.793,3306.477a12.984,12.984,0,0,1,1.472-.012,3.775,3.775,0,0,1,2.662,1.467,2.52,2.52,0,0,1,.143.218q.066.112.121.231t.1.243q.042.123.073.25t.048.256c.012.086.02.173.023.26s0,.174,0,.261-.015.174-.028.26a4.221,4.221,0,0,1-2,2.687,10.43,10.43,0,0,1-1.595.09,3.141,3.141,0,0,1-2.276-1.094,2.784,2.784,0,0,1-.66-2.169A4.278,4.278,0,0,1,1658.793,3306.477Z" transform="translate(-1214.744 -2593.391)" fill="#fdfdfd"/>
      <path id="Trazado_1238300" data-name="Trazado 1238300" d="M1843.811,3306.279a9.069,9.069,0,0,1,1.406-.094,3.317,3.317,0,0,1,2.459,1.187,2.96,2.96,0,0,1,.724,2.35,3.831,3.831,0,0,1-1.982,2.81,5.319,5.319,0,0,1-1.022.136,3.41,3.41,0,0,1-2.572-.959,3.175,3.175,0,0,1-.845-2.539A4.047,4.047,0,0,1,1843.811,3306.279Z" transform="translate(-1375.515 -2593.162)" fill="#fdfdfd"/>
      <path id="Trazado_1238301" data-name="Trazado 1238301" d="M1750.082,3302.8a5.99,5.99,0,0,1,1.539.171,3.541,3.541,0,0,1,2.121,1.876,3.414,3.414,0,0,1-.033,2.825,4.007,4.007,0,0,1-2.654,2.107,6.318,6.318,0,0,1-1.406-.132,3.452,3.452,0,0,1-.689-.251,3.353,3.353,0,0,1-.32-.181,3.391,3.391,0,0,1-.3-.214,3.428,3.428,0,0,1-.274-.245,3.38,3.38,0,0,1-.245-.273,3.481,3.481,0,0,1-.215-.3,3.359,3.359,0,0,1-.181-.32,3.309,3.309,0,0,1-.023-2.767A4.36,4.36,0,0,1,1750.082,3302.8Z" transform="translate(-1293.132 -2590.224)" fill="#fdfdfd"/>
      <path id="Trazado_1238302" data-name="Trazado 1238302" d="M1652.384,3545.068c10.818-.4,21.759-.122,32.59-.123,7.288,0,14.757-.4,22.02-.052a4.538,4.538,0,0,1,3.388,1.281,1.888,1.888,0,0,1,.122,1.2,2.85,2.85,0,0,1-1.714,1.944c-13.025-.275-26.088-.084-39.117-.081-5.611,0-11.6.415-17.176-.082a2.518,2.518,0,0,1-1.783-.606,1.735,1.735,0,0,1-.161-1.1A3.736,3.736,0,0,1,1652.384,3545.068Z" transform="translate(-1209.24 -2800.363)" fill="#fdfdfd"/>
      <path id="Trazado_1238303" data-name="Trazado 1238303" d="M1661.373,3402.108c16.333-.335,32.71-.022,49.049-.053l19.161-.016c2.786,0,5.722-.251,8.49-.011a4.734,4.734,0,0,1,2.605.792,1.459,1.459,0,0,1,.525,1,2.229,2.229,0,0,1-.62,1.7c-1.8,1.729-9.095.87-11.687.838l-51.528.106q-7.025-.023-14.05.048c-3.268.047-6.637.283-9.9.106a4.618,4.618,0,0,1-2.783-.851,1.534,1.534,0,0,1-.553-1.111,1.845,1.845,0,0,1,.636-1.608C1652.672,3401.3,1658.731,3402.1,1661.373,3402.108Z" transform="translate(-1208.863 -2676.308)" fill="#fdfdfd"/>
      <path id="Trazado_1238304" data-name="Trazado 1238304" d="M1652.266,3473.425l65.783.023c4.6.046,9.2.146,13.79.135,2.065,0,4.157-.25,6.218-.126a3.439,3.439,0,0,1,2.715,1.117,2.435,2.435,0,0,1,.013,2.259,3.013,3.013,0,0,1-1.691,1.058q-15.108.056-30.216-.052l-41.391-.009c-3.41-.034-13.124.545-15.828-.181a2.631,2.631,0,0,1-1.841-1.323,2.115,2.115,0,0,1,.173-1.7A3.16,3.16,0,0,1,1652.266,3473.425Z" transform="translate(-1208.538 -2738.411)" fill="#fdfdfd"/>
      <path id="Trazado_1238305" data-name="Trazado 1238305" d="M1705.525,411.579c-2.052-.388-4.222-.4-6.3-.691-11.034-1.544-21.579-8.94-28.129-17.766q-.334-.453-.656-.915t-.633-.931q-.311-.469-.61-.946t-.586-.961q-.287-.484-.562-.975t-.538-.989q-.263-.5-.513-1t-.488-1.014q-.238-.511-.463-1.027t-.437-1.038q-.212-.521-.411-1.048t-.386-1.058q-.186-.531-.359-1.067t-.332-1.076q-.16-.54-.306-1.084t-.279-1.091q-.133-.547-.252-1.1t-.224-1.1q-.106-.553-.2-1.108t-.17-1.113q-.078-.558-.142-1.117t-.114-1.12q-.051-.561-.086-1.123t-.058-1.124q-.023-.562-.031-1.125t0-1.126q.006-.563.025-1.126t.053-1.125q.034-.562.081-1.123t.109-1.121q.061-.56.136-1.118t.164-1.114a46.623,46.623,0,0,1,18.2-30.037q.446-.325.9-.638t.915-.616q.461-.3.93-.593t.944-.57q.476-.279.958-.546t.972-.522q.489-.255.984-.5t1-.473q.5-.231,1.008-.449t1.018-.423q.512-.205,1.029-.4t1.038-.372q.521-.18,1.047-.346t1.055-.32q.53-.154,1.063-.294t1.07-.268q.537-.127,1.076-.241t1.082-.214q.543-.1,1.087-.187t1.091-.16q.547-.073,1.095-.133t1.1-.106q.549-.046,1.1-.079t1.1-.051q.551-.019,1.1-.024t1.1,0q.552.009,1.1.031t1.1.058q.55.036,1.1.085t1.1.113q.547.063,1.094.14t1.09.167q.531.083,1.06.179t1.054.206q.526.109,1.049.232t1.043.259q.519.136,1.036.285t1.029.311q.512.162,1.02.337t1.012.362q.5.188,1,.388t.992.413q.494.213.981.438t.97.463q.482.237.958.487t.945.511q.469.261.932.534t.918.558q.456.285.9.581t.889.6q.441.307.873.626t.858.648q.424.329.841.669t.823.69q.408.35.807.711t.788.73q.389.37.769.75t.75.769q.37.39.73.788t.71.806q.35.407.69.824t.668.841q.329.425.647.858t.626.874c5.707,8.02,7.579,16.237,7.507,25.924a53.05,53.05,0,0,1-.524,8.362,31.639,31.639,0,0,1-1.975,7.733,46.48,46.48,0,0,1-14.047,20.769,48.46,48.46,0,0,1-15.4,8.288,51.727,51.727,0,0,1-10.775,1.779Z" transform="translate(-1219.434)" fill="#d84100"/>
      <path id="Trazado_1238306" data-name="Trazado 1238306" d="M1806.645,489.323c-.649-.828-2.38-1.636-3.24-2.3a26.391,26.391,0,0,1-4.522-4.556,26.8,26.8,0,0,1-5.707-20q.081-.664.2-1.323t.261-1.312q.146-.653.325-1.3t.39-1.279q.21-.635.452-1.259t.514-1.235q.272-.611.574-1.208t.633-1.178q.331-.581.69-1.145t.747-1.11q.387-.546.8-1.071t.853-1.031q.438-.5.9-.987t.95-.941q.487-.459,1-.894t1.039-.843a27.518,27.518,0,0,1,20.867-5.527,25.017,25.017,0,0,1,15.453,8.1c1.6,1.881,2.864,3.968,4.342,5.933,3.55,7.875,4.551,14.541,1.439,22.816q-.23.626-.491,1.24t-.552,1.214q-.291.6-.612,1.185t-.671,1.153q-.35.568-.728,1.118t-.783,1.08q-.405.53-.837,1.039t-.887,1q-.456.487-.936.95t-.982.9q-.5.438-1.027.851t-1.068.8q-.544.386-1.107.744t-1.143.688q-.58.33-1.176.63t-1.206.57a27.684,27.684,0,0,1-20.831.263Q1808.562,490.3,1806.645,489.323Z" transform="translate(-1332.962 -102.58)" fill="#fdfdfd"/>
      <path id="Trazado_1238307" data-name="Trazado 1238307" d="M1912.661,523.766c1.529-.049,3.053.013,4.581.065,2.115,4.985,3.54,10.477,5.27,15.618,1.673,4.971,3.7,9.842,5.146,14.884a57.35,57.35,0,0,1-5.74.016,35.385,35.385,0,0,1-2.883-6.731l-2.673-.021-7.122-.038a38.2,38.2,0,0,1-2.287,7.212l-5.514-.034C1902.185,550.821,1910.745,526.34,1912.661,523.766Z" transform="translate(-1427.17 -176.565)" fill="#d84100"/>
      <path id="Trazado_1238308" data-name="Trazado 1238308" d="M1981.166,599.074c1.241,1.2,2.525,6.834,3.078,8.694l-2.446.081-3.717-.028A64.69,64.69,0,0,1,1981.166,599.074Z" transform="translate(-1493.735 -241.986)" fill="#fdfdfd"/>
      <path id="Trazado_1238309" data-name="Trazado 1238309" d="M2584.149,1050.277a9.262,9.262,0,0,1-2.162-1.481c-1.659-1.5-1.984-3.136-2.083-5.263-.25-5.377-.052-10.854-.049-16.241l.016-29.557.029-18.528a77.01,77.01,0,0,1,.108-8.993,5.157,5.157,0,0,1,1.285-2.98,6.794,6.794,0,0,1,4.143-1.444c2.889-.24,5.946-.013,8.853,0l17.781.053,57.46.028a12.478,12.478,0,0,1,1.985,1.383c1.812,1.711,1.535,4.133,1.513,6.405l.013,49.7.022,13.6a62.8,62.8,0,0,1-.15,8.063,6.241,6.241,0,0,1-1.854,3.853,5.432,5.432,0,0,1-3.556,1.62c-3.82.444-8.013.12-11.867.115l-23.992-.035-30.944-.019c-5.01,0-10.254.323-15.234-.06A9.581,9.581,0,0,1,2584.149,1050.277Z" transform="translate(-2016.318 -560.39)" fill="#d84100"/>
      <path id="Trazado_1238310" data-name="Trazado 1238310" d="M2703.816,1018.57a5.987,5.987,0,0,1,1.112.231,1.948,1.948,0,0,1,1.126,1.16,2.664,2.664,0,0,1-.729,1.817,5.96,5.96,0,0,1-1.169-.167,1.652,1.652,0,0,1-1.141-1.093A3.25,3.25,0,0,1,2703.816,1018.57Z" transform="translate(-2123.353 -606.326)" fill="#fdfdfd"/>
      <path id="Trazado_1238311" data-name="Trazado 1238311" d="M2631.871,1016.956a3.246,3.246,0,0,1,2.18.428,1.725,1.725,0,0,1,.759,1.42,2.933,2.933,0,0,1-1.117,1.962,3.065,3.065,0,0,1-2.371-.307,2,2,0,0,1-.555-1.347A2.926,2.926,0,0,1,2631.871,1016.956Z" transform="translate(-2060.602 -604.914)" fill="#fdfdfd"/>
      <path id="Trazado_1238312" data-name="Trazado 1238312" d="M2768.542,1015.59c.135.025.272.045.406.076a2.612,2.612,0,0,1,1.86,1.389,2.235,2.235,0,0,1,.007,1.3c-.367,1.074-1.162,1.4-2.122,1.821a3.433,3.433,0,0,1-2.215-1.654,1.591,1.591,0,0,1-.038-1.221C2766.829,1016.291,2767.607,1015.966,2768.542,1015.59Z" transform="translate(-2178.349 -603.738)" fill="#fdfdfd"/>
      <path id="Trazado_1238313" data-name="Trazado 1238313" d="M2613.154,1085.808l50.132.062c6.319.012,17.7-.724,23.3.389l.269-.182.077.583.29-.09a5.663,5.663,0,0,1,.786,2.2c.559,2.989.195,6.427.143,9.471q-.153,7.667-.194,15.336l.031,22.272c.009,3.73.266,7.652-.054,11.354-.105,1.221-.312,3.147-1.175,4.087-1.587,1.727-7.436,1.034-9.779.994l-49.393-.037-14.8.071a79.174,79.174,0,0,1-8.9-.116,3.454,3.454,0,0,1-2.357-1.212c-.818-.84-.97-2.906-1.062-4.079-.527-6.736-.083-13.843-.08-20.612l-.048-40.408C2604.589,1085.7,2608.9,1085.824,2613.154,1085.808Z" transform="translate(-2034.063 -664.58)" fill="#fdfdfd"/>
      <path id="Trazado_1238314" data-name="Trazado 1238314" d="M2832.26,1237.451c3.136-.2,20.475-.5,22.4.14l.28.723c-2.589.214-21.456.444-22.614-.1Z" transform="translate(-2235.605 -796.215)" fill="#d84100"/>
      <path id="Trazado_1238315" data-name="Trazado 1238315" d="M2831.27,1315.35c3.109-.233,24.268-.439,26.087.1.545.161.577.3.831.763-2.738.275-26.043.446-26.791-.052Z" transform="translate(-2234.745 -863.876)" fill="#d84100"/>
      <path id="Trazado_1238316" data-name="Trazado 1238316" d="M2829.07,1517.473c7.389-.025,14.844-.213,22.229-.007.751.021,1.544-.118,2.071.445l-.081.771c-3.489-.009-22.477.494-24.143-.25Z" transform="translate(-2232.834 -1039.545)" fill="#d84100"/>
      <path id="Trazado_1238317" data-name="Trazado 1238317" d="M2866.544,1365.6l.953.019.448.543-.115.52c-1.163.631-31.421.226-34.946.212a7.753,7.753,0,0,1-1.338.009,1.293,1.293,0,0,1-1.1-.633l.3-.319c2.715-.783,8.547-.28,11.572-.283Q2854.434,1365.7,2866.544,1365.6Z" transform="translate(-2234.032 -907.653)" fill="#d84100"/>
      <path id="Trazado_1238318" data-name="Trazado 1238318" d="M2831.82,1182.9c6.287-.017,47.673-.543,48.724.162l.18,1.017c-3.587.154-47.944.2-48.53-.123C2831.82,1183.753,2831.886,1183.282,2831.82,1182.9Z" transform="translate(-2235.223 -748.872)" fill="#d84100"/>
      <path id="Trazado_1238319" data-name="Trazado 1238319" d="M2875.9,1416.571a10.043,10.043,0,0,1,3.991.281l.094.327a5.747,5.747,0,0,1-2.783.713c-4.357.323-8.931.028-13.314.046l-28.726.065c-.758.024-1.524.052-2.283.027a2.352,2.352,0,0,1-1.833-.779,3.206,3.206,0,0,1,1.994-.515c4.768-.339,9.748-.052,14.534-.053Q2861.733,1416.724,2875.9,1416.571Z" transform="translate(-2234.547 -951.943)" fill="#d84100"/>
      <path id="Trazado_1238320" data-name="Trazado 1238320" d="M2673.783,1444.452c2.578-.145,11.013-.654,13.024.442.031.142.064.283.092.426.233,1.188.155,9.724-.433,10.576-4.388.068-8.784-.007-13.173-.027C2673.283,1453.837,2672.828,1445.489,2673.783,1444.452Z" transform="translate(-2097.438 -976)" fill="#d84100"/>
      <path id="Trazado_1238321" data-name="Trazado 1238321" d="M2670.956,1293.065c3.229-.23,10.153-.669,13.051.415a2.218,2.218,0,0,1,.519,1.367,107.123,107.123,0,0,1-.24,11.219,135.265,135.265,0,0,1-13.629-.056C2670.356,1302.5,2669.995,1296.4,2670.956,1293.065Z" transform="translate(-2094.968 -844.483)" fill="#d84100"/>
      <path id="Trazado_1238322" data-name="Trazado 1238322" d="M2669.7,1145.674c2.372-.026,11.561-.639,13.213.621a1.479,1.479,0,0,1,.609,1.328c.138,1.48.231,8.374-.159,9.692a3.986,3.986,0,0,1-.763,1.252c-3.589.713-9.329.176-13.156.134C2669.029,1156.115,2668.531,1147.594,2669.7,1145.674Z" transform="translate(-2093.789 -716.57)" fill="#d84100"/>
      <path id="Trazado_1238323" data-name="Trazado 1238323" d="M258.41,1542.933a95.659,95.659,0,0,1-.074-9.811,5.691,5.691,0,0,1,1.854-4.2,4.846,4.846,0,0,1,2.545-1.182,81.035,81.035,0,0,1,8.466-.117l16.182-.012,20.149-.065c3.73,0,7.571-.177,11.287.151l3.037-.057,15.222-.08a93.693,93.693,0,0,1,9.729.217,17.3,17.3,0,0,1,3.884,3.5c1.365,3.83.766,27.05.714,32.765v2.011l.034,31.375c.01,4.315.495,10.4-.121,14.516a5.612,5.612,0,0,1-1.59,3.229,10.083,10.083,0,0,1-1.773,1.381c-20.1.475-40.292.177-60.4.209l-16.308.031c-3.1.01-6.663.368-9.693-.222a10.023,10.023,0,0,1-1.834-1.439,5.02,5.02,0,0,1-1.249-3.151,68.552,68.552,0,0,1-.088-7.991q.053-6.583.019-13.166Z" transform="translate(0 -1048.343)" fill="#d84100"/>
      <path id="Trazado_1238324" data-name="Trazado 1238324" d="M399.421,1575.44a3.268,3.268,0,0,1,1.956.734,2,2,0,0,1,.625,1.652,3.3,3.3,0,0,1-1.129,1.948l-.123-.016a3.084,3.084,0,0,1-1.713-.505,2.041,2.041,0,0,1-.856-1.573A2.834,2.834,0,0,1,399.421,1575.44Z" transform="translate(-121.561 -1089.979)" fill="#fdfdfd"/>
      <path id="Trazado_1238325" data-name="Trazado 1238325" d="M481.655,1575.9l.124,0a3.312,3.312,0,0,1,2.3.585,1.834,1.834,0,0,1,.64,1.595,3.654,3.654,0,0,1-1.23,2.056,3.029,3.029,0,0,1-2.313-.712,2.06,2.06,0,0,1-.7-1.688C480.508,1576.884,481.073,1576.435,481.655,1575.9Z" transform="translate(-193.028 -1090.378)" fill="#fdfdfd"/>
      <path id="Trazado_1238326" data-name="Trazado 1238326" d="M320.074,1575.29a3.575,3.575,0,0,1,2.155.537,1.864,1.864,0,0,1,.8,1.532,3.369,3.369,0,0,1-1.436,2.47,3.447,3.447,0,0,1-1.79-.567,2.122,2.122,0,0,1-.874-1.585A3.02,3.02,0,0,1,320.074,1575.29Z" transform="translate(-52.725 -1089.849)" fill="#fdfdfd"/>
      <path id="Trazado_1238327" data-name="Trazado 1238327" d="M349.974,1662.215q6.783-.117,13.566-.039c.222,13.26,0,26.558.009,39.823,0,7.606.475,16.313-.04,23.822a13.844,13.844,0,0,1-.938,4.368,3.676,3.676,0,0,1-2.316,1.05,78.317,78.317,0,0,1-8.035.037l-14.608-.077-48.275.1-7.492.1c-2.051.015-4.583.162-6.143-1.376-1.4-4.232-.562-21.473-.563-27.064l0-40.563C300.038,1661.74,325.056,1662.344,349.974,1662.215Z" transform="translate(-14.482 -1165.229)" fill="#fdfdfd"/>
      <path id="Trazado_1238328" data-name="Trazado 1238328" d="M522.945,1918.7c3.4-.118,23.159-.573,24.645.216l.3,1.3c-3.218.291-6.64.08-9.881.087-4.8.01-9.651.17-14.443-.09C523.067,1919.793,523.091,1919.317,522.945,1918.7Z" transform="translate(-229.921 -1387.9)" fill="#d84100"/>
      <path id="Trazado_1238329" data-name="Trazado 1238329" d="M522.766,1755.575c3.462-.006,31.846-.229,32.977.283a2.139,2.139,0,0,1,.433.363l-.052.848c-3.577.058-32.445.1-33.122-.325Z" transform="translate(-229.766 -1246.383)" fill="#d84100"/>
      <path id="Trazado_1238330" data-name="Trazado 1238330" d="M521.141,1869.661c2.532-.26,32.084-.378,33.058.161l.092,1.063c-2.85.281-31.146.614-32.515.039C521.454,1870.788,521.27,1869.992,521.141,1869.661Z" transform="translate(-228.354 -1345.325)" fill="#d84100"/>
      <path id="Trazado_1238331" data-name="Trazado 1238331" d="M533.954,2074.464c3.9-.01,31.689-.374,33.178.269.121.606.137.57-.192,1.09-3.131.488-6.682.151-9.862.118l-22.3-.007c-3.569,0-7.424.326-10.95-.072-.343-.5-.233-.531-.179-1.106C524.7,2074.111,532.15,2074.473,533.954,2074.464Z" transform="translate(-230.477 -1523.293)" fill="#d84100"/>
      <path id="Trazado_1238332" data-name="Trazado 1238332" d="M520.586,1804.451l28.092.009c5.338,0,10.7-.135,16.037.063.535.465.428.747.515,1.417-14.717-.01-29.523.325-44.231-.071C520.573,1805.466,520.653,1805.017,520.586,1804.451Z" transform="translate(-227.872 -1288.847)" fill="#d84100"/>
      <path id="Trazado_1238333" data-name="Trazado 1238333" d="M353.5,2009.133c3.01-.018,12.036-.706,14.235.763.88,1.784.732,7.74.569,9.844a3.406,3.406,0,0,1-1.442,2.753,66.476,66.476,0,0,1-11.913.128c-.557-.038-1.825-.074-2.172-.585-1.216-1.787-.788-8.489-.513-10.737A2.759,2.759,0,0,1,353.5,2009.133Z" transform="translate(-81.415 -1466.496)" fill="#d84100"/>
      <path id="Trazado_1238334" data-name="Trazado 1238334" d="M369.326,2027.091c3.858-.171,7.722-.1,11.583-.064.127,3.009.038,6.024-.005,9.034l-11.607-.034Q369.253,2031.558,369.326,2027.091Z" transform="translate(-96.461 -1482.151)" fill="#f98847"/>
      <path id="Trazado_1238335" data-name="Trazado 1238335" d="M353,1721.313c3.162-.155,12.049-.779,14.336.885.57,1.239.768,9.7.349,11-.247.762-.892,1.067-1.542,1.43a8.78,8.78,0,0,1-.888.187c-1.911.27-11.589.52-12.879-.459-1.441-2.568-1.054-8.247-.667-11.109A2.361,2.361,0,0,1,353,1721.313Z" transform="translate(-80.891 -1216.46)" fill="#d84100"/>
      <path id="Trazado_1238336" data-name="Trazado 1238336" d="M371.547,1738.158c3.694-.219,7.47-.064,11.174-.061.012,3.166.084,6.344-.082,9.506q-5.673.046-11.346-.037C371.273,1744.5,371.023,1741.18,371.547,1738.158Z" transform="translate(-98.141 -1231.2)" fill="#f98847"/>
      <path id="Trazado_1238337" data-name="Trazado 1238337" d="M353.8,1864.419c3.74-.035,11.271-.826,14.393.828.8.852.571,7.422.614,9.013a4.318,4.318,0,0,1-1.368,3.717c-2.413.49-12.137.862-14.269-.385a3.842,3.842,0,0,1-.458-1.456,50.7,50.7,0,0,1,.2-10.008A4.089,4.089,0,0,1,353.8,1864.419Z" transform="translate(-81.934 -1340.772)" fill="#d84100"/>
      <path id="Trazado_1238338" data-name="Trazado 1238338" d="M370.908,1882.829c3.816-.05,7.692-.183,11.5.117q.019,4.62-.019,9.24c-3.829.1-7.672.036-11.5.029C370.849,1889.088,370.895,1885.956,370.908,1882.829Z" transform="translate(-97.842 -1356.889)" fill="#f98847"/>
    </g>
    <g id="Grupo_1237569" data-name="Grupo 1237569" transform="translate(672.042 2910.361)">
      <g id="Grupo_1210518" data-name="Grupo 1210518" transform="translate(276.222 1036.777)">
        <g id="Rectngulo_420773" data-name="Rectngulo 420773" transform="translate(0 0)" fill="#fff" stroke="#3b2a76" stroke-width="2">
          <rect width="82.63" height="49.671" rx="24.836" stroke="none"/>
          <rect x="1" y="1" width="80.63" height="47.671" rx="23.836" fill="none"/>
        </g>
        <text id="_1" data-name="1" transform="translate(52.13 31.336)" fill="#212429" font-size="18" font-family="SegoeUI, Segoe UI" letter-spacing="0em"><tspan x="0" y="0">1</tspan></text>
      </g>
    </g>
    <g id="Grupo_1237571" data-name="Grupo 1237571" transform="translate(588.263 4194.138)">
      <g id="Grupo_1210518-2" data-name="Grupo 1210518">
        <g id="Rectngulo_420773-2" data-name="Rectngulo 420773" transform="translate(0 0)" fill="#fff" stroke="#3b2a76" stroke-width="2">
          <rect width="82.63" height="49.671" rx="24.836" stroke="none"/>
          <rect x="1" y="1" width="80.63" height="47.671" rx="23.836" fill="none"/>
        </g>
        <text id="_2" data-name="2" transform="translate(19.5 31.336)" fill="#212429" font-size="18" font-family="SegoeUI, Segoe UI" letter-spacing="0em"><tspan x="0" y="0">2</tspan></text>
      </g>
    </g>
    <g id="Grupo_1237573" data-name="Grupo 1237573" transform="translate(997.578 4178.683)">
      <g id="Grupo_1210518-3" data-name="Grupo 1210518" transform="translate(0 0)">
        <g id="Rectngulo_420773-3" data-name="Rectngulo 420773" fill="#fff" stroke="#3b2a76" stroke-width="2">
          <rect width="82.63" height="49.671" rx="24.836" stroke="none"/>
          <rect x="1" y="1" width="80.63" height="47.671" rx="23.836" fill="none"/>
        </g>
        <text id="_3" data-name="3" transform="translate(52.131 31.336)" fill="#212429" font-size="18" font-family="SegoeUI, Segoe UI" letter-spacing="0em"><tspan x="0" y="0">3</tspan></text>
      </g>
    </g>
  </g>
</svg>
