<svg xmlns="http://www.w3.org/2000/svg" width="30.998" height="34.169" viewBox="0 0 30.998 34.169">
  <g id="computacion-en-la-nube" transform="translate(-3.97 -1)">
    <path id="Trazado_1236773" data-name="Trazado 1236773" d="M34.968,12.906a6.386,6.386,0,0,1-6.385,6.385h-1.5V11.224a2.525,2.525,0,0,0-2.52-2.52H14.376a2.525,2.525,0,0,0-2.52,2.52v8.067H10.5a6.531,6.531,0,0,1-.166-13.059,6.558,6.558,0,0,1,8.233-2.9A6.527,6.527,0,0,1,30.04,6.686a6.39,6.39,0,0,1,4.928,6.22Z" transform="translate(0)"/>
    <path id="Trazado_1236774" data-name="Trazado 1236774" d="M32.411,17.5H22.225a1.414,1.414,0,0,0-1.415,1.415V41.45a1.413,1.413,0,0,0,1.415,1.409H32.417a1.413,1.413,0,0,0,1.415-1.409V18.915a1.415,1.415,0,0,0-1.42-1.415Zm-5.04,3.043a1.983,1.983,0,1,1-1.986,1.981A1.983,1.983,0,0,1,27.372,20.543Zm4.036,19.273H23.143v-3.2h8.265Zm0-5.371H23.143v-3.2h8.265Zm.422-6.14H22.807v-1.1h9.028v1.1Z" transform="translate(-7.849 -7.691)"/>
  </g>
</svg>
