<svg xmlns="http://www.w3.org/2000/svg" width="408.46" height="385.771" viewBox="0 0 408.46 385.771">
  <g id="Grupo_1238885" data-name="Grupo 1238885" transform="translate(-595.77 -5816.465)">
    <path id="Trazado_1238124" data-name="Trazado 1238124" d="M46.4,0C72.023,0,92.8,21.648,92.8,48.353S72.023,96.705,46.4,96.705,0,75.057,0,48.353,20.773,0,46.4,0Z" transform="translate(910.77 5845.268)" fill="#f5b104"/>
    <path id="Trazado_1240170" data-name="Trazado 1240170" d="M12.524,0H9.431l-.9-2.8H4.052L3.164,0H.088L4.676-12.6H8.042ZM7.884-4.983,6.53-9.22a5.52,5.52,0,0,1-.211-1.134h-.07a4.807,4.807,0,0,1-.22,1.1L4.658-4.983ZM16.6,0H13.827V-13.324H16.6ZM27.768-1.028a5.092,5.092,0,0,1-1.45,3.88,5.877,5.877,0,0,1-4.2,1.375,6.659,6.659,0,0,1-2.883-.519V1.371a5.521,5.521,0,0,0,2.8.809,3.02,3.02,0,0,0,2.18-.743A2.665,2.665,0,0,0,24.991-.58v-.712h-.035A3.1,3.1,0,0,1,22.152.22,3.372,3.372,0,0,1,19.419-.993a4.919,4.919,0,0,1-1.011-3.252,5.478,5.478,0,0,1,1.125-3.63A3.673,3.673,0,0,1,22.495-9.22a2.733,2.733,0,0,1,2.461,1.266h.035V-9h2.777Zm-2.742-3.3v-.712a2.188,2.188,0,0,0-.505-1.455,1.635,1.635,0,0,0-1.314-.6,1.7,1.7,0,0,0-1.45.721,3.389,3.389,0,0,0-.527,2.03,2.86,2.86,0,0,0,.5,1.78,1.633,1.633,0,0,0,1.371.655,1.7,1.7,0,0,0,1.393-.664A2.721,2.721,0,0,0,25.026-4.324ZM34.379.22a4.838,4.838,0,0,1-3.538-1.261,4.573,4.573,0,0,1-1.288-3.423A4.573,4.573,0,0,1,30.89-7.958,5.048,5.048,0,0,1,34.5-9.22a4.78,4.78,0,0,1,3.516,1.261,4.483,4.483,0,0,1,1.274,3.335,4.759,4.759,0,0,1-1.314,3.542A4.892,4.892,0,0,1,34.379.22Zm.07-7.312a1.852,1.852,0,0,0-1.529.677A2.984,2.984,0,0,0,32.376-4.5q0,2.593,2.092,2.593,2,0,2-2.663Q36.462-7.093,34.45-7.093Zm12.517.6A2.409,2.409,0,0,0,45.8-6.768a1.684,1.684,0,0,0-1.415.664,2.9,2.9,0,0,0-.51,1.806V0H41.1V-9h2.777v1.67h.035a2.4,2.4,0,0,1,2.373-1.828,1.788,1.788,0,0,1,.686.105Zm2.77-3.929a1.622,1.622,0,0,1-1.151-.417,1.345,1.345,0,0,1-.448-1.024,1.3,1.3,0,0,1,.448-1.02,1.676,1.676,0,0,1,1.151-.4,1.672,1.672,0,0,1,1.156.4,1.3,1.3,0,0,1,.444,1.02,1.34,1.34,0,0,1-.444,1.037A1.65,1.65,0,0,1,49.738-10.424ZM51.109,0H48.331V-9h2.777Zm7.78-.105A4.105,4.105,0,0,1,57.034.22Q54.1.22,54.1-2.83V-6.952H52.64V-9H54.1v-1.942l2.769-.791V-9h2.021v2.048H56.867v3.639q0,1.406,1.116,1.406a1.882,1.882,0,0,0,.905-.255ZM74.746,0H71.977V-5.133q0-1.96-1.441-1.96A1.324,1.324,0,0,0,69.42-6.5a2.42,2.42,0,0,0-.431,1.468V0H66.212V-5.186q0-1.907-1.415-1.907a1.356,1.356,0,0,0-1.138.563A2.475,2.475,0,0,0,63.232-5V0H60.455V-9h2.777v1.406h.035a3.321,3.321,0,0,1,1.208-1.173,3.321,3.321,0,0,1,1.7-.453,2.592,2.592,0,0,1,2.61,1.679A3.329,3.329,0,0,1,71.81-9.22q2.936,0,2.936,3.621Zm6.488.22A4.838,4.838,0,0,1,77.7-1.042a4.573,4.573,0,0,1-1.288-3.423,4.573,4.573,0,0,1,1.336-3.494A5.048,5.048,0,0,1,81.357-9.22a4.78,4.78,0,0,1,3.516,1.261,4.483,4.483,0,0,1,1.274,3.335,4.759,4.759,0,0,1-1.314,3.542A4.892,4.892,0,0,1,81.234.22Zm.07-7.312a1.852,1.852,0,0,0-1.529.677A2.984,2.984,0,0,0,79.23-4.5q0,2.593,2.092,2.593,2,0,2-2.663Q83.317-7.093,81.3-7.093ZM101.725,0H98.948V-1.239h-.035A3.114,3.114,0,0,1,96.126.22,3.412,3.412,0,0,1,93.411-.971,4.93,4.93,0,0,1,92.382-4.3a5.366,5.366,0,0,1,1.134-3.577A3.7,3.7,0,0,1,96.487-9.22a2.527,2.527,0,0,1,2.426,1.248h.035v-5.353h2.777ZM99-4.377v-.677a2.13,2.13,0,0,0-.51-1.459,1.683,1.683,0,0,0-1.327-.58,1.673,1.673,0,0,0-1.441.725A3.367,3.367,0,0,0,95.2-4.377a2.914,2.914,0,0,0,.5,1.828,1.663,1.663,0,0,0,1.389.642,1.67,1.67,0,0,0,1.375-.677A2.821,2.821,0,0,0,99-4.377Zm13.15.668H106.28q.141,1.96,2.47,1.96a4.822,4.822,0,0,0,2.61-.7v2a6.858,6.858,0,0,1-3.243.668,4.565,4.565,0,0,1-3.384-1.208,4.566,4.566,0,0,1-1.2-3.371,4.816,4.816,0,0,1,1.3-3.551,4.334,4.334,0,0,1,3.2-1.31,3.933,3.933,0,0,1,3.045,1.169,4.5,4.5,0,0,1,1.077,3.173Zm-2.575-1.705q0-1.934-1.564-1.934a1.494,1.494,0,0,0-1.156.554,2.513,2.513,0,0,0-.593,1.38ZM125.593-.325a5.492,5.492,0,0,1-2.716.545,4.593,4.593,0,0,1-3.357-1.257,4.341,4.341,0,0,1-1.283-3.243A4.782,4.782,0,0,1,119.612-7.9,5.083,5.083,0,0,1,123.29-9.22a4.72,4.72,0,0,1,2.3.422v2.355a3.166,3.166,0,0,0-1.942-.65,2.559,2.559,0,0,0-1.894.7,2.607,2.607,0,0,0-.7,1.929,2.565,2.565,0,0,0,.668,1.876,2.455,2.455,0,0,0,1.837.681,3.666,3.666,0,0,0,2.03-.65ZM131.7.22a4.838,4.838,0,0,1-3.538-1.261,4.573,4.573,0,0,1-1.288-3.423,4.573,4.573,0,0,1,1.336-3.494,5.048,5.048,0,0,1,3.612-1.261,4.78,4.78,0,0,1,3.516,1.261,4.483,4.483,0,0,1,1.274,3.335A4.759,4.759,0,0,1,135.3-1.081,4.892,4.892,0,0,1,131.7.22Zm.07-7.312a1.852,1.852,0,0,0-1.529.677A2.984,2.984,0,0,0,129.7-4.5q0,2.593,2.092,2.593,2,0,2-2.663Q133.786-7.093,131.773-7.093ZM147.112,0h-2.769V-5q0-2.092-1.494-2.092a1.483,1.483,0,0,0-1.187.554,2.109,2.109,0,0,0-.466,1.406V0H138.42V-9H141.2v1.424h.035a3.183,3.183,0,0,1,2.892-1.644q2.988,0,2.988,3.709Zm1.61-.237v-2.25a5.913,5.913,0,0,0,1.367.615,4.531,4.531,0,0,0,1.288.2,2.762,2.762,0,0,0,1.165-.2.653.653,0,0,0,.426-.615.569.569,0,0,0-.193-.439,1.8,1.8,0,0,0-.5-.308,5.635,5.635,0,0,0-.664-.237q-.36-.105-.694-.237a6.653,6.653,0,0,1-.945-.435,2.731,2.731,0,0,1-.686-.541,2.125,2.125,0,0,1-.422-.712,2.841,2.841,0,0,1-.145-.958,2.466,2.466,0,0,1,.33-1.3,2.692,2.692,0,0,1,.879-.892,4.016,4.016,0,0,1,1.257-.51,6.553,6.553,0,0,1,1.472-.163,8.168,8.168,0,0,1,1.213.092,9.053,9.053,0,0,1,1.213.268v2.145a4.383,4.383,0,0,0-1.129-.461,4.764,4.764,0,0,0-1.182-.154,2.619,2.619,0,0,0-.514.048,1.693,1.693,0,0,0-.426.141.783.783,0,0,0-.29.237.546.546,0,0,0-.105.33.609.609,0,0,0,.158.422,1.374,1.374,0,0,0,.413.3,4.078,4.078,0,0,0,.567.229q.312.1.62.207a8.056,8.056,0,0,1,1,.422,3.2,3.2,0,0,1,.769.536,2.105,2.105,0,0,1,.492.721,2.562,2.562,0,0,1,.171.984,2.568,2.568,0,0,1-.347,1.367,2.78,2.78,0,0,1-.923.923,4.185,4.185,0,0,1-1.327.519,7.357,7.357,0,0,1-1.56.163A8.042,8.042,0,0,1,148.722-.237Zm16.6-3.472h-5.871q.141,1.96,2.47,1.96a4.822,4.822,0,0,0,2.61-.7v2a6.858,6.858,0,0,1-3.243.668A4.565,4.565,0,0,1,157.9-.989a4.566,4.566,0,0,1-1.2-3.371A4.816,4.816,0,0,1,158-7.91a4.334,4.334,0,0,1,3.2-1.31,3.933,3.933,0,0,1,3.045,1.169,4.5,4.5,0,0,1,1.077,3.173Zm-2.575-1.705q0-1.934-1.564-1.934a1.494,1.494,0,0,0-1.156.554,2.513,2.513,0,0,0-.593,1.38ZM175.664,0H172.9V-5q0-2.092-1.494-2.092a1.483,1.483,0,0,0-1.187.554,2.109,2.109,0,0,0-.466,1.406V0h-2.777V-9h2.777v1.424h.035a3.183,3.183,0,0,1,2.892-1.644q2.988,0,2.988,3.709Zm1.61-.237v-2.25a5.913,5.913,0,0,0,1.367.615,4.531,4.531,0,0,0,1.288.2,2.762,2.762,0,0,0,1.165-.2.653.653,0,0,0,.426-.615.569.569,0,0,0-.193-.439,1.8,1.8,0,0,0-.5-.308,5.635,5.635,0,0,0-.664-.237q-.36-.105-.694-.237a6.653,6.653,0,0,1-.945-.435,2.731,2.731,0,0,1-.686-.541,2.125,2.125,0,0,1-.422-.712,2.841,2.841,0,0,1-.145-.958,2.466,2.466,0,0,1,.33-1.3,2.692,2.692,0,0,1,.879-.892,4.016,4.016,0,0,1,1.257-.51,6.553,6.553,0,0,1,1.472-.163,8.168,8.168,0,0,1,1.213.092,9.053,9.053,0,0,1,1.213.268v2.145a4.383,4.383,0,0,0-1.129-.461,4.764,4.764,0,0,0-1.182-.154,2.619,2.619,0,0,0-.514.048,1.693,1.693,0,0,0-.426.141.783.783,0,0,0-.29.237.546.546,0,0,0-.105.33.609.609,0,0,0,.158.422,1.374,1.374,0,0,0,.413.3,4.078,4.078,0,0,0,.567.229q.312.1.62.207a8.056,8.056,0,0,1,1,.422,3.2,3.2,0,0,1,.769.536,2.105,2.105,0,0,1,.492.721,2.562,2.562,0,0,1,.171.984,2.568,2.568,0,0,1-.347,1.367,2.78,2.78,0,0,1-.923.923,4.185,4.185,0,0,1-1.327.519,7.357,7.357,0,0,1-1.56.163A8.042,8.042,0,0,1,177.274-.237Zm12.8.457a4.838,4.838,0,0,1-3.538-1.261,4.573,4.573,0,0,1-1.288-3.423,4.573,4.573,0,0,1,1.336-3.494A5.048,5.048,0,0,1,190.2-9.22a4.78,4.78,0,0,1,3.516,1.261,4.483,4.483,0,0,1,1.274,3.335,4.759,4.759,0,0,1-1.314,3.542A4.892,4.892,0,0,1,190.073.22Zm.07-7.312a1.852,1.852,0,0,0-1.529.677,2.984,2.984,0,0,0-.545,1.916q0,2.593,2.092,2.593,2,0,2-2.663Q192.156-7.093,190.143-7.093ZM212.6,0h-3.261l-1.96-3.243q-.22-.369-.422-.659a3.662,3.662,0,0,0-.409-.5,1.625,1.625,0,0,0-.431-.316,1.093,1.093,0,0,0-.488-.11h-.765V0H202.03V-12.6h4.5q4.588,0,4.588,3.428a3.55,3.55,0,0,1-.2,1.217,3.382,3.382,0,0,1-.571,1.006,3.621,3.621,0,0,1-.892.773,4.6,4.6,0,0,1-1.165.51v.035a1.806,1.806,0,0,1,.545.286,3.9,3.9,0,0,1,.51.461,6.438,6.438,0,0,1,.47.567q.224.3.409.593Zm-7.734-10.477V-6.97h1.23a2.04,2.04,0,0,0,1.468-.527,1.76,1.76,0,0,0,.563-1.327q0-1.652-1.978-1.652ZM221,0h-2.628V-1.292h-.035A2.933,2.933,0,0,1,215.655.22a2.8,2.8,0,0,1-2.061-.743,2.661,2.661,0,0,1-.751-1.982q0-2.619,3.1-3.023l2.443-.325q0-1.477-1.6-1.477a5.46,5.46,0,0,0-3.059.958V-8.464a6.881,6.881,0,0,1,1.586-.527,8.339,8.339,0,0,1,1.833-.229q3.85,0,3.85,3.841Zm-2.61-3.656v-.606l-1.635.211Q215.4-3.876,215.4-2.83a1.01,1.01,0,0,0,.33.778,1.266,1.266,0,0,0,.892.3A1.644,1.644,0,0,0,217.9-2.29,1.952,1.952,0,0,0,218.388-3.656ZM229.069-11.2a2.806,2.806,0,0,0-1.028-.211q-1.336,0-1.336,1.45V-9h2.057v2.048H226.7V0h-2.769V-6.952h-1.512V-9h1.512v-1.116a3.24,3.24,0,0,1,1-2.479,3.821,3.821,0,0,1,2.725-.94,4.785,4.785,0,0,1,1.406.176ZM235.882-.105a4.105,4.105,0,0,1-1.854.325q-2.936,0-2.936-3.05V-6.952h-1.459V-9h1.459v-1.942l2.769-.791V-9h2.021v2.048H233.86v3.639q0,1.406,1.116,1.406a1.882,1.882,0,0,0,.905-.255Z" transform="translate(683.953 5830)" fill="#212429"/>
    <path id="Trazado_1240171" data-name="Trazado 1240171" d="M10.688,0H8.93L6.82-3.533a7.7,7.7,0,0,0-.562-.839A3.207,3.207,0,0,0,5.7-4.939a1.933,1.933,0,0,0-.615-.321,2.53,2.53,0,0,0-.743-.1H3.129V0H1.652V-12.6H5.414a5.361,5.361,0,0,1,1.525.207,3.412,3.412,0,0,1,1.213.628,2.92,2.92,0,0,1,.8,1.05,3.483,3.483,0,0,1,.29,1.472,3.545,3.545,0,0,1-.2,1.208,3.156,3.156,0,0,1-.562.98,3.41,3.41,0,0,1-.879.734,4.487,4.487,0,0,1-1.156.47v.035A2.658,2.658,0,0,1,7-5.5a3.023,3.023,0,0,1,.444.426,5.646,5.646,0,0,1,.417.558q.207.312.461.725ZM3.129-11.268V-6.7h2a3.039,3.039,0,0,0,1.024-.167,2.37,2.37,0,0,0,.813-.479,2.172,2.172,0,0,0,.536-.765A2.56,2.56,0,0,0,7.7-9.123,1.976,1.976,0,0,0,7.044-10.7a2.813,2.813,0,0,0-1.894-.567Zm15.8,7.128H12.579a3.366,3.366,0,0,0,.809,2.32A2.788,2.788,0,0,0,15.514-1a4.422,4.422,0,0,0,2.795-1V-.65a5.224,5.224,0,0,1-3.138.861,3.8,3.8,0,0,1-3-1.226,5.018,5.018,0,0,1-1.09-3.45,4.921,4.921,0,0,1,1.191-3.423,3.819,3.819,0,0,1,2.958-1.323,3.384,3.384,0,0,1,2.733,1.143A4.764,4.764,0,0,1,18.933-4.9ZM17.457-5.361a2.933,2.933,0,0,0-.6-1.942A2.051,2.051,0,0,0,15.207-8a2.328,2.328,0,0,0-1.731.729A3.311,3.311,0,0,0,12.6-5.361ZM28.8,4.14H27.355V-1.547H27.32A3.225,3.225,0,0,1,24.244.211,3.387,3.387,0,0,1,21.524-1,4.929,4.929,0,0,1,20.5-4.289a5.39,5.39,0,0,1,1.125-3.582,3.744,3.744,0,0,1,3.023-1.34A2.838,2.838,0,0,1,27.32-7.752h.035V-9H28.8ZM27.355-4.052v-1.31a2.619,2.619,0,0,0-.725-1.872A2.428,2.428,0,0,0,24.789-8a2.475,2.475,0,0,0-2.057.962,4.3,4.3,0,0,0-.756,2.711,3.721,3.721,0,0,0,.729,2.439A2.328,2.328,0,0,0,24.587-1,2.536,2.536,0,0,0,26.6-1.868,3.212,3.212,0,0,0,27.355-4.052ZM38.994,0H37.552V-1.424h-.035A2.96,2.96,0,0,1,34.74.211q-3.217,0-3.217-3.832V-9h1.433v5.15Q32.956-1,35.135-1a2.205,2.205,0,0,0,1.736-.778,2.976,2.976,0,0,0,.681-2.035V-9h1.441ZM49.138-4.14H42.784a3.366,3.366,0,0,0,.809,2.32A2.788,2.788,0,0,0,45.719-1a4.422,4.422,0,0,0,2.795-1V-.65a5.224,5.224,0,0,1-3.138.861,3.8,3.8,0,0,1-3-1.226,5.018,5.018,0,0,1-1.09-3.45A4.921,4.921,0,0,1,42.48-7.888a3.819,3.819,0,0,1,2.958-1.323,3.384,3.384,0,0,1,2.733,1.143A4.764,4.764,0,0,1,49.138-4.9ZM47.661-5.361a2.933,2.933,0,0,0-.6-1.942A2.051,2.051,0,0,0,45.411-8a2.328,2.328,0,0,0-1.731.729A3.311,3.311,0,0,0,42.8-5.361ZM50.775-.325V-1.872A4.266,4.266,0,0,0,53.367-1q1.9,0,1.9-1.266a1.1,1.1,0,0,0-.163-.611,1.62,1.62,0,0,0-.439-.444,3.383,3.383,0,0,0-.65-.347q-.374-.154-.8-.321a10.357,10.357,0,0,1-1.05-.479,3.173,3.173,0,0,1-.756-.545,2.028,2.028,0,0,1-.457-.69,2.441,2.441,0,0,1-.154-.905,2.15,2.15,0,0,1,.29-1.121,2.572,2.572,0,0,1,.773-.817,3.607,3.607,0,0,1,1.1-.5,4.893,4.893,0,0,1,1.279-.167,5.164,5.164,0,0,1,2.092.4v1.459A4.077,4.077,0,0,0,54.044-8a2.671,2.671,0,0,0-.729.092,1.786,1.786,0,0,0-.558.259,1.2,1.2,0,0,0-.36.4,1.053,1.053,0,0,0-.127.514,1.233,1.233,0,0,0,.127.589,1.3,1.3,0,0,0,.374.422,2.855,2.855,0,0,0,.6.334q.352.149.8.325a11.131,11.131,0,0,1,1.072.47,3.678,3.678,0,0,1,.809.545,2.129,2.129,0,0,1,.514.7,2.254,2.254,0,0,1,.18.94,2.217,2.217,0,0,1-.294,1.16,2.523,2.523,0,0,1-.787.817,3.6,3.6,0,0,1-1.134.483,5.6,5.6,0,0,1-1.345.158A5.106,5.106,0,0,1,50.775-.325Zm12.359.237a2.779,2.779,0,0,1-1.345.281q-2.364,0-2.364-2.637V-7.77H57.878V-9h1.547v-2.2l1.441-.466V-9h2.268v1.23H60.866V-2.7a2.1,2.1,0,0,0,.308,1.292,1.228,1.228,0,0,0,1.02.387,1.515,1.515,0,0,0,.94-.3ZM74.623-12.6,69.956,0H68.33L63.76-12.6H65.4L68.892-2.61a5.935,5.935,0,0,1,.255,1.116h.035a5.475,5.475,0,0,1,.29-1.134l3.56-9.976ZM78.861.211A4.175,4.175,0,0,1,75.675-1.05a4.672,4.672,0,0,1-1.191-3.344,4.867,4.867,0,0,1,1.239-3.542,4.455,4.455,0,0,1,3.349-1.274,4.037,4.037,0,0,1,3.142,1.239,4.914,4.914,0,0,1,1.129,3.437,4.835,4.835,0,0,1-1.217,3.45A4.265,4.265,0,0,1,78.861.211ZM78.967-8a2.742,2.742,0,0,0-2.2.945,3.88,3.88,0,0,0-.809,2.606,3.67,3.67,0,0,0,.817,2.522A2.778,2.778,0,0,0,78.967-1a2.635,2.635,0,0,0,2.149-.905,3.928,3.928,0,0,0,.751-2.575,4,4,0,0,0-.751-2.6A2.623,2.623,0,0,0,78.967-8ZM89.823-.088a2.779,2.779,0,0,1-1.345.281q-2.364,0-2.364-2.637V-7.77H84.567V-9h1.547v-2.2l1.441-.466V-9h2.268v1.23H87.555V-2.7a2.1,2.1,0,0,0,.308,1.292,1.228,1.228,0,0,0,1.02.387,1.515,1.515,0,0,0,.94-.3Zm9.16-4.052H92.628a3.366,3.366,0,0,0,.809,2.32A2.788,2.788,0,0,0,95.564-1a4.422,4.422,0,0,0,2.795-1V-.65a5.224,5.224,0,0,1-3.138.861,3.8,3.8,0,0,1-3-1.226,5.018,5.018,0,0,1-1.09-3.45,4.921,4.921,0,0,1,1.191-3.423,3.819,3.819,0,0,1,2.958-1.323,3.384,3.384,0,0,1,2.733,1.143A4.764,4.764,0,0,1,98.983-4.9ZM97.506-5.361A2.933,2.933,0,0,0,96.9-7.3,2.051,2.051,0,0,0,95.256-8a2.328,2.328,0,0,0-1.731.729,3.311,3.311,0,0,0-.879,1.907Z" transform="translate(748.055 5883)" fill="#212429"/>
    <path id="Trazado_1240172" data-name="Trazado 1240172" d="M11.408,0H9.773L8.438-3.533H3.094L1.837,0H.193L5.027-12.6H6.557ZM7.954-4.86,5.977-10.23a5.142,5.142,0,0,1-.193-.844H5.748a4.708,4.708,0,0,1-.2.844L3.586-4.86ZM14.548-1.3h-.035V4.14H13.071V-9h1.441v1.582h.035a3.408,3.408,0,0,1,3.111-1.793A3.3,3.3,0,0,1,20.375-8a5.005,5.005,0,0,1,.976,3.239,5.578,5.578,0,0,1-1.1,3.617A3.658,3.658,0,0,1,17.246.211,3.011,3.011,0,0,1,14.548-1.3Zm-.035-3.63v1.257a2.676,2.676,0,0,0,.725,1.894A2.408,2.408,0,0,0,17.079-1a2.413,2.413,0,0,0,2.052-1,4.6,4.6,0,0,0,.743-2.786,3.629,3.629,0,0,0-.694-2.355A2.3,2.3,0,0,0,17.3-8a2.554,2.554,0,0,0-2.021.875A3.211,3.211,0,0,0,14.513-4.931ZM25.132-1.3H25.1V4.14H23.655V-9H25.1v1.582h.035a3.408,3.408,0,0,1,3.111-1.793A3.3,3.3,0,0,1,30.959-8a5.005,5.005,0,0,1,.976,3.239,5.578,5.578,0,0,1-1.1,3.617A3.658,3.658,0,0,1,27.83.211,3.011,3.011,0,0,1,25.132-1.3ZM25.1-4.931v1.257a2.676,2.676,0,0,0,.725,1.894A2.408,2.408,0,0,0,27.663-1a2.413,2.413,0,0,0,2.052-1,4.6,4.6,0,0,0,.743-2.786,3.629,3.629,0,0,0-.694-2.355A2.3,2.3,0,0,0,27.883-8a2.554,2.554,0,0,0-2.021.875A3.211,3.211,0,0,0,25.1-4.931Zm16.376.791H35.118a3.366,3.366,0,0,0,.809,2.32A2.788,2.788,0,0,0,38.053-1a4.422,4.422,0,0,0,2.795-1V-.65A5.224,5.224,0,0,1,37.71.211a3.8,3.8,0,0,1-3-1.226,5.018,5.018,0,0,1-1.09-3.45,4.921,4.921,0,0,1,1.191-3.423,3.819,3.819,0,0,1,2.958-1.323,3.384,3.384,0,0,1,2.733,1.143A4.764,4.764,0,0,1,41.472-4.9ZM40-5.361a2.933,2.933,0,0,0-.6-1.942A2.051,2.051,0,0,0,37.746-8a2.328,2.328,0,0,0-1.731.729,3.311,3.311,0,0,0-.879,1.907ZM51.124,0H49.683V-5.133Q49.683-8,47.591-8a2.269,2.269,0,0,0-1.789.813A3.013,3.013,0,0,0,45.1-5.133V0H43.654V-9H45.1v1.494h.035a3.248,3.248,0,0,1,2.953-1.705,2.753,2.753,0,0,1,2.259.954A4.248,4.248,0,0,1,51.124-5.5Zm10.4,0H60.082V-1.529h-.035A3.327,3.327,0,0,1,56.953.211,3.362,3.362,0,0,1,54.242-1a4.958,4.958,0,0,1-1.015-3.292,5.394,5.394,0,0,1,1.125-3.577,3.71,3.71,0,0,1,3-1.345,2.885,2.885,0,0,1,2.7,1.459h.035v-5.572h1.441ZM60.082-4.069V-5.4a2.575,2.575,0,0,0-.721-1.846A2.417,2.417,0,0,0,57.533-8a2.489,2.489,0,0,0-2.074.967A4.237,4.237,0,0,0,54.7-4.359,3.81,3.81,0,0,0,55.428-1.9a2.37,2.37,0,0,0,1.947.9,2.462,2.462,0,0,0,1.956-.87A3.242,3.242,0,0,0,60.082-4.069ZM71.316,0h-6.68V-12.6h6.4v1.336H66.113v4.192h4.553v1.327H66.113v4.412h5.2Zm9.7,0H79.58V-5.133Q79.58-8,77.488-8a2.269,2.269,0,0,0-1.789.813,3.013,3.013,0,0,0-.708,2.052V0H73.551V-9h1.441v1.494h.035A3.248,3.248,0,0,1,77.98-9.211a2.753,2.753,0,0,1,2.259.954A4.248,4.248,0,0,1,81.021-5.5Zm6.892-.088a2.779,2.779,0,0,1-1.345.281Q84.2.193,84.2-2.443V-7.77H82.658V-9H84.2v-2.2l1.441-.466V-9h2.268v1.23H85.646V-2.7a2.1,2.1,0,0,0,.308,1.292,1.228,1.228,0,0,0,1.02.387,1.515,1.515,0,0,0,.94-.3Zm6.62-7.453a1.763,1.763,0,0,0-1.09-.29,1.839,1.839,0,0,0-1.542.87,4.023,4.023,0,0,0-.62,2.373V0H89.84V-9h1.441v1.854h.035a3.143,3.143,0,0,1,.94-1.481,2.144,2.144,0,0,1,1.415-.532,2.353,2.353,0,0,1,.861.123Zm2.3-3.744a.913.913,0,0,1-.659-.264.89.89,0,0,1-.272-.668.9.9,0,0,1,.272-.672.905.905,0,0,1,.659-.268.931.931,0,0,1,.672.268.9.9,0,0,1,.277.672.891.891,0,0,1-.277.659A.923.923,0,0,1,96.838-11.285ZM97.541,0H96.1V-9h1.441Zm10.153-4.14H101.34a3.366,3.366,0,0,0,.809,2.32A2.788,2.788,0,0,0,104.276-1a4.422,4.422,0,0,0,2.795-1V-.65a5.224,5.224,0,0,1-3.138.861,3.8,3.8,0,0,1-3-1.226,5.018,5.018,0,0,1-1.09-3.45,4.921,4.921,0,0,1,1.191-3.423,3.819,3.819,0,0,1,2.958-1.323,3.384,3.384,0,0,1,2.733,1.143,4.764,4.764,0,0,1,.967,3.173Zm-1.477-1.222a2.933,2.933,0,0,0-.6-1.942A2.051,2.051,0,0,0,103.968-8a2.328,2.328,0,0,0-1.731.729,3.311,3.311,0,0,0-.879,1.907Zm3.113,5.036V-1.872a4.266,4.266,0,0,0,2.593.87q1.9,0,1.9-1.266a1.1,1.1,0,0,0-.163-.611,1.62,1.62,0,0,0-.439-.444,3.383,3.383,0,0,0-.65-.347q-.374-.154-.8-.321a10.357,10.357,0,0,1-1.05-.479,3.173,3.173,0,0,1-.756-.545,2.028,2.028,0,0,1-.457-.69,2.441,2.441,0,0,1-.154-.905,2.15,2.15,0,0,1,.29-1.121,2.572,2.572,0,0,1,.773-.817,3.607,3.607,0,0,1,1.1-.5,4.893,4.893,0,0,1,1.279-.167,5.164,5.164,0,0,1,2.092.4v1.459A4.077,4.077,0,0,0,112.6-8a2.671,2.671,0,0,0-.729.092,1.786,1.786,0,0,0-.558.259,1.2,1.2,0,0,0-.36.4,1.053,1.053,0,0,0-.127.514,1.233,1.233,0,0,0,.127.589,1.3,1.3,0,0,0,.374.422,2.855,2.855,0,0,0,.6.334q.352.149.8.325a11.131,11.131,0,0,1,1.072.47,3.678,3.678,0,0,1,.809.545,2.129,2.129,0,0,1,.514.7,2.254,2.254,0,0,1,.18.94A2.217,2.217,0,0,1,115-1.248a2.523,2.523,0,0,1-.787.817,3.6,3.6,0,0,1-1.134.483,5.6,5.6,0,0,1-1.345.158A5.106,5.106,0,0,1,109.331-.325Z" transform="translate(748.055 5921)" fill="#212429"/>
    <path id="Trazado_1240173" data-name="Trazado 1240173" d="M10.688,0H8.93L6.82-3.533a7.7,7.7,0,0,0-.562-.839A3.207,3.207,0,0,0,5.7-4.939a1.933,1.933,0,0,0-.615-.321,2.53,2.53,0,0,0-.743-.1H3.129V0H1.652V-12.6H5.414a5.361,5.361,0,0,1,1.525.207,3.412,3.412,0,0,1,1.213.628,2.92,2.92,0,0,1,.8,1.05,3.483,3.483,0,0,1,.29,1.472,3.545,3.545,0,0,1-.2,1.208,3.156,3.156,0,0,1-.562.98,3.41,3.41,0,0,1-.879.734,4.487,4.487,0,0,1-1.156.47v.035A2.658,2.658,0,0,1,7-5.5a3.023,3.023,0,0,1,.444.426,5.646,5.646,0,0,1,.417.558q.207.312.461.725ZM3.129-11.268V-6.7h2a3.039,3.039,0,0,0,1.024-.167,2.37,2.37,0,0,0,.813-.479,2.172,2.172,0,0,0,.536-.765A2.56,2.56,0,0,0,7.7-9.123,1.976,1.976,0,0,0,7.044-10.7a2.813,2.813,0,0,0-1.894-.567Zm15.8,7.128H12.579a3.366,3.366,0,0,0,.809,2.32A2.788,2.788,0,0,0,15.514-1a4.422,4.422,0,0,0,2.795-1V-.65a5.224,5.224,0,0,1-3.138.861,3.8,3.8,0,0,1-3-1.226,5.018,5.018,0,0,1-1.09-3.45,4.921,4.921,0,0,1,1.191-3.423,3.819,3.819,0,0,1,2.958-1.323,3.384,3.384,0,0,1,2.733,1.143A4.764,4.764,0,0,1,18.933-4.9ZM17.457-5.361a2.933,2.933,0,0,0-.6-1.942A2.051,2.051,0,0,0,15.207-8a2.328,2.328,0,0,0-1.731.729A3.311,3.311,0,0,0,12.6-5.361ZM28.8,4.14H27.355V-1.547H27.32A3.225,3.225,0,0,1,24.244.211,3.387,3.387,0,0,1,21.524-1,4.929,4.929,0,0,1,20.5-4.289a5.39,5.39,0,0,1,1.125-3.582,3.744,3.744,0,0,1,3.023-1.34A2.838,2.838,0,0,1,27.32-7.752h.035V-9H28.8ZM27.355-4.052v-1.31a2.619,2.619,0,0,0-.725-1.872A2.428,2.428,0,0,0,24.789-8a2.475,2.475,0,0,0-2.057.962,4.3,4.3,0,0,0-.756,2.711,3.721,3.721,0,0,0,.729,2.439A2.328,2.328,0,0,0,24.587-1,2.536,2.536,0,0,0,26.6-1.868,3.212,3.212,0,0,0,27.355-4.052ZM38.994,0H37.552V-1.424h-.035A2.96,2.96,0,0,1,34.74.211q-3.217,0-3.217-3.832V-9h1.433v5.15Q32.956-1,35.135-1a2.205,2.205,0,0,0,1.736-.778,2.976,2.976,0,0,0,.681-2.035V-9h1.441ZM49.138-4.14H42.784a3.366,3.366,0,0,0,.809,2.32A2.788,2.788,0,0,0,45.719-1a4.422,4.422,0,0,0,2.795-1V-.65a5.224,5.224,0,0,1-3.138.861,3.8,3.8,0,0,1-3-1.226,5.018,5.018,0,0,1-1.09-3.45A4.921,4.921,0,0,1,42.48-7.888a3.819,3.819,0,0,1,2.958-1.323,3.384,3.384,0,0,1,2.733,1.143A4.764,4.764,0,0,1,49.138-4.9ZM47.661-5.361a2.933,2.933,0,0,0-.6-1.942A2.051,2.051,0,0,0,45.411-8a2.328,2.328,0,0,0-1.731.729A3.311,3.311,0,0,0,42.8-5.361ZM50.775-.325V-1.872A4.266,4.266,0,0,0,53.367-1q1.9,0,1.9-1.266a1.1,1.1,0,0,0-.163-.611,1.62,1.62,0,0,0-.439-.444,3.383,3.383,0,0,0-.65-.347q-.374-.154-.8-.321a10.357,10.357,0,0,1-1.05-.479,3.173,3.173,0,0,1-.756-.545,2.028,2.028,0,0,1-.457-.69,2.441,2.441,0,0,1-.154-.905,2.15,2.15,0,0,1,.29-1.121,2.572,2.572,0,0,1,.773-.817,3.607,3.607,0,0,1,1.1-.5,4.893,4.893,0,0,1,1.279-.167,5.164,5.164,0,0,1,2.092.4v1.459A4.077,4.077,0,0,0,54.044-8a2.671,2.671,0,0,0-.729.092,1.786,1.786,0,0,0-.558.259,1.2,1.2,0,0,0-.36.4,1.053,1.053,0,0,0-.127.514,1.233,1.233,0,0,0,.127.589,1.3,1.3,0,0,0,.374.422,2.855,2.855,0,0,0,.6.334q.352.149.8.325a11.131,11.131,0,0,1,1.072.47,3.678,3.678,0,0,1,.809.545,2.129,2.129,0,0,1,.514.7,2.254,2.254,0,0,1,.18.94,2.217,2.217,0,0,1-.294,1.16,2.523,2.523,0,0,1-.787.817,3.6,3.6,0,0,1-1.134.483,5.6,5.6,0,0,1-1.345.158A5.106,5.106,0,0,1,50.775-.325Zm12.359.237a2.779,2.779,0,0,1-1.345.281q-2.364,0-2.364-2.637V-7.77H57.878V-9h1.547v-2.2l1.441-.466V-9h2.268v1.23H60.866V-2.7a2.1,2.1,0,0,0,.308,1.292,1.228,1.228,0,0,0,1.02.387,1.515,1.515,0,0,0,.94-.3ZM74.623-12.6,69.956,0H68.33L63.76-12.6H65.4L68.892-2.61a5.935,5.935,0,0,1,.255,1.116h.035a5.475,5.475,0,0,1,.29-1.134l3.56-9.976ZM78.861.211A4.175,4.175,0,0,1,75.675-1.05a4.672,4.672,0,0,1-1.191-3.344,4.867,4.867,0,0,1,1.239-3.542,4.455,4.455,0,0,1,3.349-1.274,4.037,4.037,0,0,1,3.142,1.239,4.914,4.914,0,0,1,1.129,3.437,4.835,4.835,0,0,1-1.217,3.45A4.265,4.265,0,0,1,78.861.211ZM78.967-8a2.742,2.742,0,0,0-2.2.945,3.88,3.88,0,0,0-.809,2.606,3.67,3.67,0,0,0,.817,2.522A2.778,2.778,0,0,0,78.967-1a2.635,2.635,0,0,0,2.149-.905,3.928,3.928,0,0,0,.751-2.575,4,4,0,0,0-.751-2.6A2.623,2.623,0,0,0,78.967-8ZM89.823-.088a2.779,2.779,0,0,1-1.345.281q-2.364,0-2.364-2.637V-7.77H84.567V-9h1.547v-2.2l1.441-.466V-9h2.268v1.23H87.555V-2.7a2.1,2.1,0,0,0,.308,1.292,1.228,1.228,0,0,0,1.02.387,1.515,1.515,0,0,0,.94-.3Zm9.16-4.052H92.628a3.366,3.366,0,0,0,.809,2.32A2.788,2.788,0,0,0,95.564-1a4.422,4.422,0,0,0,2.795-1V-.65a5.224,5.224,0,0,1-3.138.861,3.8,3.8,0,0,1-3-1.226,5.018,5.018,0,0,1-1.09-3.45,4.921,4.921,0,0,1,1.191-3.423,3.819,3.819,0,0,1,2.958-1.323,3.384,3.384,0,0,1,2.733,1.143A4.764,4.764,0,0,1,98.983-4.9ZM97.506-5.361A2.933,2.933,0,0,0,96.9-7.3,2.051,2.051,0,0,0,95.256-8a2.328,2.328,0,0,0-1.731.729,3.311,3.311,0,0,0-.879,1.907Z" transform="translate(655.055 6041)" fill="#212429"/>
    <path id="Trazado_1240174" data-name="Trazado 1240174" d="M11.408,0H9.773L8.438-3.533H3.094L1.837,0H.193L5.027-12.6H6.557ZM7.954-4.86,5.977-10.23a5.142,5.142,0,0,1-.193-.844H5.748a4.708,4.708,0,0,1-.2.844L3.586-4.86ZM14.548-1.3h-.035V4.14H13.071V-9h1.441v1.582h.035a3.408,3.408,0,0,1,3.111-1.793A3.3,3.3,0,0,1,20.375-8a5.005,5.005,0,0,1,.976,3.239,5.578,5.578,0,0,1-1.1,3.617A3.658,3.658,0,0,1,17.246.211,3.011,3.011,0,0,1,14.548-1.3Zm-.035-3.63v1.257a2.676,2.676,0,0,0,.725,1.894A2.408,2.408,0,0,0,17.079-1a2.413,2.413,0,0,0,2.052-1,4.6,4.6,0,0,0,.743-2.786,3.629,3.629,0,0,0-.694-2.355A2.3,2.3,0,0,0,17.3-8a2.554,2.554,0,0,0-2.021.875A3.211,3.211,0,0,0,14.513-4.931ZM25.132-1.3H25.1V4.14H23.655V-9H25.1v1.582h.035a3.408,3.408,0,0,1,3.111-1.793A3.3,3.3,0,0,1,30.959-8a5.005,5.005,0,0,1,.976,3.239,5.578,5.578,0,0,1-1.1,3.617A3.658,3.658,0,0,1,27.83.211,3.011,3.011,0,0,1,25.132-1.3ZM25.1-4.931v1.257a2.676,2.676,0,0,0,.725,1.894A2.408,2.408,0,0,0,27.663-1a2.413,2.413,0,0,0,2.052-1,4.6,4.6,0,0,0,.743-2.786,3.629,3.629,0,0,0-.694-2.355A2.3,2.3,0,0,0,27.883-8a2.554,2.554,0,0,0-2.021.875A3.211,3.211,0,0,0,25.1-4.931Zm16.376.791H35.118a3.366,3.366,0,0,0,.809,2.32A2.788,2.788,0,0,0,38.053-1a4.422,4.422,0,0,0,2.795-1V-.65A5.224,5.224,0,0,1,37.71.211a3.8,3.8,0,0,1-3-1.226,5.018,5.018,0,0,1-1.09-3.45,4.921,4.921,0,0,1,1.191-3.423,3.819,3.819,0,0,1,2.958-1.323,3.384,3.384,0,0,1,2.733,1.143A4.764,4.764,0,0,1,41.472-4.9ZM40-5.361a2.933,2.933,0,0,0-.6-1.942A2.051,2.051,0,0,0,37.746-8a2.328,2.328,0,0,0-1.731.729,3.311,3.311,0,0,0-.879,1.907ZM51.124,0H49.683V-5.133Q49.683-8,47.591-8a2.269,2.269,0,0,0-1.789.813A3.013,3.013,0,0,0,45.1-5.133V0H43.654V-9H45.1v1.494h.035a3.248,3.248,0,0,1,2.953-1.705,2.753,2.753,0,0,1,2.259.954A4.248,4.248,0,0,1,51.124-5.5Zm10.4,0H60.082V-1.529h-.035A3.327,3.327,0,0,1,56.953.211,3.362,3.362,0,0,1,54.242-1a4.958,4.958,0,0,1-1.015-3.292,5.394,5.394,0,0,1,1.125-3.577,3.71,3.71,0,0,1,3-1.345,2.885,2.885,0,0,1,2.7,1.459h.035v-5.572h1.441ZM60.082-4.069V-5.4a2.575,2.575,0,0,0-.721-1.846A2.417,2.417,0,0,0,57.533-8a2.489,2.489,0,0,0-2.074.967A4.237,4.237,0,0,0,54.7-4.359,3.81,3.81,0,0,0,55.428-1.9a2.37,2.37,0,0,0,1.947.9,2.462,2.462,0,0,0,1.956-.87A3.242,3.242,0,0,0,60.082-4.069ZM71.316,0h-6.68V-12.6h6.4v1.336H66.113v4.192h4.553v1.327H66.113v4.412h5.2Zm9.7,0H79.58V-5.133Q79.58-8,77.488-8a2.269,2.269,0,0,0-1.789.813,3.013,3.013,0,0,0-.708,2.052V0H73.551V-9h1.441v1.494h.035A3.248,3.248,0,0,1,77.98-9.211a2.753,2.753,0,0,1,2.259.954A4.248,4.248,0,0,1,81.021-5.5Zm6.892-.088a2.779,2.779,0,0,1-1.345.281Q84.2.193,84.2-2.443V-7.77H82.658V-9H84.2v-2.2l1.441-.466V-9h2.268v1.23H85.646V-2.7a2.1,2.1,0,0,0,.308,1.292,1.228,1.228,0,0,0,1.02.387,1.515,1.515,0,0,0,.94-.3Zm6.62-7.453a1.763,1.763,0,0,0-1.09-.29,1.839,1.839,0,0,0-1.542.87,4.023,4.023,0,0,0-.62,2.373V0H89.84V-9h1.441v1.854h.035a3.143,3.143,0,0,1,.94-1.481,2.144,2.144,0,0,1,1.415-.532,2.353,2.353,0,0,1,.861.123Zm2.3-3.744a.913.913,0,0,1-.659-.264.89.89,0,0,1-.272-.668.9.9,0,0,1,.272-.672.905.905,0,0,1,.659-.268.931.931,0,0,1,.672.268.9.9,0,0,1,.277.672.891.891,0,0,1-.277.659A.923.923,0,0,1,96.838-11.285ZM97.541,0H96.1V-9h1.441Zm10.153-4.14H101.34a3.366,3.366,0,0,0,.809,2.32A2.788,2.788,0,0,0,104.276-1a4.422,4.422,0,0,0,2.795-1V-.65a5.224,5.224,0,0,1-3.138.861,3.8,3.8,0,0,1-3-1.226,5.018,5.018,0,0,1-1.09-3.45,4.921,4.921,0,0,1,1.191-3.423,3.819,3.819,0,0,1,2.958-1.323,3.384,3.384,0,0,1,2.733,1.143,4.764,4.764,0,0,1,.967,3.173Zm-1.477-1.222a2.933,2.933,0,0,0-.6-1.942A2.051,2.051,0,0,0,103.968-8a2.328,2.328,0,0,0-1.731.729,3.311,3.311,0,0,0-.879,1.907Zm3.113,5.036V-1.872a4.266,4.266,0,0,0,2.593.87q1.9,0,1.9-1.266a1.1,1.1,0,0,0-.163-.611,1.62,1.62,0,0,0-.439-.444,3.383,3.383,0,0,0-.65-.347q-.374-.154-.8-.321a10.357,10.357,0,0,1-1.05-.479,3.173,3.173,0,0,1-.756-.545,2.028,2.028,0,0,1-.457-.69,2.441,2.441,0,0,1-.154-.905,2.15,2.15,0,0,1,.29-1.121,2.572,2.572,0,0,1,.773-.817,3.607,3.607,0,0,1,1.1-.5,4.893,4.893,0,0,1,1.279-.167,5.164,5.164,0,0,1,2.092.4v1.459A4.077,4.077,0,0,0,112.6-8a2.671,2.671,0,0,0-.729.092,1.786,1.786,0,0,0-.558.259,1.2,1.2,0,0,0-.36.4,1.053,1.053,0,0,0-.127.514,1.233,1.233,0,0,0,.127.589,1.3,1.3,0,0,0,.374.422,2.855,2.855,0,0,0,.6.334q.352.149.8.325a11.131,11.131,0,0,1,1.072.47,3.678,3.678,0,0,1,.809.545,2.129,2.129,0,0,1,.514.7,2.254,2.254,0,0,1,.18.94A2.217,2.217,0,0,1,115-1.248a2.523,2.523,0,0,1-.787.817,3.6,3.6,0,0,1-1.134.483,5.6,5.6,0,0,1-1.345.158A5.106,5.106,0,0,1,109.331-.325Z" transform="translate(867.055 6001)" fill="#212429"/>
    <path id="Trazado_1238123" data-name="Trazado 1238123" d="M46.73,0C72.538,0,93.46,21.648,93.46,48.353S72.538,96.705,46.73,96.705,0,75.057,0,48.353,20.922,0,46.73,0Z" transform="translate(595.77 5845.326)" fill="#85e4b6"/>
    <path id="Trazado_1240175" data-name="Trazado 1240175" d="M2.9,0H1.459V-13.324H2.9ZM7.262,0H5.82V-9H7.262ZM8.554-13.588l-2.3,2.883H5.135l1.96-2.883ZM17.863,0H16.422V-1.529h-.035A3.327,3.327,0,0,1,13.293.211,3.362,3.362,0,0,1,10.581-1,4.958,4.958,0,0,1,9.566-4.289a5.394,5.394,0,0,1,1.125-3.577,3.71,3.71,0,0,1,3-1.345,2.885,2.885,0,0,1,2.7,1.459h.035v-5.572h1.441ZM16.422-4.069V-5.4A2.575,2.575,0,0,0,15.7-7.242,2.417,2.417,0,0,0,13.873-8a2.489,2.489,0,0,0-2.074.967,4.237,4.237,0,0,0-.756,2.672A3.81,3.81,0,0,0,11.768-1.9a2.37,2.37,0,0,0,1.947.9,2.462,2.462,0,0,0,1.956-.87A3.242,3.242,0,0,0,16.422-4.069Zm11.595-.07H21.662a3.366,3.366,0,0,0,.809,2.32A2.788,2.788,0,0,0,24.6-1a4.422,4.422,0,0,0,2.795-1V-.65a5.224,5.224,0,0,1-3.138.861,3.8,3.8,0,0,1-3-1.226,5.018,5.018,0,0,1-1.09-3.45,4.921,4.921,0,0,1,1.191-3.423,3.819,3.819,0,0,1,2.958-1.323,3.384,3.384,0,0,1,2.733,1.143A4.764,4.764,0,0,1,28.016-4.9ZM26.54-5.361a2.933,2.933,0,0,0-.6-1.942A2.051,2.051,0,0,0,24.29-8a2.328,2.328,0,0,0-1.731.729,3.311,3.311,0,0,0-.879,1.907Zm8.351-2.18a1.763,1.763,0,0,0-1.09-.29,1.839,1.839,0,0,0-1.542.87,4.023,4.023,0,0,0-.62,2.373V0H30.2V-9h1.441v1.854h.035a3.143,3.143,0,0,1,.94-1.481,2.144,2.144,0,0,1,1.415-.532,2.353,2.353,0,0,1,.861.123Z" transform="translate(624.77 5900.326)" fill="#212429"/>
    <path id="Trazado_1240176" data-name="Trazado 1240176" d="M7.594-.413A4.684,4.684,0,0,1,5.133.211,4.074,4.074,0,0,1,2.026-1.042,4.539,4.539,0,0,1,.844-4.289,4.99,4.99,0,0,1,2.118-7.862a4.458,4.458,0,0,1,3.4-1.349,4.735,4.735,0,0,1,2.092.439v1.477A3.665,3.665,0,0,0,5.467-8,2.9,2.9,0,0,0,3.2-7.009a3.752,3.752,0,0,0-.883,2.6,3.573,3.573,0,0,0,.831,2.5A2.863,2.863,0,0,0,5.379-1a3.613,3.613,0,0,0,2.215-.782ZM16.218,0H14.776V-1.406h-.035A3.018,3.018,0,0,1,11.973.211,2.959,2.959,0,0,1,9.868-.5a2.466,2.466,0,0,1-.76-1.89q0-2.522,2.971-2.936l2.7-.378Q14.776-8,12.922-8A4.431,4.431,0,0,0,9.986-6.891V-8.367a5.577,5.577,0,0,1,3.059-.844q3.173,0,3.173,3.357ZM14.776-4.553l-2.171.3a3.525,3.525,0,0,0-1.512.5,1.432,1.432,0,0,0-.51,1.261,1.374,1.374,0,0,0,.47,1.077A1.817,1.817,0,0,0,12.306-1a2.314,2.314,0,0,0,1.771-.751,2.685,2.685,0,0,0,.7-1.9ZM26.406,0H24.965V-5.133Q24.965-8,22.873-8a2.269,2.269,0,0,0-1.789.813,3.013,3.013,0,0,0-.708,2.052V0H18.935V-9h1.441v1.494h.035a3.248,3.248,0,0,1,2.953-1.705,2.753,2.753,0,0,1,2.259.954A4.248,4.248,0,0,1,26.406-5.5Zm10.4,0H35.364V-1.529h-.035A3.327,3.327,0,0,1,32.235.211,3.362,3.362,0,0,1,29.523-1a4.958,4.958,0,0,1-1.015-3.292,5.394,5.394,0,0,1,1.125-3.577,3.71,3.71,0,0,1,3-1.345,2.885,2.885,0,0,1,2.7,1.459h.035v-5.572h1.441ZM35.364-4.069V-5.4a2.575,2.575,0,0,0-.721-1.846A2.417,2.417,0,0,0,32.815-8a2.489,2.489,0,0,0-2.074.967,4.237,4.237,0,0,0-.756,2.672A3.81,3.81,0,0,0,30.71-1.9a2.37,2.37,0,0,0,1.947.9,2.462,2.462,0,0,0,1.956-.87A3.242,3.242,0,0,0,35.364-4.069Zm5.1-7.216a.913.913,0,0,1-.659-.264.89.89,0,0,1-.272-.668.9.9,0,0,1,.272-.672.905.905,0,0,1,.659-.268.931.931,0,0,1,.672.268.9.9,0,0,1,.277.672.891.891,0,0,1-.277.659A.923.923,0,0,1,40.463-11.285ZM41.166,0H39.725V-9h1.441Zm10.6,0H50.326V-1.529h-.035A3.327,3.327,0,0,1,47.2.211,3.362,3.362,0,0,1,44.486-1a4.958,4.958,0,0,1-1.015-3.292A5.394,5.394,0,0,1,44.6-7.866a3.71,3.71,0,0,1,3-1.345,2.885,2.885,0,0,1,2.7,1.459h.035v-5.572h1.441ZM50.326-4.069V-5.4a2.575,2.575,0,0,0-.721-1.846A2.417,2.417,0,0,0,47.778-8a2.489,2.489,0,0,0-2.074.967,4.237,4.237,0,0,0-.756,2.672A3.81,3.81,0,0,0,45.673-1.9a2.37,2.37,0,0,0,1.947.9,2.462,2.462,0,0,0,1.956-.87A3.242,3.242,0,0,0,50.326-4.069ZM61.13,0H59.689V-1.406h-.035A3.018,3.018,0,0,1,56.885.211,2.959,2.959,0,0,1,54.78-.5a2.466,2.466,0,0,1-.76-1.89q0-2.522,2.971-2.936l2.7-.378Q59.689-8,57.834-8A4.431,4.431,0,0,0,54.9-6.891V-8.367a5.577,5.577,0,0,1,3.059-.844q3.173,0,3.173,3.357ZM59.689-4.553l-2.171.3a3.525,3.525,0,0,0-1.512.5A1.432,1.432,0,0,0,55.5-2.5a1.374,1.374,0,0,0,.47,1.077A1.817,1.817,0,0,0,57.219-1a2.314,2.314,0,0,0,1.771-.751,2.685,2.685,0,0,0,.7-1.9ZM68.022-.088a2.779,2.779,0,0,1-1.345.281q-2.364,0-2.364-2.637V-7.77H62.767V-9h1.547v-2.2l1.441-.466V-9h2.268v1.23H65.755V-2.7a2.1,2.1,0,0,0,.308,1.292,1.228,1.228,0,0,0,1.02.387,1.515,1.515,0,0,0,.94-.3Zm5.688.3A4.175,4.175,0,0,1,70.525-1.05a4.672,4.672,0,0,1-1.191-3.344,4.867,4.867,0,0,1,1.239-3.542,4.455,4.455,0,0,1,3.349-1.274,4.037,4.037,0,0,1,3.142,1.239,4.914,4.914,0,0,1,1.129,3.437,4.835,4.835,0,0,1-1.217,3.45A4.265,4.265,0,0,1,73.711.211ZM73.816-8a2.742,2.742,0,0,0-2.2.945,3.88,3.88,0,0,0-.809,2.606,3.67,3.67,0,0,0,.817,2.522A2.778,2.778,0,0,0,73.816-1a2.635,2.635,0,0,0,2.149-.905,3.928,3.928,0,0,0,.751-2.575,4,4,0,0,0-.751-2.6A2.623,2.623,0,0,0,73.816-8Z" transform="translate(915.668 5900.121)" fill="#212429"/>
    <path id="Trazado_1238125" data-name="Trazado 1238125" d="M46.73,0C72.538,0,93.46,21.648,93.46,48.353S72.538,96.705,46.73,96.705,0,75.057,0,48.353,20.922,0,46.73,0Z" transform="translate(756.223 6031.621)" fill="#6c4dd8"/>
    <path id="Trazado_1240177" data-name="Trazado 1240177" d="M.914-.325V-1.872A4.266,4.266,0,0,0,3.507-1q1.9,0,1.9-1.266a1.1,1.1,0,0,0-.163-.611A1.62,1.62,0,0,0,4.8-3.322a3.383,3.383,0,0,0-.65-.347q-.374-.154-.8-.321A10.357,10.357,0,0,1,2.3-4.469a3.173,3.173,0,0,1-.756-.545,2.028,2.028,0,0,1-.457-.69,2.441,2.441,0,0,1-.154-.905,2.15,2.15,0,0,1,.29-1.121A2.572,2.572,0,0,1,2-8.547a3.607,3.607,0,0,1,1.1-.5,4.893,4.893,0,0,1,1.279-.167,5.164,5.164,0,0,1,2.092.4v1.459A4.077,4.077,0,0,0,4.184-8a2.671,2.671,0,0,0-.729.092,1.786,1.786,0,0,0-.558.259,1.2,1.2,0,0,0-.36.4,1.053,1.053,0,0,0-.127.514,1.233,1.233,0,0,0,.127.589,1.3,1.3,0,0,0,.374.422,2.855,2.855,0,0,0,.6.334q.352.149.8.325a11.131,11.131,0,0,1,1.072.47,3.678,3.678,0,0,1,.809.545,2.129,2.129,0,0,1,.514.7,2.254,2.254,0,0,1,.18.94,2.217,2.217,0,0,1-.294,1.16A2.523,2.523,0,0,1,5.8-.431,3.6,3.6,0,0,1,4.667.053,5.6,5.6,0,0,1,3.322.211,5.106,5.106,0,0,1,.914-.325ZM16.332-4.14H9.977a3.366,3.366,0,0,0,.809,2.32A2.788,2.788,0,0,0,12.913-1a4.422,4.422,0,0,0,2.795-1V-.65A5.224,5.224,0,0,1,12.57.211a3.8,3.8,0,0,1-3-1.226,5.018,5.018,0,0,1-1.09-3.45A4.921,4.921,0,0,1,9.674-7.888a3.819,3.819,0,0,1,2.958-1.323,3.384,3.384,0,0,1,2.733,1.143A4.764,4.764,0,0,1,16.332-4.9ZM14.855-5.361a2.933,2.933,0,0,0-.6-1.942A2.051,2.051,0,0,0,12.605-8a2.328,2.328,0,0,0-1.731.729,3.311,3.311,0,0,0-.879,1.907ZM26.2-.721q0,4.957-4.746,4.957A6.372,6.372,0,0,1,18.531,3.6V2.162a5.993,5.993,0,0,0,2.9.844q3.322,0,3.322-3.533v-.984h-.035A3.371,3.371,0,0,1,21.625.211a3.379,3.379,0,0,1-2.7-1.2A4.8,4.8,0,0,1,17.9-4.21,5.6,5.6,0,0,1,19-7.857,3.685,3.685,0,0,1,22.02-9.211a2.934,2.934,0,0,1,2.7,1.459h.035V-9H26.2ZM24.754-4.069V-5.4a2.575,2.575,0,0,0-.725-1.837A2.387,2.387,0,0,0,22.222-8a2.5,2.5,0,0,0-2.092.971,4.335,4.335,0,0,0-.756,2.72A3.721,3.721,0,0,0,20.1-1.9a2.343,2.343,0,0,0,1.92.9,2.509,2.509,0,0,0,1.973-.861A3.21,3.21,0,0,0,24.754-4.069ZM36.392,0H34.951V-1.424h-.035A2.96,2.96,0,0,1,32.138.211q-3.217,0-3.217-3.832V-9h1.433v5.15Q30.354-1,32.534-1A2.205,2.205,0,0,0,34.27-1.78a2.976,2.976,0,0,0,.681-2.035V-9h1.441Zm3.649-11.285a.913.913,0,0,1-.659-.264.89.89,0,0,1-.272-.668.9.9,0,0,1,.272-.672.905.905,0,0,1,.659-.268.931.931,0,0,1,.672.268.9.9,0,0,1,.277.672.891.891,0,0,1-.277.659A.923.923,0,0,1,40.041-11.285ZM40.745,0H39.3V-9h1.441Zm10.6,0H49.9V-1.529h-.035A3.327,3.327,0,0,1,46.776.211,3.362,3.362,0,0,1,44.064-1a4.958,4.958,0,0,1-1.015-3.292,5.394,5.394,0,0,1,1.125-3.577,3.71,3.71,0,0,1,3-1.345,2.885,2.885,0,0,1,2.7,1.459H49.9v-5.572h1.441ZM49.9-4.069V-5.4a2.575,2.575,0,0,0-.721-1.846A2.417,2.417,0,0,0,47.356-8a2.489,2.489,0,0,0-2.074.967,4.237,4.237,0,0,0-.756,2.672A3.81,3.81,0,0,0,45.251-1.9,2.37,2.37,0,0,0,47.2-1a2.462,2.462,0,0,0,1.956-.87A3.242,3.242,0,0,0,49.9-4.069ZM58.027.211A4.175,4.175,0,0,1,54.841-1.05,4.672,4.672,0,0,1,53.65-4.395,4.867,4.867,0,0,1,54.89-7.937a4.455,4.455,0,0,1,3.349-1.274A4.037,4.037,0,0,1,61.38-7.972,4.914,4.914,0,0,1,62.51-4.535a4.835,4.835,0,0,1-1.217,3.45A4.265,4.265,0,0,1,58.027.211ZM58.133-8a2.742,2.742,0,0,0-2.2.945,3.88,3.88,0,0,0-.809,2.606,3.67,3.67,0,0,0,.817,2.522A2.778,2.778,0,0,0,58.133-1a2.635,2.635,0,0,0,2.149-.905,3.928,3.928,0,0,0,.751-2.575,4,4,0,0,0-.751-2.6A2.623,2.623,0,0,0,58.133-8Zm11.375.457a1.763,1.763,0,0,0-1.09-.29,1.839,1.839,0,0,0-1.542.87,4.023,4.023,0,0,0-.62,2.373V0H64.814V-9h1.441v1.854h.035a3.143,3.143,0,0,1,.94-1.481,2.144,2.144,0,0,1,1.415-.532,2.353,2.353,0,0,1,.861.123Z" transform="translate(766.953 6086.621)" fill="#fff"/>
    <path id="Trazado_1238126" data-name="Trazado 1238126" d="M46.73,0C72.538,0,93.46,21.648,93.46,48.353S72.538,96.705,46.73,96.705,0,75.057,0,48.353,20.922,0,46.73,0Z" transform="translate(910.77 6031.621)" fill="#6c4dd8"/>
    <path id="Trazado_1240178" data-name="Trazado 1240178" d="M.914-.325V-1.872A4.266,4.266,0,0,0,3.507-1q1.9,0,1.9-1.266a1.1,1.1,0,0,0-.163-.611A1.62,1.62,0,0,0,4.8-3.322a3.383,3.383,0,0,0-.65-.347q-.374-.154-.8-.321A10.357,10.357,0,0,1,2.3-4.469a3.173,3.173,0,0,1-.756-.545,2.028,2.028,0,0,1-.457-.69,2.441,2.441,0,0,1-.154-.905,2.15,2.15,0,0,1,.29-1.121A2.572,2.572,0,0,1,2-8.547a3.607,3.607,0,0,1,1.1-.5,4.893,4.893,0,0,1,1.279-.167,5.164,5.164,0,0,1,2.092.4v1.459A4.077,4.077,0,0,0,4.184-8a2.671,2.671,0,0,0-.729.092,1.786,1.786,0,0,0-.558.259,1.2,1.2,0,0,0-.36.4,1.053,1.053,0,0,0-.127.514,1.233,1.233,0,0,0,.127.589,1.3,1.3,0,0,0,.374.422,2.855,2.855,0,0,0,.6.334q.352.149.8.325a11.131,11.131,0,0,1,1.072.47,3.678,3.678,0,0,1,.809.545,2.129,2.129,0,0,1,.514.7,2.254,2.254,0,0,1,.18.94,2.217,2.217,0,0,1-.294,1.16A2.523,2.523,0,0,1,5.8-.431,3.6,3.6,0,0,1,4.667.053,5.6,5.6,0,0,1,3.322.211,5.106,5.106,0,0,1,.914-.325ZM16.332-4.14H9.977a3.366,3.366,0,0,0,.809,2.32A2.788,2.788,0,0,0,12.913-1a4.422,4.422,0,0,0,2.795-1V-.65A5.224,5.224,0,0,1,12.57.211a3.8,3.8,0,0,1-3-1.226,5.018,5.018,0,0,1-1.09-3.45A4.921,4.921,0,0,1,9.674-7.888a3.819,3.819,0,0,1,2.958-1.323,3.384,3.384,0,0,1,2.733,1.143A4.764,4.764,0,0,1,16.332-4.9ZM14.855-5.361a2.933,2.933,0,0,0-.6-1.942A2.051,2.051,0,0,0,12.605-8a2.328,2.328,0,0,0-1.731.729,3.311,3.311,0,0,0-.879,1.907ZM26.2-.721q0,4.957-4.746,4.957A6.372,6.372,0,0,1,18.531,3.6V2.162a5.993,5.993,0,0,0,2.9.844q3.322,0,3.322-3.533v-.984h-.035A3.371,3.371,0,0,1,21.625.211a3.379,3.379,0,0,1-2.7-1.2A4.8,4.8,0,0,1,17.9-4.21,5.6,5.6,0,0,1,19-7.857,3.685,3.685,0,0,1,22.02-9.211a2.934,2.934,0,0,1,2.7,1.459h.035V-9H26.2ZM24.754-4.069V-5.4a2.575,2.575,0,0,0-.725-1.837A2.387,2.387,0,0,0,22.222-8a2.5,2.5,0,0,0-2.092.971,4.335,4.335,0,0,0-.756,2.72A3.721,3.721,0,0,0,20.1-1.9a2.343,2.343,0,0,0,1.92.9,2.509,2.509,0,0,0,1.973-.861A3.21,3.21,0,0,0,24.754-4.069ZM36.392,0H34.951V-1.424h-.035A2.96,2.96,0,0,1,32.138.211q-3.217,0-3.217-3.832V-9h1.433v5.15Q30.354-1,32.534-1A2.205,2.205,0,0,0,34.27-1.78a2.976,2.976,0,0,0,.681-2.035V-9h1.441Zm3.649-11.285a.913.913,0,0,1-.659-.264.89.89,0,0,1-.272-.668.9.9,0,0,1,.272-.672.905.905,0,0,1,.659-.268.931.931,0,0,1,.672.268.9.9,0,0,1,.277.672.891.891,0,0,1-.277.659A.923.923,0,0,1,40.041-11.285ZM40.745,0H39.3V-9h1.441Zm10.6,0H49.9V-1.529h-.035A3.327,3.327,0,0,1,46.776.211,3.362,3.362,0,0,1,44.064-1a4.958,4.958,0,0,1-1.015-3.292,5.394,5.394,0,0,1,1.125-3.577,3.71,3.71,0,0,1,3-1.345,2.885,2.885,0,0,1,2.7,1.459H49.9v-5.572h1.441ZM49.9-4.069V-5.4a2.575,2.575,0,0,0-.721-1.846A2.417,2.417,0,0,0,47.356-8a2.489,2.489,0,0,0-2.074.967,4.237,4.237,0,0,0-.756,2.672A3.81,3.81,0,0,0,45.251-1.9,2.37,2.37,0,0,0,47.2-1a2.462,2.462,0,0,0,1.956-.87A3.242,3.242,0,0,0,49.9-4.069ZM58.027.211A4.175,4.175,0,0,1,54.841-1.05,4.672,4.672,0,0,1,53.65-4.395,4.867,4.867,0,0,1,54.89-7.937a4.455,4.455,0,0,1,3.349-1.274A4.037,4.037,0,0,1,61.38-7.972,4.914,4.914,0,0,1,62.51-4.535a4.835,4.835,0,0,1-1.217,3.45A4.265,4.265,0,0,1,58.027.211ZM58.133-8a2.742,2.742,0,0,0-2.2.945,3.88,3.88,0,0,0-.809,2.606,3.67,3.67,0,0,0,.817,2.522A2.778,2.778,0,0,0,58.133-1a2.635,2.635,0,0,0,2.149-.905,3.928,3.928,0,0,0,.751-2.575,4,4,0,0,0-.751-2.6A2.623,2.623,0,0,0,58.133-8Zm11.375.457a1.763,1.763,0,0,0-1.09-.29,1.839,1.839,0,0,0-1.542.87,4.023,4.023,0,0,0-.62,2.373V0H64.814V-9h1.441v1.854h.035a3.143,3.143,0,0,1,.94-1.481,2.144,2.144,0,0,1,1.415-.532,2.353,2.353,0,0,1,.861.123Z" transform="translate(921.5 6086.621)" fill="#fff"/>
    <path id="Trazado_1231820" data-name="Trazado 1231820" d="M0,37.938,127.625-7.956" transform="matrix(0.391, 0.921, -0.921, 0.391, 715.868, 5911.611)" fill="none" stroke="#707070" stroke-linecap="round" stroke-width="2"/>
    <path id="Trazado_1240179" data-name="Trazado 1240179" d="M7.04,0l7.04,8.665H0Z" transform="translate(783.553 6026.478) rotate(132)" fill="#707070"/>
    <path id="Trazado_1231820-2" data-name="Trazado 1231820" d="M.907-2.837,127.625,45.894" transform="matrix(-0.391, 0.921, -0.921, -0.391, 915.668, 5924.631)" fill="none" stroke="#707070" stroke-linecap="round" stroke-width="2"/>
    <path id="Trazado_1240180" data-name="Trazado 1240180" d="M7.04,0l7.04,8.665H0Z" transform="translate(822.481 6035.138) rotate(-132)" fill="#707070"/>
    <path id="Trazado_1238122" data-name="Trazado 1238122" d="M3782,5885.652s46.377,4.269,74.458,31.958,37.868,78.8,37.868,78.8" transform="translate(-3081.23 27.326)" fill="none" stroke="#707070" stroke-linecap="round" stroke-width="2"/>
    <path id="Trazado_1240181" data-name="Trazado 1240181" d="M7.04,0l7.04,8.665H0Z" transform="translate(692.02 5917.551) rotate(-74)" fill="#707070"/>
    <path id="Trazado_1240182" data-name="Trazado 1240182" d="M7.04,0l7.04,8.665H0Z" transform="translate(905.174 5888) rotate(90)" fill="#707070"/>
    <path id="Trazado_1231821" data-name="Trazado 1231821" d="M1141.4,8125.759H939.435" transform="translate(-244.891 -2230.719)" fill="none" stroke="#707070" stroke-linecap="round" stroke-width="2" stroke-dasharray="5"/>
    <path id="Trazado_1240183" data-name="Trazado 1240183" d="M7.04,0l7.04,8.665H0Z" transform="translate(635.46 5948.271)" fill="#707070"/>
    <path id="Trazado_1231821-2" data-name="Trazado 1231821" d="M1113.3,8125.759H939.435" transform="translate(-7483.259 7070.231) rotate(-90)" fill="none" stroke="#707070" stroke-linecap="round" stroke-width="2" stroke-dasharray="5"/>
    <path id="Trazado_1240184" data-name="Trazado 1240184" d="M8.191,0H1.652V-12.6H3.129V-1.336H8.191Zm5.5.211A4.175,4.175,0,0,1,10.509-1.05,4.672,4.672,0,0,1,9.318-4.395a4.867,4.867,0,0,1,1.239-3.542,4.455,4.455,0,0,1,3.349-1.274,4.037,4.037,0,0,1,3.142,1.239,4.914,4.914,0,0,1,1.129,3.437,4.835,4.835,0,0,1-1.217,3.45A4.265,4.265,0,0,1,13.7.211ZM13.8-8a2.742,2.742,0,0,0-2.2.945,3.88,3.88,0,0,0-.809,2.606,3.67,3.67,0,0,0,.817,2.522A2.778,2.778,0,0,0,13.8-1a2.635,2.635,0,0,0,2.149-.905A3.928,3.928,0,0,0,16.7-4.482a4,4,0,0,0-.751-2.6A2.623,2.623,0,0,0,13.8-8ZM28.164-.721q0,4.957-4.746,4.957A6.372,6.372,0,0,1,20.5,3.6V2.162a5.993,5.993,0,0,0,2.9.844q3.322,0,3.322-3.533v-.984h-.035A3.371,3.371,0,0,1,23.593.211a3.379,3.379,0,0,1-2.7-1.2A4.8,4.8,0,0,1,19.867-4.21a5.6,5.6,0,0,1,1.1-3.647,3.685,3.685,0,0,1,3.019-1.354,2.934,2.934,0,0,1,2.7,1.459h.035V-9h1.441ZM26.722-4.069V-5.4A2.575,2.575,0,0,0,26-7.233,2.387,2.387,0,0,0,24.191-8a2.5,2.5,0,0,0-2.092.971,4.335,4.335,0,0,0-.756,2.72,3.721,3.721,0,0,0,.725,2.4,2.343,2.343,0,0,0,1.92.9,2.509,2.509,0,0,0,1.973-.861A3.21,3.21,0,0,0,26.722-4.069ZM38.361,0H36.919V-1.424h-.035A2.96,2.96,0,0,1,34.107.211q-3.217,0-3.217-3.832V-9h1.433v5.15Q32.323-1,34.5-1a2.205,2.205,0,0,0,1.736-.778,2.976,2.976,0,0,0,.681-2.035V-9h1.441ZM48.743,0H47.3V-5.133Q47.3-8,45.209-8a2.269,2.269,0,0,0-1.789.813,3.013,3.013,0,0,0-.708,2.052V0H41.272V-9h1.441v1.494h.035A3.248,3.248,0,0,1,45.7-9.211a2.753,2.753,0,0,1,2.259.954A4.248,4.248,0,0,1,48.743-5.5Z" transform="translate(623.54 6198)" fill="#212429"/>
    <path id="Trazado_1240185" data-name="Trazado 1240185" d="M9.141,4.14H7.7V-1.547H7.664A3.225,3.225,0,0,1,4.588.211,3.387,3.387,0,0,1,1.868-1,4.929,4.929,0,0,1,.844-4.289,5.39,5.39,0,0,1,1.969-7.871a3.744,3.744,0,0,1,3.023-1.34A2.838,2.838,0,0,1,7.664-7.752H7.7V-9H9.141ZM7.7-4.052v-1.31a2.619,2.619,0,0,0-.725-1.872A2.428,2.428,0,0,0,5.133-8a2.475,2.475,0,0,0-2.057.962A4.3,4.3,0,0,0,2.32-4.324,3.721,3.721,0,0,0,3.05-1.885,2.328,2.328,0,0,0,4.931-1a2.536,2.536,0,0,0,2.017-.866A3.212,3.212,0,0,0,7.7-4.052ZM19.338,0H17.9V-1.424h-.035A2.96,2.96,0,0,1,15.084.211q-3.217,0-3.217-3.832V-9H13.3v5.15Q13.3-1,15.479-1a2.205,2.205,0,0,0,1.736-.778A2.976,2.976,0,0,0,17.9-3.814V-9h1.441ZM26.01.211A4.175,4.175,0,0,1,22.824-1.05a4.672,4.672,0,0,1-1.191-3.344,4.867,4.867,0,0,1,1.239-3.542,4.455,4.455,0,0,1,3.349-1.274,4.037,4.037,0,0,1,3.142,1.239,4.914,4.914,0,0,1,1.129,3.437,4.835,4.835,0,0,1-1.217,3.45A4.265,4.265,0,0,1,26.01.211ZM26.116-8a2.742,2.742,0,0,0-2.2.945,3.88,3.88,0,0,0-.809,2.606,3.67,3.67,0,0,0,.817,2.522A2.778,2.778,0,0,0,26.116-1a2.635,2.635,0,0,0,2.149-.905,3.928,3.928,0,0,0,.751-2.575,4,4,0,0,0-.751-2.6A2.623,2.623,0,0,0,26.116-8Zm2.109-5.59-2.3,2.883H24.806l1.96-2.883Zm9.265,6.047a1.763,1.763,0,0,0-1.09-.29,1.839,1.839,0,0,0-1.542.87,4.023,4.023,0,0,0-.62,2.373V0H32.8V-9h1.441v1.854h.035a3.143,3.143,0,0,1,.94-1.481,2.144,2.144,0,0,1,1.415-.532,2.353,2.353,0,0,1,.861.123ZM46.334,0H44.893V-1.424h-.035A2.96,2.96,0,0,1,42.08.211q-3.217,0-3.217-3.832V-9H40.3v5.15Q40.3-1,42.476-1a2.205,2.205,0,0,0,1.736-.778,2.976,2.976,0,0,0,.681-2.035V-9h1.441Zm15.69,0H60.583V-5.168a3.9,3.9,0,0,0-.461-2.162A1.75,1.75,0,0,0,58.571-8,1.921,1.921,0,0,0,57-7.154a3.228,3.228,0,0,0-.646,2.021V0H54.914V-5.344Q54.914-8,52.866-8a1.9,1.9,0,0,0-1.564.8,3.288,3.288,0,0,0-.615,2.07V0H49.245V-9h1.441v1.424h.035a3.058,3.058,0,0,1,2.795-1.635,2.606,2.606,0,0,1,1.608.514,2.586,2.586,0,0,1,.94,1.349,3.212,3.212,0,0,1,2.988-1.863q2.971,0,2.971,3.665Z" transform="translate(770.953 6198)" fill="#212429"/>
    <path id="Trazado_1240186" data-name="Trazado 1240186" d="M9.141,4.14H7.7V-1.547H7.664A3.225,3.225,0,0,1,4.588.211,3.387,3.387,0,0,1,1.868-1,4.929,4.929,0,0,1,.844-4.289,5.39,5.39,0,0,1,1.969-7.871a3.744,3.744,0,0,1,3.023-1.34A2.838,2.838,0,0,1,7.664-7.752H7.7V-9H9.141ZM7.7-4.052v-1.31a2.619,2.619,0,0,0-.725-1.872A2.428,2.428,0,0,0,5.133-8a2.475,2.475,0,0,0-2.057.962A4.3,4.3,0,0,0,2.32-4.324,3.721,3.721,0,0,0,3.05-1.885,2.328,2.328,0,0,0,4.931-1a2.536,2.536,0,0,0,2.017-.866A3.212,3.212,0,0,0,7.7-4.052ZM19.338,0H17.9V-1.424h-.035A2.96,2.96,0,0,1,15.084.211q-3.217,0-3.217-3.832V-9H13.3v5.15Q13.3-1,15.479-1a2.205,2.205,0,0,0,1.736-.778A2.976,2.976,0,0,0,17.9-3.814V-9h1.441ZM26.01.211A4.175,4.175,0,0,1,22.824-1.05a4.672,4.672,0,0,1-1.191-3.344,4.867,4.867,0,0,1,1.239-3.542,4.455,4.455,0,0,1,3.349-1.274,4.037,4.037,0,0,1,3.142,1.239,4.914,4.914,0,0,1,1.129,3.437,4.835,4.835,0,0,1-1.217,3.45A4.265,4.265,0,0,1,26.01.211ZM26.116-8a2.742,2.742,0,0,0-2.2.945,3.88,3.88,0,0,0-.809,2.606,3.67,3.67,0,0,0,.817,2.522A2.778,2.778,0,0,0,26.116-1a2.635,2.635,0,0,0,2.149-.905,3.928,3.928,0,0,0,.751-2.575,4,4,0,0,0-.751-2.6A2.623,2.623,0,0,0,26.116-8Zm2.109-5.59-2.3,2.883H24.806l1.96-2.883Zm9.265,6.047a1.763,1.763,0,0,0-1.09-.29,1.839,1.839,0,0,0-1.542.87,4.023,4.023,0,0,0-.62,2.373V0H32.8V-9h1.441v1.854h.035a3.143,3.143,0,0,1,.94-1.481,2.144,2.144,0,0,1,1.415-.532,2.353,2.353,0,0,1,.861.123ZM46.334,0H44.893V-1.424h-.035A2.96,2.96,0,0,1,42.08.211q-3.217,0-3.217-3.832V-9H40.3v5.15Q40.3-1,42.476-1a2.205,2.205,0,0,0,1.736-.778,2.976,2.976,0,0,0,.681-2.035V-9h1.441Zm15.69,0H60.583V-5.168a3.9,3.9,0,0,0-.461-2.162A1.75,1.75,0,0,0,58.571-8,1.921,1.921,0,0,0,57-7.154a3.228,3.228,0,0,0-.646,2.021V0H54.914V-5.344Q54.914-8,52.866-8a1.9,1.9,0,0,0-1.564.8,3.288,3.288,0,0,0-.615,2.07V0H49.245V-9h1.441v1.424h.035a3.058,3.058,0,0,1,2.795-1.635,2.606,2.606,0,0,1,1.608.514,2.586,2.586,0,0,1,.94,1.349,3.212,3.212,0,0,1,2.988-1.863q2.971,0,2.971,3.665Z" transform="translate(925.5 6198)" fill="#212429"/>
    <g id="Trazado_1240187" data-name="Trazado 1240187" transform="translate(608.77 6135.326)" fill="none">
      <path d="M5,0H77a5,5,0,0,1,5,5V30a5,5,0,0,1-5,5H5a5,5,0,0,1-5-5V5A5,5,0,0,1,5,0Z" stroke="none"/>
      <path d="M 5 2 C 3.345802307128906 2 2 3.345800399780273 2 5 L 2 30 C 2 31.65419960021973 3.345802307128906 33 5 33 L 77 33 C 78.65419769287109 33 80 31.65419960021973 80 30 L 80 5 C 80 3.345800399780273 78.65419769287109 2 77 2 L 5 2 M 5 0 L 77 0 C 79.76142883300781 0 82 2.238574981689453 82 5 L 82 30 C 82 32.76142501831055 79.76142883300781 35 77 35 L 5 35 C 2.238578796386719 35 0 32.76142501831055 0 30 L 0 5 C 0 2.238574981689453 2.238578796386719 0 5 0 Z" stroke="none" fill="#707070"/>
    </g>
    <path id="Trazado_1240188" data-name="Trazado 1240188" d="M0,0H10V21H0Z" transform="translate(658.77 6143.326)" fill="#f5b104"/>
    <path id="Trazado_1240189" data-name="Trazado 1240189" d="M0,0H10V21H0Z" transform="translate(645.77 6143.326)" fill="#f5b104"/>
    <path id="Trazado_1240190" data-name="Trazado 1240190" d="M0,0H10V21H0Z" transform="translate(632.77 6143.326)" fill="#f5b104"/>
    <path id="Trazado_1240191" data-name="Trazado 1240191" d="M0,0H10V21H0Z" transform="translate(619.77 6143.326)" fill="#f5b104"/>
    <g id="Trazado_1240192" data-name="Trazado 1240192" transform="translate(760.77 6135.326)" fill="none">
      <path d="M5,0H77a5,5,0,0,1,5,5V30a5,5,0,0,1-5,5H5a5,5,0,0,1-5-5V5A5,5,0,0,1,5,0Z" stroke="none"/>
      <path d="M 5 2 C 3.345802307128906 2 2 3.345800399780273 2 5 L 2 30 C 2 31.65419960021973 3.345802307128906 33 5 33 L 77 33 C 78.65419769287109 33 80 31.65419960021973 80 30 L 80 5 C 80 3.345800399780273 78.65419769287109 2 77 2 L 5 2 M 5 0 L 77 0 C 79.76142883300781 0 82 2.238574981689453 82 5 L 82 30 C 82 32.76142501831055 79.76142883300781 35 77 35 L 5 35 C 2.238578796386719 35 0 32.76142501831055 0 30 L 0 5 C 0 2.238574981689453 2.238578796386719 0 5 0 Z" stroke="none" fill="#707070"/>
    </g>
    <path id="Trazado_1240193" data-name="Trazado 1240193" d="M0,0H10V21H0Z" transform="translate(810.77 6143.326)" fill="#f5b104"/>
    <path id="Trazado_1240194" data-name="Trazado 1240194" d="M0,0H10V21H0Z" transform="translate(797.77 6143.326)" fill="#f5b104"/>
    <path id="Trazado_1240195" data-name="Trazado 1240195" d="M0,0H10V21H0Z" transform="translate(784.77 6143.326)" fill="#f5b104"/>
    <path id="Trazado_1240196" data-name="Trazado 1240196" d="M0,0H10V21H0Z" transform="translate(771.77 6143.326)" fill="#f5b104"/>
    <g id="Trazado_1240197" data-name="Trazado 1240197" transform="translate(910.77 6135.326)" fill="none">
      <path d="M5,0H77a5,5,0,0,1,5,5V30a5,5,0,0,1-5,5H5a5,5,0,0,1-5-5V5A5,5,0,0,1,5,0Z" stroke="none"/>
      <path d="M 5 2 C 3.345802307128906 2 2 3.345800399780273 2 5 L 2 30 C 2 31.65419960021973 3.345802307128906 33 5 33 L 77 33 C 78.65419769287109 33 80 31.65419960021973 80 30 L 80 5 C 80 3.345800399780273 78.65419769287109 2 77 2 L 5 2 M 5 0 L 77 0 C 79.76142883300781 0 82 2.238574981689453 82 5 L 82 30 C 82 32.76142501831055 79.76142883300781 35 77 35 L 5 35 C 2.238578796386719 35 0 32.76142501831055 0 30 L 0 5 C 0 2.238574981689453 2.238578796386719 0 5 0 Z" stroke="none" fill="#707070"/>
    </g>
    <path id="Trazado_1240198" data-name="Trazado 1240198" d="M0,0H10V21H0Z" transform="translate(960.77 6143.326)" fill="#f5b104"/>
    <path id="Trazado_1240199" data-name="Trazado 1240199" d="M0,0H10V21H0Z" transform="translate(947.77 6143.326)" fill="#f5b104"/>
    <path id="Trazado_1240200" data-name="Trazado 1240200" d="M0,0H10V21H0Z" transform="translate(934.77 6143.326)" fill="#f5b104"/>
    <path id="Trazado_1240201" data-name="Trazado 1240201" d="M0,0H10V21H0Z" transform="translate(921.77 6143.326)" fill="#f5b104"/>
  </g>
</svg>
