<svg xmlns="http://www.w3.org/2000/svg" width="450.277" height="278.851" viewBox="0 0 450.277 278.851">
  <g id="Grupo_1238887" data-name="Grupo 1238887" transform="translate(-576.603 -6065.676)">
    <path id="Trazado_1240202" data-name="Trazado 1240202" d="M4.28-4.342V0H1.441V-12.6H5.889q4.764,0,4.764,4.017A3.854,3.854,0,0,1,9.286-5.515,5.414,5.414,0,0,1,5.634-4.342Zm0-6.082V-6.5H5.4q2.268,0,2.268-1.986,0-1.942-2.268-1.942Zm14.091-2.461V0H15.6V-9.756a3.315,3.315,0,0,1-.541.382,5.58,5.58,0,0,1-.664.325,5.925,5.925,0,0,1-.729.246,5.328,5.328,0,0,1-.747.145V-11a11.549,11.549,0,0,0,2.039-.809,11.6,11.6,0,0,0,1.731-1.081Z" transform="translate(581.73 6135)" fill="#212429"/>
    <path id="Trazado_1240203" data-name="Trazado 1240203" d="M11.716-5.458Q11.716.22,6.425.22,1.292.22,1.292-5.326V-12.6H4.14v7.313q0,3.059,2.391,3.059,2.347,0,2.347-2.953V-12.6h2.839ZM22.88,0H20.111V-5q0-2.092-1.494-2.092a1.483,1.483,0,0,0-1.187.554,2.109,2.109,0,0,0-.466,1.406V0H14.187V-9h2.777v1.424H17A3.183,3.183,0,0,1,19.891-9.22q2.988,0,2.988,3.709ZM31.9-.325A5.492,5.492,0,0,1,29.183.22a4.593,4.593,0,0,1-3.357-1.257A4.341,4.341,0,0,1,24.543-4.28,4.782,4.782,0,0,1,25.918-7.9,5.083,5.083,0,0,1,29.6-9.22a4.72,4.72,0,0,1,2.3.422v2.355a3.166,3.166,0,0,0-1.942-.65,2.559,2.559,0,0,0-1.894.7,2.607,2.607,0,0,0-.7,1.929,2.565,2.565,0,0,0,.668,1.876,2.455,2.455,0,0,0,1.837.681,3.666,3.666,0,0,0,2.03-.65Zm6.11.545a4.838,4.838,0,0,1-3.538-1.261,4.573,4.573,0,0,1-1.288-3.423A4.573,4.573,0,0,1,34.52-7.958,5.048,5.048,0,0,1,38.132-9.22a4.78,4.78,0,0,1,3.516,1.261,4.483,4.483,0,0,1,1.274,3.335,4.759,4.759,0,0,1-1.314,3.542A4.892,4.892,0,0,1,38.009.22Zm.07-7.312a1.852,1.852,0,0,0-1.529.677A2.984,2.984,0,0,0,36.005-4.5q0,2.593,2.092,2.593,2,0,2-2.663Q40.092-7.093,38.08-7.093ZM49.015.22a4.838,4.838,0,0,1-3.538-1.261A4.573,4.573,0,0,1,44.19-4.465a4.573,4.573,0,0,1,1.336-3.494A5.048,5.048,0,0,1,49.138-9.22a4.78,4.78,0,0,1,3.516,1.261,4.483,4.483,0,0,1,1.274,3.335,4.759,4.759,0,0,1-1.314,3.542A4.892,4.892,0,0,1,49.015.22Zm.07-7.312a1.852,1.852,0,0,0-1.529.677A2.984,2.984,0,0,0,47.011-4.5q0,2.593,2.092,2.593,2,0,2-2.663Q51.1-7.093,49.085-7.093ZM61.6-6.5a2.409,2.409,0,0,0-1.169-.272,1.684,1.684,0,0,0-1.415.664,2.9,2.9,0,0,0-.51,1.806V0H55.732V-9h2.777v1.67h.035a2.4,2.4,0,0,1,2.373-1.828,1.788,1.788,0,0,1,.686.105ZM71.633,0H68.856V-1.239H68.82A3.114,3.114,0,0,1,66.034.22,3.412,3.412,0,0,1,63.318-.971,4.93,4.93,0,0,1,62.29-4.3a5.366,5.366,0,0,1,1.134-3.577A3.7,3.7,0,0,1,66.395-9.22,2.527,2.527,0,0,1,68.82-7.972h.035v-5.353h2.777ZM68.908-4.377v-.677a2.13,2.13,0,0,0-.51-1.459,1.683,1.683,0,0,0-1.327-.58,1.673,1.673,0,0,0-1.441.725,3.367,3.367,0,0,0-.519,1.991,2.914,2.914,0,0,0,.5,1.828A1.663,1.663,0,0,0,67-1.907a1.67,1.67,0,0,0,1.375-.677A2.821,2.821,0,0,0,68.908-4.377Zm6.471-6.047a1.622,1.622,0,0,1-1.151-.417,1.345,1.345,0,0,1-.448-1.024,1.3,1.3,0,0,1,.448-1.02,1.676,1.676,0,0,1,1.151-.4,1.672,1.672,0,0,1,1.156.4,1.3,1.3,0,0,1,.444,1.02,1.34,1.34,0,0,1-.444,1.037A1.65,1.65,0,0,1,75.379-10.424ZM76.75,0H73.973V-9H76.75ZM87.782,0H85.013V-5q0-2.092-1.494-2.092a1.483,1.483,0,0,0-1.187.554,2.109,2.109,0,0,0-.466,1.406V0H79.09V-9h2.777v1.424H81.9A3.183,3.183,0,0,1,84.794-9.22q2.988,0,2.988,3.709Zm9.687,0H94.841V-1.292h-.035A2.933,2.933,0,0,1,92.126.22a2.8,2.8,0,0,1-2.061-.743A2.661,2.661,0,0,1,89.313-2.5q0-2.619,3.1-3.023l2.443-.325q0-1.477-1.6-1.477a5.46,5.46,0,0,0-3.059.958V-8.464a6.881,6.881,0,0,1,1.586-.527A8.339,8.339,0,0,1,93.62-9.22q3.85,0,3.85,3.841Zm-2.61-3.656v-.606l-1.635.211q-1.354.176-1.354,1.222a1.01,1.01,0,0,0,.33.778,1.266,1.266,0,0,0,.892.3,1.644,1.644,0,0,0,1.274-.541A1.952,1.952,0,0,0,94.859-3.656Zm10.25,3.551a4.105,4.105,0,0,1-1.854.325q-2.936,0-2.936-3.05V-6.952H98.86V-9h1.459v-1.942l2.769-.791V-9h2.021v2.048h-2.021v3.639q0,1.406,1.116,1.406a1.882,1.882,0,0,0,.905-.255Zm9.582-3.6H108.82q.141,1.96,2.47,1.96a4.822,4.822,0,0,0,2.61-.7v2a6.858,6.858,0,0,1-3.243.668,4.565,4.565,0,0,1-3.384-1.208,4.566,4.566,0,0,1-1.2-3.371,4.816,4.816,0,0,1,1.3-3.551,4.334,4.334,0,0,1,3.2-1.31,3.933,3.933,0,0,1,3.045,1.169,4.5,4.5,0,0,1,1.077,3.173Zm-2.575-1.705q0-1.934-1.564-1.934a1.494,1.494,0,0,0-1.156.554,2.513,2.513,0,0,0-.593,1.38ZM125.151,0h-2.777V-1.239h-.035A3.114,3.114,0,0,1,119.553.22a3.412,3.412,0,0,1-2.716-1.191A4.93,4.93,0,0,1,115.809-4.3a5.366,5.366,0,0,1,1.134-3.577,3.7,3.7,0,0,1,2.971-1.345,2.527,2.527,0,0,1,2.426,1.248h.035v-5.353h2.777Zm-2.725-4.377v-.677a2.13,2.13,0,0,0-.51-1.459,1.683,1.683,0,0,0-1.327-.58,1.673,1.673,0,0,0-1.441.725,3.367,3.367,0,0,0-.519,1.991,2.914,2.914,0,0,0,.5,1.828,1.663,1.663,0,0,0,1.389.642,1.67,1.67,0,0,0,1.375-.677A2.821,2.821,0,0,0,122.427-4.377ZM143.3,0h-3.261l-1.96-3.243q-.22-.369-.422-.659a3.662,3.662,0,0,0-.409-.5,1.625,1.625,0,0,0-.431-.316,1.093,1.093,0,0,0-.488-.11h-.765V0h-2.839V-12.6h4.5q4.588,0,4.588,3.428a3.55,3.55,0,0,1-.2,1.217,3.382,3.382,0,0,1-.571,1.006,3.621,3.621,0,0,1-.892.773,4.6,4.6,0,0,1-1.165.51v.035a1.806,1.806,0,0,1,.545.286,3.9,3.9,0,0,1,.51.461,6.438,6.438,0,0,1,.47.567q.224.3.409.593ZM135.57-10.477V-6.97h1.23a2.04,2.04,0,0,0,1.468-.527,1.76,1.76,0,0,0,.563-1.327q0-1.652-1.978-1.652Zm16.279,6.768h-5.871q.141,1.96,2.47,1.96a4.822,4.822,0,0,0,2.61-.7v2a6.858,6.858,0,0,1-3.243.668,4.565,4.565,0,0,1-3.384-1.208,4.566,4.566,0,0,1-1.2-3.371,4.816,4.816,0,0,1,1.3-3.551,4.334,4.334,0,0,1,3.2-1.31,3.933,3.933,0,0,1,3.045,1.169,4.5,4.5,0,0,1,1.077,3.173Zm-2.575-1.705q0-1.934-1.564-1.934a1.494,1.494,0,0,0-1.156.554,2.513,2.513,0,0,0-.593,1.38Zm11.05,5.089a5.492,5.492,0,0,1-2.716.545,4.593,4.593,0,0,1-3.357-1.257,4.341,4.341,0,0,1-1.283-3.243A4.782,4.782,0,0,1,154.343-7.9a5.083,5.083,0,0,1,3.678-1.323,4.72,4.72,0,0,1,2.3.422v2.355a3.166,3.166,0,0,0-1.942-.65,2.559,2.559,0,0,0-1.894.7,2.607,2.607,0,0,0-.7,1.929,2.565,2.565,0,0,0,.668,1.876,2.455,2.455,0,0,0,1.837.681,3.666,3.666,0,0,0,2.03-.65Zm6.11.545A4.838,4.838,0,0,1,162.9-1.042a4.573,4.573,0,0,1-1.288-3.423,4.573,4.573,0,0,1,1.336-3.494,5.048,5.048,0,0,1,3.612-1.261,4.78,4.78,0,0,1,3.516,1.261,4.483,4.483,0,0,1,1.274,3.335,4.759,4.759,0,0,1-1.314,3.542A4.892,4.892,0,0,1,166.434.22Zm.07-7.312a1.852,1.852,0,0,0-1.529.677A2.984,2.984,0,0,0,164.43-4.5q0,2.593,2.092,2.593,2,0,2-2.663Q168.517-7.093,166.5-7.093ZM181.72-9l-3.349,9h-3.164l-3.19-9h2.971l1.564,5.546a8.1,8.1,0,0,1,.308,1.6h.035A9.078,9.078,0,0,1,177.22-3.4l1.6-5.6Zm9.1,5.291h-5.871q.141,1.96,2.47,1.96a4.822,4.822,0,0,0,2.61-.7v2a6.858,6.858,0,0,1-3.243.668A4.565,4.565,0,0,1,183.4-.989a4.566,4.566,0,0,1-1.2-3.371,4.816,4.816,0,0,1,1.3-3.551,4.334,4.334,0,0,1,3.2-1.31,3.933,3.933,0,0,1,3.045,1.169,4.5,4.5,0,0,1,1.077,3.173Zm-2.575-1.705q0-1.934-1.564-1.934a1.494,1.494,0,0,0-1.156.554,2.513,2.513,0,0,0-.593,1.38Zm10.1-1.081a2.409,2.409,0,0,0-1.169-.272,1.684,1.684,0,0,0-1.415.664,2.9,2.9,0,0,0-.51,1.806V0h-2.777V-9h2.777v1.67h.035a2.4,2.4,0,0,1,2.373-1.828,1.788,1.788,0,0,1,.686.105ZM208.927-9,205.271.721q-1.318,3.507-3.973,3.507A5.09,5.09,0,0,1,199.637,4V1.784a2.336,2.336,0,0,0,1.2.325A1.5,1.5,0,0,0,202.336,1.1l.475-1.116L199.154-9h3.076l1.679,5.476a7.115,7.115,0,0,1,.246,1.2h.035a8.4,8.4,0,0,1,.29-1.187L206.176-9Z" transform="translate(817.953 6079)" fill="#212429"/>
    <g id="Grupo_1237551" data-name="Grupo 1237551" transform="translate(115.27 -473)">
      <path id="Polígono_1" data-name="Polígono 1" d="M7.04,0l7.04,8.665H0Z" transform="translate(489.46 6572.271)" fill="#707070"/>
      <path id="Trazado_1231821" data-name="Trazado 1231821" d="M155.115,0H0" transform="translate(496.5 6736.051) rotate(-90)" fill="none" stroke="#707070" stroke-linecap="round" stroke-width="2"/>
      <path id="Polígono_2" data-name="Polígono 2" d="M7.04,0l7.04,8.665H0Z" transform="translate(503.54 6738.189) rotate(180)" fill="#707070"/>
    </g>
    <g id="Grupo_1237552" data-name="Grupo 1237552" transform="translate(175.27 -473)">
      <path id="Polígono_1-2" data-name="Polígono 1" d="M7.04,0l7.04,8.665H0Z" transform="translate(489.46 6572.271)" fill="#707070"/>
      <path id="Trazado_1231821-2" data-name="Trazado 1231821" d="M157.144,0H0" transform="translate(496.5 6738.08) rotate(-90)" fill="none" stroke="#707070" stroke-linecap="round" stroke-width="2"/>
    </g>
    <g id="Grupo_1237553" data-name="Grupo 1237553" transform="translate(234.27 -473)">
      <path id="Polígono_1-3" data-name="Polígono 1" d="M7.04,0l7.04,8.665H0Z" transform="translate(489.46 6572.271)" fill="#707070"/>
      <path id="Trazado_1231821-3" data-name="Trazado 1231821" d="M155.115,0H0" transform="translate(496.5 6736.051) rotate(-90)" fill="none" stroke="#707070" stroke-linecap="round" stroke-width="2"/>
      <path id="Polígono_2-2" data-name="Polígono 2" d="M7.04,0l7.04,8.665H0Z" transform="translate(503.54 6738.189) rotate(180)" fill="#707070"/>
    </g>
    <g id="Grupo_1237554" data-name="Grupo 1237554" transform="translate(7311.705 5633.73) rotate(90)">
      <path id="Trazado_1231821-4" data-name="Trazado 1231821" d="M119,0H0" transform="translate(496.5 6699.936) rotate(-90)" fill="none" stroke="#707070" stroke-linecap="round" stroke-width="2"/>
    </g>
    <g id="Grupo_1237555" data-name="Grupo 1237555" transform="translate(7311.705 5633.73) rotate(90)">
      <path id="Trazado_1231821-5" data-name="Trazado 1231821" d="M119,0H0" transform="translate(542.085 6699.936) rotate(-90)" fill="none" stroke="#707070" stroke-linecap="round" stroke-width="2"/>
    </g>
    <g id="Grupo_1237556" data-name="Grupo 1237556" transform="translate(7252.205 5633.73) rotate(90)">
      <path id="Trazado_1231821-6" data-name="Trazado 1231821" d="M59.5,0H0" transform="translate(589.134 6640.436) rotate(-90)" fill="none" stroke="#707070" stroke-linecap="round" stroke-width="2"/>
    </g>
    <path id="Trazado_1240204" data-name="Trazado 1240204" d="M10.477-.448a8.311,8.311,0,0,1-3.6.668A6.074,6.074,0,0,1,2.312-1.485,6.233,6.233,0,0,1,.65-6.029a6.659,6.659,0,0,1,1.868-4.9,6.533,6.533,0,0,1,4.847-1.881,9.065,9.065,0,0,1,3.111.466v2.733a5.513,5.513,0,0,0-2.883-.756A3.824,3.824,0,0,0,4.729-9.255a4.142,4.142,0,0,0-1.09,3.023A4.062,4.062,0,0,0,4.667-3.318,3.633,3.633,0,0,0,7.436-2.232a5.905,5.905,0,0,0,3.041-.809ZM16.692.22a4.838,4.838,0,0,1-3.538-1.261,4.573,4.573,0,0,1-1.288-3.423A4.573,4.573,0,0,1,13.2-7.958,5.048,5.048,0,0,1,16.815-9.22a4.78,4.78,0,0,1,3.516,1.261,4.483,4.483,0,0,1,1.274,3.335,4.759,4.759,0,0,1-1.314,3.542A4.892,4.892,0,0,1,16.692.22Zm.07-7.312a1.852,1.852,0,0,0-1.529.677A2.984,2.984,0,0,0,14.688-4.5q0,2.593,2.092,2.593,2,0,2-2.663Q18.775-7.093,16.763-7.093ZM27.7.22A4.838,4.838,0,0,1,24.16-1.042a4.573,4.573,0,0,1-1.288-3.423,4.573,4.573,0,0,1,1.336-3.494A5.048,5.048,0,0,1,27.821-9.22a4.78,4.78,0,0,1,3.516,1.261,4.483,4.483,0,0,1,1.274,3.335A4.759,4.759,0,0,1,31.3-1.081,4.892,4.892,0,0,1,27.7.22Zm.07-7.312a1.852,1.852,0,0,0-1.529.677A2.984,2.984,0,0,0,25.694-4.5q0,2.593,2.092,2.593,2,0,2-2.663Q29.781-7.093,27.768-7.093Zm12.517.6a2.409,2.409,0,0,0-1.169-.272A1.684,1.684,0,0,0,37.7-6.1a2.9,2.9,0,0,0-.51,1.806V0H34.415V-9h2.777v1.67h.035A2.4,2.4,0,0,1,39.6-9.158a1.788,1.788,0,0,1,.686.105ZM50.316,0H47.538V-1.239H47.5A3.114,3.114,0,0,1,44.717.22,3.412,3.412,0,0,1,42-.971,4.93,4.93,0,0,1,40.973-4.3a5.366,5.366,0,0,1,1.134-3.577A3.7,3.7,0,0,1,45.078-9.22,2.527,2.527,0,0,1,47.5-7.972h.035v-5.353h2.777ZM47.591-4.377v-.677a2.13,2.13,0,0,0-.51-1.459,1.683,1.683,0,0,0-1.327-.58,1.673,1.673,0,0,0-1.441.725,3.367,3.367,0,0,0-.519,1.991,2.914,2.914,0,0,0,.5,1.828,1.663,1.663,0,0,0,1.389.642,1.67,1.67,0,0,0,1.375-.677A2.821,2.821,0,0,0,47.591-4.377Zm6.471-6.047a1.622,1.622,0,0,1-1.151-.417,1.345,1.345,0,0,1-.448-1.024,1.3,1.3,0,0,1,.448-1.02,1.676,1.676,0,0,1,1.151-.4,1.672,1.672,0,0,1,1.156.4,1.3,1.3,0,0,1,.444,1.02,1.34,1.34,0,0,1-.444,1.037A1.65,1.65,0,0,1,54.062-10.424ZM55.433,0H52.655V-9h2.777ZM66.465,0H63.7V-5q0-2.092-1.494-2.092a1.483,1.483,0,0,0-1.187.554,2.109,2.109,0,0,0-.466,1.406V0H57.773V-9H60.55v1.424h.035A3.183,3.183,0,0,1,63.477-9.22q2.988,0,2.988,3.709Zm9.687,0H73.524V-1.292h-.035A2.933,2.933,0,0,1,70.808.22a2.8,2.8,0,0,1-2.061-.743A2.661,2.661,0,0,1,68-2.5q0-2.619,3.1-3.023l2.443-.325q0-1.477-1.6-1.477a5.46,5.46,0,0,0-3.059.958V-8.464a6.881,6.881,0,0,1,1.586-.527A8.339,8.339,0,0,1,72.3-9.22q3.85,0,3.85,3.841Zm-2.61-3.656v-.606l-1.635.211q-1.354.176-1.354,1.222a1.01,1.01,0,0,0,.33.778,1.266,1.266,0,0,0,.892.3A1.644,1.644,0,0,0,73.05-2.29,1.952,1.952,0,0,0,73.542-3.656ZM83.792-.105A4.105,4.105,0,0,1,81.937.22Q79,.22,79-2.83V-6.952H77.543V-9H79v-1.942l2.769-.791V-9h2.021v2.048H81.77v3.639q0,1.406,1.116,1.406a1.882,1.882,0,0,0,.905-.255Zm9.582-3.6H87.5q.141,1.96,2.47,1.96a4.822,4.822,0,0,0,2.61-.7v2A6.858,6.858,0,0,1,89.339.22,4.565,4.565,0,0,1,85.956-.989a4.566,4.566,0,0,1-1.2-3.371,4.816,4.816,0,0,1,1.3-3.551,4.334,4.334,0,0,1,3.2-1.31A3.933,3.933,0,0,1,92.3-8.051a4.5,4.5,0,0,1,1.077,3.173ZM90.8-5.414q0-1.934-1.564-1.934a1.494,1.494,0,0,0-1.156.554,2.513,2.513,0,0,0-.593,1.38ZM103.834,0h-2.777V-1.239h-.035A3.114,3.114,0,0,1,98.236.22,3.412,3.412,0,0,1,95.52-.971,4.93,4.93,0,0,1,94.492-4.3a5.366,5.366,0,0,1,1.134-3.577A3.7,3.7,0,0,1,98.6-9.22a2.527,2.527,0,0,1,2.426,1.248h.035v-5.353h2.777ZM101.11-4.377v-.677a2.13,2.13,0,0,0-.51-1.459,1.683,1.683,0,0,0-1.327-.58,1.673,1.673,0,0,0-1.441.725,3.367,3.367,0,0,0-.519,1.991,2.914,2.914,0,0,0,.5,1.828,1.663,1.663,0,0,0,1.389.642,1.67,1.67,0,0,0,1.375-.677A2.821,2.821,0,0,0,101.11-4.377ZM121.987,0h-3.261l-1.96-3.243q-.22-.369-.422-.659a3.662,3.662,0,0,0-.409-.5,1.625,1.625,0,0,0-.431-.316,1.093,1.093,0,0,0-.488-.11h-.765V0h-2.839V-12.6h4.5q4.588,0,4.588,3.428a3.55,3.55,0,0,1-.2,1.217,3.382,3.382,0,0,1-.571,1.006,3.621,3.621,0,0,1-.892.773,4.6,4.6,0,0,1-1.165.51v.035a1.806,1.806,0,0,1,.545.286,3.9,3.9,0,0,1,.51.461,6.438,6.438,0,0,1,.47.567q.224.3.409.593Zm-7.734-10.477V-6.97h1.23a2.04,2.04,0,0,0,1.468-.527,1.76,1.76,0,0,0,.563-1.327q0-1.652-1.978-1.652Zm16.279,6.768h-5.871q.141,1.96,2.47,1.96a4.822,4.822,0,0,0,2.61-.7v2A6.858,6.858,0,0,1,126.5.22a4.565,4.565,0,0,1-3.384-1.208,4.566,4.566,0,0,1-1.2-3.371,4.816,4.816,0,0,1,1.3-3.551,4.334,4.334,0,0,1,3.2-1.31,3.933,3.933,0,0,1,3.045,1.169,4.5,4.5,0,0,1,1.077,3.173Zm-2.575-1.705q0-1.934-1.564-1.934a1.494,1.494,0,0,0-1.156.554,2.513,2.513,0,0,0-.593,1.38Zm11.05,5.089a5.492,5.492,0,0,1-2.716.545,4.593,4.593,0,0,1-3.357-1.257A4.341,4.341,0,0,1,131.65-4.28,4.782,4.782,0,0,1,133.026-7.9,5.083,5.083,0,0,1,136.7-9.22a4.72,4.72,0,0,1,2.3.422v2.355a3.166,3.166,0,0,0-1.942-.65,2.559,2.559,0,0,0-1.894.7,2.607,2.607,0,0,0-.7,1.929,2.565,2.565,0,0,0,.668,1.876,2.455,2.455,0,0,0,1.837.681,3.666,3.666,0,0,0,2.03-.65Zm6.11.545a4.838,4.838,0,0,1-3.538-1.261,4.573,4.573,0,0,1-1.288-3.423,4.573,4.573,0,0,1,1.336-3.494A5.048,5.048,0,0,1,145.24-9.22a4.78,4.78,0,0,1,3.516,1.261,4.483,4.483,0,0,1,1.274,3.335,4.759,4.759,0,0,1-1.314,3.542A4.892,4.892,0,0,1,145.117.22Zm.07-7.312a1.852,1.852,0,0,0-1.529.677,2.984,2.984,0,0,0-.545,1.916q0,2.593,2.092,2.593,2,0,2-2.663Q147.2-7.093,145.187-7.093ZM160.4-9l-3.349,9H153.89L150.7-9h2.971l1.564,5.546a8.1,8.1,0,0,1,.308,1.6h.035A9.078,9.078,0,0,1,155.9-3.4L157.5-9Zm9.1,5.291H163.63q.141,1.96,2.47,1.96a4.822,4.822,0,0,0,2.61-.7v2a6.858,6.858,0,0,1-3.243.668,4.565,4.565,0,0,1-3.384-1.208,4.566,4.566,0,0,1-1.2-3.371,4.816,4.816,0,0,1,1.3-3.551,4.334,4.334,0,0,1,3.2-1.31,3.933,3.933,0,0,1,3.045,1.169A4.5,4.5,0,0,1,169.5-4.878Zm-2.575-1.705q0-1.934-1.564-1.934a1.494,1.494,0,0,0-1.156.554,2.513,2.513,0,0,0-.593,1.38Zm10.1-1.081a2.409,2.409,0,0,0-1.169-.272,1.684,1.684,0,0,0-1.415.664,2.9,2.9,0,0,0-.51,1.806V0h-2.777V-9h2.777v1.67h.035a2.4,2.4,0,0,1,2.373-1.828,1.788,1.788,0,0,1,.686.105ZM187.61-9,183.954.721q-1.318,3.507-3.973,3.507A5.09,5.09,0,0,1,178.32,4V1.784a2.336,2.336,0,0,0,1.2.325A1.5,1.5,0,0,0,181.019,1.1l.475-1.116L177.837-9h3.076l1.679,5.476a7.115,7.115,0,0,1,.246,1.2h.035a8.4,8.4,0,0,1,.29-1.187L184.859-9Z" transform="translate(575.953 6079)" fill="#212429"/>
    <path id="Trazado_1240205" data-name="Trazado 1240205" d="M4.28-4.342V0H1.441V-12.6H5.889q4.764,0,4.764,4.017A3.854,3.854,0,0,1,9.286-5.515,5.414,5.414,0,0,1,5.634-4.342Zm0-6.082V-6.5H5.4q2.268,0,2.268-1.986,0-1.942-2.268-1.942ZM14.829-2.3h5.344V0H11.788V-.949a4.418,4.418,0,0,1,.325-1.736,5.76,5.76,0,0,1,.817-1.38,7.09,7.09,0,0,1,1.077-1.081q.584-.47,1.112-.848.554-.4.971-.756a5.534,5.534,0,0,0,.7-.716,2.723,2.723,0,0,0,.426-.721,2.143,2.143,0,0,0,.141-.778,1.563,1.563,0,0,0-.457-1.222,2.032,2.032,0,0,0-1.4-.413,4.694,4.694,0,0,0-3.111,1.292v-2.443A6.679,6.679,0,0,1,16.1-12.814a5.478,5.478,0,0,1,1.718.25,3.635,3.635,0,0,1,1.288.716,3.055,3.055,0,0,1,.8,1.129,3.811,3.811,0,0,1,.277,1.481,4.176,4.176,0,0,1-.268,1.547,4.753,4.753,0,0,1-.712,1.23,6.458,6.458,0,0,1-1.024,1.015q-.58.461-1.2.892-.422.3-.813.593a7.707,7.707,0,0,0-.69.58A3.149,3.149,0,0,0,15-2.821.963.963,0,0,0,14.829-2.3Z" transform="translate(581.73 6182.315)" fill="#212429"/>
    <path id="Trazado_1240206" data-name="Trazado 1240206" d="M4.28-4.342V0H1.441V-12.6H5.889q4.764,0,4.764,4.017A3.854,3.854,0,0,1,9.286-5.515,5.414,5.414,0,0,1,5.634-4.342Zm0-6.082V-6.5H5.4q2.268,0,2.268-1.986,0-1.942-2.268-1.942ZM12.087-.413V-2.83a4.878,4.878,0,0,0,2.953.923A2.659,2.659,0,0,0,16.7-2.364a1.517,1.517,0,0,0,.593-1.274,1.449,1.449,0,0,0-.734-1.3A3.8,3.8,0,0,0,14.539-5.4H13.37V-7.523h1.081q2.461,0,2.461-1.635,0-1.538-1.89-1.538a4.308,4.308,0,0,0-2.461.817v-2.268a6.8,6.8,0,0,1,3.094-.668,4.669,4.669,0,0,1,3.01.87,2.769,2.769,0,0,1,1.077,2.259,2.937,2.937,0,0,1-2.5,3.094v.044a3.405,3.405,0,0,1,2.109.971A2.738,2.738,0,0,1,20.12-3.6,3.382,3.382,0,0,1,18.828-.809,5.586,5.586,0,0,1,15.26.22,6.9,6.9,0,0,1,12.087-.413Z" transform="translate(581.73 6228.315)" fill="#212429"/>
    <path id="Trazado_1240207" data-name="Trazado 1240207" d="M10.688,0H8.93L6.82-3.533a7.7,7.7,0,0,0-.562-.839A3.207,3.207,0,0,0,5.7-4.939a1.933,1.933,0,0,0-.615-.321,2.53,2.53,0,0,0-.743-.1H3.129V0H1.652V-12.6H5.414a5.361,5.361,0,0,1,1.525.207,3.412,3.412,0,0,1,1.213.628,2.92,2.92,0,0,1,.8,1.05,3.483,3.483,0,0,1,.29,1.472,3.545,3.545,0,0,1-.2,1.208,3.156,3.156,0,0,1-.562.98,3.41,3.41,0,0,1-.879.734,4.487,4.487,0,0,1-1.156.47v.035A2.658,2.658,0,0,1,7-5.5a3.023,3.023,0,0,1,.444.426,5.646,5.646,0,0,1,.417.558q.207.312.461.725ZM3.129-11.268V-6.7h2a3.039,3.039,0,0,0,1.024-.167,2.37,2.37,0,0,0,.813-.479,2.172,2.172,0,0,0,.536-.765A2.56,2.56,0,0,0,7.7-9.123,1.976,1.976,0,0,0,7.044-10.7a2.813,2.813,0,0,0-1.894-.567ZM15.462.211A4.175,4.175,0,0,1,12.276-1.05a4.672,4.672,0,0,1-1.191-3.344,4.867,4.867,0,0,1,1.239-3.542,4.455,4.455,0,0,1,3.349-1.274,4.037,4.037,0,0,1,3.142,1.239,4.914,4.914,0,0,1,1.129,3.437,4.835,4.835,0,0,1-1.217,3.45A4.265,4.265,0,0,1,15.462.211ZM15.567-8a2.742,2.742,0,0,0-2.2.945,3.88,3.88,0,0,0-.809,2.606,3.67,3.67,0,0,0,.817,2.522A2.778,2.778,0,0,0,15.567-1a2.635,2.635,0,0,0,2.149-.905,3.928,3.928,0,0,0,.751-2.575,4,4,0,0,0-.751-2.6A2.623,2.623,0,0,0,15.567-8ZM23.69,0H22.249V-13.324H23.69Zm4.361,0H26.61V-13.324h1.441Zm4.4-1.3h-.035V0H30.971V-13.324h1.441v5.906h.035a3.408,3.408,0,0,1,3.111-1.793A3.3,3.3,0,0,1,38.27-8a4.99,4.99,0,0,1,.98,3.239,5.578,5.578,0,0,1-1.1,3.617A3.658,3.658,0,0,1,35.146.211,2.96,2.96,0,0,1,32.448-1.3Zm-.035-3.63v1.257a2.676,2.676,0,0,0,.725,1.894A2.408,2.408,0,0,0,34.979-1a2.413,2.413,0,0,0,2.052-1,4.6,4.6,0,0,0,.743-2.786,3.629,3.629,0,0,0-.694-2.355A2.3,2.3,0,0,0,35.2-8a2.554,2.554,0,0,0-2.021.875A3.211,3.211,0,0,0,32.412-4.931ZM48,0H46.556V-1.406h-.035A3.018,3.018,0,0,1,43.752.211a2.959,2.959,0,0,1-2.1-.712,2.466,2.466,0,0,1-.76-1.89q0-2.522,2.971-2.936l2.7-.378Q46.556-8,44.7-8a4.431,4.431,0,0,0-2.936,1.107V-8.367a5.577,5.577,0,0,1,3.059-.844Q48-9.211,48-5.854ZM46.556-4.553l-2.171.3a3.525,3.525,0,0,0-1.512.5,1.432,1.432,0,0,0-.51,1.261,1.374,1.374,0,0,0,.47,1.077A1.817,1.817,0,0,0,44.086-1a2.314,2.314,0,0,0,1.771-.751,2.685,2.685,0,0,0,.7-1.9ZM56.85-.413a4.684,4.684,0,0,1-2.461.624,4.074,4.074,0,0,1-3.107-1.252A4.539,4.539,0,0,1,50.1-4.289a4.99,4.99,0,0,1,1.274-3.573,4.458,4.458,0,0,1,3.4-1.349,4.735,4.735,0,0,1,2.092.439v1.477A3.665,3.665,0,0,0,54.723-8a2.9,2.9,0,0,0-2.263.989,3.752,3.752,0,0,0-.883,2.6,3.573,3.573,0,0,0,.831,2.5A2.863,2.863,0,0,0,54.635-1a3.613,3.613,0,0,0,2.215-.782ZM66.5,0H64.48L60.508-4.324h-.035V0H59.031V-13.324h1.441v8.446h.035L64.287-9h1.89L62-4.658Z" transform="translate(620.73 6300.315)" fill="#f5b104"/>
    <path id="Trazado_1240208" data-name="Trazado 1240208" d="M10.688,0H8.93L6.82-3.533a7.7,7.7,0,0,0-.562-.839A3.207,3.207,0,0,0,5.7-4.939a1.933,1.933,0,0,0-.615-.321,2.53,2.53,0,0,0-.743-.1H3.129V0H1.652V-12.6H5.414a5.361,5.361,0,0,1,1.525.207,3.412,3.412,0,0,1,1.213.628,2.92,2.92,0,0,1,.8,1.05,3.483,3.483,0,0,1,.29,1.472,3.545,3.545,0,0,1-.2,1.208,3.156,3.156,0,0,1-.562.98,3.41,3.41,0,0,1-.879.734,4.487,4.487,0,0,1-1.156.47v.035A2.658,2.658,0,0,1,7-5.5a3.023,3.023,0,0,1,.444.426,5.646,5.646,0,0,1,.417.558q.207.312.461.725ZM3.129-11.268V-6.7h2a3.039,3.039,0,0,0,1.024-.167,2.37,2.37,0,0,0,.813-.479,2.172,2.172,0,0,0,.536-.765A2.56,2.56,0,0,0,7.7-9.123,1.976,1.976,0,0,0,7.044-10.7a2.813,2.813,0,0,0-1.894-.567ZM15.462.211A4.175,4.175,0,0,1,12.276-1.05a4.672,4.672,0,0,1-1.191-3.344,4.867,4.867,0,0,1,1.239-3.542,4.455,4.455,0,0,1,3.349-1.274,4.037,4.037,0,0,1,3.142,1.239,4.914,4.914,0,0,1,1.129,3.437,4.835,4.835,0,0,1-1.217,3.45A4.265,4.265,0,0,1,15.462.211ZM15.567-8a2.742,2.742,0,0,0-2.2.945,3.88,3.88,0,0,0-.809,2.606,3.67,3.67,0,0,0,.817,2.522A2.778,2.778,0,0,0,15.567-1a2.635,2.635,0,0,0,2.149-.905,3.928,3.928,0,0,0,.751-2.575,4,4,0,0,0-.751-2.6A2.623,2.623,0,0,0,15.567-8ZM23.69,0H22.249V-13.324H23.69Zm4.361,0H26.61V-13.324h1.441Zm4.4-1.3h-.035V0H30.971V-13.324h1.441v5.906h.035a3.408,3.408,0,0,1,3.111-1.793A3.3,3.3,0,0,1,38.27-8a4.99,4.99,0,0,1,.98,3.239,5.578,5.578,0,0,1-1.1,3.617A3.658,3.658,0,0,1,35.146.211,2.96,2.96,0,0,1,32.448-1.3Zm-.035-3.63v1.257a2.676,2.676,0,0,0,.725,1.894A2.408,2.408,0,0,0,34.979-1a2.413,2.413,0,0,0,2.052-1,4.6,4.6,0,0,0,.743-2.786,3.629,3.629,0,0,0-.694-2.355A2.3,2.3,0,0,0,35.2-8a2.554,2.554,0,0,0-2.021.875A3.211,3.211,0,0,0,32.412-4.931ZM48,0H46.556V-1.406h-.035A3.018,3.018,0,0,1,43.752.211a2.959,2.959,0,0,1-2.1-.712,2.466,2.466,0,0,1-.76-1.89q0-2.522,2.971-2.936l2.7-.378Q46.556-8,44.7-8a4.431,4.431,0,0,0-2.936,1.107V-8.367a5.577,5.577,0,0,1,3.059-.844Q48-9.211,48-5.854ZM46.556-4.553l-2.171.3a3.525,3.525,0,0,0-1.512.5,1.432,1.432,0,0,0-.51,1.261,1.374,1.374,0,0,0,.47,1.077A1.817,1.817,0,0,0,44.086-1a2.314,2.314,0,0,0,1.771-.751,2.685,2.685,0,0,0,.7-1.9ZM56.85-.413a4.684,4.684,0,0,1-2.461.624,4.074,4.074,0,0,1-3.107-1.252A4.539,4.539,0,0,1,50.1-4.289a4.99,4.99,0,0,1,1.274-3.573,4.458,4.458,0,0,1,3.4-1.349,4.735,4.735,0,0,1,2.092.439v1.477A3.665,3.665,0,0,0,54.723-8a2.9,2.9,0,0,0-2.263.989,3.752,3.752,0,0,0-.883,2.6,3.573,3.573,0,0,0,.831,2.5A2.863,2.863,0,0,0,54.635-1a3.613,3.613,0,0,0,2.215-.782ZM66.5,0H64.48L60.508-4.324h-.035V0H59.031V-13.324h1.441v8.446h.035L64.287-9h1.89L62-4.658Z" transform="translate(692.81 6344.315)" fill="#212429"/>
    <path id="Trazado_1240209" data-name="Trazado 1240209" d="M9,0A9,9,0,1,1,0,9,9,9,0,0,1,9,0Z" transform="translate(662 6167)" fill="#6c4dd8"/>
    <path id="Trazado_1240210" data-name="Trazado 1240210" d="M9,0a8.761,8.761,0,0,1,9,8.5A8.761,8.761,0,0,1,9,17,8.761,8.761,0,0,1,0,8.5,8.761,8.761,0,0,1,9,0Z" transform="translate(662 6121)" fill="#6c4dd8"/>
    <path id="Trazado_1240211" data-name="Trazado 1240211" d="M9,0a8.761,8.761,0,0,1,9,8.5A8.761,8.761,0,0,1,9,17,8.761,8.761,0,0,1,0,8.5,8.761,8.761,0,0,1,9,0Z" transform="translate(722 6121)" fill="#6c4dd8"/>
    <path id="Trazado_1240212" data-name="Trazado 1240212" d="M9,0A9,9,0,1,1,0,9,9,9,0,0,1,9,0Z" transform="translate(662 6212)" fill="#6c4dd8"/>
    <g id="Grupo_1237557" data-name="Grupo 1237557" transform="translate(234.27 -421.915)">
      <path id="Trazado_1231821-7" data-name="Trazado 1231821" d="M28.307,0H0" transform="translate(496.5 6736.051) rotate(-90)" fill="none" stroke="#f5b104" stroke-linecap="round" stroke-width="2"/>
      <path id="Polígono_2-3" data-name="Polígono 2" d="M7.04,0l7.04,8.665H0Z" transform="translate(503.54 6738.189) rotate(180)" fill="#f5b104"/>
    </g>
    <g id="Grupo_1237558" data-name="Grupo 1237558" transform="translate(0 -55)">
      <path id="Trazado_1238154" data-name="Trazado 1238154" d="M7673.02,6291.193s-.219,13.626,7.442,24.735,23.2,19.7,23.2,19.7" transform="translate(-6996)" fill="none" stroke="#f5b104" stroke-linecap="round" stroke-width="2"/>
      <path id="Polígono_2-4" data-name="Polígono 2" d="M7.04,0l7.04,8.665H0Z" transform="matrix(-0.454, 0.891, -0.891, -0.454, 712.826, 6330.342)" fill="#f5b104"/>
    </g>
    <path id="Trazado_1240213" data-name="Trazado 1240213" d="M4.28-4.342V0H1.441V-12.6H5.889q4.764,0,4.764,4.017A3.854,3.854,0,0,1,9.286-5.515,5.414,5.414,0,0,1,5.634-4.342Zm0-6.082V-6.5H5.4q2.268,0,2.268-1.986,0-1.942-2.268-1.942Zm14.091-2.461V0H15.6V-9.756a3.315,3.315,0,0,1-.541.382,5.58,5.58,0,0,1-.664.325,5.925,5.925,0,0,1-.729.246,5.328,5.328,0,0,1-.747.145V-11a11.549,11.549,0,0,0,2.039-.809,11.6,11.6,0,0,0,1.731-1.081Z" transform="translate(835.73 6135)" fill="#212429"/>
    <g id="Grupo_1237559" data-name="Grupo 1237559" transform="translate(369.27 -473)">
      <path id="Polígono_1-4" data-name="Polígono 1" d="M7.04,0l7.04,8.665H0Z" transform="translate(489.46 6572.271)" fill="#707070"/>
      <path id="Trazado_1231821-8" data-name="Trazado 1231821" d="M155.115,0H0" transform="translate(496.5 6736.051) rotate(-90)" fill="none" stroke="#707070" stroke-linecap="round" stroke-width="2"/>
      <path id="Polígono_2-5" data-name="Polígono 2" d="M7.04,0l7.04,8.665H0Z" transform="translate(503.54 6738.189) rotate(180)" fill="#707070"/>
    </g>
    <g id="Grupo_1237560" data-name="Grupo 1237560" transform="translate(424.27 -473)">
      <path id="Polígono_1-5" data-name="Polígono 1" d="M7.04,0l7.04,8.665H0Z" transform="translate(489.46 6572.271)" fill="#707070"/>
      <path id="Trazado_1231821-9" data-name="Trazado 1231821" d="M157.144,0H0" transform="translate(496.5 6738.08) rotate(-90)" fill="none" stroke="#707070" stroke-linecap="round" stroke-width="2"/>
    </g>
    <g id="Grupo_1237561" data-name="Grupo 1237561" transform="translate(478.366 -473)">
      <path id="Polígono_1-6" data-name="Polígono 1" d="M7.04,0l7.04,8.665H0Z" transform="translate(489.46 6572.271)" fill="#707070"/>
      <path id="Trazado_1231821-10" data-name="Trazado 1231821" d="M155.115,0H0" transform="translate(496.5 6736.051) rotate(-90)" fill="none" stroke="#707070" stroke-linecap="round" stroke-width="2"/>
      <path id="Polígono_2-6" data-name="Polígono 2" d="M7.04,0l7.04,8.665H0Z" transform="translate(503.54 6738.189) rotate(180)" fill="#707070"/>
    </g>
    <g id="Grupo_1237562" data-name="Grupo 1237562" transform="translate(7554.802 5633.73) rotate(90)">
      <path id="Trazado_1231821-11" data-name="Trazado 1231821" d="M108.1,0H0" transform="translate(496.5 6689.032) rotate(-90)" fill="none" stroke="#707070" stroke-linecap="round" stroke-width="2"/>
    </g>
    <g id="Grupo_1237563" data-name="Grupo 1237563" transform="translate(7518.572 5633.73) rotate(90)">
      <path id="Trazado_1231821-12" data-name="Trazado 1231821" d="M71.867,0H0" transform="translate(542.085 6652.803) rotate(-90)" fill="none" stroke="#707070" stroke-linecap="round" stroke-width="2"/>
    </g>
    <g id="Grupo_1237564" data-name="Grupo 1237564" transform="translate(7513.975 5633.73) rotate(90)">
      <path id="Trazado_1231821-13" data-name="Trazado 1231821" d="M67.27,0H0" transform="translate(589.134 6648.205) rotate(-90)" fill="none" stroke="#707070" stroke-linecap="round" stroke-width="2"/>
    </g>
    <path id="Trazado_1240214" data-name="Trazado 1240214" d="M4.28-4.342V0H1.441V-12.6H5.889q4.764,0,4.764,4.017A3.854,3.854,0,0,1,9.286-5.515,5.414,5.414,0,0,1,5.634-4.342Zm0-6.082V-6.5H5.4q2.268,0,2.268-1.986,0-1.942-2.268-1.942ZM14.829-2.3h5.344V0H11.788V-.949a4.418,4.418,0,0,1,.325-1.736,5.76,5.76,0,0,1,.817-1.38,7.09,7.09,0,0,1,1.077-1.081q.584-.47,1.112-.848.554-.4.971-.756a5.534,5.534,0,0,0,.7-.716,2.723,2.723,0,0,0,.426-.721,2.143,2.143,0,0,0,.141-.778,1.563,1.563,0,0,0-.457-1.222,2.032,2.032,0,0,0-1.4-.413,4.694,4.694,0,0,0-3.111,1.292v-2.443A6.679,6.679,0,0,1,16.1-12.814a5.478,5.478,0,0,1,1.718.25,3.635,3.635,0,0,1,1.288.716,3.055,3.055,0,0,1,.8,1.129,3.811,3.811,0,0,1,.277,1.481,4.176,4.176,0,0,1-.268,1.547,4.753,4.753,0,0,1-.712,1.23,6.458,6.458,0,0,1-1.024,1.015q-.58.461-1.2.892-.422.3-.813.593a7.707,7.707,0,0,0-.69.58A3.149,3.149,0,0,0,15-2.821.963.963,0,0,0,14.829-2.3Z" transform="translate(835.73 6182.315)" fill="#212429"/>
    <path id="Trazado_1240215" data-name="Trazado 1240215" d="M4.28-4.342V0H1.441V-12.6H5.889q4.764,0,4.764,4.017A3.854,3.854,0,0,1,9.286-5.515,5.414,5.414,0,0,1,5.634-4.342Zm0-6.082V-6.5H5.4q2.268,0,2.268-1.986,0-1.942-2.268-1.942ZM12.087-.413V-2.83a4.878,4.878,0,0,0,2.953.923A2.659,2.659,0,0,0,16.7-2.364a1.517,1.517,0,0,0,.593-1.274,1.449,1.449,0,0,0-.734-1.3A3.8,3.8,0,0,0,14.539-5.4H13.37V-7.523h1.081q2.461,0,2.461-1.635,0-1.538-1.89-1.538a4.308,4.308,0,0,0-2.461.817v-2.268a6.8,6.8,0,0,1,3.094-.668,4.669,4.669,0,0,1,3.01.87,2.769,2.769,0,0,1,1.077,2.259,2.937,2.937,0,0,1-2.5,3.094v.044a3.405,3.405,0,0,1,2.109.971A2.738,2.738,0,0,1,20.12-3.6,3.382,3.382,0,0,1,18.828-.809,5.586,5.586,0,0,1,15.26.22,6.9,6.9,0,0,1,12.087-.413Z" transform="translate(835.73 6228.315)" fill="#212429"/>
    <path id="Trazado_1240216" data-name="Trazado 1240216" d="M9,0A9,9,0,1,1,0,9,9,9,0,0,1,9,0Z" transform="translate(911 6167)" fill="#6c4dd8"/>
    <path id="Trazado_1240217" data-name="Trazado 1240217" d="M9,0a8.761,8.761,0,0,1,9,8.5A8.761,8.761,0,0,1,9,17,8.761,8.761,0,0,1,0,8.5,8.761,8.761,0,0,1,9,0Z" transform="translate(911 6121)" fill="#6c4dd8"/>
    <path id="Trazado_1240218" data-name="Trazado 1240218" d="M9,0A9,9,0,1,1,0,9,9,9,0,0,1,9,0Z" transform="translate(911 6212)" fill="#f5b104"/>
    <path id="Trazado_1240219" data-name="Trazado 1240219" d="M7.04,0l7.04,8.665H0Z" transform="matrix(-0.454, 0.891, -0.891, -0.454, 961.665, 6265.342)" fill="#707070"/>
    <path id="Trazado_1238155" data-name="Trazado 1238155" d="M671.339,6289.647s1.922,13.009,8.321,21.26,17.273,11.743,17.273,11.743" transform="translate(254 -55)" fill="none" stroke="#f5b104" stroke-linecap="round" stroke-width="2"/>
    <g id="Trazado_1238158" data-name="Trazado 1238158" transform="matrix(-0.454, 0.891, -0.891, -0.454, 961.665, 6265.342)" fill="#f5b104" stroke-linecap="round">
      <path d="M 13.02958011627197 8.164555549621582 L 1.050498366355896 8.164555549621582 L 7.0400390625 0.7929019331932068 L 13.02958011627197 8.164555549621582 Z" stroke="none"/>
      <path d="M 7.0400390625 1.585796356201172 L 2.100987434387207 7.664555549621582 L 11.97909069061279 7.664555549621582 L 7.0400390625 1.585796356201172 M 7.0400390625 -4.76837158203125e-06 L 14.08007907867432 8.664555549621582 L -9.5367431640625e-07 8.664555549621582 L 7.0400390625 -4.76837158203125e-06 Z" stroke="none" fill="#f5b104"/>
    </g>
    <g id="Grupo_1237566" data-name="Grupo 1237566" transform="translate(7555.802 5633.73) rotate(90)">
      <path id="Trazado_1231821-14" data-name="Trazado 1231821" d="M21.1,0H0" transform="translate(589.134 6602.032) rotate(-90)" fill="none" stroke="#707070" stroke-linecap="round" stroke-width="2"/>
    </g>
    <path id="Trazado_1240220" data-name="Trazado 1240220" d="M10.688,0H8.93L6.82-3.533a7.7,7.7,0,0,0-.562-.839A3.207,3.207,0,0,0,5.7-4.939a1.933,1.933,0,0,0-.615-.321,2.53,2.53,0,0,0-.743-.1H3.129V0H1.652V-12.6H5.414a5.361,5.361,0,0,1,1.525.207,3.412,3.412,0,0,1,1.213.628,2.92,2.92,0,0,1,.8,1.05,3.483,3.483,0,0,1,.29,1.472,3.545,3.545,0,0,1-.2,1.208,3.156,3.156,0,0,1-.562.98,3.41,3.41,0,0,1-.879.734,4.487,4.487,0,0,1-1.156.47v.035A2.658,2.658,0,0,1,7-5.5a3.023,3.023,0,0,1,.444.426,5.646,5.646,0,0,1,.417.558q.207.312.461.725ZM3.129-11.268V-6.7h2a3.039,3.039,0,0,0,1.024-.167,2.37,2.37,0,0,0,.813-.479,2.172,2.172,0,0,0,.536-.765A2.56,2.56,0,0,0,7.7-9.123,1.976,1.976,0,0,0,7.044-10.7a2.813,2.813,0,0,0-1.894-.567ZM15.462.211A4.175,4.175,0,0,1,12.276-1.05a4.672,4.672,0,0,1-1.191-3.344,4.867,4.867,0,0,1,1.239-3.542,4.455,4.455,0,0,1,3.349-1.274,4.037,4.037,0,0,1,3.142,1.239,4.914,4.914,0,0,1,1.129,3.437,4.835,4.835,0,0,1-1.217,3.45A4.265,4.265,0,0,1,15.462.211ZM15.567-8a2.742,2.742,0,0,0-2.2.945,3.88,3.88,0,0,0-.809,2.606,3.67,3.67,0,0,0,.817,2.522A2.778,2.778,0,0,0,15.567-1a2.635,2.635,0,0,0,2.149-.905,3.928,3.928,0,0,0,.751-2.575,4,4,0,0,0-.751-2.6A2.623,2.623,0,0,0,15.567-8ZM23.69,0H22.249V-13.324H23.69Zm4.361,0H26.61V-13.324h1.441Zm4.4-1.3h-.035V0H30.971V-13.324h1.441v5.906h.035a3.408,3.408,0,0,1,3.111-1.793A3.3,3.3,0,0,1,38.27-8a4.99,4.99,0,0,1,.98,3.239,5.578,5.578,0,0,1-1.1,3.617A3.658,3.658,0,0,1,35.146.211,2.96,2.96,0,0,1,32.448-1.3Zm-.035-3.63v1.257a2.676,2.676,0,0,0,.725,1.894A2.408,2.408,0,0,0,34.979-1a2.413,2.413,0,0,0,2.052-1,4.6,4.6,0,0,0,.743-2.786,3.629,3.629,0,0,0-.694-2.355A2.3,2.3,0,0,0,35.2-8a2.554,2.554,0,0,0-2.021.875A3.211,3.211,0,0,0,32.412-4.931ZM48,0H46.556V-1.406h-.035A3.018,3.018,0,0,1,43.752.211a2.959,2.959,0,0,1-2.1-.712,2.466,2.466,0,0,1-.76-1.89q0-2.522,2.971-2.936l2.7-.378Q46.556-8,44.7-8a4.431,4.431,0,0,0-2.936,1.107V-8.367a5.577,5.577,0,0,1,3.059-.844Q48-9.211,48-5.854ZM46.556-4.553l-2.171.3a3.525,3.525,0,0,0-1.512.5,1.432,1.432,0,0,0-.51,1.261,1.374,1.374,0,0,0,.47,1.077A1.817,1.817,0,0,0,44.086-1a2.314,2.314,0,0,0,1.771-.751,2.685,2.685,0,0,0,.7-1.9ZM56.85-.413a4.684,4.684,0,0,1-2.461.624,4.074,4.074,0,0,1-3.107-1.252A4.539,4.539,0,0,1,50.1-4.289a4.99,4.99,0,0,1,1.274-3.573,4.458,4.458,0,0,1,3.4-1.349,4.735,4.735,0,0,1,2.092.439v1.477A3.665,3.665,0,0,0,54.723-8a2.9,2.9,0,0,0-2.263.989,3.752,3.752,0,0,0-.883,2.6,3.573,3.573,0,0,0,.831,2.5A2.863,2.863,0,0,0,54.635-1a3.613,3.613,0,0,0,2.215-.782ZM66.5,0H64.48L60.508-4.324h-.035V0H59.031V-13.324h1.441v8.446h.035L64.287-9h1.89L62-4.658Z" transform="translate(943.73 6300.315)" fill="#f5b104"/>
    <path id="Trazado_1240221" data-name="Trazado 1240221" d="M1.652,0V-12.6h3.48q6.662,0,6.662,6.144a6.191,6.191,0,0,1-1.85,4.689A6.863,6.863,0,0,1,4.992,0ZM3.129-11.268v9.932H5.01A5.338,5.338,0,0,0,8.868-2.663a4.975,4.975,0,0,0,1.38-3.762q0-4.843-5.15-4.843ZM17.844.211A4.175,4.175,0,0,1,14.658-1.05a4.672,4.672,0,0,1-1.191-3.344,4.867,4.867,0,0,1,1.239-3.542,4.455,4.455,0,0,1,3.349-1.274A4.037,4.037,0,0,1,21.2-7.972a4.914,4.914,0,0,1,1.129,3.437,4.835,4.835,0,0,1-1.217,3.45A4.265,4.265,0,0,1,17.844.211ZM17.949-8a2.742,2.742,0,0,0-2.2.945,3.88,3.88,0,0,0-.809,2.606,3.67,3.67,0,0,0,.817,2.522A2.778,2.778,0,0,0,17.949-1,2.635,2.635,0,0,0,20.1-1.907a3.928,3.928,0,0,0,.751-2.575,4,4,0,0,0-.751-2.6A2.623,2.623,0,0,0,17.949-8ZM37.41,0H35.968V-5.168a3.9,3.9,0,0,0-.461-2.162A1.75,1.75,0,0,0,33.956-8a1.921,1.921,0,0,0-1.569.844,3.228,3.228,0,0,0-.646,2.021V0H30.3V-5.344Q30.3-8,28.252-8a1.9,1.9,0,0,0-1.564.8,3.288,3.288,0,0,0-.615,2.07V0H24.631V-9h1.441v1.424h.035A3.058,3.058,0,0,1,28.9-9.211,2.606,2.606,0,0,1,30.51-8.7a2.586,2.586,0,0,1,.94,1.349,3.212,3.212,0,0,1,2.988-1.863q2.971,0,2.971,3.665Zm3.465-11.285a.913.913,0,0,1-.659-.264.89.89,0,0,1-.272-.668.9.9,0,0,1,.272-.672.905.905,0,0,1,.659-.268.931.931,0,0,1,.672.268.9.9,0,0,1,.277.672.891.891,0,0,1-.277.659A.923.923,0,0,1,40.875-11.285ZM41.578,0H40.136V-9h1.441Zm10.39,0H50.527V-5.133Q50.527-8,48.435-8a2.269,2.269,0,0,0-1.789.813,3.013,3.013,0,0,0-.708,2.052V0H44.5V-9h1.441v1.494h.035a3.248,3.248,0,0,1,2.953-1.705,2.753,2.753,0,0,1,2.259.954A4.248,4.248,0,0,1,51.968-5.5Zm6.479.211A4.175,4.175,0,0,1,55.261-1.05a4.672,4.672,0,0,1-1.191-3.344A4.867,4.867,0,0,1,55.31-7.937a4.455,4.455,0,0,1,3.349-1.274A4.037,4.037,0,0,1,61.8-7.972,4.914,4.914,0,0,1,62.93-4.535a4.835,4.835,0,0,1-1.217,3.45A4.265,4.265,0,0,1,58.447.211ZM58.553-8a2.742,2.742,0,0,0-2.2.945,3.88,3.88,0,0,0-.809,2.606,3.67,3.67,0,0,0,.817,2.522A2.778,2.778,0,0,0,58.553-1,2.635,2.635,0,0,0,60.7-1.907a3.928,3.928,0,0,0,.751-2.575,4,4,0,0,0-.751-2.6A2.623,2.623,0,0,0,58.553-8ZM77.4-4.14H71.046a3.366,3.366,0,0,0,.809,2.32A2.788,2.788,0,0,0,73.981-1a4.422,4.422,0,0,0,2.795-1V-.65a5.224,5.224,0,0,1-3.138.861,3.8,3.8,0,0,1-3-1.226,5.018,5.018,0,0,1-1.09-3.45,4.921,4.921,0,0,1,1.191-3.423A3.819,3.819,0,0,1,73.7-9.211a3.384,3.384,0,0,1,2.733,1.143A4.764,4.764,0,0,1,77.4-4.9ZM75.924-5.361a2.933,2.933,0,0,0-.6-1.942A2.051,2.051,0,0,0,73.674-8a2.328,2.328,0,0,0-1.731.729,3.311,3.311,0,0,0-.879,1.907Zm8.105-6.7a1.92,1.92,0,0,0-.958-.237q-1.512,0-1.512,1.907V-9h2.109v1.23H81.559V0H80.127V-7.77H78.589V-9h1.538v-1.459a3.032,3.032,0,0,1,.817-2.237,2.759,2.759,0,0,1,2.039-.822,2.824,2.824,0,0,1,1.046.158Zm5.636,0a1.92,1.92,0,0,0-.958-.237q-1.512,0-1.512,1.907V-9H89.3v1.23H87.195V0H85.762V-7.77H84.224V-9h1.538v-1.459A3.032,3.032,0,0,1,86.58-12.7a2.759,2.759,0,0,1,2.039-.822,2.824,2.824,0,0,1,1.046.158ZM98.086-4.14H91.732a3.366,3.366,0,0,0,.809,2.32A2.788,2.788,0,0,0,94.667-1a4.422,4.422,0,0,0,2.795-1V-.65a5.224,5.224,0,0,1-3.138.861,3.8,3.8,0,0,1-3-1.226,5.018,5.018,0,0,1-1.09-3.45,4.921,4.921,0,0,1,1.191-3.423,3.819,3.819,0,0,1,2.958-1.323A3.384,3.384,0,0,1,97.12-8.068,4.764,4.764,0,0,1,98.086-4.9ZM96.61-5.361a2.933,2.933,0,0,0-.6-1.942A2.051,2.051,0,0,0,94.36-8a2.328,2.328,0,0,0-1.731.729,3.311,3.311,0,0,0-.879,1.907ZM106.4-.413a4.684,4.684,0,0,1-2.461.624,4.074,4.074,0,0,1-3.107-1.252,4.539,4.539,0,0,1-1.182-3.248,4.99,4.99,0,0,1,1.274-3.573,4.458,4.458,0,0,1,3.4-1.349,4.735,4.735,0,0,1,2.092.439v1.477a3.665,3.665,0,0,0-2.145-.7,2.9,2.9,0,0,0-2.263.989,3.752,3.752,0,0,0-.883,2.6,3.573,3.573,0,0,0,.831,2.5A2.863,2.863,0,0,0,104.188-1a3.613,3.613,0,0,0,2.215-.782Zm6.356.325a2.779,2.779,0,0,1-1.345.281q-2.364,0-2.364-2.637V-7.77H107.5V-9h1.547v-2.2l1.441-.466V-9h2.268v1.23h-2.268V-2.7a2.1,2.1,0,0,0,.308,1.292,1.228,1.228,0,0,0,1.02.387,1.515,1.515,0,0,0,.94-.3Z" transform="translate(864.953 6327.774)" fill="#212429"/>
    <path id="Trazado_1240222" data-name="Trazado 1240222" d="M7.04,0l7.04,8.665H0Z" transform="matrix(-0.719, -0.695, 0.695, -0.719, 958.88, 6221.173)" fill="#f5b104"/>
    <path id="Trazado_1240223" data-name="Trazado 1240223" d="M7.04,0l7.04,8.665H0Z" transform="matrix(-0.545, 0.839, -0.839, -0.545, 954.327, 6153.621)" fill="#f5b104"/>
    <path id="Trazado_1238156" data-name="Trazado 1238156" d="M7956.335,6266.127s6.9-4.748,8.491-11.5-2.114-15.5-2.114-15.5" transform="translate(-6996 -55)" fill="none" stroke="#f5b104" stroke-linecap="round" stroke-width="2"/>
    <path id="Trazado_1238157" data-name="Trazado 1238157" d="M7940.02,6209.884a24.384,24.384,0,0,1-10.166-4.345c-4.359-3.462-7.271-9.5-7.271-9.5" transform="translate(-6996 -55)" fill="none" stroke="#f5b104" stroke-linecap="round" stroke-width="2"/>
    <path id="gear_16821039" d="M16.98,10.456A2.338,2.338,0,0,1,18.414,8.3a8.314,8.314,0,0,0-.805-1.949,2.335,2.335,0,0,1-3.048-3.048A8.246,8.246,0,0,0,12.61,2.5,2.335,2.335,0,0,1,8.3,2.5a8.313,8.313,0,0,0-1.951.805A2.337,2.337,0,0,1,4.191,6.53,2.365,2.365,0,0,1,3.3,6.355,8.26,8.26,0,0,0,2.5,8.3a2.337,2.337,0,0,1,0,4.311,8.39,8.39,0,0,0,.8,1.951,2.332,2.332,0,0,1,3.048,3.044,8.367,8.367,0,0,0,1.951.807,2.338,2.338,0,0,1,4.309,0,8.489,8.489,0,0,0,1.951-.8,2.334,2.334,0,0,1,3.046-3.05,8.271,8.271,0,0,0,.807-1.949,2.334,2.334,0,0,1-1.434-2.156ZM10.456,15.13a4.673,4.673,0,1,1,4.674-4.674A4.673,4.673,0,0,1,10.456,15.13Z" transform="translate(932.519 6215.627)"/>
    <path id="gear_16821039-2" data-name="gear_16821039" d="M19.211,11.682A2.7,2.7,0,0,1,20.866,9.2a9.594,9.594,0,0,0-.929-2.249,2.695,2.695,0,0,1-3.517-3.517A9.517,9.517,0,0,0,14.168,2.5,2.7,2.7,0,0,1,9.2,2.5a9.594,9.594,0,0,0-2.251.929A2.7,2.7,0,0,1,4.452,7.151a2.73,2.73,0,0,1-1.025-.2A9.533,9.533,0,0,0,2.5,9.2a2.7,2.7,0,0,1,0,4.975,9.683,9.683,0,0,0,.927,2.251,2.691,2.691,0,0,1,3.517,3.513,9.656,9.656,0,0,0,2.251.931,2.7,2.7,0,0,1,4.972,0,9.8,9.8,0,0,0,2.251-.927,2.694,2.694,0,0,1,3.515-3.52,9.545,9.545,0,0,0,.931-2.249,2.693,2.693,0,0,1-1.654-2.488Zm-7.529,5.394a5.393,5.393,0,1,1,5.394-5.394A5.393,5.393,0,0,1,11.682,17.075Z" transform="translate(936.892 6165.175)"/>
    <path id="gear_16821039-3" data-name="gear_16821039" d="M19.211,11.682A2.7,2.7,0,0,1,20.866,9.2a9.594,9.594,0,0,0-.929-2.249,2.695,2.695,0,0,1-3.517-3.517A9.517,9.517,0,0,0,14.168,2.5,2.7,2.7,0,0,1,9.2,2.5a9.594,9.594,0,0,0-2.251.929A2.7,2.7,0,0,1,4.452,7.151a2.73,2.73,0,0,1-1.025-.2A9.533,9.533,0,0,0,2.5,9.2a2.7,2.7,0,0,1,0,4.975,9.683,9.683,0,0,0,.927,2.251,2.691,2.691,0,0,1,3.517,3.513,9.656,9.656,0,0,0,2.251.931,2.7,2.7,0,0,1,4.972,0,9.8,9.8,0,0,0,2.251-.927,2.694,2.694,0,0,1,3.515-3.52,9.545,9.545,0,0,0,.931-2.249,2.693,2.693,0,0,1-1.654-2.488Zm-7.529,5.394a5.393,5.393,0,1,1,5.394-5.394A5.393,5.393,0,0,1,11.682,17.075Z" transform="translate(951.878 6152.384)"/>
  </g>
</svg>
