<svg xmlns="http://www.w3.org/2000/svg" xmlns:xlink="http://www.w3.org/1999/xlink" width="102.884" height="102.884" viewBox="0 0 102.884 102.884">
  <defs>
    <filter id="Trazado_904820" x="0" y="0" width="102.884" height="102.884" filterUnits="userSpaceOnUse">
      <feOffset dy="3" input="SourceAlpha"/>
      <feGaussianBlur stdDeviation="3" result="blur"/>
      <feFlood flood-opacity="0.161"/>
      <feComposite operator="in" in2="blur"/>
      <feComposite in="SourceGraphic"/>
    </filter>
  </defs>
  <g id="Grupo_1238135" data-name="Grupo 1238135" transform="translate(-171 -8254.947)">
    <g id="Grupo_1237465" data-name="Grupo 1237465" transform="translate(0 2132.719)">
      <g id="Grupo_1226551" data-name="Grupo 1226551" transform="translate(180 6128.228)">
        <g id="Grupo_1225716" data-name="Grupo 1225716" transform="translate(0 0)">
          <g id="Grupo_1211534" data-name="Grupo 1211534">
            <g id="Grupo_1173585" data-name="Grupo 1173585">
              <g id="Grupo_1173428" data-name="Grupo 1173428">
                <g id="Grupo_1171958" data-name="Grupo 1171958">
                  <g id="Grupo_1167341" data-name="Grupo 1167341">
                    <g id="Grupo_1166792" data-name="Grupo 1166792">
                      <g transform="matrix(1, 0, 0, 1, -9, -6)" filter="url(#Trazado_904820)">
                        <g id="Trazado_904820-2" data-name="Trazado 904820" transform="translate(9 6)" fill="#fceefb">
                          <path d="M 42.4418830871582 83.38380432128906 C 36.91410827636719 83.38380432128906 31.55247116088867 82.30150604248047 26.50591850280762 80.16700744628906 C 21.63076591491699 78.10498046875 17.25211906433105 75.1527099609375 13.49160099029541 71.39218902587891 C 9.731082916259766 67.63167572021484 6.778812408447266 63.25302886962891 4.716800689697266 58.37787628173828 C 2.582283020019531 53.33132171630859 1.500000715255737 47.96968460083008 1.500000715255737 42.44190979003906 C 1.500000715255737 36.91413497924805 2.582283020019531 31.55249786376953 4.716800689697266 26.50594520568848 C 6.778812408447266 21.63079261779785 9.731082916259766 17.25214576721191 13.49160099029541 13.49162769317627 C 17.25211906433105 9.731109619140625 21.63076591491699 6.778839111328125 26.50591850280762 4.71681547164917 C 31.55247116088867 2.582309722900391 36.91410827636719 1.500015616416931 42.4418830871582 1.500015616416931 C 47.96965789794922 1.500015616416931 53.33129501342773 2.582309722900391 58.37786102294922 4.71681547164917 C 63.25300216674805 6.778839111328125 67.63164520263672 9.731109619140625 71.39216613769531 13.49162769317627 C 75.15267944335938 17.25214576721191 78.10494995117188 21.63079261779785 80.16696166992188 26.50594520568848 C 82.30148315429688 31.55249786376953 83.38376617431641 36.91413497924805 83.38376617431641 42.44190979003906 C 83.38376617431641 47.96968460083008 82.30148315429688 53.33132171630859 80.16696166992188 58.37787628173828 C 78.10494995117188 63.25302886962891 75.15267944335938 67.63167572021484 71.39216613769531 71.39218902587891 C 67.63164520263672 75.1527099609375 63.25300216674805 78.10498046875 58.37786102294922 80.16700744628906 C 53.33129501342773 82.30150604248047 47.96965789794922 83.38380432128906 42.4418830871582 83.38380432128906 Z" stroke="none"/>
                          <path d="M 42.4418830871582 3.000015258789062 C 37.11593627929688 3.000015258789062 31.95090866088867 4.042442321777344 27.09024429321289 6.098320007324219 C 22.39389801025391 8.084724426269531 18.17550659179688 10.92904663085938 14.55226898193359 14.55228424072266 C 10.92901611328125 18.17552185058594 8.084693908691406 22.3939094543457 6.098312377929688 27.09027099609375 C 4.042427062988281 31.95093536376953 3 37.11596298217773 3 42.44190979003906 C 3 47.76785659790039 4.042427062988281 52.93288421630859 6.098312377929688 57.79354858398438 C 8.084693908691406 62.48991012573242 10.92901611328125 66.70829772949219 14.55226898193359 70.33153533935547 C 18.17550659179688 73.95477294921875 22.39389801025391 76.79909515380859 27.09024429321289 78.78549957275391 C 31.95090866088867 80.84137725830078 37.11593627929688 81.88380432128906 42.4418830871582 81.88380432128906 C 47.76782989501953 81.88380432128906 52.93285369873047 80.84137725830078 57.79352569580078 78.78549957275391 C 62.4898681640625 76.79909515380859 66.708251953125 73.95477294921875 70.33149719238281 70.33153533935547 C 73.95475006103516 66.70829772949219 76.799072265625 62.48991012573242 78.78545379638672 57.79354858398438 C 80.84133911132812 52.93288421630859 81.88376617431641 47.76785659790039 81.88376617431641 42.44190979003906 C 81.88376617431641 37.11596298217773 80.84133911132812 31.95093536376953 78.78545379638672 27.09027099609375 C 76.799072265625 22.3939094543457 73.95475006103516 18.17552185058594 70.33149719238281 14.55228424072266 C 66.708251953125 10.92904663085938 62.4898681640625 8.084724426269531 57.79352569580078 6.098320007324219 C 52.93285369873047 4.042442321777344 47.76782989501953 3.000015258789062 42.4418830871582 3.000015258789062 M 42.4418830871582 1.52587890625e-05 C 65.88188171386719 1.52587890625e-05 84.88376617431641 19.00190734863281 84.88376617431641 42.44190979003906 C 84.88376617431641 65.88191223144531 65.88188171386719 84.88380432128906 42.4418830871582 84.88380432128906 C 19.00188446044922 84.88380432128906 0 65.88191223144531 0 42.44190979003906 C 0 19.00190734863281 19.00188446044922 1.52587890625e-05 42.4418830871582 1.52587890625e-05 Z" stroke="none" fill="#e761e1"/>
                        </g>
                      </g>
                    </g>
                  </g>
                </g>
              </g>
            </g>
          </g>
        </g>
      </g>
    </g>
    <g id="pruebas-de-software_2_" data-name="pruebas-de-software (2)" transform="translate(196.823 8275.155)">
      <g id="Grupo_1238132" data-name="Grupo 1238132" transform="translate(0.751 0.799)">
        <path id="Trazado_1238752" data-name="Trazado 1238752" d="M35.75,215.737v-22a5.009,5.009,0,0,1,5.009-5.009H74.818a5.008,5.008,0,0,1,5.009,5.009v22Z" transform="translate(-32.92 -170.581)" fill="#fff"/>
        <path id="Trazado_1238753" data-name="Trazado 1238753" d="M67.06,244.171V221.9a1.571,1.571,0,0,1,1.571-1.571h34.662a1.571,1.571,0,0,1,1.571,1.571v22.271" transform="translate(-61.094 -199.015)" fill="#a8e1f8"/>
        <path id="Trazado_1238754" data-name="Trazado 1238754" d="M54.231,462.9a3.005,3.005,0,0,0,3.005-3.005V458.33H7.5v1.565a3.005,3.005,0,0,0,3.005,3.005Z" transform="translate(-7.5 -413.174)" fill="#c6d2db"/>
        <path id="Trazado_1238755" data-name="Trazado 1238755" d="M179.552,255.55l-1.269-2.2.225-2.06-3.394-1.965-1.691,1.233h-2.542l-1.691-1.233-3.394,1.965.225,2.06-1.269,2.2-1.907.837V260.3l1.907.837,1.269,2.2-.225,2.06,3.394,1.965,1.7-1.239h2.526l1.7,1.239,3.394-1.965-.225-2.06,1.269-2.2,1.907-.838v-3.916Zm-7.4,6.968a4.172,4.172,0,1,1,4.172-4.172A4.172,4.172,0,0,1,172.153,262.518Z" transform="translate(-147.284 -225.11)" fill="#fff"/>
        <circle id="Elipse_12811" data-name="Elipse 12811" cx="6.511" cy="6.511" r="6.511" transform="translate(4.521)" fill="#a7eed4"/>
        <circle id="Elipse_12812" data-name="Elipse 12812" cx="6.511" cy="6.511" r="6.511" transform="translate(32.169)" fill="#ff9d87"/>
        <path id="Trazado_1238756" data-name="Trazado 1238756" d="M55.134,14.061a6.513,6.513,0,0,1,5.259-6.39,6.511,6.511,0,1,0,0,12.78A6.513,6.513,0,0,1,55.134,14.061Z" transform="translate(-48.109 -7.55)" fill="#71e4bf"/>
        <path id="Trazado_1238757" data-name="Trazado 1238757" d="M331.134,14.061a6.513,6.513,0,0,1,5.259-6.39,6.511,6.511,0,1,0,0,12.78A6.513,6.513,0,0,1,331.134,14.061Z" transform="translate(-296.461 -7.55)" fill="#ff6a47"/>
        <path id="Trazado_1238758" data-name="Trazado 1238758" d="M71.135,220.33h-2.5A1.571,1.571,0,0,0,67.06,221.9v22.271h2.5V221.9a1.571,1.571,0,0,1,1.571-1.571Z" transform="translate(-61.094 -199.015)" fill="#75d2f5"/>
        <path id="Trazado_1238759" data-name="Trazado 1238759" d="M43.263,188.73h-2.5a5.009,5.009,0,0,0-5.009,5.009v22h2.5v-22A5.009,5.009,0,0,1,43.263,188.73Z" transform="translate(-32.92 -170.581)" fill="#e3edf6"/>
        <path id="Trazado_1238760" data-name="Trazado 1238760" d="M10,459.895V458.33H7.5v1.565a3.005,3.005,0,0,0,3.005,3.005h2.5A3.005,3.005,0,0,1,10,459.895Z" transform="translate(-7.5 -413.174)" fill="#a9baca"/>
      </g>
      <g id="Grupo_1238133" data-name="Grupo 1238133" transform="translate(0 0.048)">
        <path id="Trazado_1238761" data-name="Trazado 1238761" d="M48.409,45.2V23.958a5.766,5.766,0,0,0-5.76-5.76H40.091V14.542a7.263,7.263,0,1,0-1.5-.019V18.2H12.637V14.521a7.262,7.262,0,1,0-1.5.021V18.2H8.59a5.766,5.766,0,0,0-5.76,5.76v3.956h1.5V23.957A4.262,4.262,0,0,1,8.59,19.7h2.545v1.663H8.288a2.325,2.325,0,0,0-2.322,2.322V45.2H4.333V29.416H2.83V45.2H0V47.52a3.761,3.761,0,0,0,3.757,3.757H40.684v-1.5H3.757A2.257,2.257,0,0,1,1.5,47.52v-.813H49.736v.813a2.257,2.257,0,0,1-2.254,2.254h-5.3v1.5h5.3a3.761,3.761,0,0,0,3.757-3.757V45.2ZM33.671,7.311a5.76,5.76,0,1,1,5.76,5.76A5.766,5.766,0,0,1,33.671,7.311Zm-27.648,0a5.76,5.76,0,1,1,5.76,5.76A5.766,5.766,0,0,1,6.023,7.311ZM42.649,19.7a4.262,4.262,0,0,1,4.257,4.257V45.2H45.272V23.685a2.325,2.325,0,0,0-2.322-2.322H40.09V19.7Zm-30.012,0H38.588v1.663H12.637Zm20.909,10.95-1.023-1.769.251-2.3-4.241-2.455L26.645,25.5H24.593L22.7,24.124l-4.241,2.455.251,2.3L17.692,30.65l-2.131.936v1.7H13.389a.752.752,0,0,1-.751-.751V22.866h25.95v9.667a.752.752,0,0,1-.751.751H35.677v-1.7ZM31.175,40.681l-2.547,1.474-1.5-1.095H24.112l-1.5,1.095-2.547-1.474.2-1.818-1.515-2.621L17.064,35.5V32.567l1.683-.739,1.515-2.621-.2-1.818,2.547-1.474L24.1,27h3.031l1.493-1.089,2.547,1.474-.2,1.818,1.515,2.621,1.683.739V35.5l-1.683.739-1.515,2.621Zm-23.706-17a.82.82,0,0,1,.82-.819h2.846v9.667a2.257,2.257,0,0,0,2.254,2.254h2.173v1.7l2.131.936,1.023,1.769-.251,2.3L22.7,43.946l1.9-1.383h2.036l1.9,1.383,4.241-2.455-.251-2.3,1.023-1.769,2.131-.936v-1.7h2.159a2.257,2.257,0,0,0,2.254-2.254V22.866h2.86a.82.82,0,0,1,.819.819V45.2H7.469Z" transform="translate(0 -0.048)"/>
        <path id="Trazado_1238762" data-name="Trazado 1238762" d="M211.526,290.183a4.923,4.923,0,1,0,4.923,4.923A4.929,4.929,0,0,0,211.526,290.183Zm0,8.344a3.421,3.421,0,1,1,3.421-3.421A3.424,3.424,0,0,1,211.526,298.527Z" transform="translate(-185.907 -261.119)"/>
        <path id="Trazado_1238763" data-name="Trazado 1238763" d="M88.336,46.337l-3.658,3.658-1.29-1.29-1.063,1.063,2.353,2.352L89.4,47.4Z" transform="translate(-74.079 -41.7)"/>
        <path id="Trazado_1238764" data-name="Trazado 1238764" d="M368.335,48.317l1.063-1.063-1.973-1.973,1.973-1.973-1.063-1.063-1.973,1.973-1.973-1.973-1.063,1.063,1.973,1.973-1.973,1.973,1.063,1.063,1.973-1.973Z" transform="translate(-326.93 -38.019)"/>
      </g>
      <g id="Grupo_1238134" data-name="Grupo 1238134" transform="translate(12.947 39.127)">
        <path id="Trazado_1238765" data-name="Trazado 1238765" d="M129.25,390.156h1.5v1.5h-1.5Z" transform="translate(-129.25 -390.156)" fill="#fff"/>
        <path id="Trazado_1238766" data-name="Trazado 1238766" d="M367.25,390.156h1.5v1.5h-1.5Z" transform="translate(-343.409 -390.156)" fill="#fff"/>
      </g>
    </g>
  </g>
</svg>
