<svg xmlns="http://www.w3.org/2000/svg" xmlns:xlink="http://www.w3.org/1999/xlink" width="295" height="420" viewBox="0 0 295 420">
  <defs>
    <clipPath id="clip-path">
      <path id="influencer-their-pet-creating-content-online-spaces-social-media" d="M0,0H295V420H0Z" fill="#201640"/>
    </clipPath>
    <clipPath id="clip-path-2">
      <path id="Trazado_1238390" data-name="Trazado 1238390" d="M152.815,132.43a180.915,180.915,0,0,0,20.538,3.817c-3.857,16.3-5.468,31.307-4.612,46.7.572,10.3,3.114,16.841,10.439,24a4.023,4.023,0,0,1,.833,2.755c.1,2.532-2.957,3.044-4.78,3.949-5.31,2.635-10.463,5.576-15.666,8.4l-8.164,3.961c-16.078-39.881-9.712-67.16-2.922-94.12C149.923,132.08,151.369,132.254,152.815,132.43Z" transform="translate(-141.318 -131.894)"/>
    </clipPath>
    <clipPath id="clip-path-3">
      <path id="Trazado_1238399" data-name="Trazado 1238399" d="M154.851,183.442c-.573,3.267-1.179,6.531-1.917,9.758a1.98,1.98,0,0,0,.406,1.954,2.428,2.428,0,0,0,1.644.379,13.51,13.51,0,0,1-7.026,5.3,13.147,13.147,0,0,1-8.788-.286,11.66,11.66,0,0,1-2.514-1.181,6.807,6.807,0,0,1-1.79-2.113.236.236,0,0,1-.04-.215.249.249,0,0,1,.172-.1,2.641,2.641,0,0,0,1.788-1.177,3.038,3.038,0,0,0,.269-1.192,17.378,17.378,0,0,0,0-2.525c-.021-.287.059-.805-.282-.857a4.847,4.847,0,0,0-.891.132,5.485,5.485,0,0,1-3.083-.67c-2.415-1.343-3.717-4.218-4.011-6.866-.622-5.62,2.171-15.13,6.985-18.656,2.952-2.163,7.851-2.246,11.233-1.156,3.485,1.124,8.172,3.8,9.045,7.622a14.235,14.235,0,0,1-.131,5.317Q155.424,180.186,154.851,183.442Z" transform="translate(-128.707 -163.287)"/>
    </clipPath>
  </defs>
  <g id="Grupo_1237626" data-name="Grupo 1237626" transform="translate(-1125 -980)">
    <rect id="Rectángulo_423139" data-name="Rectángulo 423139" width="202" height="420" rx="101" transform="translate(1168 980)" fill="#c6fdfb"/>
    <g id="Enmascarar_grupo_1208517" data-name="Enmascarar grupo 1208517" transform="translate(1125 980)" clip-path="url(#clip-path)">
      <g id="OBJECTS" transform="translate(2.201 0)">
        <g id="Grupo_1237581" data-name="Grupo 1237581" transform="translate(3 155.915)">
          <g id="Grupo_1237579" data-name="Grupo 1237579" transform="translate(0 0)">
            <g id="Grupo_1237578" data-name="Grupo 1237578">
              <path id="Trazado_1238339" data-name="Trazado 1238339" d="M441.833,169.161a108.843,108.843,0,0,0-59.378-3.952c-5.827,1.256-11.7,3.073-16.336,6.7s-7.855,9.39-6.959,15.088c.75,4.769,4.253,8.828,8.5,11.37s9.194,3.756,14.105,4.649a129.076,129.076,0,0,0,48.923-.569c5.884-1.211,11.835-2.912,16.59-6.469C459.311,186.979,454.783,173.83,441.833,169.161Z" transform="translate(-359.011 -162.807)" fill="#e8e0ff"/>
            </g>
          </g>
          <g id="Grupo_1237580" data-name="Grupo 1237580" transform="translate(17.253 13.166)" opacity="0.66">
            <path id="Trazado_1238340" data-name="Trazado 1238340" d="M385.549,189.967h-2.19l-.817,4.653h-2.077l.817-4.653h-2.576v-1.953h2.916l.568-3.246h-2.633v-1.953h2.985l.829-4.722h2.066l-.829,4.722h2.2l.828-4.722h2.077l-.828,4.722h2.485v1.953h-2.837l-.568,3.246h2.542v1.953h-2.883l-.817,4.653h-2.077Zm-1.85-1.953h2.191l.568-3.246h-2.2Z" transform="translate(-378.706 -177.869)" fill="#b49eff"/>
            <path id="Trazado_1238341" data-name="Trazado 1238341" d="M406.083,190.252a1.748,1.748,0,0,0-.682-1.481,8.9,8.9,0,0,0-2.451-1.089,17.4,17.4,0,0,1-2.8-1.129q-2.815-1.52-2.815-4.1a3.992,3.992,0,0,1,.754-2.389,4.918,4.918,0,0,1,2.168-1.64,8.162,8.162,0,0,1,3.172-.59,7.442,7.442,0,0,1,3.155.641,5.025,5.025,0,0,1,2.151,1.81,4.738,4.738,0,0,1,.767,2.656h-3.4a2.228,2.228,0,0,0-.715-1.764,2.939,2.939,0,0,0-2.008-.63,3.138,3.138,0,0,0-1.941.528,1.666,1.666,0,0,0-.693,1.39,1.6,1.6,0,0,0,.811,1.351,9.192,9.192,0,0,0,2.389,1.021,10.323,10.323,0,0,1,4.234,2.168,4.319,4.319,0,0,1,1.328,3.223,3.979,3.979,0,0,1-1.623,3.366,7.1,7.1,0,0,1-4.369,1.22,8.433,8.433,0,0,1-3.472-.7,5.5,5.5,0,0,1-2.39-1.912,4.9,4.9,0,0,1-.823-2.815h3.415q0,2.736,3.269,2.736a3.176,3.176,0,0,0,1.895-.494A1.615,1.615,0,0,0,406.083,190.252Z" transform="translate(-380.953 -177.837)" fill="#b49eff"/>
            <path id="Trazado_1238342" data-name="Trazado 1238342" d="M428.523,186.7a9.958,9.958,0,0,1-.749,4.023,6.9,6.9,0,0,1-2.077,2.741l2.747,2.157-2.168,1.918-3.519-2.826a7.409,7.409,0,0,1-1.248.1,6.881,6.881,0,0,1-3.666-.987,6.567,6.567,0,0,1-2.5-2.821,9.678,9.678,0,0,1-.9-4.216v-.817a9.928,9.928,0,0,1,.879-4.3,6.551,6.551,0,0,1,2.486-2.849,7.281,7.281,0,0,1,7.343,0,6.557,6.557,0,0,1,2.486,2.849,9.9,9.9,0,0,1,.879,4.284v.738Zm-3.451-.75a6.954,6.954,0,0,0-.93-3.949,3.287,3.287,0,0,0-5.3-.018,6.865,6.865,0,0,0-.943,3.91v.806a7.04,7.04,0,0,0,.93,3.926,3.259,3.259,0,0,0,5.312.052,7,7,0,0,0,.93-3.921Z" transform="translate(-383.138 -177.837)" fill="#b49eff"/>
            <path id="Trazado_1238343" data-name="Trazado 1238343" d="M437.893,191.885h7.23v2.736H434.488V178.1h3.4v13.789Z" transform="translate(-385.623 -177.869)" fill="#b49eff"/>
          </g>
        </g>
        <g id="Grupo_1237596" data-name="Grupo 1237596" transform="translate(58.948 57.891)">
          <path id="Trazado_1238350" data-name="Trazado 1238350" d="M295.518,270.308c0,3.823,2.076,6.924,4.637,6.924s4.637-3.1,4.637-6.924-2.076-6.924-4.637-6.924S295.518,266.484,295.518,270.308Z" transform="translate(-256.361 -90.182)" fill="none" stroke="#000" stroke-linecap="round" stroke-miterlimit="10" stroke-width="1"/>
          <g id="Grupo_1237593" data-name="Grupo 1237593" transform="translate(195.751 150.59)">
            <g id="Grupo_1237592" data-name="Grupo 1237592" transform="translate(28.116 2.796)">
              <path id="Trazado_1238354" data-name="Trazado 1238354" d="M57.834,274.387a.954.954,0,1,0,.954-.932A.943.943,0,0,0,57.834,274.387Z" transform="translate(-57.834 -273.455)" stroke="#000" stroke-miterlimit="10" stroke-width="1"/>
              <path id="Trazado_1238355" data-name="Trazado 1238355" d="M57.834,279a.954.954,0,1,0,.954-.932A.943.943,0,0,0,57.834,279Z" transform="translate(-57.834 -273.404)" stroke="#000" stroke-miterlimit="10" stroke-width="1"/>
            </g>
            <path id="Trazado_1238356" data-name="Trazado 1238356" d="M65.846,276.748c0,3.345,1.92,6.057,4.289,6.057s4.288-2.712,4.288-6.057-1.92-6.058-4.288-6.058S65.846,273.4,65.846,276.748Z" transform="translate(-52.502 -270.69)" fill="none" stroke="#000" stroke-linecap="round" stroke-miterlimit="10" stroke-width="1"/>
            <path id="Trazado_1238357" data-name="Trazado 1238357" d="M79.041,276.748c0,3.345,1.92,6.057,4.289,6.057s4.289-2.712,4.289-6.057-1.92-6.058-4.289-6.058S79.041,273.4,79.041,276.748Z" transform="translate(-79.041 -270.69)" fill="none" stroke="#000" stroke-linecap="round" stroke-miterlimit="10" stroke-width="1"/>
          </g>
          <g id="Grupo_1237594" data-name="Grupo 1237594" transform="translate(0 339.833)">
            <path id="Trazado_1238358" data-name="Trazado 1238358" d="M228.126,430.149l9.766,7.224-9.224,6.114" transform="translate(-192.315 -430.149)" fill="none" stroke="#000" stroke-linecap="round" stroke-miterlimit="10" stroke-width="1"/>
            <line id="Línea_3695" data-name="Línea 3695" x2="4.341" y2="12.226" transform="translate(6.511 0.555)" fill="none" stroke="#000" stroke-linecap="round" stroke-miterlimit="10" stroke-width="1"/>
            <line id="Línea_3696" data-name="Línea 3696" x2="4.341" y2="12.226" transform="translate(0 0.555)" fill="none" stroke="#000" stroke-linecap="round" stroke-miterlimit="10" stroke-width="1"/>
            <rect id="Rectángulo_423136" data-name="Rectángulo 423136" width="10.228" height="8.663" transform="translate(18.707 2.068)"/>
          </g>
          <g id="Grupo_1237595" data-name="Grupo 1237595" transform="translate(1.285)">
            <line id="Línea_3697" data-name="Línea 3697" x2="19.193" transform="translate(15.028 6.832)" fill="none" stroke="#000" stroke-linecap="round" stroke-miterlimit="10" stroke-width="1"/>
            <path id="Trazado_1238359" data-name="Trazado 1238359" d="M272.047,94.076l-10.777,7.611,10.179,6.439" transform="translate(-261.27 -94.076)" fill="none" stroke="#000" stroke-linecap="round" stroke-miterlimit="10" stroke-width="1"/>
          </g>
        </g>
        <g id="Grupo_1237604" data-name="Grupo 1237604" transform="translate(0 47.956)">
          <path id="Trazado_1238360" data-name="Trazado 1238360" d="M231.82,155.111h43.347a2.6,2.6,0,0,0,2.6-2.6V139.846a2.6,2.6,0,0,0-2.6-2.6H231.82a2.6,2.6,0,0,0-2.6,2.6v12.665A2.6,2.6,0,0,0,231.82,155.111Z" transform="translate(-154.015 -99.35)" fill="#b49eff"/>
          <g id="Grupo_1237597" data-name="Grupo 1237597" transform="translate(33.891 9.544)">
            <line id="Línea_3698" data-name="Línea 3698" x1="6.096" y1="9.642" transform="translate(48.587 15.53)" fill="none" stroke="#000" stroke-linecap="round" stroke-linejoin="round" stroke-miterlimit="10" stroke-width="1"/>
            <line id="Línea_3699" data-name="Línea 3699" x1="5.465" y2="8.901" transform="translate(62.169 51.459)" fill="none" stroke="#000" stroke-linecap="round" stroke-linejoin="round" stroke-miterlimit="10" stroke-width="1"/>
            <line id="Línea_3700" data-name="Línea 3700" x1="15.248" y2="0.02" transform="translate(20.64 38.125)" fill="none" stroke="#000" stroke-linecap="round" stroke-linejoin="round" stroke-miterlimit="10" stroke-width="1"/>
            <line id="Línea_3701" data-name="Línea 3701" x1="6.095" y1="9.642" transform="translate(93.909 51.089)" fill="none" stroke="#000" stroke-linecap="round" stroke-linejoin="round" stroke-miterlimit="10" stroke-width="1"/>
            <line id="Línea_3702" data-name="Línea 3702" x1="21.232" y2="23.977" transform="translate(91.176)" fill="none" stroke="#000" stroke-linecap="round" stroke-linejoin="round" stroke-miterlimit="10" stroke-width="1"/>
            <line id="Línea_3703" data-name="Línea 3703" x2="0.37" y2="16.668" transform="translate(98.583 89.909)" fill="none" stroke="#000" stroke-linecap="round" stroke-linejoin="round" stroke-miterlimit="10" stroke-width="1"/>
            <line id="Línea_3704" data-name="Línea 3704" x1="5.154" y1="9.642" transform="translate(0 52.114)" fill="none" stroke="#000" stroke-linecap="round" stroke-linejoin="round" stroke-miterlimit="10" stroke-width="1"/>
          </g>
          <g id="Grupo_1237598" data-name="Grupo 1237598" transform="translate(61.981 75.124)">
            <path id="Trazado_1238361" data-name="Trazado 1238361" d="M247.319,207.168h43.347a2.6,2.6,0,0,0,2.6-2.6V191.9a2.6,2.6,0,0,0-2.6-2.6H247.319a2.6,2.6,0,0,0-2.6,2.6V204.57A2.6,2.6,0,0,0,247.319,207.168Z" transform="translate(-242.578 -189.306)" fill="#b49eff"/>
            <path id="Trazado_1238362" data-name="Trazado 1238362" d="M250.313,210.172h43.347a2.6,2.6,0,0,0,2.6-2.6V194.908a2.6,2.6,0,0,0-2.6-2.6H250.313a2.6,2.6,0,0,0-2.6,2.6v12.665A2.6,2.6,0,0,0,250.313,210.172Z" transform="translate(-247.714 -190.162)" fill="none" stroke="#000" stroke-linecap="round" stroke-linejoin="round" stroke-miterlimit="10" stroke-width="1"/>
          </g>
          <path id="Trazado_1238363" data-name="Trazado 1238363" d="M234.813,158.114H278.16a2.6,2.6,0,0,0,2.6-2.6V142.85a2.6,2.6,0,0,0-2.6-2.6H234.813a2.6,2.6,0,0,0-2.6,2.6v12.665A2.6,2.6,0,0,0,234.813,158.114Z" transform="translate(-159.149 -100.206)" fill="none" stroke="#000" stroke-linecap="round" stroke-linejoin="round" stroke-miterlimit="10" stroke-width="1"/>
          <g id="Grupo_1237599" data-name="Grupo 1237599" transform="translate(3.955 75.304)">
            <path id="Trazado_1238364" data-name="Trazado 1238364" d="M327.453,207.422H370.8a2.6,2.6,0,0,0,2.6-2.6V192.158a2.6,2.6,0,0,0-2.6-2.6H327.454a2.6,2.6,0,0,0-2.6,2.6v12.665A2.6,2.6,0,0,0,327.453,207.422Z" transform="translate(-321.991 -189.559)" fill="#b49eff"/>
            <path id="Trazado_1238365" data-name="Trazado 1238365" d="M331.459,210.426h43.347a2.6,2.6,0,0,0,2.6-2.6V195.161a2.6,2.6,0,0,0-2.6-2.6H331.459a2.6,2.6,0,0,0-2.6,2.6v12.665A2.6,2.6,0,0,0,331.459,210.426Z" transform="translate(-328.86 -190.415)" fill="none" stroke="#000" stroke-linecap="round" stroke-linejoin="round" stroke-miterlimit="10" stroke-width="1"/>
            <path id="Trazado_1238366" data-name="Trazado 1238366" d="M350.892,206.655l6.587-8.982,8.291,8.982Z" transform="translate(-332.98 -191.871)" fill="#1d1d1b"/>
          </g>
          <g id="Grupo_1237600" data-name="Grupo 1237600" transform="translate(0 37.994)">
            <path id="Trazado_1238367" data-name="Trazado 1238367" d="M332.985,155.247h43.347a2.6,2.6,0,0,0,2.6-2.6V139.982a2.6,2.6,0,0,0-2.6-2.6H332.985a2.6,2.6,0,0,0-2.6,2.6v12.665A2.6,2.6,0,0,0,332.985,155.247Z" transform="translate(-327.522 -137.383)" fill="#ff6363"/>
            <path id="Trazado_1238368" data-name="Trazado 1238368" d="M336.99,158.25h43.347a2.6,2.6,0,0,0,2.6-2.6V142.986a2.6,2.6,0,0,0-2.6-2.6H336.99a2.6,2.6,0,0,0-2.6,2.6v12.665A2.6,2.6,0,0,0,336.99,158.25Z" transform="translate(-334.391 -138.239)" fill="none" stroke="#000" stroke-linecap="round" stroke-linejoin="round" stroke-miterlimit="10" stroke-width="1"/>
            <path id="Trazado_1238369" data-name="Trazado 1238369" d="M355.17,152.6l6.587-8.982,8.291,8.982Z" transform="translate(-336.362 -139.161)" fill="#1d1d1b"/>
          </g>
          <path id="Trazado_1238370" data-name="Trazado 1238370" d="M258.415,149.584a4.865,4.865,0,1,0,4.865-4.865A4.865,4.865,0,0,0,258.415,149.584Z" transform="translate(-165.271 -101.479)" fill="#1d1d1b"/>
          <g id="Grupo_1237601" data-name="Grupo 1237601" transform="translate(91.119 119.013)">
            <path id="Trazado_1238371" data-name="Trazado 1238371" d="M205.561,268.544h43.347a2.6,2.6,0,0,0,2.6-2.6V253.281a2.6,2.6,0,0,0-2.6-2.6H205.561a2.6,2.6,0,0,0-2.6,2.6v12.665A2.6,2.6,0,0,0,205.561,268.544Z" transform="translate(-200.098 -250.682)" fill="#b49eff"/>
            <path id="Trazado_1238372" data-name="Trazado 1238372" d="M209.566,271.548h43.347a2.6,2.6,0,0,0,2.6-2.6V256.285a2.6,2.6,0,0,0-2.6-2.6H209.566a2.6,2.6,0,0,0-2.6,2.6V268.95A2.6,2.6,0,0,0,209.566,271.548Z" transform="translate(-206.967 -251.538)" fill="none" stroke="#000" stroke-linecap="round" stroke-linejoin="round" stroke-miterlimit="10" stroke-width="1"/>
            <path id="Trazado_1238373" data-name="Trazado 1238373" d="M241.293,267.876a4.86,4.86,0,0,1,0-9.718Z" transform="translate(-213.903 -252.812)" fill="#1d1d1b"/>
          </g>
          <g id="Grupo_1237602" data-name="Grupo 1237602" transform="translate(21.564)">
            <path id="Trazado_1238374" data-name="Trazado 1238374" d="M292.744,104.619H342.9a2.6,2.6,0,0,0,2.6-2.6V86.85a2.6,2.6,0,0,0-2.6-2.6H292.744a2.6,2.6,0,0,0-2.6,2.6V102.02A2.6,2.6,0,0,0,292.744,104.619Z" transform="translate(-286.88 -84.251)" fill="#b49eff"/>
            <path id="Trazado_1238375" data-name="Trazado 1238375" d="M297.31,108.043h50.158a2.6,2.6,0,0,0,2.6-2.6V90.273a2.6,2.6,0,0,0-2.6-2.6H297.31a2.6,2.6,0,0,0-2.6,2.6v15.171A2.6,2.6,0,0,0,297.31,108.043Z" transform="translate(-294.711 -85.226)" fill="none" stroke="#000" stroke-linecap="round" stroke-linejoin="round" stroke-miterlimit="10" stroke-width="1"/>
            <circle id="Elipse_12809" data-name="Elipse 12809" cx="5.548" cy="5.548" r="5.548" transform="translate(24.463 6.153)" fill="#1d1d1b"/>
          </g>
          <g id="Grupo_1237603" data-name="Grupo 1237603" transform="translate(122.168 75.124)">
            <path id="Trazado_1238376" data-name="Trazado 1238376" d="M163.152,207.168H206.5a2.6,2.6,0,0,0,2.6-2.6V191.9a2.6,2.6,0,0,0-2.6-2.6H163.152a2.6,2.6,0,0,0-2.6,2.6V204.57A2.6,2.6,0,0,0,163.152,207.168Z" transform="translate(-158.413 -189.306)" fill="#b49eff"/>
            <path id="Trazado_1238377" data-name="Trazado 1238377" d="M166.147,210.172h43.347a2.6,2.6,0,0,0,2.6-2.6V194.908a2.6,2.6,0,0,0-2.6-2.6H166.147a2.6,2.6,0,0,0-2.6,2.6v12.665A2.6,2.6,0,0,0,166.147,210.172Z" transform="translate(-163.548 -190.162)" fill="none" stroke="#000" stroke-linecap="round" stroke-linejoin="round" stroke-miterlimit="10" stroke-width="1"/>
            <rect id="Rectángulo_423137" data-name="Rectángulo 423137" width="14.97" height="6.736" transform="translate(17.872 6.09)" fill="#1d1d1b"/>
          </g>
        </g>
        <g id="Grupo_1237613" data-name="Grupo 1237613" transform="translate(145.974 18.13)">
          <path id="Trazado_1238378" data-name="Trazado 1238378" d="M74.389,413.566,97,402.411a141.965,141.965,0,0,1,.241,19.559c-.44,7.674.381,20.623-5.514,21.049-4.125.3-11.808-.453-15.973-.453a78.207,78.207,0,0,0-.325-15.6C75,422.923,74.683,418.243,74.389,413.566Z" transform="translate(37.768 -53.069)" fill="#ff6363"/>
          <path id="Trazado_1238379" data-name="Trazado 1238379" d="M123.559,448.573c.008-.068.015-.135.02-.2.294-3.594.7-6.914.645-10.56-.037-2.591.1-5.645-.867-8.077-7.135.414-14.394-.148-21.6.342-1.438.1-1.723,3.271-2.6,4.16-1.75,1.762-5.164,2.686-7.481,3.332-4.835,1.349-9.8,2.148-13.811,5.445-2.086,1.715-6.865,7.951-2.881,10.02,1.622.843,4.852.073,6.586-.007q4.3-.2,8.6-.471,16.278-1.035,32.462-3.164a1.185,1.185,0,0,0,.708-.259A.944.944,0,0,0,123.559,448.573Z" transform="translate(12.005 -51.554)" fill="#7a5ce0"/>
          <path id="Trazado_1238380" data-name="Trazado 1238380" d="M124.478,444.433q-25.412,1.976-50.709,5.185" transform="translate(11.414 -50.739)" fill="none" stroke="#000" stroke-linecap="round" stroke-linejoin="round" stroke-miterlimit="10" stroke-width="1"/>
          <path id="Trazado_1238381" data-name="Trazado 1238381" d="M102.917,441.506a6.5,6.5,0,0,1-2.969-2.462,1.241,1.241,0,0,1-.266-.827.938.938,0,0,1,1.048-.676,2.733,2.733,0,0,1,1.233.579l2.833,1.973a2.016,2.016,0,0,0,.877.418.691.691,0,0,0,.769-.458,1.766,1.766,0,0,0-.754-1.306,5.43,5.43,0,0,1-1.142-1.052,1.094,1.094,0,0,1,.078-1.419,1.138,1.138,0,0,1,.939-.154c1.584.324,2.434,2.232,4,2.633a.665.665,0,0,0,.463-.011.645.645,0,0,0,.212-.749c-.279-1.068-1.552-1.74-1.6-2.843a.811.811,0,0,1,.139-.53.943.943,0,0,1,1-.208c1.509.4,2.242,2.066,2.768,3.535" transform="translate(-3.995 -51.297)" fill="none" stroke="#000" stroke-linecap="round" stroke-linejoin="round" stroke-miterlimit="10" stroke-width="1"/>
          <path id="Trazado_1238382" data-name="Trazado 1238382" d="M81.6,440.8a2.6,2.6,0,0,1-3.179-3.915,1.754,1.754,0,0,1,.756-.608,2.458,2.458,0,0,1,1.283-.031,3.758,3.758,0,0,1,2.277,1.01,2.086,2.086,0,0,1-1.18,3.429" transform="translate(48.245 -51.196)" fill="none" stroke="#000" stroke-linecap="round" stroke-linejoin="round" stroke-miterlimit="10" stroke-width="1"/>
          <path id="Trazado_1238383" data-name="Trazado 1238383" d="M140.406,412.824l22.611-11.155a141.964,141.964,0,0,1,.241,19.559c-.44,7.674.381,20.622-5.514,21.049-4.125.3-11.808-.453-15.973-.453a78.283,78.283,0,0,0-.325-15.6C141.018,422.181,140.7,417.5,140.406,412.824Z" transform="translate(-97.927 -53.111)" fill="#ff6363"/>
          <path id="Trazado_1238384" data-name="Trazado 1238384" d="M189.575,447.831c.008-.068.015-.135.02-.2.294-3.594.7-6.914.645-10.56-.037-2.591.1-5.645-.867-8.077-7.135.414-14.394-.148-21.6.342-1.438.1-1.723,3.271-2.6,4.16-1.75,1.762-5.164,2.686-7.481,3.332-4.835,1.349-9.8,2.148-13.811,5.445-2.086,1.715-6.865,7.95-2.881,10.02,1.622.842,4.852.073,6.586-.007q4.3-.2,8.6-.471,16.278-1.035,32.462-3.164a1.185,1.185,0,0,0,.708-.259A.951.951,0,0,0,189.575,447.831Z" transform="translate(-123.689 -51.595)" fill="#7a5ce0"/>
          <g id="Grupo_1237612" data-name="Grupo 1237612">
            <path id="Trazado_1238385" data-name="Trazado 1238385" d="M171.569,95.1c-.148,1.1-.27,2.21-.321,3.331-.477,10.5-1.757,20.943-1.934,31.485-.126,7.515-.388,23.521-11.61,22.938a17.61,17.61,0,0,1-6.764-2.2c-2.137-1.061-4.387-2.325-5.393-4.488-1.033-2.218-.5-4.812.045-7.2q2.448-10.633,4.894-21.265c1.483-6.443,3.674-12.836,4.4-19.421.186-1.693.033-6.319,2.272-6.836a1.55,1.55,0,0,1,1.617.665,5.159,5.159,0,0,1,.436-1.689,1.739,1.739,0,0,1,1.351-.993c.92-.057,1.587.829,2.071,1.614a6.277,6.277,0,0,1,.549-1.813,2.129,2.129,0,0,1,1.439-1.142,2.072,2.072,0,0,1,1.848.795,4.964,4.964,0,0,1,.876,1.9c.283,1.017.2,3.349.889,4.057.836-.919.913-2.706.853-3.905a20.18,20.18,0,0,0-.756-4.064,2.815,2.815,0,0,1,.118-2.448c2.257-2.851,4.075,2.894,3.952,4.437C172.232,90.921,171.852,92.995,171.569,95.1Z" transform="translate(-111.648 -70.751)" fill="#ff6363"/>
            <path id="Trazado_1238386" data-name="Trazado 1238386" d="M152.815,132.43a180.915,180.915,0,0,0,20.538,3.817c-3.857,16.3-5.468,31.307-4.612,46.7.572,10.3,3.114,16.841,10.439,24a4.023,4.023,0,0,1,.833,2.755c.1,2.532-2.957,3.044-4.78,3.949-5.31,2.635-10.463,5.576-15.666,8.4l-8.164,3.961c-16.078-39.881-9.712-67.16-2.922-94.12C149.923,132.08,151.369,132.254,152.815,132.43Z" transform="translate(-115.419 -68.074)" fill="#7a5ce0"/>
            <path id="Trazado_1238387" data-name="Trazado 1238387" d="M102.933,103.554h95.406a3.836,3.836,0,0,0,3.837-3.836V75.265a3.837,3.837,0,0,0-3.837-3.837H102.933A3.836,3.836,0,0,0,99.1,75.264V99.717A3.838,3.838,0,0,0,102.933,103.554Z" transform="translate(-93.015 -71.428)" fill="#b49eff"/>
            <path id="Trazado_1238388" data-name="Trazado 1238388" d="M108.695,107.213H204.1a3.836,3.836,0,0,0,3.836-3.836V78.925a3.836,3.836,0,0,0-3.836-3.836H108.695a3.836,3.836,0,0,0-3.837,3.836v24.453A3.837,3.837,0,0,0,108.695,107.213Z" transform="translate(-104.858 -71.225)" fill="none" stroke="#000" stroke-linecap="round" stroke-linejoin="round" stroke-miterlimit="10" stroke-width="1"/>
            <g id="Grupo_1237606" data-name="Grupo 1237606" transform="translate(25.899 63.82)">
              <g id="Grupo_1237605" data-name="Grupo 1237605" clip-path="url(#clip-path-2)">
                <path id="Trazado_1238389" data-name="Trazado 1238389" d="M180.072,180.118c-3.188.281-8.39-1.978-7.82-5.819a5.227,5.227,0,0,1,.706-1.728c1.781-3.2,3.939-5.876,7.92-3.291a8.26,8.26,0,0,1,3.242,4.686,5.68,5.68,0,0,1,.22,2.7,4.72,4.72,0,0,1-4.237,3.448Z" transform="translate(-178.329 -129.878)"/>
              </g>
            </g>
            <g id="Grupo_1237611" data-name="Grupo 1237611" transform="translate(24.612 13.812)">
              <path id="Trazado_1238391" data-name="Trazado 1238391" d="M150.035,304.874l-.307-1.054c-3.078-10.574-6.189-21.138-9.234-31.721-1.917-6.662-.672-14.282-2.469-20.334-3.729-12.564-33.6-7.332-44.625-8.486-5.774-.6-15.635-3.536-20.51,1.069-4.363,4.122-4.509,14.419-5.521,20.061-4.8,26.738-3.125,54.162-1.432,81.275q1.7,27.3,3.408,54.6c.617,9.894.476,20.153,2.4,29.817,14.229,2.74,30.816,1,45.147-.6l-8.752-68.1c-2.756-21.441-5.766-42.969-6.663-64.605,2.211,10.5,6.431,20.755,9.427,31.079,3.4,11.7,6.543,23.476,10.035,35.15,1.786,5.97,17.813,67.414,20.117,67.254l44.527-3.306Q167.806,365.922,150.035,304.874Z" transform="translate(-64.216 -75.79)"/>
              <path id="Trazado_1238392" data-name="Trazado 1238392" d="M119.651,200.063a43.626,43.626,0,0,1,14.86-5.457c6.053-1.107,11.831-1.04,18.638-.782,7.353.278,12.215,2.15,17.281,7.768,6,6.647,7.766,14.821,8.392,23.476q1.146,15.838,2.295,31.678c-24.877-.711-50.533.268-75.258-2.294-3.087-.321,5.123-39.693,5.8-43.011a18.557,18.557,0,0,1,2.047-6.167,15.4,15.4,0,0,1,4.906-4.559C118.959,200.493,119.305,200.274,119.651,200.063Z" transform="translate(-102.978 -78.46)" fill="#7a5ce0"/>
              <g id="Grupo_1237609" data-name="Grupo 1237609" transform="translate(25.74 73.897)">
                <path id="Trazado_1238393" data-name="Trazado 1238393" d="M143.318,169.918a15.531,15.531,0,0,0-.041,2.678,3.126,3.126,0,0,0,.654,1.962c2.17,2.31,6.952-5.672,7.8-7.106,1.213-2.059,2.511-4.935,1.966-7.379a3.308,3.308,0,0,0-2.805-2.659c-1.552-.073-3.181,1.784-3.945,2.943A21.567,21.567,0,0,0,143.318,169.918Z" transform="translate(-141.606 -154.367)"/>
                <path id="Trazado_1238394" data-name="Trazado 1238394" d="M147.309,163.614q.7.334,1.371.706c2.432,1.346,5.119,3.091,5.578,6.064a27.647,27.647,0,0,1,.293,4.2,70.334,70.334,0,0,1-.677,8.448q-.442,3.66-.884,7.321c-.131,1.08-.823,4.283.393,4.971a1.487,1.487,0,0,0,.625.13,5.577,5.577,0,0,1,1.26.248c-.049-.016-1.346,1.592-1.545,1.737-.563.413-1.063.908-1.62,1.336a13.353,13.353,0,0,1-4.051,2.135,13.147,13.147,0,0,1-8.788-.286,11.662,11.662,0,0,1-2.514-1.181,5.844,5.844,0,0,1-1.625-1.829,1.231,1.231,0,0,1,.551-1.712,3.685,3.685,0,0,0,.685-.435,2.2,2.2,0,0,0,.838-1.429c.084-.83.252-2.47-.5-2.96-.789-.517-2.262-.525-3.177-.955-3.284-1.545-3.946-4.332-3.762-7.742a37.99,37.99,0,0,1,1.968-10.17c.7-2.069,1.59-4.083,2.1-6.207a6.4,6.4,0,0,1,.869-2.394c.74-.992,1.63-.907,2.705-1.045,1.028-.133,1.99-.52,3.058-.569A14.591,14.591,0,0,1,147.309,163.614Z" transform="translate(-128.799 -154.114)" fill="#ff6363"/>
                <path id="Trazado_1238395" data-name="Trazado 1238395" d="M150.4,192.336a32.546,32.546,0,0,1-4.121,6.051c-1.673,1.969-3.118,1.491-5.425.551a24.11,24.11,0,0,0-12.124-1.578,4.793,4.793,0,0,1-1.636.04c-1.548-.342-1.812-2.192-2.2-3.472-1.03-3.407-.526-6.8-.978-10.281a10.673,10.673,0,0,0-1.471-4.316c-.751-1.186-1.924-1.748-2.781-2.781-1.985-2.392.667-5.484-1.087-7.586a8.476,8.476,0,0,0-3.629-2.075c-2.6-.876-6.218-.986-7.741-3.655a5.157,5.157,0,0,1,.949-5.825,9.519,9.519,0,0,1,5.588-2.671,17.091,17.091,0,0,1,13.372,3.59c1.995,1.632,3.508,3.95,5.854,5.032,2.556,1.181,5.371,1.806,7.73,3.4a42.224,42.224,0,0,1,3.466,2.894c3.117,2.629,7.22,5.548,8.638,9.548,1.253,3.533.179,7.46-1.328,10.892C151.139,190.846,150.781,191.6,150.4,192.336Z" transform="translate(-102.535 -154.527)"/>
                <path id="Trazado_1238396" data-name="Trazado 1238396" d="M138.22,178.076c-.646,2.462-4.783,4.285-5.65,1.084-.5-1.844.363-4.931,2.582-5.171C137.28,173.76,138.713,176.2,138.22,178.076Z" transform="translate(-114.695 -153.449)" fill="#ff6363"/>
                <path id="Trazado_1238397" data-name="Trazado 1238397" d="M137.067,176.69a1.265,1.265,0,0,0-.739-.69,2.232,2.232,0,0,0-1.8.1,2.93,2.93,0,0,0-1.278,1.306" transform="translate(-114.305 -153.344)" fill="none" stroke="#000" stroke-linecap="round" stroke-linejoin="round" stroke-miterlimit="10" stroke-width="1"/>
                <g id="Grupo_1237608" data-name="Grupo 1237608" transform="translate(0 9.246)">
                  <g id="Grupo_1237607" data-name="Grupo 1237607" clip-path="url(#clip-path-3)">
                    <path id="Trazado_1238398" data-name="Trazado 1238398" d="M143.6,190.07a6.646,6.646,0,0,0,3.615-.754,4.726,4.726,0,0,1,1.775-.753.681.681,0,0,1,.632.226c.207.311-.085.725-.413.907s-.729.288-.927.606c-.186.3-.131.7-.293,1.008a1.627,1.627,0,0,1-1.185.649,13.249,13.249,0,0,0-3,.937" transform="translate(-137.855 -161.885)"/>
                  </g>
                </g>
              </g>
              <g id="Grupo_1237610" data-name="Grupo 1237610" transform="translate(57.503)">
                <path id="Trazado_1238400" data-name="Trazado 1238400" d="M112.612,95.591c.395,1.39.735,2.8,1.108,4.2,2.953,11.052,6.514,21.971,9.781,32.956q.7,2.348,1.4,4.7c1.07,3.591,2.143,7.444,1.014,11.017-1.263,4-5.208,6.79-9.354,7.426a17.052,17.052,0,0,1-8.165-.909c-3.186-1.111-3.773-2-4.724-5.134-1.554-5.12-.555-11.6-1.008-16.977a163.2,163.2,0,0,0-2.545-18.047c-1.328-6.688-2.632-13.37-5.1-19.759a6.417,6.417,0,0,1-.5-1.734,2.04,2.04,0,0,1,.54-1.663,1.669,1.669,0,0,1,2.4.4,3.283,3.283,0,0,1-.659-1.54,2.507,2.507,0,0,1,.255-1.585c.791-1.027,2.5.309,3.161.832-.568-.715-1.408-1.812-1.212-2.791a1.3,1.3,0,0,1,.94-1.012,1.909,1.909,0,0,1,1.292.3,13.879,13.879,0,0,1,3.355,2.97,35.911,35.911,0,0,1,3.788,5.129,12.449,12.449,0,0,0-3.874-7.068c-.608-.589-1.6-.986-1.126-2.034a1.458,1.458,0,0,1,1.6-.709,6.629,6.629,0,0,1,2.547,1.619,15.8,15.8,0,0,1,4.048,6.306A32.687,32.687,0,0,1,112.612,95.591Z" transform="translate(-94.515 -84.514)" fill="#ff6363"/>
                <path id="Trazado_1238401" data-name="Trazado 1238401" d="M111.664,97.977" transform="translate(-97.884 -83.767)" fill="none" stroke="#000" stroke-linecap="round" stroke-linejoin="round" stroke-miterlimit="10" stroke-width="1"/>
                <path id="Trazado_1238402" data-name="Trazado 1238402" d="M113.131,93.5" transform="translate(-100.899 -84.015)" fill="none" stroke="#000" stroke-linecap="round" stroke-linejoin="round" stroke-miterlimit="10" stroke-width="1"/>
              </g>
            </g>
            <path id="Trazado_1238403" data-name="Trazado 1238403" d="M114.075,176.054c2.965-14.027,2.576-28.564.7-42.795.078.013.156.026.234.038q2.847.445,5.7.865c7.352-.43,12.9-2.4,19.629-1.187,6,28.355,1.172,64.173-14.127,88.8-4.3,6.915-9.763,13.688-17.426,16.441-6.734-7.684-11.823-13.876-16.657-22.877C103.708,205.389,110.917,190.994,114.075,176.054Z" transform="translate(-26.315 -68.036)" fill="#7a5ce0"/>
            <rect id="Rectángulo_423138" data-name="Rectángulo 423138" width="33.613" height="9.637" transform="translate(34.3 11.421)" fill="#1d1d1b"/>
            <path id="Trazado_1238404" data-name="Trazado 1238404" d="M118.706,91.313a22.814,22.814,0,0,1,3.767,7.27" transform="translate(-34.011 -70.325)" fill="none" stroke="#1c1c1b" stroke-linecap="round" stroke-linejoin="round" stroke-miterlimit="10" stroke-width="1"/>
            <path id="Trazado_1238405" data-name="Trazado 1238405" d="M114.419,89.208c2.215,2.375,4.5,4.864,5.453,7.969" transform="translate(-26.885 -70.442)" fill="none" stroke="#1c1c1b" stroke-linecap="round" stroke-linejoin="round" stroke-miterlimit="10" stroke-width="1"/>
            <path id="Trazado_1238406" data-name="Trazado 1238406" d="M111.081,93.682a6.525,6.525,0,0,0,.5,1.539" transform="translate(-15.069 -70.194)" fill="none" stroke="#1c1c1b" stroke-linecap="round" stroke-linejoin="round" stroke-miterlimit="10" stroke-width="1"/>
            <path id="Trazado_1238407" data-name="Trazado 1238407" d="M107.4,90.913a2.457,2.457,0,0,0-.8-.838,1.42,1.42,0,0,0-1.838.234,2.289,2.289,0,0,0-.08,1.85,23.756,23.756,0,0,1,.5,5.15,36.7,36.7,0,0,0-.076,4.785,2.215,2.215,0,0,0,.756,1.625,1.5,1.5,0,0,0,1.6-.059,2.888,2.888,0,0,0,1.024-1.315A8.991,8.991,0,0,0,109,98.157C108.863,95.946,108.58,92.839,107.4,90.913Z" transform="translate(-5.611 -70.406)" fill="#ff6363"/>
            <path id="Trazado_1238408" data-name="Trazado 1238408" d="M106.952,91.265a26.27,26.27,0,0,1,2,6.562" transform="translate(-8.089 -70.328)" fill="none" stroke="#1c1c1b" stroke-linecap="round" stroke-linejoin="round" stroke-miterlimit="10" stroke-width="1"/>
            <path id="Trazado_1238409" data-name="Trazado 1238409" d="M152.755,181.347a4.717,4.717,0,0,1-4.728,1.24,1.846,1.846,0,0,1-.988-.62" transform="translate(-94.198 -65.331)" fill="none" stroke="#000" stroke-linecap="round" stroke-linejoin="round" stroke-miterlimit="10" stroke-width="1"/>
            <path id="Trazado_1238410" data-name="Trazado 1238410" d="M109.651,216.669q-.762,2.272-1.522,4.545" transform="translate(-10.025 -63.372)" fill="none" stroke="#000" stroke-linecap="round" stroke-linejoin="round" stroke-miterlimit="10" stroke-width="1"/>
            <path id="Trazado_1238411" data-name="Trazado 1238411" d="M169.152,211.362a41.335,41.335,0,0,1,2.753,8.478" transform="translate(-136.687 -63.666)" fill="none" stroke="#000" stroke-linecap="round" stroke-linejoin="round" stroke-miterlimit="10" stroke-width="1"/>
            <path id="Trazado_1238412" data-name="Trazado 1238412" d="M104.529,171.354a4.218,4.218,0,0,0-3.067-3.037,3.986,3.986,0,0,0-3.921,2.059,7.289,7.289,0,0,0-.712,4.574c.305,2.431,2.4,6.541,5.527,5.383C105.131,179.309,105.223,173.623,104.529,171.354Z" transform="translate(6.749 -66.056)"/>
          </g>
          <path id="Trazado_1238413" data-name="Trazado 1238413" d="M190.494,443.691q-25.412,1.976-50.709,5.186" transform="translate(-124.28 -50.78)" fill="none" stroke="#000" stroke-linecap="round" stroke-linejoin="round" stroke-miterlimit="10" stroke-width="1"/>
          <path id="Trazado_1238414" data-name="Trazado 1238414" d="M168.934,440.764a6.5,6.5,0,0,1-2.969-2.462,1.241,1.241,0,0,1-.266-.827.94.94,0,0,1,1.048-.676,2.733,2.733,0,0,1,1.233.579l2.833,1.973a2.015,2.015,0,0,0,.878.418.689.689,0,0,0,.768-.458,1.764,1.764,0,0,0-.754-1.3,5.376,5.376,0,0,1-1.142-1.052,1.094,1.094,0,0,1,.078-1.419,1.138,1.138,0,0,1,.939-.154c1.584.324,2.434,2.232,4,2.633a.665.665,0,0,0,.463-.011.645.645,0,0,0,.212-.749c-.279-1.068-1.552-1.74-1.6-2.843a.817.817,0,0,1,.138-.53.943.943,0,0,1,1-.208c1.509.4,2.242,2.066,2.768,3.535" transform="translate(-139.69 -51.338)" fill="none" stroke="#000" stroke-linecap="round" stroke-linejoin="round" stroke-miterlimit="10" stroke-width="1"/>
          <path id="Trazado_1238415" data-name="Trazado 1238415" d="M147.622,440.061a2.6,2.6,0,0,1-3.179-3.915,1.762,1.762,0,0,1,.756-.608,2.469,2.469,0,0,1,1.283-.031,3.758,3.758,0,0,1,2.277,1.01,2.087,2.087,0,0,1-1.181,3.429" transform="translate(-87.451 -51.237)" fill="none" stroke="#000" stroke-linecap="round" stroke-linejoin="round" stroke-miterlimit="10" stroke-width="1"/>
          <path id="Trazado_1238416" data-name="Trazado 1238416" d="M147.328,299a170.927,170.927,0,0,1-3.874-25.617" transform="translate(-84.986 -60.226)" fill="none" stroke="#7a5ce0" stroke-linecap="round" stroke-linejoin="round" stroke-miterlimit="10" stroke-width="1"/>
          <path id="Trazado_1238417" data-name="Trazado 1238417" d="M130.112,194.253a7.115,7.115,0,0,0,3.683,4.418,13.964,13.964,0,0,0,10.373.533,10.5,10.5,0,0,0,1.949-.826,14.259,14.259,0,0,0,4.048-3.844" transform="translate(-73.742 -64.615)" fill="none" stroke="#000" stroke-linecap="round" stroke-linejoin="round" stroke-miterlimit="10" stroke-width="1"/>
        </g>
        <path id="Trazado_1238465" data-name="Trazado 1238465" d="M291.948,0H0" transform="translate(0 419.577)" fill="none" stroke="#000" stroke-linecap="round" stroke-width="1"/>
        <g id="Grupo_1237620" data-name="Grupo 1237620" transform="translate(0 204.138)">
          <g id="Grupo_1237614" data-name="Grupo 1237614" transform="translate(0 6.089)">
            <path id="Trazado_1238418" data-name="Trazado 1238418" d="M207.534,307.193h25.144c1.574,0,2.85,1.686,2.85,3.766h0c0,2.08-1.276,3.766-2.85,3.766H207.534c-1.574,0-2.85-1.686-2.85-3.766h0C204.684,308.878,205.96,307.193,207.534,307.193Z" transform="translate(-73.427 -237.683)" fill="#1d1d1b"/>
            <path id="Trazado_1238419" data-name="Trazado 1238419" d="M259.3,307.193h18.665c1.488,0,2.818,1.438,2.959,3.4.162,2.246-1.17,4.135-2.836,4.135H259.3c-1.574,0-2.85-1.686-2.85-3.766h0C256.453,308.878,257.729,307.193,259.3,307.193Z" transform="translate(-155.395 -237.683)" fill="#7a5ce0"/>
            <path id="Trazado_1238420" data-name="Trazado 1238420" d="M358.971,310.958h0c0,2.08-1.276,3.766-2.85,3.766H301.275c-1.574,0-2.85-1.686-2.85-3.766h0c0-2.08,1.276-3.766,2.85-3.766h54.846C357.695,307.193,358.971,308.878,358.971,310.958Z" transform="translate(-263.062 -237.683)" fill="#1d1d1b"/>
            <path id="Trazado_1238421" data-name="Trazado 1238421" d="M396.189,307.193h17.528c1.574,0,2.85,1.686,2.85,3.766h0c0,2.08-1.276,3.766-2.85,3.766H396.189c-1.574,0-2.85-1.686-2.85-3.766h0C393.339,308.878,394.615,307.193,396.189,307.193Z" transform="translate(-387.678 -237.683)" fill="#7a5ce0"/>
            <path id="Trazado_1238422" data-name="Trazado 1238422" d="M325.543,326.622h49.9c1.574,0,2.85,1.686,2.85,3.766h0c0,2.08-1.276,3.766-2.85,3.766h-49.9c-1.574,0-2.85-1.686-2.85-3.766h0C322.693,328.308,323.969,326.622,325.543,326.622Z" transform="translate(-299.515 -238.573)" fill="#7a5ce0"/>
            <path id="Trazado_1238423" data-name="Trazado 1238423" d="M424.589,330.388h0c0,2.08-1.276,3.766-2.85,3.766H411.116c-1.574,0-2.85-1.686-2.85-3.766h0c0-2.08,1.276-3.766,2.85-3.766H421.74C423.313,326.622,424.589,328.308,424.589,330.388Z" transform="translate(-406.241 -238.573)" fill="#7a5ce0"/>
            <path id="Trazado_1238424" data-name="Trazado 1238424" d="M301.275,326.622h6.28c1.574,0,2.85,1.686,2.85,3.766h0c0,2.08-1.276,3.766-2.85,3.766h-6.28c-1.574,0-2.85-1.686-2.85-3.766h0C298.424,328.308,299.7,326.622,301.275,326.622Z" transform="translate(-214.496 -238.573)" fill="#1d1d1b"/>
            <path id="Trazado_1238425" data-name="Trazado 1238425" d="M275.376,345.788h6.28c1.574,0,2.85,1.686,2.85,3.766h0c0,2.08-1.276,3.766-2.85,3.766h-6.28c-1.574,0-2.85-1.686-2.85-3.766h0C272.526,347.474,273.8,345.788,275.376,345.788Z" transform="translate(-170.309 -239.451)" fill="#ff6363"/>
            <path id="Trazado_1238426" data-name="Trazado 1238426" d="M247.328,330.388h0c0,2.08-1.248,3.766-2.787,3.766H189.765c-1.539,0-2.787-1.686-2.787-3.766h0c0-2.08,1.248-3.766,2.787-3.766h54.776C246.081,326.622,247.328,328.308,247.328,330.388Z" transform="translate(-72.725 -238.573)" fill="#1d1d1b"/>
            <path id="Trazado_1238427" data-name="Trazado 1238427" d="M167.534,326.622h.773c1.574,0,2.85,1.686,2.85,3.766h0c0,2.08-1.276,3.766-2.85,3.766h-.773c-1.574,0-2.85-1.686-2.85-3.766h0C164.684,328.308,165.96,326.622,167.534,326.622Z" transform="translate(19.188 -238.573)" fill="#7a5ce0"/>
            <path id="Trazado_1238428" data-name="Trazado 1238428" d="M231.234,349.817h0a3.6,3.6,0,0,1-3.4,3.766H167.786a3.6,3.6,0,0,1-3.4-3.766h0a3.6,3.6,0,0,1,3.4-3.766H227.83A3.6,3.6,0,0,1,231.234,349.817Z" transform="translate(-40.675 -239.463)" fill="#ff6363"/>
            <path id="Trazado_1238429" data-name="Trazado 1238429" d="M366.448,349.817h0c0,2.08-.914,3.766-2.043,3.766H305.177c-1.128,0-2.043-1.686-2.043-3.766h0c0-2.08.914-3.766,2.043-3.766H364.4C365.533,346.052,366.448,347.738,366.448,349.817Z" transform="translate(-273.864 -239.463)" fill="#1d1d1b"/>
            <path id="Trazado_1238430" data-name="Trazado 1238430" d="M424.609,349.817h0c0,2.08-1.276,3.766-2.85,3.766H404.291c-1.574,0-2.85-1.686-2.85-3.766h0c0-2.08,1.276-3.766,2.85-3.766h17.468C423.333,346.052,424.609,347.738,424.609,349.817Z" transform="translate(-401.441 -239.463)" fill="#1d1d1b"/>
            <path id="Trazado_1238431" data-name="Trazado 1238431" d="M396.945,369.247h0c0,2.08-1.276,3.766-2.85,3.766H332.014c-1.574,0-2.85-1.686-2.85-3.766h0c0-2.08,1.276-3.766,2.85-3.766h62.081C395.669,365.481,396.945,367.167,396.945,369.247Z" transform="translate(-322.741 -240.353)" fill="#ff6363"/>
            <path id="Trazado_1238432" data-name="Trazado 1238432" d="M239.565,369.247h0c0,2.08-1.276,3.766-2.85,3.766H189.1c-1.574,0-2.85-1.686-2.85-3.766h0c0-2.08,1.276-3.766,2.85-3.766h47.611C238.289,365.481,239.565,367.167,239.565,369.247Z" transform="translate(-64.452 -240.353)" fill="#1d1d1b"/>
            <path id="Trazado_1238433" data-name="Trazado 1238433" d="M301.259,369.247h0c0,2.08-1.276,3.766-2.85,3.766H269.457c-1.574,0-2.85-1.686-2.85-3.766h0c0-2.08,1.276-3.766,2.85-3.766h28.952C299.982,365.481,301.259,367.167,301.259,369.247Z" transform="translate(-182.883 -240.353)" fill="#7a5ce0"/>
            <path id="Trazado_1238434" data-name="Trazado 1238434" d="M226.735,388.677h0c0,2.08-1.276,3.766-2.85,3.766H219.3c-1.574,0-2.85-1.686-2.85-3.766h0c0-2.08,1.276-3.766,2.85-3.766h4.581C225.458,384.911,226.735,386.6,226.735,388.677Z" transform="translate(-72.945 -241.243)" fill="#1d1d1b"/>
            <path id="Trazado_1238435" data-name="Trazado 1238435" d="M167.557,388.677c0-2.08,1.248-3.766,2.787-3.766h21.9c1.574,0,2.85,1.686,2.85,3.766s-1.276,3.766-2.85,3.766h-21.9c-1.539,0-2.787-1.687-2.787-3.766Z" transform="translate(-6.772 -241.243)" fill="#7a5ce0"/>
            <path id="Trazado_1238436" data-name="Trazado 1238436" d="M245.927,388.677h0c0,2.08-1.276,3.766-2.85,3.766h-3.819c-1.574,0-2.85-1.686-2.85-3.766h0c0-2.08,1.276-3.766,2.85-3.766h3.819C244.651,384.911,245.927,386.6,245.927,388.677Z" transform="translate(-106.227 -241.243)" fill="#1d1d1b"/>
            <path id="Trazado_1238437" data-name="Trazado 1238437" d="M298.312,388.677h0c0,2.08-1.276,3.766-2.85,3.766H258.133c-1.574,0-2.85-1.686-2.85-3.766h0c0-2.08,1.276-3.766,2.85-3.766h37.329C297.036,384.911,298.312,386.6,298.312,388.677Z" transform="translate(-171.94 -241.243)" fill="#ff6363"/>
            <path id="Trazado_1238438" data-name="Trazado 1238438" d="M344.27,388.677h0c0,2.08-1.276,3.766-2.85,3.766H327.7c-1.574,0-2.85-1.686-2.85-3.766h0c0-2.08,1.276-3.766,2.85-3.766H341.42C342.994,384.911,344.27,386.6,344.27,388.677Z" transform="translate(-267.021 -241.243)" fill="#7a5ce0"/>
            <path id="Trazado_1238439" data-name="Trazado 1238439" d="M384.018,388.677h0c0,2.08-1.276,3.766-2.85,3.766h-14.1c-1.574,0-2.85-1.686-2.85-3.766h0c0-2.08,1.276-3.766,2.85-3.766h14.1C382.742,384.911,384.018,386.6,384.018,388.677Z" transform="translate(-334.566 -241.243)" fill="#1d1d1b"/>
            <path id="Trazado_1238440" data-name="Trazado 1238440" d="M419.608,388.677h0c0,2.08-1.276,3.766-2.85,3.766h-7.627c-1.574,0-2.85-1.686-2.85-3.766h0c0-2.08,1.276-3.766,2.85-3.766h7.627C418.332,384.911,419.608,386.6,419.608,388.677Z" transform="translate(-399.858 -241.243)" fill="#1d1d1b"/>
            <path id="Trazado_1238441" data-name="Trazado 1238441" d="M252.785,408.106h0c0,2.08-1.276,3.766-2.85,3.766H214.793c-1.574,0-2.85-1.686-2.85-3.766h0c0-2.08,1.276-3.766,2.85-3.766h35.143C251.509,404.341,252.785,406.027,252.785,408.106Z" transform="translate(-95.81 -242.134)" fill="#7a5ce0"/>
            <path id="Trazado_1238442" data-name="Trazado 1238442" d="M292.21,408.106h0c0,2.08-1.276,3.766-2.85,3.766h-5.342c-1.574,0-2.85-1.686-2.85-3.766h0c0-2.08,1.276-3.766,2.85-3.766h5.342C290.934,404.341,292.21,406.027,292.21,408.106Z" transform="translate(-184.116 -242.134)" fill="#7a5ce0"/>
            <path id="Trazado_1238443" data-name="Trazado 1238443" d="M345.313,408.106h0c0,2.08-1.276,3.766-2.85,3.766H315.641c-1.574,0-2.85-1.686-2.85-3.766h0c0-2.08,1.276-3.766,2.85-3.766h26.822C344.037,404.341,345.313,406.027,345.313,408.106Z" transform="translate(-259.548 -242.134)" fill="#1d1d1b"/>
            <path id="Trazado_1238444" data-name="Trazado 1238444" d="M393.689,408.106h0c0,2.08-1.276,3.766-2.85,3.766H369.884c-1.574,0-2.85-1.686-2.85-3.766h0c0-2.08,1.276-3.766,2.85-3.766h20.955C392.413,404.341,393.689,406.027,393.689,408.106Z" transform="translate(-346.226 -242.134)" fill="#ff6363"/>
            <path id="Trazado_1238445" data-name="Trazado 1238445" d="M402.682,254.9h0c0,2.08-1.276,3.766-2.85,3.766H337.751c-1.574,0-2.85-1.686-2.85-3.766h0c0-2.08,1.276-3.766,2.85-3.766h62.081C401.406,251.133,402.682,252.819,402.682,254.9Z" transform="translate(-332.529 -235.114)" fill="#1d1d1b"/>
            <path id="Trazado_1238446" data-name="Trazado 1238446" d="M355.1,234.345h7.589c1.574,0,2.85,1.686,2.85,3.766h0c0,2.08-1.276,3.766-2.85,3.766H355.1c-1.574,0-2.85-1.686-2.85-3.766h0C352.245,236.031,353.521,234.345,355.1,234.345Z" transform="translate(-307.629 -234.345)" fill="#ff6363"/>
            <path id="Trazado_1238447" data-name="Trazado 1238447" d="M302.27,234.345h25.773c1.574,0,2.85,1.686,2.85,3.766h0c0,2.08-1.276,3.766-2.85,3.766H302.27c-1.574,0-2.85-1.686-2.85-3.766h0C299.42,236.031,300.7,234.345,302.27,234.345Z" transform="translate(-235.687 -234.345)" fill="#7a5ce0"/>
            <path id="Trazado_1238448" data-name="Trazado 1238448" d="M415.154,238.111h0c0,2.08-1.276,3.766-2.85,3.766H380.189c-1.574,0-2.85-1.686-2.85-3.766h0c0-2.08,1.276-3.766,2.85-3.766H412.3C413.878,234.345,415.154,236.031,415.154,238.111Z" transform="translate(-374.967 -234.345)" fill="#7a5ce0"/>
            <path id="Trazado_1238449" data-name="Trazado 1238449" d="M350.006,274.328h0c0,2.08-1.276,3.766-2.85,3.766H333.436c-1.574,0-2.85-1.686-2.85-3.766h0c0-2.08,1.276-3.766,2.85-3.766h13.721C348.73,270.562,350.006,272.248,350.006,274.328Z" transform="translate(-276.807 -236.004)" fill="#ff6363"/>
            <path id="Trazado_1238450" data-name="Trazado 1238450" d="M389.755,274.328h0c0,2.08-1.276,3.766-2.85,3.766H372.8c-1.574,0-2.85-1.686-2.85-3.766h0c0-2.08,1.276-3.766,2.85-3.766h14.1C388.479,270.562,389.755,272.248,389.755,274.328Z" transform="translate(-344.354 -236.004)" fill="#1d1d1b"/>
            <path id="Trazado_1238451" data-name="Trazado 1238451" d="M425.781,274.328h0c0,2.08-1.276,3.766-2.85,3.766H412.545c-1.574,0-2.85-1.686-2.85-3.766h0c0-2.08,1.276-3.766,2.85-3.766h10.386C424.505,270.562,425.781,272.248,425.781,274.328Z" transform="translate(-408.442 -236.004)" fill="#ff6363"/>
            <path id="Trazado_1238452" data-name="Trazado 1238452" d="M370.792,293.757h0c0,2.08-1.276,3.766-2.85,3.766h-16c-1.574,0-2.85-1.686-2.85-3.766h0c0-2.08,1.276-3.766,2.85-3.766h16C369.516,289.992,370.792,291.678,370.792,293.757Z" transform="translate(-310.656 -236.895)" fill="#ff6363"/>
            <path id="Trazado_1238453" data-name="Trazado 1238453" d="M297.947,293.757h0c0,2.08-1.276,3.766-2.85,3.766h-5.342c-1.574,0-2.85-1.686-2.85-3.766h0c0-2.08,1.276-3.766,2.85-3.766H295.1C296.671,289.992,297.947,291.678,297.947,293.757Z" transform="translate(-193.904 -236.895)" fill="#7a5ce0"/>
            <path id="Trazado_1238454" data-name="Trazado 1238454" d="M327.61,293.757h0c0,2.08-1.276,3.766-2.85,3.766H312.944c-1.574,0-2.85-1.686-2.85-3.766h0c0-2.08,1.276-3.766,2.85-3.766H324.76C326.334,289.992,327.61,291.678,327.61,293.757Z" transform="translate(-239.941 -236.895)" fill="#ff6363"/>
            <path id="Trazado_1238455" data-name="Trazado 1238455" d="M421.416,293.757h0c0,2.08-1.276,3.766-2.85,3.766H397.611c-1.574,0-2.85-1.686-2.85-3.766h0c0-2.08,1.276-3.766,2.85-3.766h20.955C420.14,289.992,421.416,291.678,421.416,293.757Z" transform="translate(-393.532 -236.895)" fill="#7a5ce0"/>
          </g>
          <g id="Grupo_1237619" data-name="Grupo 1237619" transform="translate(0.636)">
            <g id="Grupo_1237615" data-name="Grupo 1237615" transform="translate(103.24)">
              <path id="Trazado_1238456" data-name="Trazado 1238456" d="M275.672,246.433a1.186,1.186,0,0,0,.916-.474l6.786-8.287-6.734-9.167a1.134,1.134,0,0,0-1.909-.037,2.21,2.21,0,0,0-.029,2.523l4.807,6.543-4.754,5.805a2.207,2.207,0,0,0-.075,2.521A1.221,1.221,0,0,0,275.672,246.433Z" transform="translate(-274.321 -227.964)" fill="#7a5ce0"/>
            </g>
            <g id="Grupo_1237616" data-name="Grupo 1237616" transform="translate(95.056)">
              <path id="Trazado_1238457" data-name="Trazado 1238457" d="M287.262,246.433a1.186,1.186,0,0,0,.916-.474l6.786-8.287-6.734-9.167a1.134,1.134,0,0,0-1.909-.037,2.21,2.21,0,0,0-.029,2.523l4.807,6.543-4.754,5.805a2.207,2.207,0,0,0-.075,2.521A1.22,1.22,0,0,0,287.262,246.433Z" transform="translate(-285.911 -227.964)" fill="#7a5ce0"/>
            </g>
            <g id="Grupo_1237617" data-name="Grupo 1237617" transform="translate(0 163.337)">
              <path id="Trazado_1238458" data-name="Trazado 1238458" d="M428.231,417.613a1.223,1.223,0,0,0,.992-.574,2.207,2.207,0,0,0-.076-2.521l-4.754-5.806,4.807-6.543a2.21,2.21,0,0,0-.029-2.523,1.134,1.134,0,0,0-1.909.038l-6.734,9.167,6.786,8.287A1.186,1.186,0,0,0,428.231,417.613Z" transform="translate(-420.529 -399.143)" fill="#7a5ce0"/>
            </g>
            <g id="Grupo_1237618" data-name="Grupo 1237618" transform="translate(8.184 163.337)">
              <path id="Trazado_1238459" data-name="Trazado 1238459" d="M416.641,417.613a1.223,1.223,0,0,0,.992-.574,2.207,2.207,0,0,0-.076-2.521l-4.754-5.806,4.807-6.543a2.21,2.21,0,0,0-.029-2.523,1.134,1.134,0,0,0-1.909.038l-6.734,9.167,6.786,8.287A1.186,1.186,0,0,0,416.641,417.613Z" transform="translate(-408.939 -399.143)" fill="#7a5ce0"/>
            </g>
          </g>
        </g>
        <g id="Grupo_1237625" data-name="Grupo 1237625" transform="translate(36.756)">
          <g id="Grupo_1237623" data-name="Grupo 1237623" transform="translate(0)">
            <g id="Grupo_1237622" data-name="Grupo 1237622">
              <g id="Grupo_1237621" data-name="Grupo 1237621">
                <path id="Trazado_1238460" data-name="Trazado 1238460" d="M228.26,39.672c-5.355,1.546-10.669,3.79-14.667,7.674s-6.483,9.666-5.293,15.112c1.66,7.589,9.449,12.06,16.742,14.734,17.55,6.434,37.425,7.864,54.855,1.111,10-3.875,22.411-16.769,12.707-27.4-8.125-8.9-26.023-12.771-37.327-13.783A73.929,73.929,0,0,0,228.26,39.672Z" transform="translate(-208.001 -36.826)" fill="#e8e0ff"/>
              </g>
            </g>
          </g>
          <g id="Grupo_1237624" data-name="Grupo 1237624" transform="translate(11.343 14.864)">
            <path id="Trazado_1238461" data-name="Trazado 1238461" d="M226.256,63.964H224l-.84,4.785h-2.136l.84-4.785h-2.649V61.957h3l.583-3.337h-2.707V56.613h3.069l.852-4.855h2.123l-.851,4.855h2.264l.851-4.855h2.136l-.851,4.855h2.555V58.62h-2.917l-.583,3.337h2.614v2.007h-2.964l-.84,4.785h-2.136Zm-1.9-2.007h2.252l.583-3.337h-2.264Z" transform="translate(-219.219 -51.522)" fill="#b49eff"/>
            <path id="Trazado_1238462" data-name="Trazado 1238462" d="M244.879,64.293a1.8,1.8,0,0,0-.7-1.523,9.186,9.186,0,0,0-2.52-1.12,17.862,17.862,0,0,1-2.883-1.162q-2.894-1.564-2.894-4.213a4.1,4.1,0,0,1,.776-2.456,5.066,5.066,0,0,1,2.229-1.686,8.39,8.39,0,0,1,3.261-.607,7.647,7.647,0,0,1,3.244.659,5.161,5.161,0,0,1,2.211,1.862,4.872,4.872,0,0,1,.788,2.73h-3.5a2.288,2.288,0,0,0-.735-1.814,3.021,3.021,0,0,0-2.065-.648,3.227,3.227,0,0,0-2,.543,1.71,1.71,0,0,0-.712,1.43,1.639,1.639,0,0,0,.834,1.388,9.437,9.437,0,0,0,2.456,1.05,10.607,10.607,0,0,1,4.353,2.23,4.44,4.44,0,0,1,1.365,3.314,4.09,4.09,0,0,1-1.669,3.46,7.3,7.3,0,0,1-4.492,1.255,8.673,8.673,0,0,1-3.571-.718A5.647,5.647,0,0,1,236.2,66.3a5.033,5.033,0,0,1-.846-2.894h3.512q0,2.814,3.361,2.813a3.262,3.262,0,0,0,1.948-.508A1.647,1.647,0,0,0,244.879,64.293Z" transform="translate(-219.038 -51.525)" fill="#b49eff"/>
            <path id="Trazado_1238463" data-name="Trazado 1238463" d="M265.529,60.641a10.234,10.234,0,0,1-.771,4.137,7.094,7.094,0,0,1-2.136,2.818l2.824,2.218-2.23,1.972L259.6,68.879a7.667,7.667,0,0,1-1.283.105,7.073,7.073,0,0,1-3.77-1.015,6.761,6.761,0,0,1-2.567-2.9,9.955,9.955,0,0,1-.921-4.336v-.84a10.207,10.207,0,0,1,.9-4.417,6.737,6.737,0,0,1,2.556-2.929,7.487,7.487,0,0,1,7.55,0,6.737,6.737,0,0,1,2.556,2.929,10.179,10.179,0,0,1,.9,4.406v.759Zm-3.547-.771a7.158,7.158,0,0,0-.957-4.061,3.381,3.381,0,0,0-5.45-.017,7.061,7.061,0,0,0-.969,4.02v.829a7.25,7.25,0,0,0,.957,4.038,3.351,3.351,0,0,0,5.462.053,7.2,7.2,0,0,0,.957-4.032v-.83Z" transform="translate(-218.863 -51.525)" fill="#b49eff"/>
            <path id="Trazado_1238464" data-name="Trazado 1238464" d="M272.41,65.936h7.434v2.812H268.909V51.758h3.5Z" transform="translate(-218.663 -51.522)" fill="#b49eff"/>
          </g>
        </g>
      </g>
    </g>
  </g>
</svg>
