<svg xmlns="http://www.w3.org/2000/svg" xmlns:xlink="http://www.w3.org/1999/xlink" width="113" height="113" viewBox="0 0 113 113">
  <defs>
    <filter id="Trazado_982547" x="0" y="0" width="113" height="113" filterUnits="userSpaceOnUse">
      <feOffset dy="3" input="SourceAlpha"/>
      <feGaussianBlur stdDeviation="3" result="blur"/>
      <feFlood flood-opacity="0.161"/>
      <feComposite operator="in" in2="blur"/>
      <feComposite in="SourceGraphic"/>
    </filter>
  </defs>
  <g id="Grupo_1237635" data-name="Grupo 1237635" transform="translate(-1165 -1483.611)">
    <g id="Grupo_1236929" data-name="Grupo 1236929" transform="translate(0 166.899)">
      <g id="Grupo_1223812" data-name="Grupo 1223812" transform="translate(0 -108)">
        <g id="Grupo_1211533" data-name="Grupo 1211533" transform="translate(840.229 -678)">
          <g id="Grupo_1210969" data-name="Grupo 1210969" transform="translate(333.771 2108.712)">
            <g id="Grupo_1210937" data-name="Grupo 1210937" transform="translate(0 0)">
              <g id="Grupo_1174742" data-name="Grupo 1174742">
                <g id="Grupo_1163948" data-name="Grupo 1163948">
                  <g id="Grupo_1158168" data-name="Grupo 1158168" transform="translate(0)">
                    <g id="Grupo_1152576" data-name="Grupo 1152576">
                      <g id="Grupo_1148633" data-name="Grupo 1148633">
                        <g id="Grupo_1148525" data-name="Grupo 1148525">
                          <g transform="matrix(1, 0, 0, 1, -9, -6)" filter="url(#Trazado_982547)">
                            <g id="Trazado_982547-2" data-name="Trazado 982547" transform="translate(9 6)" fill="#fbe7b2">
                              <path d="M 47.5 93.5 C 41.28937149047852 93.5 35.26533508300781 92.28397369384766 29.59518623352051 89.88570404052734 C 24.11771965026855 87.56893157958984 19.19813346862793 84.25196075439453 14.97309303283691 80.02691650390625 C 10.74804019927979 75.80186462402344 7.431066513061523 70.88229370117188 5.114293098449707 65.40481567382812 C 2.716026782989502 59.73468017578125 1.5 53.71062850952148 1.5 47.5 C 1.5 41.28937149047852 2.716026782989502 35.26533508300781 5.114293098449707 29.59518623352051 C 7.431066513061523 24.11771965026855 10.74804019927979 19.19813346862793 14.97309303283691 14.97309303283691 C 19.19813346862793 10.74804019927979 24.11771965026855 7.431066513061523 29.59518623352051 5.114293098449707 C 35.26533508300781 2.716026782989502 41.28937149047852 1.5 47.5 1.5 C 53.71062850952148 1.5 59.73468017578125 2.716026782989502 65.40481567382812 5.114293098449707 C 70.88229370117188 7.431066513061523 75.80186462402344 10.74804019927979 80.02691650390625 14.97309303283691 C 84.25196075439453 19.19813346862793 87.56893157958984 24.11771965026855 89.88570404052734 29.59518623352051 C 92.28397369384766 35.26533508300781 93.5 41.28937149047852 93.5 47.5 C 93.5 53.71062850952148 92.28397369384766 59.73468017578125 89.88570404052734 65.40481567382812 C 87.56893157958984 70.88229370117188 84.25196075439453 75.80186462402344 80.02691650390625 80.02691650390625 C 75.80186462402344 84.25196075439453 70.88229370117188 87.56893157958984 65.40481567382812 89.88570404052734 C 59.73468017578125 92.28397369384766 53.71062850952148 93.5 47.5 93.5 Z" stroke="none"/>
                              <path d="M 47.5 3 C 41.49121475219727 3 35.66376876831055 4.176155090332031 30.17950439453125 6.495796203613281 C 24.88084411621094 8.736953735351562 20.12152099609375 11.94598388671875 16.03375244140625 16.03375244140625 C 11.94598388671875 20.12152099609375 8.736953735351562 24.88084411621094 6.495796203613281 30.17950439453125 C 4.176155090332031 35.66376876831055 3 41.49121475219727 3 47.5 C 3 53.50878524780273 4.176155090332031 59.33623123168945 6.495796203613281 64.82049560546875 C 8.736953735351562 70.11915588378906 11.94598388671875 74.87847900390625 16.03375244140625 78.96624755859375 C 20.12152099609375 83.05401611328125 24.88084411621094 86.26304626464844 30.17950439453125 88.50419616699219 C 35.66376876831055 90.82384490966797 41.49121475219727 92 47.5 92 C 53.50878524780273 92 59.33623123168945 90.82384490966797 64.82049560546875 88.50419616699219 C 70.11915588378906 86.26304626464844 74.87847900390625 83.05401611328125 78.96624755859375 78.96624755859375 C 83.05401611328125 74.87847900390625 86.26304626464844 70.11915588378906 88.50419616699219 64.82049560546875 C 90.82384490966797 59.33623123168945 92 53.50878524780273 92 47.5 C 92 41.49121475219727 90.82384490966797 35.66376876831055 88.50419616699219 30.17950439453125 C 86.26304626464844 24.88084411621094 83.05401611328125 20.12152099609375 78.96624755859375 16.03375244140625 C 74.87847900390625 11.94598388671875 70.11915588378906 8.736953735351562 64.82049560546875 6.495796203613281 C 59.33623123168945 4.176155090332031 53.50878524780273 3 47.5 3 M 47.5 0 C 73.7335205078125 0 95 21.2664794921875 95 47.5 C 95 73.7335205078125 73.7335205078125 95 47.5 95 C 21.2664794921875 95 0 73.7335205078125 0 47.5 C 0 21.2664794921875 21.2664794921875 0 47.5 0 Z" stroke="none" fill="#f5b104"/>
                            </g>
                          </g>
                        </g>
                      </g>
                    </g>
                  </g>
                </g>
              </g>
            </g>
          </g>
        </g>
      </g>
    </g>
    <g id="distribuido-_1_" data-name="distribuido- (1)" transform="translate(1190 1508)">
      <g id="Grupo_1237634" data-name="Grupo 1237634">
        <path id="Trazado_1238521" data-name="Trazado 1238521" d="M62,2V14H50V2Z" fill="#ffeaa7"/>
        <path id="Trazado_1238522" data-name="Trazado 1238522" d="M38,8v6H26V2H38Z" fill="#ffeaa7"/>
        <path id="Trazado_1238523" data-name="Trazado 1238523" d="M14,8v6H2V2H14Z" fill="#ffeaa7"/>
      </g>
      <path id="Trazado_1238524" data-name="Trazado 1238524" d="M12,28V46a2.006,2.006,0,0,0,2,2H50a2.006,2.006,0,0,0,2-2V28Z" fill="#e6e9ed"/>
      <path id="Trazado_1238525" data-name="Trazado 1238525" d="M52,22v6H12V24a2.006,2.006,0,0,1,2-2H34l1.41-1.41A2.006,2.006,0,0,1,36.83,20H50A2.006,2.006,0,0,1,52,22Z" fill="#ff826e"/>
      <path id="Trazado_1238526" data-name="Trazado 1238526" d="M44.41,42.59A1.955,1.955,0,0,1,45,44a2.006,2.006,0,0,1-2,2H21a2.015,2.015,0,0,1-2-2,2.006,2.006,0,0,1,2-2H43A1.955,1.955,0,0,1,44.41,42.59Z" fill="#5cd6b3"/>
      <path id="Trazado_1238527" data-name="Trazado 1238527" d="M44.41,52.59A1.955,1.955,0,0,1,45,54a2.006,2.006,0,0,1-2,2H21a2.015,2.015,0,0,1-2-2,2.006,2.006,0,0,1,2-2H43A1.955,1.955,0,0,1,44.41,52.59Z" fill="#5cd6b3"/>
      <path id="Trazado_1238528" data-name="Trazado 1238528" d="M48,58v2a2.006,2.006,0,0,1-2,2H18a2.006,2.006,0,0,1-2-2V58a2.006,2.006,0,0,1,2-2H46A2.006,2.006,0,0,1,48,58Z" fill="#fcd770"/>
      <path id="Trazado_1238529" data-name="Trazado 1238529" d="M48,48v2a2.006,2.006,0,0,1-2,2H18a2.006,2.006,0,0,1-2-2V48a2.006,2.006,0,0,1,2-2H46A2.006,2.006,0,0,1,48,48Z" fill="#fcd770"/>
      <path id="Trazado_1238530" data-name="Trazado 1238530" d="M48,38v2a2.006,2.006,0,0,1-2,2H18a2.006,2.006,0,0,1-2-2V38a2.006,2.006,0,0,1,2-2H46A2.006,2.006,0,0,1,48,38Z" fill="#fcd770"/>
      <path id="Trazado_1238531" data-name="Trazado 1238531" d="M47,23h2v2H47Z"/>
      <path id="Trazado_1238532" data-name="Trazado 1238532" d="M43,23h2v2H43Z"/>
      <path id="Trazado_1238533" data-name="Trazado 1238533" d="M39,23h2v2H39Z"/>
      <path id="Trazado_1238534" data-name="Trazado 1238534" d="M5,5h6V7H5Z"/>
      <path id="Trazado_1238535" data-name="Trazado 1238535" d="M5,9h6v2H5Z"/>
      <path id="Trazado_1238536" data-name="Trazado 1238536" d="M29,5h6V7H29Z"/>
      <path id="Trazado_1238537" data-name="Trazado 1238537" d="M29,9h6v2H29Z"/>
      <path id="Trazado_1238538" data-name="Trazado 1238538" d="M63,15V1H49V7H39V1H25V7H15V1H1V15H15V9H25v6h6v6H14a3,3,0,0,0-3,3V46a3,3,0,0,0,3,3h1v1a3,3,0,0,0,3,3h.184a2.809,2.809,0,0,0,0,2H18a3,3,0,0,0-3,3v2a3,3,0,0,0,3,3H46a3,3,0,0,0,3-3V58a3,3,0,0,0-3-3h-.184a2.809,2.809,0,0,0,0-2H46a3,3,0,0,0,3-3V49h1a3,3,0,0,0,3-3V22a3,3,0,0,0-3-3H36.828a2.978,2.978,0,0,0-2.121.879L33.586,21H33V15h6V9H49v6ZM13,13H3V3H13ZM47,58v2a1,1,0,0,1-1,1H18a1,1,0,0,1-1-1V58a1,1,0,0,1,1-1H46A1,1,0,0,1,47,58Zm-3-4a1,1,0,0,1-1,1H21a1,1,0,0,1,0-2H43A1,1,0,0,1,44,54Zm3-4a1,1,0,0,1-1,1H18a1,1,0,0,1-1-1V48a1,1,0,0,1,1-1H46a1,1,0,0,1,1,1ZM20,44a1,1,0,0,1,1-1H43a1,1,0,0,1,0,2H21A1,1,0,0,1,20,44Zm23-3H18a1,1,0,0,1-1-1V38a1,1,0,0,1,1-1H46a1,1,0,0,1,1,1v2a1,1,0,0,1-1,1Zm7,6H48.816A3,3,0,0,0,46,45h-.184a2.809,2.809,0,0,0,0-2H46a3,3,0,0,0,3-3V38a3,3,0,0,0-3-3H18a3,3,0,0,0-3,3v2a3,3,0,0,0,3,3h.184a2.809,2.809,0,0,0,0,2H18a3,3,0,0,0-2.816,2H14a1,1,0,0,1-1-1V29H51V46A1,1,0,0,1,50,47ZM34.414,23l1.707-1.707A1.009,1.009,0,0,1,36.828,21H50a1,1,0,0,1,1,1v5H13V24a1,1,0,0,1,1-1ZM37,13H27V3H37ZM51,3H61V13H51Z"/>
      <path id="Trazado_1238539" data-name="Trazado 1238539" d="M53,5h6V7H53Z"/>
      <path id="Trazado_1238540" data-name="Trazado 1238540" d="M53,9h6v2H53Z"/>
      <path id="Trazado_1238541" data-name="Trazado 1238541" d="M15,31h2v2H15Z"/>
      <path id="Trazado_1238542" data-name="Trazado 1238542" d="M19,31h2v2H19Z"/>
      <path id="Trazado_1238543" data-name="Trazado 1238543" d="M23,31h2v2H23Z"/>
    </g>
  </g>
</svg>
