<svg xmlns="http://www.w3.org/2000/svg" xmlns:xlink="http://www.w3.org/1999/xlink" width="295" height="350" viewBox="0 0 295 350">
  <defs>
    <clipPath id="clip-path">
      <rect id="Rectángulo_423134" data-name="Rectángulo 423134" width="295" height="350" transform="translate(180 2965)" fill="#fff" stroke="#707070" stroke-width="1"/>
    </clipPath>
    <clipPath id="clip-path-2">
      <rect id="Rectángulo_423547" data-name="Rectángulo 423547" width="484.111" height="467.975" fill="none"/>
    </clipPath>
    <clipPath id="clip-path-3">
      <rect id="Rectángulo_423545" data-name="Rectángulo 423545" width="575.913" height="332.503" fill="none"/>
    </clipPath>
    <clipPath id="clip-path-4">
      <rect id="Rectángulo_423546" data-name="Rectángulo 423546" width="422.432" height="243.891" fill="none"/>
    </clipPath>
    <clipPath id="clip-path-5">
      <rect id="Rectángulo_423565" data-name="Rectángulo 423565" width="575.913" height="484.111" fill="none"/>
    </clipPath>
    <clipPath id="clip-path-6">
      <rect id="Rectángulo_423551" data-name="Rectángulo 423551" width="212.221" height="133.811" fill="none"/>
    </clipPath>
    <clipPath id="clip-path-7">
      <rect id="Rectángulo_423552" data-name="Rectángulo 423552" width="33.765" height="34.789" fill="none"/>
    </clipPath>
    <clipPath id="clip-path-8">
      <rect id="Rectángulo_423553" data-name="Rectángulo 423553" width="58.301" height="14.727" fill="none"/>
    </clipPath>
    <clipPath id="clip-path-9">
      <rect id="Rectángulo_423554" data-name="Rectángulo 423554" width="18.505" height="40.37" fill="none"/>
    </clipPath>
    <clipPath id="clip-path-10">
      <rect id="Rectángulo_423555" data-name="Rectángulo 423555" width="34.689" height="48.381" fill="none"/>
    </clipPath>
    <clipPath id="clip-path-11">
      <rect id="Rectángulo_423556" data-name="Rectángulo 423556" width="24.172" height="33.715" fill="none"/>
    </clipPath>
    <clipPath id="clip-path-13">
      <rect id="Rectángulo_423558" data-name="Rectángulo 423558" width="17.062" height="23.797" fill="none"/>
    </clipPath>
    <clipPath id="clip-path-14">
      <rect id="Rectángulo_423559" data-name="Rectángulo 423559" width="17.063" height="23.798" fill="none"/>
    </clipPath>
    <clipPath id="clip-path-15">
      <rect id="Rectángulo_423560" data-name="Rectángulo 423560" width="30.72" height="35.971" fill="none"/>
    </clipPath>
    <clipPath id="clip-path-16">
      <rect id="Rectángulo_423561" data-name="Rectángulo 423561" width="30.718" height="35.971" fill="none"/>
    </clipPath>
    <clipPath id="clip-path-17">
      <rect id="Rectángulo_423562" data-name="Rectángulo 423562" width="17.349" height="20.315" fill="none"/>
    </clipPath>
    <clipPath id="clip-path-18">
      <rect id="Rectángulo_423563" data-name="Rectángulo 423563" width="17.351" height="20.317" fill="none"/>
    </clipPath>
    <clipPath id="clip-path-19">
      <rect id="Rectángulo_423564" data-name="Rectángulo 423564" width="21.497" height="25.172" fill="none"/>
    </clipPath>
  </defs>
  <g id="Enmascarar_grupo_1208520" data-name="Enmascarar grupo 1208520" transform="translate(-180 -2965)" clip-path="url(#clip-path)">
    <g id="Grupo_1238878" data-name="Grupo 1238878" transform="translate(41.643 2930)">
      <g id="Grupo_1238879" data-name="Grupo 1238879">
        <g id="Grupo_1238825" data-name="Grupo 1238825" transform="translate(45.9 4.302)">
          <g id="Grupo_1238824" data-name="Grupo 1238824" clip-path="url(#clip-path-2)">
            <g id="Grupo_1238820" data-name="Grupo 1238820" transform="translate(-45.9 115.889)" opacity="0.15" style="mix-blend-mode: screen;isolation: isolate">
              <g id="Grupo_1238819" data-name="Grupo 1238819">
                <g id="Grupo_1238818" data-name="Grupo 1238818" clip-path="url(#clip-path-3)">
                  <path id="Trazado_1239785" data-name="Trazado 1239785" d="M491.573,160.416c112.454,64.926,112.454,170.19,0,235.116s-294.778,64.926-407.232,0-112.454-170.19,0-235.116,294.779-64.926,407.232,0" transform="translate(0 -111.722)" fill="#fff"/>
                </g>
              </g>
            </g>
            <g id="Grupo_1238823" data-name="Grupo 1238823" transform="translate(30.84 160.195)" opacity="0.15" style="mix-blend-mode: screen;isolation: isolate">
              <g id="Grupo_1238822" data-name="Grupo 1238822">
                <g id="Grupo_1238821" data-name="Grupo 1238821" clip-path="url(#clip-path-4)">
                  <path id="Trazado_1239786" data-name="Trazado 1239786" d="M431.9,188.624c82.485,47.623,82.485,124.834,0,172.456s-216.219,47.625-298.7,0-82.485-124.833,0-172.456,216.219-47.623,298.7,0" transform="translate(-71.333 -152.906)" fill="#fff"/>
                </g>
              </g>
            </g>
          </g>
        </g>
        <g id="Grupo_1238832" data-name="Grupo 1238832" transform="translate(147.026 206.31)">
          <g id="Grupo_1238880" data-name="Grupo 1238880">
            <path id="Trazado_1239788" data-name="Trazado 1239788" d="M412.981,271.543c-6.388-12.776-18.293-24.827-35.732-34.9-55.036-31.775-144.268-31.775-199.3,0-17.439,10.068-29.344,22.12-35.732,34.9h-5.546v16.623c0,20.823,13.758,41.647,41.277,57.535,55.036,31.775,144.268,31.775,199.3,0,27.519-15.889,41.277-36.712,41.277-57.535V271.543Z" transform="translate(-136.667 -190.178)" fill="#fff"/>
            <path id="Trazado_1239789" data-name="Trazado 1239789" d="M377.25,215.6c55.037,31.776,55.037,83.294,0,115.069s-144.268,31.775-199.305,0-55.037-83.293,0-115.069,144.268-31.774,199.305,0" transform="translate(-136.667 -191.773)" fill="#85d2ff"/>
          </g>
        </g>
        <g id="Grupo_1238876" data-name="Grupo 1238876">
          <g id="Grupo_1238875" data-name="Grupo 1238875" clip-path="url(#clip-path-5)">
            <g id="Grupo_1238835" data-name="Grupo 1238835" transform="translate(182.575 216.861)" opacity="0.5" style="mix-blend-mode: multiply;isolation: isolate">
              <g id="Grupo_1238834" data-name="Grupo 1238834">
                <g id="Grupo_1238833" data-name="Grupo 1238833" clip-path="url(#clip-path-6)">
                  <path id="Trazado_1239790" data-name="Trazado 1239790" d="M369.6,293.915a53.469,53.469,0,0,0-17.028-5.964c.313-.093.626-.188.939-.281a66.1,66.1,0,0,1-27.828-24.993,41.719,41.719,0,0,0-2.631-4.033l34.72-20.045c1.743-1.007,1.747-2.638.016-3.644l-56.127-32.617a6.93,6.93,0,0,0-6.29,0l-124.356,71.8c-1.743,1.006-1.747,2.637-.016,3.643l56.127,32.617a6.93,6.93,0,0,0,6.29,0L257.486,296.5a14.067,14.067,0,0,0,6.834,5.251c4.221,1.464,8.813,1.248,13.245,1.82a37.309,37.309,0,0,1,16.535,6.4,28.6,28.6,0,0,0,3.724,2.372c.513,5.8,4.6,11.5,12.267,15.932,16.434,9.489,43.079,9.489,59.513,0s16.434-24.871,0-34.36" transform="translate(-169.71 -201.581)" fill="#00aee8"/>
                </g>
              </g>
            </g>
            <path id="Trazado_1239791" data-name="Trazado 1239791" d="M301.669,254.833c-5.549,1.108-6.442,5.258-4.326,8.864l6.248,8.493c2.345,3.914,5.5,5.751,9.614,5.09,3.7-1.466,4.2-3.807,3.173-6.567l-.207-5.892-3.735-10.911Z" transform="translate(22.46 19.247)"/>
            <path id="Trazado_1239792" data-name="Trazado 1239792" d="M344.574,281.207l-2.791,1.621a2.079,2.079,0,0,1,2.1.205l2.791-1.621a2.077,2.077,0,0,0-2.1-.206" transform="translate(25.908 21.301)" fill="#333"/>
            <path id="Trazado_1239793" data-name="Trazado 1239793" d="M345.806,289.98l2.791-1.621a2.068,2.068,0,0,0,.86-1.891,6.473,6.473,0,0,0-2.936-5.084l-2.79,1.622a6.468,6.468,0,0,1,2.935,5.083,2.063,2.063,0,0,1-.86,1.891" transform="translate(26.056 21.33)" fill="#333"/>
            <path id="Trazado_1239794" data-name="Trazado 1239794" d="M343.939,282.919c-1.627-.939-2.949-.185-2.954,1.684a6.472,6.472,0,0,0,2.935,5.086c1.627.938,2.949.185,2.954-1.687a6.468,6.468,0,0,0-2.935-5.083" transform="translate(25.848 21.416)"/>
            <path id="Trazado_1239795" data-name="Trazado 1239795" d="M294.715,308.424l-2.791,1.621a2.079,2.079,0,0,1,2.1.206l2.791-1.621a2.079,2.079,0,0,0-2.1-.206" transform="translate(22.129 23.364)" fill="#333"/>
            <path id="Trazado_1239796" data-name="Trazado 1239796" d="M295.948,317.2l2.791-1.621a2.065,2.065,0,0,0,.858-1.89,6.467,6.467,0,0,0-2.935-5.083l-2.791,1.621a6.465,6.465,0,0,1,2.935,5.084,2.062,2.062,0,0,1-.858,1.889" transform="translate(22.276 23.393)" fill="#333"/>
            <path id="Trazado_1239797" data-name="Trazado 1239797" d="M294.08,310.136c-1.627-.939-2.949-.185-2.954,1.684a6.471,6.471,0,0,0,2.935,5.084c1.629.939,2.949.184,2.954-1.684a6.465,6.465,0,0,0-2.935-5.084" transform="translate(22.068 23.479)"/>
            <path id="Trazado_1239798" data-name="Trazado 1239798" d="M332.384,319.362l-2.791,1.621a2.079,2.079,0,0,1,2.1.205l2.791-1.621a2.077,2.077,0,0,0-2.1-.206" transform="translate(24.984 24.193)" fill="#333"/>
            <path id="Trazado_1239799" data-name="Trazado 1239799" d="M333.616,328.132l2.791-1.621a2.062,2.062,0,0,0,.858-1.889,6.468,6.468,0,0,0-2.935-5.083l-2.791,1.621a6.468,6.468,0,0,1,2.935,5.083,2.062,2.062,0,0,1-.858,1.889" transform="translate(25.132 24.222)" fill="#333"/>
            <path id="Trazado_1239800" data-name="Trazado 1239800" d="M331.748,321.073c-1.627-.939-2.949-.185-2.954,1.684a6.468,6.468,0,0,0,2.935,5.083c1.627.939,2.949.185,2.954-1.684a6.468,6.468,0,0,0-2.935-5.083" transform="translate(24.924 24.308)"/>
            <path id="Trazado_1239801" data-name="Trazado 1239801" d="M363.676,303.577l-2.791,1.621a2.077,2.077,0,0,1,2.095.205l2.791-1.621a2.077,2.077,0,0,0-2.095-.206" transform="translate(27.356 22.997)" fill="#333"/>
            <path id="Trazado_1239802" data-name="Trazado 1239802" d="M364.908,312.351l2.791-1.621a2.065,2.065,0,0,0,.858-1.89,6.466,6.466,0,0,0-2.935-5.085l-2.791,1.621a6.468,6.468,0,0,1,2.935,5.086,2.062,2.062,0,0,1-.858,1.889" transform="translate(27.504 23.025)" fill="#333"/>
            <path id="Trazado_1239803" data-name="Trazado 1239803" d="M363.04,305.289c-1.626-.939-2.949-.185-2.954,1.686a6.472,6.472,0,0,0,2.935,5.084c1.629.94,2.949.185,2.954-1.684a6.465,6.465,0,0,0-2.935-5.086" transform="translate(27.296 23.111)"/>
            <path id="Trazado_1239804" data-name="Trazado 1239804" d="M302.67,284.672l-2.791,1.621a2.079,2.079,0,0,1,2.1.205l2.79-1.621a2.077,2.077,0,0,0-2.095-.205" transform="translate(22.732 21.564)" fill="#333"/>
            <path id="Trazado_1239805" data-name="Trazado 1239805" d="M303.9,293.445l2.791-1.621a2.062,2.062,0,0,0,.858-1.889,6.469,6.469,0,0,0-2.935-5.085l-2.791,1.621a6.47,6.47,0,0,1,2.936,5.085,2.065,2.065,0,0,1-.86,1.889" transform="translate(22.879 21.592)" fill="#333"/>
            <path id="Trazado_1239806" data-name="Trazado 1239806" d="M302.034,286.384c-1.627-.939-2.949-.185-2.954,1.686a6.472,6.472,0,0,0,2.935,5.084c1.627.938,2.949.185,2.954-1.684a6.469,6.469,0,0,0-2.935-5.086" transform="translate(22.671 21.678)"/>
            <path id="Trazado_1239807" data-name="Trazado 1239807" d="M329.051,292.462l3.684,3.368,2.776,2.54,13.556-15.882c.025-.783-.067-1.241-.47-1.565a2.146,2.146,0,0,0-.577-.313l-2.125-.725a1.21,1.21,0,0,0-1.16.275Z" transform="translate(24.943 21.212)" fill="#fff"/>
            <path id="Trazado_1239808" data-name="Trazado 1239808" d="M332.1,296.154l3.178,2.144,13.555-15.882c.026-.783-.066-1.241-.47-1.565a.848.848,0,0,0-.957.274l-14.9,14.633Z" transform="translate(25.174 21.285)" fill="#666"/>
            <path id="Trazado_1239809" data-name="Trazado 1239809" d="M300.756,286.046,324.611,301.9l.678.451.707-3,.624-2.651.949-4.027-22.252-9.639a2.064,2.064,0,0,0-1.727.035l-1.646.945a3.554,3.554,0,0,0-.329.21,1.978,1.978,0,0,0-.858,1.816" transform="translate(22.798 21.442)" fill="#fff"/>
            <path id="Trazado_1239810" data-name="Trazado 1239810" d="M300.756,285.952l23.855,15.858L326,299.263l1.262-2.324-.638-.327L302.8,284.337a1.853,1.853,0,0,0-1.181-.2,1.978,1.978,0,0,0-.858,1.816" transform="translate(22.798 21.536)" fill="#666"/>
            <path id="Trazado_1239811" data-name="Trazado 1239811" d="M321.584,301.818V294.3h13.9v7.514a3.45,3.45,0,0,1-2.035,2.837,10.857,10.857,0,0,1-9.827,0,3.454,3.454,0,0,1-2.035-2.837" transform="translate(24.377 22.309)" fill="#666"/>
            <path id="Trazado_1239812" data-name="Trazado 1239812" d="M323.619,291.748c-2.714,1.566-2.714,4.107,0,5.674a10.857,10.857,0,0,0,9.827,0c2.714-1.566,2.714-4.107,0-5.674a10.864,10.864,0,0,0-9.827,0" transform="translate(24.377 22.026)" fill="#b3b3b3"/>
            <path id="Trazado_1239813" data-name="Trazado 1239813" d="M332.169,298.958l2.66,21.214a34.764,34.764,0,0,1,.208,4.838l-3.076.242-6.219-20.385.035-5.424a10.7,10.7,0,0,0,6.391-.484" transform="translate(24.692 22.662)" fill="#fff"/>
            <path id="Trazado_1239814" data-name="Trazado 1239814" d="M331.962,325.218a16.649,16.649,0,0,0-.519-4.941l-5.666-20.868-.034,5.424Z" transform="translate(24.692 22.696)" fill="#666"/>
            <path id="Trazado_1239815" data-name="Trazado 1239815" d="M326.419,299.1v5.7l-32.158,7.878-1.348-1.556c-.132-1.792.913-2.966,2.54-3.835l28.323-11.53c-.117,1.557.982,2.574,2.643,3.342" transform="translate(22.203 22.419)" fill="#fff"/>
            <path id="Trazado_1239816" data-name="Trazado 1239816" d="M294.164,312.441a3.76,3.76,0,0,1,2.592-3.679l29.566-9.9v5.7Z" transform="translate(22.299 22.655)" fill="#666"/>
            <path id="Trazado_1239817" data-name="Trazado 1239817" d="M367.73,307.054,333.162,304.1l.043-5.7c1.3-.863,1.425-2.168,1.4-3.7l30.918,7.2c1.779.359,2.886,1.3,2.884,3.213Z" transform="translate(25.255 22.339)" fill="#fff"/>
            <path id="Trazado_1239818" data-name="Trazado 1239818" d="M333.162,303.841l34.568,2.954a3.033,3.033,0,0,0-2.954-3.213l-31.571-5.441Z" transform="translate(25.255 22.6)" fill="#666"/>
            <path id="Trazado_1239819" data-name="Trazado 1239819" d="M350.171,278.721a11.229,11.229,0,0,0,1.849-.15l-.765-4.6c-2.046.342-4.694-.349-7.451-1.941l-26.4-15.241-2.329,4.036,26.4,15.24a17.686,17.686,0,0,0,8.7,2.652" transform="translate(23.884 19.466)" fill="#333"/>
            <path id="Trazado_1239820" data-name="Trazado 1239820" d="M331.393,277.383a2.913,2.913,0,0,0-.627-.477,5.992,5.992,0,0,0-5.42,0,2.942,2.942,0,0,0-.627.477h-.5v18.048A1.905,1.905,0,0,0,325.346,297a5.991,5.991,0,0,0,5.42,0,1.9,1.9,0,0,0,1.123-1.565V277.383Z" transform="translate(24.577 20.941)" fill="#fff"/>
            <path id="Trazado_1239821" data-name="Trazado 1239821" d="M332,271.484c2.117,1.222,2.117,3.2,0,4.426a8.473,8.473,0,0,1-7.666,0c-2.117-1.222-2.117-3.2,0-4.426a8.473,8.473,0,0,1,7.666,0" transform="translate(24.465 20.51)" fill="#4d4d4d"/>
            <path id="Trazado_1239822" data-name="Trazado 1239822" d="M335.261,256.987a7.984,7.984,0,0,0-3.662-1.938,12.452,12.452,0,0,0-6.506,0,7.984,7.984,0,0,0-3.662,1.938H320.4v19.4c0,1.627,1.49,3.253,4.469,4.139a12.224,12.224,0,0,0,6.95,0c2.979-.885,4.468-2.512,4.468-4.139v-19.4Z" transform="translate(24.287 19.301)" fill="#333"/>
            <path id="Trazado_1239823" data-name="Trazado 1239823" d="M331.822,253.009c5.958,1.772,5.958,6.506,0,8.278a12.231,12.231,0,0,1-6.952,0c-5.957-1.772-5.957-6.506,0-8.278a12.232,12.232,0,0,1,6.952,0" transform="translate(24.287 19.141)" fill="#4d4d4d"/>
            <path id="Trazado_1239824" data-name="Trazado 1239824" d="M300.629,259.658v-8.319h3.791a22.161,22.161,0,0,1,4.789-3.639c11.44-6.605,29.989-6.605,41.43,0a22.19,22.19,0,0,1,4.789,3.639h3.791v8.32c0,4.328-2.861,8.657-8.581,11.96-11.441,6.605-29.99,6.605-41.43,0-5.721-3.3-8.581-7.632-8.581-11.961" transform="translate(22.789 18.401)" fill="#00aee8"/>
            <path id="Trazado_1239825" data-name="Trazado 1239825" d="M350.64,239.965c11.44,6.605,11.44,17.314,0,23.919s-29.989,6.605-41.431,0-11.44-17.314,0-23.919,29.991-6.605,41.431,0" transform="translate(22.789 17.815)" fill="#00aee8"/>
            <path id="Trazado_1239826" data-name="Trazado 1239826" d="M309.21,267.071c11.44,6.605,29.989,6.605,41.43,0,5.72-3.3,8.581-7.632,8.581-11.96v3.61c0,4.329-2.861,8.657-8.581,11.96-11.441,6.605-29.99,6.605-41.43,0-5.721-3.3-8.581-7.632-8.581-11.961v-3.61c0,4.329,2.859,8.658,8.581,11.961" transform="translate(22.789 19.338)" fill="#fff"/>
            <path id="Trazado_1239827" data-name="Trazado 1239827" d="M290.962,200.67l-4.485,2.607a2.958,2.958,0,0,1,2.983.292l4.485-2.606a2.956,2.956,0,0,0-2.983-.293" transform="translate(21.716 15.19)" fill="gray"/>
            <path id="Trazado_1239828" data-name="Trazado 1239828" d="M310.579,215.841l4.485-2.607-21.329-12.314-4.485,2.607Z" transform="translate(21.926 15.23)" fill="gray"/>
            <path id="Trazado_1239829" data-name="Trazado 1239829" d="M337.486,237.835l4.485-2.607.005-1.97-4.485,2.607Z" transform="translate(25.582 17.682)" fill="#333"/>
            <path id="Trazado_1239830" data-name="Trazado 1239830" d="M335.184,230.047l4.485-2.607-22.438-12.954-4.485,2.606Z" transform="translate(23.707 16.259)" fill="gray"/>
            <path id="Trazado_1239831" data-name="Trazado 1239831" d="M337.786,236.375l4.485-2.607a9.21,9.21,0,0,0-4.184-7.24l-4.484,2.607a9.211,9.211,0,0,1,4.183,7.24" transform="translate(25.288 17.172)" fill="gray"/>
            <path id="Trazado_1239832" data-name="Trazado 1239832" d="M312.747,219.785l4.485-2.607.108-38.208-4.484,2.606Z" transform="translate(23.707 13.566)" fill="#666"/>
            <path id="Trazado_1239833" data-name="Trazado 1239833" d="M313.126,181.737l4.485-2.606-3.949-2.281-4.485,2.607Z" transform="translate(23.437 13.406)" fill="#333"/>
            <path id="Trazado_1239834" data-name="Trazado 1239834" d="M310.984,179.273l-.109,38.209-21.328-12.314c-2.316-1.337-4.2-.265-4.206,2.4l-.005,1.97,56.1,32.391.005-1.97a9.2,9.2,0,0,0-4.183-7.24l-22.437-12.955.109-38.209Z" transform="translate(21.629 13.589)" fill="#333"/>
            <path id="Trazado_1239835" data-name="Trazado 1239835" d="M320.053,202.409l-2.595-1.488L207.9,263.984l2.595,1.489Z" transform="translate(15.76 15.23)" fill="#666"/>
            <path id="Trazado_1239836" data-name="Trazado 1239836" d="M319.87,204.934,210.315,268v-2.63L319.87,202.3Z" transform="translate(15.942 15.335)" fill="#333"/>
            <path id="Trazado_1239837" data-name="Trazado 1239837" d="M185.189,261.737l-4.485,2.608a2.957,2.957,0,0,1,2.983.29l4.485-2.6a2.959,2.959,0,0,0-2.983-.294" transform="translate(13.698 19.819)" fill="gray"/>
            <path id="Trazado_1239838" data-name="Trazado 1239838" d="M204.806,276.909l4.485-2.607-21.329-12.314-4.485,2.607Z" transform="translate(13.908 19.86)" fill="gray"/>
            <path id="Trazado_1239839" data-name="Trazado 1239839" d="M231.714,298.9,236.2,296.3l.005-1.97-4.485,2.607Z" transform="translate(17.565 22.311)" fill="#333"/>
            <path id="Trazado_1239840" data-name="Trazado 1239840" d="M229.411,291.115l4.485-2.607-22.438-12.954-4.484,2.606Z" transform="translate(15.689 20.888)" fill="gray"/>
            <path id="Trazado_1239841" data-name="Trazado 1239841" d="M232.014,297.443l4.485-2.606a9.21,9.21,0,0,0-4.184-7.241l-4.484,2.607a9.211,9.211,0,0,1,4.183,7.24" transform="translate(17.27 21.801)" fill="gray"/>
            <path id="Trazado_1239842" data-name="Trazado 1239842" d="M206.974,282.372l4.485-2.607L211.567,220l-4.484,2.607Z" transform="translate(15.689 16.677)" fill="#666"/>
            <path id="Trazado_1239843" data-name="Trazado 1239843" d="M207.353,222.765l4.485-2.607-3.949-2.28-4.485,2.607Z" transform="translate(15.419 16.516)" fill="#333"/>
            <path id="Trazado_1239844" data-name="Trazado 1239844" d="M205.211,220.3l-.109,59.767-21.328-12.314c-2.316-1.337-4.2-.264-4.206,2.4l-.005,1.97,56.1,32.391.006-1.97a9.21,9.21,0,0,0-4.184-7.24l-22.437-12.955.109-59.767Z" transform="translate(13.611 16.7)" fill="#333"/>
            <path id="Trazado_1239845" data-name="Trazado 1239845" d="M169.721,212.436a2.147,2.147,0,0,1,1.3-1.959l124.357-71.8a6.931,6.931,0,0,1,6.289,0L357.794,171.3a2.205,2.205,0,0,1,1.294,1.816c0-.005.013,4.347.013,4.347a2.221,2.221,0,0,1-1.31,1.832l-124.356,71.8a6.93,6.93,0,0,1-6.29,0l-56.127-32.617a2.212,2.212,0,0,1-1.3-1.811l-.012-4.353c0,.043.008.085.011.127" transform="translate(12.865 10.455)" fill="#d4bfa7"/>
            <path id="Trazado_1239846" data-name="Trazado 1239846" d="M171.02,210.477c-1.743,1.006-1.747,2.637-.016,3.644l56.127,32.617a6.933,6.933,0,0,0,6.29,0l124.356-71.8c1.743-1.006,1.747-2.638.016-3.644l-56.127-32.617a6.93,6.93,0,0,0-6.29,0Z" transform="translate(12.864 10.455)" fill="#fffbf7"/>
            <path id="Trazado_1239847" data-name="Trazado 1239847" d="M171.02,210.477c-1.743,1.006-1.747,2.637-.016,3.644l56.127,32.617a6.933,6.933,0,0,0,6.29,0l124.356-71.8c1.743-1.006,1.747-2.638.016-3.644l-56.127-32.617a6.93,6.93,0,0,0-6.29,0Z" transform="translate(12.864 10.455)" fill="#fff"/>
            <path id="Trazado_1239848" data-name="Trazado 1239848" d="M326.1,176.6a6.105,6.105,0,0,0-5.525,0,1.942,1.942,0,0,0-1.145,1.6V257.22a1.942,1.942,0,0,0,1.145,1.594,6.105,6.105,0,0,0,5.525,0,1.942,1.942,0,0,0,1.145-1.594V178.194a1.942,1.942,0,0,0-1.145-1.6" transform="translate(24.213 13.337)" fill="#141c26"/>
            <path id="Trazado_1239849" data-name="Trazado 1239849" d="M297.912,186.389l-44.731,25.826-16.518-9.537v-1.252l44.731-24.573,16.518,8.285Z" transform="translate(17.94 13.406)" fill="#141c26"/>
            <path id="Trazado_1239850" data-name="Trazado 1239850" d="M297.912,185.224,253.182,211.05l-16.518-9.537,44.731-25.826Z" transform="translate(17.94 13.318)" fill="#264c6e"/>
            <path id="Trazado_1239851" data-name="Trazado 1239851" d="M240.014,199.43l1.454.839,2.042-1.178-1.454-.84Z" transform="translate(18.194 15.028)" fill="#fff"/>
            <path id="Trazado_1239852" data-name="Trazado 1239852" d="M246.193,197.542l-1.454-.839-2.043,1.179,1.454.839Z" transform="translate(18.397 14.911)" fill="#fff"/>
            <path id="Trazado_1239853" data-name="Trazado 1239853" d="M248.874,195.993l-1.454-.839-2.042,1.179,1.454.839Z" transform="translate(18.6 14.793)" fill="#fff"/>
            <path id="Trazado_1239854" data-name="Trazado 1239854" d="M251.557,194.445l-1.454-.84-2.042,1.18,1.454.839Z" transform="translate(18.804 14.676)" fill="#fff"/>
            <path id="Trazado_1239855" data-name="Trazado 1239855" d="M254.24,192.9l-1.454-.839-2.043,1.179,1.454.838Z" transform="translate(19.007 14.558)" fill="#fff"/>
            <path id="Trazado_1239856" data-name="Trazado 1239856" d="M256.922,191.347l-1.454-.839-2.042,1.179,1.454.839Z" transform="translate(19.21 14.441)" fill="#fff"/>
            <path id="Trazado_1239857" data-name="Trazado 1239857" d="M259.6,189.8l-1.454-.839-2.042,1.178,1.454.839Z" transform="translate(19.414 14.324)" fill="#fff"/>
            <path id="Trazado_1239858" data-name="Trazado 1239858" d="M262.286,188.25l-1.454-.839-2.042,1.179,1.454.839Z" transform="translate(19.617 14.206)" fill="#fff"/>
            <path id="Trazado_1239859" data-name="Trazado 1239859" d="M264.969,186.7l-1.454-.839-2.042,1.179,1.454.839Z" transform="translate(19.82 14.089)" fill="#fff"/>
            <path id="Trazado_1239860" data-name="Trazado 1239860" d="M267.652,185.152l-1.454-.839-2.043,1.179,1.456.839Z" transform="translate(20.024 13.971)" fill="#fff"/>
            <path id="Trazado_1239861" data-name="Trazado 1239861" d="M270.335,183.6l-1.456-.84-2.042,1.18,1.454.839Z" transform="translate(20.227 13.854)" fill="#fff"/>
            <path id="Trazado_1239862" data-name="Trazado 1239862" d="M246.664,200.911l-1.455-.839-2.042,1.179,1.454.838Z" transform="translate(18.433 15.166)" fill="#fff"/>
            <path id="Trazado_1239863" data-name="Trazado 1239863" d="M249.346,199.363l-1.454-.84L245.85,199.7l1.454.84Z" transform="translate(18.636 15.049)" fill="#fff"/>
            <path id="Trazado_1239864" data-name="Trazado 1239864" d="M252.029,197.814l-1.454-.839-2.043,1.179,1.454.838Z" transform="translate(18.839 14.931)" fill="#fff"/>
            <path id="Trazado_1239865" data-name="Trazado 1239865" d="M254.711,196.266l-1.454-.84-2.042,1.179,1.454.84Z" transform="translate(19.043 14.814)" fill="#fff"/>
            <path id="Trazado_1239866" data-name="Trazado 1239866" d="M257.394,194.717l-1.454-.84-2.042,1.18,1.454.838Z" transform="translate(19.246 14.696)" fill="#fff"/>
            <path id="Trazado_1239867" data-name="Trazado 1239867" d="M260.076,193.168l-1.455-.839-2.043,1.179,1.454.839Z" transform="translate(19.449 14.579)" fill="#fff"/>
            <path id="Trazado_1239868" data-name="Trazado 1239868" d="M262.758,191.62l-1.454-.84-2.042,1.179,1.454.839Z" transform="translate(19.653 14.462)" fill="#fff"/>
            <path id="Trazado_1239869" data-name="Trazado 1239869" d="M265.441,190.071l-1.454-.839-2.042,1.178,1.454.839Z" transform="translate(19.856 14.344)" fill="#fff"/>
            <path id="Trazado_1239870" data-name="Trazado 1239870" d="M268.124,188.522l-1.456-.839-2.042,1.179,1.454.839Z" transform="translate(20.059 14.227)" fill="#fff"/>
            <path id="Trazado_1239871" data-name="Trazado 1239871" d="M270.806,186.974l-1.454-.839-2.042,1.178,1.454.839Z" transform="translate(20.263 14.11)" fill="#fff"/>
            <path id="Trazado_1239872" data-name="Trazado 1239872" d="M273.488,185.425l-1.454-.839-2.042,1.179,1.454.839Z" transform="translate(20.466 13.992)" fill="#fff"/>
            <path id="Trazado_1239873" data-name="Trazado 1239873" d="M248.68,202.076l-1.454-.839-2.042,1.179,1.454.839Z" transform="translate(18.586 15.254)" fill="#fff"/>
            <path id="Trazado_1239874" data-name="Trazado 1239874" d="M249.32,201.706l2.043-1.179-1.454-.839-2.043,1.178Z" transform="translate(18.789 15.137)" fill="#fff"/>
            <path id="Trazado_1239875" data-name="Trazado 1239875" d="M252.591,198.139l-2.042,1.179,1.453.839,2.043-1.179Z" transform="translate(18.992 15.02)" fill="#fff"/>
            <path id="Trazado_1239876" data-name="Trazado 1239876" d="M253.231,197.77l1.454.839,2.042-1.179-1.454-.839Z" transform="translate(19.196 14.902)" fill="#fff"/>
            <path id="Trazado_1239877" data-name="Trazado 1239877" d="M255.913,196.221l1.456.839,2.042-1.178-1.454-.84Z" transform="translate(19.399 14.785)" fill="#fff"/>
            <path id="Trazado_1239878" data-name="Trazado 1239878" d="M258.6,194.672l1.454.839,2.043-1.178-1.456-.839Z" transform="translate(19.602 14.667)" fill="#fff"/>
            <path id="Trazado_1239879" data-name="Trazado 1239879" d="M263.321,191.945l-2.042,1.179,1.453.839,2.043-1.179Z" transform="translate(19.806 14.55)" fill="#fff"/>
            <path id="Trazado_1239880" data-name="Trazado 1239880" d="M263.961,191.574l1.454.839,2.042-1.178L266,190.4Z" transform="translate(20.009 14.433)" fill="#fff"/>
            <path id="Trazado_1239881" data-name="Trazado 1239881" d="M266.644,190.026l1.454.839,2.042-1.179-1.454-.839Z" transform="translate(20.212 14.315)" fill="#fff"/>
            <path id="Trazado_1239882" data-name="Trazado 1239882" d="M271.368,187.3l-2.042,1.178,1.453.839,2.043-1.178Z" transform="translate(20.416 14.198)" fill="#fff"/>
            <path id="Trazado_1239883" data-name="Trazado 1239883" d="M250.7,203.24l-1.454-.839L247.2,203.58l1.454.839Z" transform="translate(18.739 15.343)" fill="#fff"/>
            <path id="Trazado_1239884" data-name="Trazado 1239884" d="M253.38,201.692l-1.454-.84-2.042,1.18,1.454.838Z" transform="translate(18.942 15.225)" fill="#fff"/>
            <path id="Trazado_1239885" data-name="Trazado 1239885" d="M256.063,200.143l-1.454-.839-2.043,1.179,1.454.839Z" transform="translate(19.145 15.108)" fill="#fff"/>
            <path id="Trazado_1239886" data-name="Trazado 1239886" d="M255.248,198.933l1.454.84,2.042-1.179-1.454-.839Z" transform="translate(19.349 14.99)" fill="#fff"/>
            <path id="Trazado_1239887" data-name="Trazado 1239887" d="M259.385,198.224l2.042-1.179-1.453-.838-2.043,1.178Z" transform="translate(19.552 14.873)" fill="#fff"/>
            <path id="Trazado_1239888" data-name="Trazado 1239888" d="M262.655,194.658l-2.042,1.178,1.453.84,2.043-1.179Z" transform="translate(19.755 14.756)" fill="#fff"/>
            <path id="Trazado_1239889" data-name="Trazado 1239889" d="M266.792,193.948l-1.454-.84-2.042,1.179,1.454.839Z" transform="translate(19.959 14.638)" fill="#fff"/>
            <path id="Trazado_1239890" data-name="Trazado 1239890" d="M267.432,193.578l2.042-1.179-1.453-.839-2.043,1.179Z" transform="translate(20.162 14.521)" fill="#fff"/>
            <path id="Trazado_1239891" data-name="Trazado 1239891" d="M268.66,191.19l1.454.84,2.042-1.179-1.455-.839Z" transform="translate(20.365 14.403)" fill="#fff"/>
            <path id="Trazado_1239892" data-name="Trazado 1239892" d="M272.059,186.928l2.17,1.253-2.886,1.665,1.454.839,4.928-2.844L274.1,185.75Z" transform="translate(20.569 14.08)" fill="#fff"/>
            <path id="Trazado_1239893" data-name="Trazado 1239893" d="M255.6,202.856l-1.454-.839-4.928,2.846,1.454.839Z" transform="translate(18.891 15.313)" fill="#fff"/>
            <path id="Trazado_1239894" data-name="Trazado 1239894" d="M258.079,201.308l-1.456-.84-2.042,1.18,1.454.839Z" transform="translate(19.298 15.196)" fill="#fff"/>
            <path id="Trazado_1239895" data-name="Trazado 1239895" d="M260.761,199.759l-1.455-.84-2.042,1.18,1.454.839Z" transform="translate(19.501 15.079)" fill="#fff"/>
            <path id="Trazado_1239896" data-name="Trazado 1239896" d="M263.444,198.21l-1.454-.84-2.042,1.179,1.454.84Z" transform="translate(19.705 14.961)" fill="#fff"/>
            <path id="Trazado_1239897" data-name="Trazado 1239897" d="M266.126,196.661l-1.454-.84L262.63,197l1.454.839Z" transform="translate(19.908 14.844)" fill="#fff"/>
            <path id="Trazado_1239898" data-name="Trazado 1239898" d="M267.354,194.273l-2.042,1.179,1.453.839,2.043-1.178Z" transform="translate(20.111 14.727)" fill="#fff"/>
            <path id="Trazado_1239899" data-name="Trazado 1239899" d="M269.449,194.743l2.042-1.178-1.453-.84-2.043,1.179Z" transform="translate(20.315 14.609)" fill="#fff"/>
            <path id="Trazado_1239900" data-name="Trazado 1239900" d="M274.173,192.015l-1.454-.839-2.042,1.179,1.454.839Z" transform="translate(20.518 14.492)" fill="#fff"/>
            <path id="Trazado_1239901" data-name="Trazado 1239901" d="M273.36,190.923l1.454.839,4.928-2.844-1.456-.84Z" transform="translate(20.721 14.257)" fill="#fff"/>
            <path id="Trazado_1239902" data-name="Trazado 1239902" d="M253.277,204.73l-2.042,1.178,1.453.84,2.043-1.178Z" transform="translate(19.044 15.519)" fill="#fff"/>
            <path id="Trazado_1239903" data-name="Trazado 1239903" d="M253.917,204.36l1.454.839,2.042-1.179-1.454-.839Z" transform="translate(19.248 15.402)" fill="#fff"/>
            <path id="Trazado_1239904" data-name="Trazado 1239904" d="M256.6,202.811l1.454.84,2.042-1.18-1.454-.838Z" transform="translate(19.451 15.284)" fill="#fff"/>
            <path id="Trazado_1239905" data-name="Trazado 1239905" d="M272.867,193.888l-13.585,7.844,1.453.839,13.586-7.844Z" transform="translate(19.654 14.697)" fill="#fff"/>
            <path id="Trazado_1239906" data-name="Trazado 1239906" d="M272.694,193.519l1.454.839,2.042-1.178-1.454-.84Z" transform="translate(20.671 14.58)" fill="#fff"/>
            <path id="Trazado_1239907" data-name="Trazado 1239907" d="M275.376,191.97l1.454.839,2.042-1.178-1.454-.84Z" transform="translate(20.874 14.463)" fill="#fff"/>
            <path id="Trazado_1239908" data-name="Trazado 1239908" d="M278.058,190.422l1.456.839,2.042-1.179-1.456-.839Z" transform="translate(21.078 14.345)" fill="#fff"/>
            <path id="Trazado_1239909" data-name="Trazado 1239909" d="M274.18,181.384l-1.456-.839-2.041,1.179,1.454.839Z" transform="translate(20.519 13.686)" fill="#fff"/>
            <path id="Trazado_1239910" data-name="Trazado 1239910" d="M276.862,179.835,275.407,179l-2.042,1.179,1.454.838Z" transform="translate(20.722 13.568)" fill="#fff"/>
            <path id="Trazado_1239911" data-name="Trazado 1239911" d="M277.5,179.465l2.042-1.179-1.453-.839-2.043,1.178Z" transform="translate(20.925 13.451)" fill="#fff"/>
            <path id="Trazado_1239912" data-name="Trazado 1239912" d="M277.333,183.2l-1.455-.839-2.042,1.179,1.454.839Z" transform="translate(20.758 13.824)" fill="#fff"/>
            <path id="Trazado_1239913" data-name="Trazado 1239913" d="M280.015,181.656l-1.454-.84L276.519,182l1.454.838Z" transform="translate(20.961 13.706)" fill="#fff"/>
            <path id="Trazado_1239914" data-name="Trazado 1239914" d="M282.7,180.107l-1.454-.839-2.042,1.179,1.454.839Z" transform="translate(21.164 13.589)" fill="#fff"/>
            <path id="Trazado_1239915" data-name="Trazado 1239915" d="M279.35,184.369l-1.454-.839-2.042,1.179,1.454.838Z" transform="translate(20.911 13.912)" fill="#fff"/>
            <path id="Trazado_1239916" data-name="Trazado 1239916" d="M282.033,182.821l-1.456-.84-2.042,1.179,1.456.839Z" transform="translate(21.114 13.795)" fill="#fff"/>
            <path id="Trazado_1239917" data-name="Trazado 1239917" d="M281.218,181.611l1.454.839,2.042-1.179-1.454-.839Z" transform="translate(21.317 13.677)" fill="#fff"/>
            <path id="Trazado_1239918" data-name="Trazado 1239918" d="M281.367,185.534l-1.455-.839-2.043,1.179,1.456.838Z" transform="translate(21.063 14)" fill="#fff"/>
            <path id="Trazado_1239919" data-name="Trazado 1239919" d="M284.05,183.984l-1.455-.839-2.043,1.179,1.456.839Z" transform="translate(21.267 13.883)" fill="#fff"/>
            <path id="Trazado_1239920" data-name="Trazado 1239920" d="M283.235,182.775l1.454.839,2.042-1.178-1.455-.839Z" transform="translate(21.47 13.766)" fill="#fff"/>
            <path id="Trazado_1239921" data-name="Trazado 1239921" d="M286.27,185.149l-1.456-.839-4.927,2.844,1.454.84Z" transform="translate(21.216 13.971)" fill="#fff"/>
            <path id="Trazado_1239922" data-name="Trazado 1239922" d="M285.252,183.94l1.454.839,2.042-1.179-1.454-.838Z" transform="translate(21.623 13.854)" fill="#fff"/>
            <path id="Trazado_1239923" data-name="Trazado 1239923" d="M281.9,188.2l1.454.839,2.042-1.179-1.454-.838Z" transform="translate(21.369 14.177)" fill="#fff"/>
            <path id="Trazado_1239924" data-name="Trazado 1239924" d="M284.586,186.653l1.454.839,2.043-1.179-1.454-.838Z" transform="translate(21.572 14.06)" fill="#fff"/>
            <path id="Trazado_1239925" data-name="Trazado 1239925" d="M287.269,185.1l1.454.839,2.042-1.179-1.454-.839Z" transform="translate(21.776 13.942)" fill="#fff"/>
            <path id="Trazado_1239926" data-name="Trazado 1239926" d="M284.064,170.467l2.4-1.4,2.17.7-2.653,1.543Z" transform="translate(21.533 12.816)" fill="#666"/>
            <path id="Trazado_1239927" data-name="Trazado 1239927" d="M295.462,175.586l-5.916,3.438c.19-.111.253-.48.091-.9a13.9,13.9,0,0,0-5.214-5.905l5.916-3.437a13.9,13.9,0,0,1,5.214,5.9c.161.416.1.784-.091.9" transform="translate(21.56 12.795)" fill="#264c6e"/>
            <path id="Trazado_1239928" data-name="Trazado 1239928" d="M284.665,172.026a13.905,13.905,0,0,1,5.214,5.905c.235.6,0,1.108-.421.867l-7.514-4.339a1.7,1.7,0,0,1-.682-1.627c.406-1.769,1.819-1.721,3.4-.807" transform="translate(21.318 12.993)" fill="#141c26"/>
            <path id="Trazado_1239929" data-name="Trazado 1239929" d="M287.489,170.453l2.792-1.623a2.746,2.746,0,0,0-2.621-.436l-2.48,1.441a1.994,1.994,0,0,1,.342-.058,3.776,3.776,0,0,1,1.967.677" transform="translate(21.618 12.751)" fill="#999"/>
            <path id="Trazado_1239930" data-name="Trazado 1239930" d="M284.89,170.039c-1.471.833,1.749-1.033-2.9,1.67a2.749,2.749,0,0,1,2.621.437l2.952-1.716a2.678,2.678,0,0,0-2.67-.391" transform="translate(21.375 12.873)" fill="#fff"/>
            <path id="Trazado_1239931" data-name="Trazado 1239931" d="M307.084,176.955l-4.458-.621-5.718-6.7-5.345-2.059-3.456-.416a1.455,1.455,0,0,0-.75.108l-.715.309h-.886a1.445,1.445,0,0,0-1.336.893l-.971.478a.757.757,0,0,0,.308,1.3h1.21l2.1.632L290.4,172.7l1.8,3.493s-.411.753-.565.793a14.43,14.43,0,0,1-3.67.176l-1.2-.212c-1.094.283-1.693,1.13-.67,1.623l1.605.689,6.35,1.746,4.957.211,6.865,2.042Z" transform="translate(21.467 12.67)" fill="#f79974"/>
            <path id="Trazado_1239932" data-name="Trazado 1239932" d="M270.617,173.591a2.172,2.172,0,0,0-1.272-1.783l-12.357-7.181a6.842,6.842,0,0,0-6.2,0l-24.923,14.389a2.034,2.034,0,0,0-1.247,2.077,1.447,1.447,0,0,1-.045-.269l.01,3.56a2.175,2.175,0,0,0,1.273,1.783l12.357,7.181a6.833,6.833,0,0,0,6.2,0l24.923-14.389a2.191,2.191,0,0,0,1.292-1.807Z" transform="translate(17.023 12.423)" fill="#141c26"/>
            <path id="Trazado_1239933" data-name="Trazado 1239933" d="M225.867,179.016c-1.715.991-1.725,2.6-.02,3.59l12.357,7.182a6.842,6.842,0,0,0,6.2,0l24.923-14.39c1.715-.99,1.723-2.6.02-3.59l-12.357-7.181a6.835,6.835,0,0,0-6.2,0Z" transform="translate(17.023 12.423)" fill="#a1d2e6"/>
            <path id="Trazado_1239934" data-name="Trazado 1239934" d="M244.193,182.669,239.43,179.9l2.33-16.529,2.382,1.383Z" transform="translate(18.15 12.384)" fill="#141c26"/>
            <path id="Trazado_1239935" data-name="Trazado 1239935" d="M243.978,165.043l-2.381-1.383,7.047-4.069,2.381,1.383Z" transform="translate(18.314 12.097)" fill="#333"/>
            <path id="Trazado_1239936" data-name="Trazado 1239936" d="M250.857,160.877l.051,17.913-7.046,4.068-.051-17.912Z" transform="translate(18.482 12.195)" fill="#264c6e"/>
            <path id="Trazado_1239937" data-name="Trazado 1239937" d="M212.32,192.746l-2.437-1.422-.15-52.583,2.437,1.422Z" transform="translate(15.898 10.517)" fill="#141c26"/>
            <path id="Trazado_1239938" data-name="Trazado 1239938" d="M212.171,143.078l-2.437-1.423,71.658-41.371,2.437,1.422Z" transform="translate(15.898 7.602)" fill="#264c6e"/>
            <path id="Trazado_1239939" data-name="Trazado 1239939" d="M283.657,101.606l.148,52.583-71.657,41.372L212,142.978Z" transform="translate(16.07 7.702)" fill="#fff"/>
            <path id="Trazado_1239940" data-name="Trazado 1239940" d="M213.958,191.946l-.013-.954-.127-47.133L280.764,105.2l.806-.459.14,48.088Z" transform="translate(16.208 7.94)" fill="#1a1a1a"/>
            <path id="Trazado_1239941" data-name="Trazado 1239941" d="M213.945,190.959l-.126-47.134,66.944-38.656.117,47.15Z" transform="translate(16.208 7.972)" fill="#00aee8"/>
            <path id="Trazado_1239942" data-name="Trazado 1239942" d="M224.034,141.728l-8.791,5.076v-.77l8.791-5.076Z" transform="translate(16.316 10.685)" fill="#fff"/>
            <path id="Trazado_1239943" data-name="Trazado 1239943" d="M224.034,143.386l-8.791,5.076v-.77l8.791-5.076Z" transform="translate(16.316 10.811)" fill="#fff"/>
            <path id="Trazado_1239944" data-name="Trazado 1239944" d="M221.535,146.385l-6.291,3.632v-.769l6.291-3.633Z" transform="translate(16.316 11.038)" fill="#fff"/>
            <path id="Trazado_1239945" data-name="Trazado 1239945" d="M224.034,148.358l-8.791,5.076v-.77l8.791-5.076Z" transform="translate(16.316 11.188)" fill="#fff"/>
            <path id="Trazado_1239946" data-name="Trazado 1239946" d="M222.888,150.631l-7.645,4.414v-.77l7.645-4.413Z" transform="translate(16.316 11.36)" fill="#fff"/>
            <path id="Trazado_1239947" data-name="Trazado 1239947" d="M220.09,157.1l-4.847,2.8v-.769l4.847-2.8Z" transform="translate(16.316 11.851)" fill="#fff"/>
            <path id="Trazado_1239948" data-name="Trazado 1239948" d="M221.764,157.863l-6.522,3.765v-.77l6.522-3.764Z" transform="translate(16.316 11.908)" fill="#fff"/>
            <path id="Trazado_1239949" data-name="Trazado 1239949" d="M275.512,118.021l-7.7,4.446v-.675l7.7-4.446Z" transform="translate(20.301 8.895)" fill="#fff"/>
            <path id="Trazado_1239950" data-name="Trazado 1239950" d="M275.512,119.473l-7.7,4.446v-.675l7.7-4.446Z" transform="translate(20.301 9.005)" fill="#fff"/>
            <path id="Trazado_1239951" data-name="Trazado 1239951" d="M273.323,122.1l-5.512,3.182v-.674l5.512-3.182Z" transform="translate(20.301 9.204)" fill="#fff"/>
            <path id="Trazado_1239952" data-name="Trazado 1239952" d="M275.512,115.072l-7.7,4.446v-.675l7.7-4.446Z" transform="translate(20.301 8.672)" fill="#fff"/>
            <path id="Trazado_1239953" data-name="Trazado 1239953" d="M274.508,117.063l-6.7,3.866v-.675l6.7-3.866Z" transform="translate(20.301 8.823)" fill="#fff"/>
            <path id="Trazado_1239954" data-name="Trazado 1239954" d="M272.057,111.931l-4.246,2.452v-.675l4.246-2.452Z" transform="translate(20.301 8.434)" fill="#fff"/>
            <path id="Trazado_1239955" data-name="Trazado 1239955" d="M273.523,112.6l-5.713,3.3v-.675l5.713-3.3Z" transform="translate(20.301 8.484)" fill="#fff"/>
            <path id="Trazado_1239956" data-name="Trazado 1239956" d="M302.869,248.281s-3.1-33.928,1.378-34.788c0,0,16.017.516,28.933,8.955s-30.311,25.833-30.311,25.833" transform="translate(22.879 16.183)" fill="#25435c"/>
            <g id="Grupo_1238838" data-name="Grupo 1238838" transform="translate(324.703 229.675)" opacity="0.5" style="mix-blend-mode: multiply;isolation: isolate">
              <g id="Grupo_1238837" data-name="Grupo 1238837">
                <g id="Grupo_1238836" data-name="Grupo 1238836" clip-path="url(#clip-path-7)">
                  <path id="Trazado_1239957" data-name="Trazado 1239957" d="M302.869,248.281s-3.1-33.928,1.378-34.788c0,0,16.017.516,28.933,8.955s-30.311,25.833-30.311,25.833" transform="translate(-301.824 -213.492)" fill="#25435c"/>
                </g>
              </g>
            </g>
            <path id="Trazado_1239958" data-name="Trazado 1239958" d="M283.756,283.782c2.039,3.434,1.1,9.167-.1,11.765-3.552,1.335-6.526,1.6-8.594.186-6.714-.4-10.469.495-13.923-.487-3.674-1.045-6.178-2.149-8.059-5.819a3.971,3.971,0,0,1,3.264-5.163c5.578-.228,10.585-.684,13.316-2.053l4.764-8.7,8.647,6.818Z" transform="translate(19.167 20.733)"/>
            <path id="Trazado_1239959" data-name="Trazado 1239959" d="M357.71,253.4c-2.926,6.682-10.161,13.087-22.893,14.689-3.914.474-9.588-.732-15.8-2.749-5-1.621-10.339-3.756-15.341-5.91l-1.364-.593c-2.254-.989-4.409-1.958-6.425-2.887-.356-.158-.712-.315-1.048-.494-1.621-.751-3.143-1.463-4.527-2.115a81.124,81.124,0,0,0-7.632-3.4c2.234,8.263.791,38.451.791,38.451-4.883,4.686-13.344.91-14.116-4.171,0,0-4.131-29.1-4.823-39.618a17.21,17.21,0,0,1,.633-6.327c1.581-5.061,5.4-6.247,5.4-6.247,6.108-2.1,13.146-2.174,19.75-1.423,2.708.316,5.337.771,7.789,1.3.85.178,1.66.355,2.452.553.593.139,1.186.3,1.74.435.791.2,1.542.4,2.254.613.3.08.593.179.89.257.395.118.77.217,1.126.337.791.237,1.522.474,2.214.692.455.158.87.3,1.265.435.535.178,1.009.356,1.423.514.179.059.356.118.514.178.989.375,1.522.594,1.522.594l5.338-.634,37.582-4.527c2.57,8.678,3.083,17.911,1.284,22.043" transform="translate(20.049 17.448)" fill="#25435c"/>
            <path id="Trazado_1239960" data-name="Trazado 1239960" d="M317.2,265.306c-5-1.621-10.34-3.756-15.341-5.912L300.5,258.8c-2.254-.989-4.409-1.957-6.425-2.886-.356-.158-.712-.316-1.048-.494-1.621-.752-3.143-1.463-4.527-2.115V230.572c2.708.316,5.337.77,7.789,1.3.85.179,1.66.356,2.452.554.593.138,1.186.3,1.74.435.791.2,1.542.4,2.253.613.3.079.594.178.89.257.4.118.771.217,1.127.336.791.238,1.522.474,2.214.693.455.157.87.3,1.265.435.534.178,1.008.355,1.423.514.179.059.356.118.514.178.989.375,1.522.593,1.522.593l1.206,6.326Z" transform="translate(21.869 17.478)" fill="#25435c"/>
            <g id="Grupo_1238841" data-name="Grupo 1238841" transform="translate(285.217 247.616)" opacity="0.5" style="mix-blend-mode: multiply;isolation: isolate">
              <g id="Grupo_1238840" data-name="Grupo 1238840">
                <g id="Grupo_1238839" data-name="Grupo 1238839" clip-path="url(#clip-path-8)">
                  <path id="Trazado_1239961" data-name="Trazado 1239961" d="M323.421,244.9c-28.429-7.118-28.548-7.275-33.827-8.066-10.972-1.62-20.7-.909-24.475,1.444,1.581-5.062,5.4-6.247,5.4-6.247,6.108-2.1,13.146-2.174,19.75-1.423a85.01,85.01,0,0,1,10.241,1.858,100.223,100.223,0,0,1,12.948,4.053,31.614,31.614,0,0,0,9.965,8.383" transform="translate(-265.12 -230.169)" fill="#25435c"/>
                </g>
              </g>
            </g>
            <path id="Trazado_1239962" data-name="Trazado 1239962" d="M301.376,175.688a6.306,6.306,0,0,0-.349,8.078l16.36,9.279,8.29-12.789Z" transform="translate(22.717 13.318)" fill="#ff3636"/>
            <path id="Trazado_1239963" data-name="Trazado 1239963" d="M310.561,181.149l-5.9-2.275c-2.765-1.464-3.829-6.7-4.254-10.551l-.892-8.072,1.376-5.129,18.831-.988,4.789,12.583-2.26,12.513Z" transform="translate(22.704 11.684)" fill="#f29b79"/>
            <path id="Trazado_1239964" data-name="Trazado 1239964" d="M342.549,248.349c-8.7,4.942-16.231,3.519-21.767.652a31.734,31.734,0,0,1-9.983-8.4s-1.443-6.939-6.723-19.354a41.433,41.433,0,0,1-1.818-5.259,61.214,61.214,0,0,1-1.837-21.134s17.218-11.031,23.644-15.4c6.424-4.349,16.763-2.985,16.763-2.985,9.865,2.985,11.013,23.427,10.1,31.928-.928,8.5,1.266,15.341,2.79,27.045,1.106,8.659-4.508,9.114-11.17,12.91" transform="translate(22.755 13.361)" fill="#ff3636"/>
            <g id="Grupo_1238844" data-name="Grupo 1238844" transform="translate(325.013 221.974)" opacity="0.5" style="mix-blend-mode: multiply;isolation: isolate">
              <g id="Grupo_1238843" data-name="Grupo 1238843">
                <g id="Grupo_1238842" data-name="Grupo 1238842" clip-path="url(#clip-path-9)">
                  <path id="Trazado_1239965" data-name="Trazado 1239965" d="M320.617,246.7a31.614,31.614,0,0,1-9.965-8.383s-1.443-6.939-6.722-19.354a41.433,41.433,0,0,1-1.818-5.259l6.7-7.375c.989,15.025,4.626,28.626,11.8,40.37" transform="translate(-302.112 -206.333)" fill="#941826"/>
                </g>
              </g>
            </g>
            <path id="Trazado_1239966" data-name="Trazado 1239966" d="M311.493,186.775l-3.143-9.768,14.68-5.288,4.785,5.727c-6.409.141-11.269,3.42-16.322,9.329" transform="translate(23.374 13.017)" fill="#f29b79"/>
            <path id="Trazado_1239967" data-name="Trazado 1239967" d="M309.3,183.81v4.9s17.739-11.636,21.8-11.893a36.347,36.347,0,0,1-4.744-2.252c-2.4-2.641-17.1,8.418-17.053,9.242" transform="translate(23.446 13.202)" fill="#82171c"/>
            <path id="Trazado_1239968" data-name="Trazado 1239968" d="M265.261,212.716l-3.8-4.167L257.982,207l-4.306-3.525-2.594-1.425-1.024.037h-1.424c-1.352.109-1.572-1.352-.257-1.651l2.559-.339,2.813.675.146-.675-3.119-2.048-1.878-.464c-.85.006-1.325-1.309-.092-1.752l1.837-.214,1.168-.686a3,3,0,0,1,1.957-.379l1.26.188,1.65-1.038a1.658,1.658,0,0,1,1.8.025l2.616,1.744,2.97,2.62a3.439,3.439,0,0,1,2.728,1.316c.813.931-.422,4.1-.422,4.1l4.851,4.722Z" transform="translate(18.761 14.664)" fill="#f79974"/>
            <path id="Trazado_1239969" data-name="Trazado 1239969" d="M265.9,203.778a5.757,5.757,0,0,0-5.209,5.64s13.557,21.01,22.278,20.322c0,0,8.047-.586,26.295-15.965,9.209-8.586,7.774-15.729-3.742-21.5,0,0-10.818,5.006-12.885,12.67l-9.668,10.16Z" transform="translate(19.761 14.575)" fill="#ff3636"/>
            <path id="Trazado_1239970" data-name="Trazado 1239970" d="M299.72,161.916l4.838,3.874a4.085,4.085,0,0,1,1.477,2.523l.662,4,2.651,2.014.1,3.39a5.145,5.145,0,0,0,3.86,1.7c1.69.057,4.362-1.456,7.6-2.866,3.659-1.593,5.106-3,5.577-9.069.456-5.894.18-11.593-5.666-15.671-5.322-3.714-16-2.638-19.814,1.565-1.99,2.194-3.231,6.058-1.288,8.535" transform="translate(22.646 11.336)"/>
            <path id="Trazado_1239971" data-name="Trazado 1239971" d="M309.176,169.1a5.362,5.362,0,0,1,.735,2.726,4.092,4.092,0,0,1-.5,2.512,1.752,1.752,0,0,1-2.261.656c-1.034-.662-2.041-4.248-1.872-5.484.283-2.075,2.9-1.907,3.9-.41" transform="translate(23.14 12.732)" fill="#eb856e"/>
            <path id="Trazado_1239972" data-name="Trazado 1239972" d="M300.574,166.8c.261-3.885,3.306-5.643,6.8-3.927a11.349,11.349,0,0,1,5.855,10.141c-.261,3.886-3.306,5.644-6.8,3.928a11.352,11.352,0,0,1-5.855-10.142" transform="translate(22.783 12.297)"/>
            <path id="Trazado_1239973" data-name="Trazado 1239973" d="M308.234,176.739l.7-.406a3.359,3.359,0,0,0,1.4-3.093,10.559,10.559,0,0,0-4.775-8.272,3.357,3.357,0,0,0-3.378-.335l-.7.407Z" transform="translate(22.853 12.456)" fill="#264c6e"/>
            <path id="Trazado_1239974" data-name="Trazado 1239974" d="M300.179,168.1c0-3.046,2.139-4.281,4.776-2.757a10.557,10.557,0,0,1,4.777,8.272c0,3.047-2.139,4.281-4.777,2.758a10.561,10.561,0,0,1-4.776-8.273" transform="translate(22.754 12.484)" fill="#a1d2e6"/>
            <path id="Trazado_1239975" data-name="Trazado 1239975" d="M317.542,158.178c0-3.046,2.138-4.281,4.774-2.757a10.556,10.556,0,0,1,4.778,8.272c0,3.046-2.14,4.281-4.778,2.757a10.556,10.556,0,0,1-4.774-8.272" transform="translate(24.071 11.732)" fill="#4d4d4d"/>
            <path id="Trazado_1239976" data-name="Trazado 1239976" d="M326.431,165.378l1.108-.64A2.967,2.967,0,0,0,328.776,162a9.336,9.336,0,0,0-4.223-7.313,2.971,2.971,0,0,0-2.986-.3l-1.108.64Z" transform="translate(24.292 11.682)" fill="#264c6e"/>
            <path id="Trazado_1239977" data-name="Trazado 1239977" d="M327.755,162.6c0,2.694-1.891,3.783-4.221,2.437a9.324,9.324,0,0,1-4.223-7.313c0-2.424,1.531-3.548,3.539-2.768a5.2,5.2,0,0,1,.683.33,8.759,8.759,0,0,1,3.146,3.445,8.452,8.452,0,0,1,1.076,3.87" transform="translate(24.205 11.727)" fill="#a1d2e6"/>
            <path id="Trazado_1239978" data-name="Trazado 1239978" d="M315.19,158.461c.261-3.885,3.306-5.643,6.8-3.927a11.349,11.349,0,0,1,5.855,10.141c-.261,3.885-3.306,5.643-6.8,3.927a11.351,11.351,0,0,1-5.855-10.141" transform="translate(23.891 11.664)"/>
            <path id="Trazado_1239979" data-name="Trazado 1239979" d="M322.85,168.4l.7-.407a3.355,3.355,0,0,0,1.4-3.092,10.557,10.557,0,0,0-4.777-8.272,3.355,3.355,0,0,0-3.377-.335l-.7.406Z" transform="translate(23.961 11.823)"/>
            <path id="Trazado_1239980" data-name="Trazado 1239980" d="M319.772,156.845a5.356,5.356,0,0,1,.567.284,9.34,9.34,0,0,1,4.224,7.314,4.916,4.916,0,0,1-.039.632c-.276,2.224-2.044,3.042-4.185,1.807a9.343,9.343,0,0,1-4.224-7.314c0-2.469,1.592-3.592,3.657-2.723" transform="translate(23.962 11.867)" fill="#7964b3"/>
            <path id="Trazado_1239981" data-name="Trazado 1239981" d="M319.637,156.824a5.353,5.353,0,0,1,.567.284,9.34,9.34,0,0,1,4.224,7.314,4.922,4.922,0,0,1-.039.632c-.6.854-1.725,1.014-3.011.27A7.681,7.681,0,0,1,317.9,159.3c0-1.489.7-2.383,1.738-2.475" transform="translate(24.098 11.888)" fill="#1a1a1a"/>
            <path id="Trazado_1239982" data-name="Trazado 1239982" d="M328.032,159.426a8.761,8.761,0,0,0-3.147-3.445,5.393,5.393,0,0,0-.682-.33,10.491,10.491,0,0,0-2.191-6.249,8.92,8.92,0,0,0-5.256,1.378c-5.947,3.434-11.278,11.842-11.544,19.358l-.554.32-3.191-1.856c.273-8.4,4.441-17.625,11.152-21.5,3.161-1.826,5.871-2,7.887-.827l4.125,2.4c3.566,2.067,3.518,8.911,3.4,10.751" transform="translate(22.852 11.032)" fill="#141c26"/>
            <path id="Trazado_1239983" data-name="Trazado 1239983" d="M320.5,146.277c-2.015-1.172-4.725-1-7.886.825-6.711,3.875-10.88,13.1-11.151,21.5l3.189,1.856c.272-8.4,5.385-17.077,12.1-20.951,3.161-1.826,5.871-2,7.886-.826Z" transform="translate(22.852 11.032)" fill="#264c6e"/>
            <path id="Trazado_1239984" data-name="Trazado 1239984" d="M305.846,177.165l1.108-.64a2.967,2.967,0,0,0,1.237-2.734,9.336,9.336,0,0,0-4.223-7.313,2.968,2.968,0,0,0-2.986-.3l-1.108.64Z" transform="translate(22.731 12.576)" fill="#264c6e"/>
            <path id="Trazado_1239985" data-name="Trazado 1239985" d="M298.725,169.509c0-2.693,1.89-3.784,4.223-2.438a9.336,9.336,0,0,1,4.223,7.313c0,2.693-1.89,3.786-4.223,2.438a9.328,9.328,0,0,1-4.223-7.313" transform="translate(22.644 12.621)" fill="#a1d2e6"/>
            <path id="Trazado_1239986" data-name="Trazado 1239986" d="M299.227,170.567c0-1.853,1.3-2.6,2.906-1.677a6.42,6.42,0,0,1,2.906,5.033c0,1.853-1.3,2.6-2.906,1.677a6.422,6.422,0,0,1-2.906-5.033" transform="translate(22.682 12.772)" fill="#fff"/>
            <path id="Trazado_1239987" data-name="Trazado 1239987" d="M314.842,153.468v24.961c1.39-.56,3.024-1.377,4.848-2.171,3.66-1.593,5.107-3,5.577-9.068.388-5.008.233-9.869-3.4-13.722Z" transform="translate(23.866 11.633)"/>
            <path id="Trazado_1239988" data-name="Trazado 1239988" d="M174.375,99.361a.871.871,0,0,0,.19.6l4.428,4.6a1.133,1.133,0,0,1,.274.815,3.061,3.061,0,0,1-.613,1.693l-4.252,5.963a2.869,2.869,0,0,1-.623.627l-2.591-2.692a.484.484,0,0,0-.295-.111c.184.024-3.287-1.986-3.287-1.986-.473-.274-1.326.313-1.648,1.214a16.385,16.385,0,0,0-.968,5.428c-.016,3.989,1.532,7.41,4,8.838l2.1,1.218a4.019,4.019,0,0,1,.666,2.43l-.354,47.154a10.215,10.215,0,0,1-1.664,5.036A21.653,21.653,0,0,0,166.216,191a11.662,11.662,0,0,0,.17,2.08,7.888,7.888,0,0,0,3.742,5.422l3.472,2.011c2.1,1.249,5.03,1.441,8.091-.474a2.312,2.312,0,0,0,.974-1.769.9.9,0,0,0-.134-.517l-3.986-5.734a1.272,1.272,0,0,1-.186-.719,3.188,3.188,0,0,1,.729-1.871l4.564-5.615a24.571,24.571,0,0,1,2.27,2.943.531.531,0,0,0,.167.156l3.472,2.01a.512.512,0,0,1-.167-.157c.4.585,1.472-.04,1.836-1.116a19.537,19.537,0,0,0,1.034-6.057c.015-3.857-1.307-7.062-3.715-8.385.109.043-2.532-1.486-2.532-1.486a4.323,4.323,0,0,1-.569-2.3l.354-47.1a10.05,10.05,0,0,1,1.57-4.873,26.667,26.667,0,0,0,3.2-7.95,16.215,16.215,0,0,0,.385-3.336c.014-3.6-1.449-6.087-3.646-7.281.153.073-3.319-1.936-3.319-1.936-2.312-1.339-5.488-1.2-8.627.653a2.245,2.245,0,0,0-.983,1.769" transform="translate(12.507 7.281)" fill="#25435c"/>
            <path id="Trazado_1239989" data-name="Trazado 1239989" d="M168.219,117.378a16.4,16.4,0,0,1,.968-5.43c.349-.976,1.321-1.583,1.758-1.125l4.663,4.843c.468.476,1.362.15,2.023-.769l4.252-5.963a3.064,3.064,0,0,0,.613-1.693,1.133,1.133,0,0,0-.274-.815l-4.428-4.6a.872.872,0,0,1-.19-.6,2.245,2.245,0,0,1,.983-1.769c6.009-3.543,12.15-.823,12.12,6.555a16.2,16.2,0,0,1-.385,3.335,26.673,26.673,0,0,1-3.2,7.951,10.058,10.058,0,0,0-1.57,4.873l-.354,47.1c-.006,1.687.629,3.008,1.834,3.283,3.214.775,5,4.4,4.982,8.892a19.566,19.566,0,0,1-1.033,6.057c-.365,1.076-1.432,1.7-1.837,1.117l-3.783-5.451c-.389-.576-1.267-.349-1.959.5l-4.564,5.616a3.192,3.192,0,0,0-.729,1.87,1.261,1.261,0,0,0,.187.719l3.985,5.735a.9.9,0,0,1,.134.517,2.313,2.313,0,0,1-.974,1.769c-5.7,3.564-10.975-.133-11.833-4.949a11.768,11.768,0,0,1-.171-2.081,21.677,21.677,0,0,1,3.526-10.811,10.218,10.218,0,0,0,1.664-5.036l.354-47.154c.006-1.6-.568-2.826-1.662-3.164-3.1-.949-5.125-4.764-5.106-9.322" transform="translate(12.751 7.423)" fill="#25435c"/>
            <path id="Trazado_1239990" data-name="Trazado 1239990" d="M174.233,116.75a2.474,2.474,0,0,0,1.992.742,3.807,3.807,0,0,0,2.693-1.7l4.258-5.97c.093-.129.181-.266.263-.4a4.652,4.652,0,0,0,.672-2.294,2.853,2.853,0,0,0-.771-2.039l-4.031-4.184a.364.364,0,0,1,.065-.084c2.444-1.437,5.008-1.683,6.831-.635,1.713.982,2.651,3.009,2.64,5.7a14.493,14.493,0,0,1-.346,2.976,24.95,24.95,0,0,1-2.918,7.3l-.073.125a11.882,11.882,0,0,0-1.813,5.753l-.355,47.1c-.01,2.621,1.211,4.53,3.187,4.981,2.212.534,3.646,3.358,3.631,7.19a17.673,17.673,0,0,1-.706,4.743l-2.781-4.006a2.432,2.432,0,0,0-1.916-1.063,3.539,3.539,0,0,0-2.816,1.451l-4.568,5.62a5.516,5.516,0,0,0-.437.634,4.722,4.722,0,0,0-.681,2.328,3.007,3.007,0,0,0,.488,1.7l3.76,5.41a.673.673,0,0,1-.122.172,5.917,5.917,0,0,1-5.76.691,6.083,6.083,0,0,1-3.417-4.484,10.015,10.015,0,0,1-.144-1.77,19.539,19.539,0,0,1,2.972-9.418c.1-.164.452-.75.452-.75a11.692,11.692,0,0,0,1.765-5.681l.355-47.157c.01-2.461-1.07-4.267-2.89-4.827-2.3-.7-3.893-3.85-3.878-7.653a14.53,14.53,0,0,1,.7-4.355Z" transform="translate(12.874 7.545)" fill="#a1d2e6"/>
            <path id="Trazado_1239991" data-name="Trazado 1239991" d="M262.057,137.882c0-9.769-6.858-13.729-15.319-8.844S231.419,145.8,231.419,155.57s6.858,13.729,15.318,8.845,15.319-16.764,15.319-26.534" transform="translate(17.542 9.623)" fill="#fff"/>
            <path id="Trazado_1239992" data-name="Trazado 1239992" d="M246.192,152.09c1.9-1.1,3.145-.269,3.184,1.86a6.657,6.657,0,0,1-3.163,5.518c-1.87,1.079-3.146.231-3.151-1.873a6.647,6.647,0,0,1,3.13-5.5" transform="translate(18.425 11.492)" fill="#ff3636"/>
            <path id="Trazado_1239993" data-name="Trazado 1239993" d="M246.789,132.512c4.657-2.688,6.782-.952,6.792,2.412.009,3.081-1.643,6.071-2.976,8.542a12.163,12.163,0,0,0-1.788,6.108l0,.734-4.692,2.709-.042-1.033c-.107-2.013.486-4.462,2.064-7.57,1.126-2.19,2.041-4.019,2.037-5.4,0-1.421-.818-1.886-2.582-.951a12.65,12.65,0,0,0-3.489,3.239l-1.217-3.731a22.152,22.152,0,0,1,5.89-5.063" transform="translate(18.261 9.945)" fill="#ff3636"/>
            <path id="Trazado_1239994" data-name="Trazado 1239994" d="M340.333,235.519,353.5,225.257l14.249-6.652,2.128,1.237c1.378.793,2.242,2.506,2.25,4.945l.01,3.686a16.948,16.948,0,0,1-7.689,13.318L346.417,252.2c-2.154,1.244-4.1,1.352-5.508.524.019.014-1.654-.959-1.654-.959l-1.574-5.874Z" transform="translate(25.597 16.571)" fill="#b3b3b3"/>
            <path id="Trazado_1239995" data-name="Trazado 1239995" d="M353.853,225.451l.841-.655-.841.655-.957.446.957-.446-13.169,10.262.338-1.323-.338,1.323-.775.6.775-.6-2.653,10.375-.4-1.486.4,1.486-.265,1.037.265-1.037,1.574,5.874-4.3-2.5c-1.385-.8-2.243-2.515-2.251-4.948l-.01-3.686a16.943,16.943,0,0,1,7.689-13.315L358.768,217.1c2.144-1.238,4.087-1.353,5.49-.538L368.1,218.8Z" transform="translate(25.246 16.377)" fill="#00aee8"/>
            <path id="Trazado_1239996" data-name="Trazado 1239996" d="M344.5,229.707a16.939,16.939,0,0,0-7.689,13.314l.011,3.687c.013,4.895,3.479,6.87,7.738,4.41l18.034-10.411a16.949,16.949,0,0,0,7.689-13.318l-.011-3.686c-.014-4.895-3.479-6.867-7.739-4.408Z" transform="translate(25.531 16.543)" fill="#34424b"/>
            <path id="Trazado_1239997" data-name="Trazado 1239997" d="M344.5,229.707a16.939,16.939,0,0,0-7.689,13.314l.011,3.687c.013,4.895,3.479,6.87,7.738,4.41l18.034-10.411a16.949,16.949,0,0,0,7.689-13.318l-.011-3.686c-.014-4.895-3.479-6.867-7.739-4.408Z" transform="translate(25.531 16.543)" fill="#fff"/>
            <path id="Trazado_1239998" data-name="Trazado 1239998" d="M346.287,230.741a16.94,16.94,0,0,0-7.689,13.314l.011,3.687c.014,4.895,3.479,6.87,7.739,4.41l18.033-10.411a16.948,16.948,0,0,0,7.689-13.318l-.011-3.686c-.014-4.895-3.479-6.867-7.739-4.408Z" transform="translate(25.667 16.621)" fill="gray"/>
            <path id="Trazado_1239999" data-name="Trazado 1239999" d="M349.471,280.459c4.963-.825,8.045-5,8.045-10.9V233.38a1.48,1.48,0,0,0-2.247-1.266l-.791.48a3.364,3.364,0,0,0-1.621,2.878v34.086c0,2.1-.539,5.7-4.15,6.3Z" transform="translate(26.433 17.579)" fill="#333"/>
            <path id="Trazado_1240000" data-name="Trazado 1240000" d="M267.441,91.376l-8.12-4.72-2.3-3.412,8.121,4.72Z" transform="translate(19.483 6.31)" fill="#25435c"/>
            <path id="Trazado_1240001" data-name="Trazado 1240001" d="M279.975,62.273l-8.12-4.72,4.122.253,8.121,4.72Z" transform="translate(20.607 4.363)" fill="#25435c"/>
            <path id="Trazado_1240002" data-name="Trazado 1240002" d="M256.664,96.634l-8.12-4.72.065-5.461,8.121,4.72Z" transform="translate(18.84 6.553)" fill="#25435c"/>
            <path id="Trazado_1240003" data-name="Trazado 1240003" d="M278.515,53.63l-8.12-4.72,4.711-2.809,8.12,4.72Z" transform="translate(20.497 3.495)" fill="#25435c"/>
            <path id="Trazado_1240004" data-name="Trazado 1240004" d="M276.794,44.273l-8.121-4.72,2.6,1.479,8.12,4.718Z" transform="translate(20.366 2.998)" fill="#36a1d4"/>
            <path id="Trazado_1240005" data-name="Trazado 1240005" d="M247.895,94.753l-8.12-4.72,2.41-6.044,8.121,4.72Z" transform="translate(18.176 6.367)" fill="#25435c"/>
            <path id="Trazado_1240006" data-name="Trazado 1240006" d="M273.047,49.385l-8.121-4.72,4.031-5.112,8.121,4.718Z" transform="translate(20.082 2.998)" fill="#25435c"/>
            <path id="Trazado_1240007" data-name="Trazado 1240007" d="M250.253,88.873l-8.121-4.72-1.66-2.33,8.12,4.72Z" transform="translate(18.228 6.202)" fill="#25435c"/>
            <path id="Trazado_1240008" data-name="Trazado 1240008" d="M270.382,48.8l-8.12-4.72,2.866.242,8.121,4.718Z" transform="translate(19.88 3.342)" fill="#25435c"/>
            <path id="Trazado_1240009" data-name="Trazado 1240009" d="M243.323,86.234l-8.12-4.72,4.107-5,8.121,4.718Z" transform="translate(17.829 5.8)" fill="#25435c"/>
            <path id="Trazado_1240010" data-name="Trazado 1240010" d="M244.28,89.4l-8.12-4.72-.957-3.52,8.121,4.72Z" transform="translate(17.829 6.152)" fill="#25435c"/>
            <path id="Trazado_1240011" data-name="Trazado 1240011" d="M265.033,50.667l-8.12-4.72,2.274-6.055,8.12,4.72Z" transform="translate(19.475 3.024)" fill="#25435c"/>
            <path id="Trazado_1240012" data-name="Trazado 1240012" d="M267.147,44.679l-8.12-4.72,3.545-.954,8.12,4.72Z" transform="translate(19.635 2.957)" fill="#25435c"/>
            <path id="Trazado_1240013" data-name="Trazado 1240013" d="M247.143,81.5l-8.121-4.72-.011-3.8,8.121,4.72Z" transform="translate(18.118 5.532)" fill="#25435c"/>
            <path id="Trazado_1240014" data-name="Trazado 1240014" d="M261.966,52.145l-8.12-4.72,3.3-1.9,8.121,4.718Z" transform="translate(19.242 3.451)" fill="#25435c"/>
            <path id="Trazado_1240015" data-name="Trazado 1240015" d="M248.547,71.032l-8.12-4.72,1.642-4.238,8.12,4.72Z" transform="translate(18.225 4.705)" fill="#25435c"/>
            <path id="Trazado_1240016" data-name="Trazado 1240016" d="M253.972,60.288l-8.12-4.72,2.856-3.545,8.12,4.718Z" transform="translate(18.636 3.944)" fill="#25435c"/>
            <path id="Trazado_1240017" data-name="Trazado 1240017" d="M229.886,106.131l-8.12-4.72-1.589-2.9,8.12,4.72Z" transform="translate(16.69 7.467)" fill="#82171c"/>
            <path id="Trazado_1240018" data-name="Trazado 1240018" d="M241.956,79.58l-8.12-4.72,3.326-.109,8.12,4.72Z" transform="translate(17.725 5.666)" fill="#82171c"/>
            <path id="Trazado_1240019" data-name="Trazado 1240019" d="M243.3,77.791l-8.12-4.72.934-4.612,8.12,4.72Z" transform="translate(17.827 5.189)" fill="#25435c"/>
            <path id="Trazado_1240020" data-name="Trazado 1240020" d="M244.167,73.365l-8.12-4.72,4.712-2.631,8.12,4.72Z" transform="translate(17.893 5.004)" fill="#25435c"/>
            <path id="Trazado_1240021" data-name="Trazado 1240021" d="M256.538,51.974l-8.12-4.72,3.538-3.135,8.121,4.718Z" transform="translate(18.831 3.344)" fill="#25435c"/>
            <path id="Trazado_1240022" data-name="Trazado 1240022" d="M256.634,57.12l-8.12-4.72-.1-5.367,8.121,4.72Z" transform="translate(18.831 3.565)" fill="#25435c"/>
            <path id="Trazado_1240023" data-name="Trazado 1240023" d="M250.245,67.023l-8.12-4.72-2.438-3.246,8.121,4.72Z" transform="translate(18.169 4.477)" fill="#25435c"/>
            <path id="Trazado_1240024" data-name="Trazado 1240024" d="M250.211,59.62l-8.12-4.72,4.046.45,8.12,4.72Z" transform="translate(18.351 4.162)" fill="#25435c"/>
            <path id="Trazado_1240025" data-name="Trazado 1240025" d="M247.808,64.093l-8.121-4.72,2.585-4.472,8.121,4.718Z" transform="translate(18.169 4.162)" fill="#25435c"/>
            <path id="Trazado_1240026" data-name="Trazado 1240026" d="M220.089,108.863l-8.12-4.72.665-4.541,8.12,4.72Z" transform="translate(16.068 7.55)" fill="#82171c"/>
            <path id="Trazado_1240027" data-name="Trazado 1240027" d="M239.073,72.71l-8.12-4.72,3.609-2.858,8.12,4.72Z" transform="translate(17.507 4.937)" fill="#82171c"/>
            <path id="Trazado_1240028" data-name="Trazado 1240028" d="M237.018,71.338l-8.121-4.72,2.211,1.26,8.121,4.72Z" transform="translate(17.351 5.05)" fill="#ff4d53"/>
            <path id="Trazado_1240029" data-name="Trazado 1240029" d="M213.759,103.554l-8.12-4.72L208.3,94.4l8.12,4.72Z" transform="translate(15.588 7.155)" fill="#82171c"/>
            <path id="Trazado_1240030" data-name="Trazado 1240030" d="M215.414,106l-8.12-4.72-1.655-2.762,8.12,4.72Z" transform="translate(15.588 7.468)" fill="#82171c"/>
            <path id="Trazado_1240031" data-name="Trazado 1240031" d="M232.288,71.621l-8.12-4.72,2.517-4.527,8.121,4.72Z" transform="translate(16.993 4.728)" fill="#82171c"/>
            <path id="Trazado_1240032" data-name="Trazado 1240032" d="M234.629,67.093l-8.121-4.72,3.235.025,8.121,4.72Z" transform="translate(17.17 4.728)" fill="#82171c"/>
            <path id="Trazado_1240033" data-name="Trazado 1240033" d="M216.265,99.345l-8.12-4.72-.5-3.258,8.12,4.72Z" transform="translate(15.74 6.926)" fill="#82171c"/>
            <path id="Trazado_1240034" data-name="Trazado 1240034" d="M229.429,72.515l-8.12-4.72,3.076-1.212,8.121,4.718Z" transform="translate(16.776 5.047)" fill="#82171c"/>
            <path id="Trazado_1240035" data-name="Trazado 1240035" d="M216.58,89.881l-8.121-4.72,1.407-4.008,8.121,4.72Z" transform="translate(15.802 6.152)" fill="#82171c"/>
            <path id="Trazado_1240036" data-name="Trazado 1240036" d="M221.623,79.63l-8.12-4.72,2.768-3.224,8.121,4.72Z" transform="translate(16.184 5.434)" fill="#82171c"/>
            <path id="Trazado_1240037" data-name="Trazado 1240037" d="M212.678,96.5l-8.121-4.72.555-4.434,8.121,4.718Z" transform="translate(15.506 6.621)" fill="#82171c"/>
            <path id="Trazado_1240038" data-name="Trazado 1240038" d="M213.193,92.249l-8.12-4.72,3.643-2.65,8.121,4.72Z" transform="translate(15.545 6.434)" fill="#82171c"/>
            <path id="Trazado_1240039" data-name="Trazado 1240039" d="M224.2,76.721,216.077,72l.463-4.462,8.12,4.72Z" transform="translate(16.379 5.12)" fill="#82171c"/>
            <path id="Trazado_1240040" data-name="Trazado 1240040" d="M224.627,72.45l-8.121-4.72,3.577-2.716,8.121,4.718Z" transform="translate(16.412 4.928)" fill="#82171c"/>
            <path id="Trazado_1240041" data-name="Trazado 1240041" d="M218.013,86.062l-8.12-4.72-1.77-2.692,8.121,4.72Z" transform="translate(15.776 5.962)" fill="#82171c"/>
            <path id="Trazado_1240042" data-name="Trazado 1240042" d="M216.244,83.682l-8.12-4.72,2.551-4.424,8.121,4.72Z" transform="translate(15.776 5.65)" fill="#82171c"/>
            <path id="Trazado_1240043" data-name="Trazado 1240043" d="M218.616,79.259l-8.12-4.72,3.235.156,8.12,4.72Z" transform="translate(15.956 5.65)" fill="#82171c"/>
            <path id="Trazado_1240044" data-name="Trazado 1240044" d="M246.375,84.516l.554-4.44-3.326.109-.495-3.256,2.658-4.444-1.655-2.757-3.61,2.859-2.21-1.26.665-4.542-3.235-.024L233.2,71.288,230.126,72.5l-1.588-2.9-3.577,2.716-.464,4.462L221.729,80l-3.235-.155-2.552,4.424,1.769,2.692L216.3,90.972l-3.644,2.65-.555,4.436,3.326-.1.5,3.256-2.658,4.44,1.655,2.762,3.61-2.859,2.21,1.26-.665,4.541,3.235.025,2.518-4.527,3.077-1.214,1.588,2.9,3.577-2.717.463-4.462,2.772-3.226,3.232.158,2.552-4.424-1.769-2.692,1.407-4.008ZM224.282,94.55a12.286,12.286,0,0,1-3.4,1.919c-.031-.195-.075-.4-.1-.6-.782-5.651,2.795-13.486,7.981-17.522a11.981,11.981,0,0,1,3.4-1.906c.032.195.075.4.1.6.789,5.638-2.788,13.474-7.975,17.509" transform="translate(16.078 5.061)" fill="#ff3636"/>
            <path id="Trazado_1240045" data-name="Trazado 1240045" d="M238.944,80.608c-.6-4.375-3.649-6.134-7.407-4.822.031.195.075.4.1.6.787,5.639-2.79,13.474-7.975,17.509a12.273,12.273,0,0,1-3.4,1.919c1.037,5.124,5.706,6.183,10.7,2.293,5.2-4.028,8.763-11.87,7.988-17.5" transform="translate(16.696 5.713)" fill="#82171c"/>
            <path id="Trazado_1240046" data-name="Trazado 1240046" d="M285.372,68.211l.934-4.612-4.122-.253-.012-3.8,4.108-5-.956-3.52-4.711,2.809L278.951,51.5l2.411-6.044-2.6-1.478-4.03,5.112-2.867-.241.066-5.461-3.546.954L266.109,50.4l-3.3,1.905-2.3-3.414-3.539,3.136.1,5.367-2.856,3.546-4.046-.45-2.585,4.473,2.437,3.246-1.642,4.238-4.712,2.631-.934,4.612,4.124.252.011,3.8-4.108,5.006.956,3.52,4.712-2.809,1.66,2.33L247.67,97.83l2.6,1.479,4.03-5.118,2.868.246-.066,5.461,3.545-.955,2.274-6.055,3.3-1.9,2.3,3.412,3.539-3.136-.1-5.367,2.856-3.549,4.047.453,2.584-4.472-2.437-3.246,1.642-4.238Zm-27.49,11.171a14.1,14.1,0,0,1-4.659,2.429,9.03,9.03,0,0,1-.278-1.411c-.85-6.894,3.636-16.388,10.022-21.221a14.377,14.377,0,0,1,4.647-2.436,10.574,10.574,0,0,1,.282,1.43c.856,6.882-3.617,16.382-10.015,21.209" transform="translate(18.399 3.289)" fill="#fff"/>
            <path id="Trazado_1240047" data-name="Trazado 1240047" d="M275.341,61.981c-.637-5.15-4.084-7.38-8.466-6.156a10.59,10.59,0,0,1,.282,1.431c.856,6.882-3.617,16.381-10.015,21.209a14.07,14.07,0,0,1-4.66,2.428c1.429,5.671,6.915,6.785,12.844,2.3,6.4-4.827,10.872-14.328,10.015-21.209" transform="translate(19.139 4.207)" fill="#25435c"/>
            <g id="Grupo_1238847" data-name="Grupo 1238847" transform="translate(364.664 116.948)" opacity="0.5" style="mix-blend-mode: screen;isolation: isolate">
              <g id="Grupo_1238846" data-name="Grupo 1238846">
                <g id="Grupo_1238845" data-name="Grupo 1238845" clip-path="url(#clip-path-10)">
                  <path id="Trazado_1240048" data-name="Trazado 1240048" d="M369.74,133.376l-21.615,12.479-4.939,11.234-.3-8.208c-2.163,1.249-3.917.508-3.917-1.657V131a8.125,8.125,0,0,1,3.917-6.179l26.854-15.5c2.163-1.249,3.917-.509,3.917,1.656V127.2a8.125,8.125,0,0,1-3.917,6.179" transform="translate(-338.969 -108.708)" fill="#fff"/>
                </g>
              </g>
            </g>
            <g id="Grupo_1238850" data-name="Grupo 1238850" transform="translate(321.424 32.712)" opacity="0.5" style="mix-blend-mode: screen;isolation: isolate">
              <g id="Grupo_1238849" data-name="Grupo 1238849">
                <g id="Grupo_1238848" data-name="Grupo 1238848" clip-path="url(#clip-path-11)">
                  <path id="Trazado_1240049" data-name="Trazado 1240049" d="M320.219,47.6l-15.062,8.7-3.441,7.828-.209-5.72c-1.508.87-2.73.354-2.73-1.154V45.939a5.66,5.66,0,0,1,2.73-4.305l18.713-10.8c1.507-.87,2.729-.354,2.729,1.154V43.292a5.662,5.662,0,0,1-2.729,4.305" transform="translate(-298.776 -30.407)" fill="#fff"/>
                </g>
              </g>
            </g>
            <g id="Grupo_1238853" data-name="Grupo 1238853" transform="translate(381.171 186.906)" opacity="0.5" style="mix-blend-mode: screen;isolation: isolate">
              <g id="Grupo_1238852" data-name="Grupo 1238852">
                <g id="Grupo_1238851" data-name="Grupo 1238851" clip-path="url(#clip-path-11)">
                  <path id="Trazado_1240050" data-name="Trazado 1240050" d="M375.756,190.926l-15.063,8.7-3.441,7.828-.209-5.72c-1.508.87-2.729.354-2.729-1.154V189.268a5.659,5.659,0,0,1,2.729-4.305l18.714-10.8c1.506-.87,2.728-.354,2.728,1.153V186.62a5.664,5.664,0,0,1-2.728,4.306" transform="translate(-354.313 -173.736)" fill="#fff"/>
                </g>
              </g>
            </g>
            <path id="Trazado_1240051" data-name="Trazado 1240051" d="M355.032,56.134,347.1,51.552,293.465,117.5l8.019,4.63Z" transform="translate(22.245 3.908)" fill="#82171c"/>
            <path id="Trazado_1240052" data-name="Trazado 1240052" d="M298.271,116.874l.491,13.44,8.02,4.63,5.833-19.588,29.622-23.866c3.543-2.045,6.414-6.575,6.414-10.117V54.806c0-3.543-2.871-4.756-6.414-2.711L298.271,77.479c-3.543,2.045-6.414,6.575-6.414,10.117v26.568c0,3.543,2.871,4.756,6.414,2.711" transform="translate(22.124 3.874)" fill="#82171c"/>
            <path id="Trazado_1240053" data-name="Trazado 1240053" d="M349.693,95.794,314.3,116.227l-8.085,18.391-.491-13.44c-3.543,2.045-6.414.832-6.414-2.71V91.9c0-3.543,2.871-8.072,6.414-10.117L349.693,56.4c3.543-2.045,6.414-.831,6.414,2.711V85.677c0,3.543-2.871,8.072-6.414,10.117" transform="translate(22.689 4.2)" fill="#ff3636"/>
            <path id="Trazado_1240054" data-name="Trazado 1240054" d="M344.5,68.925,309.39,89.2V86.7L344.5,66.429Z" transform="translate(23.453 5.035)" fill="#fff"/>
            <path id="Trazado_1240055" data-name="Trazado 1240055" d="M344.5,75.208,309.39,95.48v-2.5L344.5,72.713Z" transform="translate(23.453 5.512)" fill="#fff"/>
            <path id="Trazado_1240056" data-name="Trazado 1240056" d="M329.874,89.344,309.39,101.171v-2.5l20.483-11.825Z" transform="translate(23.453 6.583)" fill="#fff"/>
            <path id="Trazado_1240057" data-name="Trazado 1240057" d="M335.812,92.441,309.39,107.7v-2.5l26.422-15.254Z" transform="translate(23.453 6.818)" fill="#fff"/>
            <g id="Grupo_1238856" data-name="Grupo 1238856" transform="translate(338.914 121.66)" opacity="0.4" style="mix-blend-mode: screen;isolation: isolate">
              <g id="Grupo_1238855" data-name="Grupo 1238855">
                <g id="Grupo_1238854" data-name="Grupo 1238854" clip-path="url(#clip-path-13)">
                  <path id="Trazado_1240058" data-name="Trazado 1240058" d="M330.169,125.222l-10.632,6.139-2.429,5.525-.147-4.037c-1.064.614-1.927.25-1.927-.814v-7.982a4,4,0,0,1,1.927-3.039l13.209-7.625c1.064-.615,1.927-.251,1.927.814v7.981a4,4,0,0,1-1.927,3.039" transform="translate(-315.034 -113.088)" fill="#fff"/>
                </g>
              </g>
            </g>
            <g id="Grupo_1238859" data-name="Grupo 1238859" transform="translate(391.93 153.917)" opacity="0.25" style="mix-blend-mode: screen;isolation: isolate">
              <g id="Grupo_1238858" data-name="Grupo 1238858">
                <g id="Grupo_1238857" data-name="Grupo 1238857" clip-path="url(#clip-path-14)">
                  <path id="Trazado_1240059" data-name="Trazado 1240059" d="M379.451,155.206l-10.633,6.139-2.429,5.525-.147-4.037c-1.064.614-1.926.25-1.926-.814v-7.982A4,4,0,0,1,366.241,151l13.21-7.625c1.063-.615,1.926-.251,1.926.814v7.981a4,4,0,0,1-1.926,3.039" transform="translate(-364.314 -143.072)" fill="#fff"/>
                </g>
              </g>
            </g>
            <g id="Grupo_1238862" data-name="Grupo 1238862" transform="translate(158.417 58.363)" opacity="0.4" style="mix-blend-mode: screen;isolation: isolate">
              <g id="Grupo_1238861" data-name="Grupo 1238861">
                <g id="Grupo_1238860" data-name="Grupo 1238860" clip-path="url(#clip-path-15)">
                  <path id="Trazado_1240060" data-name="Trazado 1240060" d="M150.724,89.693l19.142-10.952,4.373,4.921.266-7.575a7.149,7.149,0,0,0,3.469-5.453V56.264c0-1.916-1.553-2.581-3.469-1.485L150.724,68.385a7.149,7.149,0,0,0-3.469,5.454v14.37c0,1.916,1.553,2.581,3.469,1.485" transform="translate(-147.255 -54.251)" fill="#fff"/>
                </g>
              </g>
            </g>
            <g id="Grupo_1238865" data-name="Grupo 1238865" transform="translate(143.058 202.264)" opacity="0.4" style="mix-blend-mode: screen;isolation: isolate">
              <g id="Grupo_1238864" data-name="Grupo 1238864">
                <g id="Grupo_1238863" data-name="Grupo 1238863" clip-path="url(#clip-path-16)">
                  <path id="Trazado_1240061" data-name="Trazado 1240061" d="M136.446,223.454,155.588,212.5l4.373,4.921.266-7.575A7.149,7.149,0,0,0,163.7,204.4V190.025c0-1.916-1.553-2.581-3.469-1.485l-23.781,13.606a7.149,7.149,0,0,0-3.469,5.454v14.37c0,1.916,1.553,2.581,3.469,1.485" transform="translate(-132.978 -188.012)" fill="#fff"/>
                </g>
              </g>
            </g>
            <g id="Grupo_1238868" data-name="Grupo 1238868" transform="translate(195.249 72.152)" opacity="0.5" style="mix-blend-mode: screen;isolation: isolate">
              <g id="Grupo_1238867" data-name="Grupo 1238867">
                <g id="Grupo_1238866" data-name="Grupo 1238866" clip-path="url(#clip-path-17)">
                  <path id="Trazado_1240062" data-name="Trazado 1240062" d="M183.45,87.085,194.262,80.9l2.47,2.78.15-4.278a4.035,4.035,0,0,0,1.959-3.08V68.2c0-1.081-.877-1.457-1.959-.838L183.45,75.05a4.037,4.037,0,0,0-1.959,3.08v8.117c0,1.082.877,1.457,1.959.838" transform="translate(-181.491 -67.068)" fill="#fff"/>
                </g>
              </g>
            </g>
            <g id="Grupo_1238871" data-name="Grupo 1238871" transform="translate(154.916 169.661)" opacity="0.5" style="mix-blend-mode: screen;isolation: isolate">
              <g id="Grupo_1238870" data-name="Grupo 1238870">
                <g id="Grupo_1238869" data-name="Grupo 1238869" clip-path="url(#clip-path-18)">
                  <path id="Trazado_1240063" data-name="Trazado 1240063" d="M145.959,177.723l10.812-6.186,2.47,2.78.15-4.278a4.035,4.035,0,0,0,1.959-3.08v-8.116c0-1.082-.877-1.458-1.959-.839l-13.431,7.684a4.038,4.038,0,0,0-1.959,3.08v8.117c0,1.082.877,1.457,1.959.838" transform="translate(-144 -157.706)" fill="#fff"/>
                </g>
              </g>
            </g>
            <g id="Grupo_1238874" data-name="Grupo 1238874" transform="translate(208.074 118.776)" opacity="0.25" style="mix-blend-mode: screen;isolation: isolate">
              <g id="Grupo_1238873" data-name="Grupo 1238873">
                <g id="Grupo_1238872" data-name="Grupo 1238872" clip-path="url(#clip-path-19)">
                  <path id="Trazado_1240064" data-name="Trazado 1240064" d="M195.841,135.209l13.395-7.664,3.061,3.444.186-5.3a5,5,0,0,0,2.427-3.817V111.815c0-1.34-1.087-1.805-2.427-1.039L195.841,120.3a5.006,5.006,0,0,0-2.428,3.817v10.056c0,1.342,1.088,1.806,2.428,1.039" transform="translate(-193.413 -110.407)" fill="#fff"/>
                </g>
              </g>
            </g>
            <path id="Trazado_1240065" data-name="Trazado 1240065" d="M224.474,211.125a.662.662,0,0,0,.661-.642c.04-1.367,1.031-2.723,2.078-4.158a10.7,10.7,0,0,0,2.35-4.567c.241-1.775-.5-2.432-.963-2.666-1.1-.558-2.734.127-4.587,1.928a.661.661,0,1,0,.922.949c1.739-1.689,2.768-1.848,3.068-1.7.246.125.342.625.25,1.307a9.822,9.822,0,0,1-2.107,3.965c-1.121,1.535-2.281,3.122-2.332,4.9a.661.661,0,0,0,.642.681h.019" transform="translate(16.966 15.077)" fill="#82171c"/>
            <path id="Trazado_1240066" data-name="Trazado 1240066" d="M214.631,211.678a3.688,3.688,0,0,1,1.317-1.2,8.8,8.8,0,0,1,7.964,0,3.7,3.7,0,0,1,1.317,1.2h.332v1.1a2.8,2.8,0,0,1-1.649,2.3,8.8,8.8,0,0,1-7.964,0,2.8,2.8,0,0,1-1.649-2.3v-1.1Z" transform="translate(16.244 15.883)" fill="#82171c"/>
            <path id="Trazado_1240067" data-name="Trazado 1240067" d="M212.529,201.082h15.038c0,8.406-1.728,8.8-1.891,10.965a1.907,1.907,0,0,1-.006.591,3.005,3.005,0,0,1-1.622,1.981,8.8,8.8,0,0,1-7.964,0,3.007,3.007,0,0,1-1.622-1.978c.1-2.822-1.931-2.451-1.931-11.557" transform="translate(16.11 15.243)" fill="#ff3636"/>
            <path id="Trazado_1240068" data-name="Trazado 1240068" d="M214.719,198.311c-2.944,1.7-2.944,4.456,0,6.155a11.782,11.782,0,0,0,10.661,0c2.944-1.7,2.944-4.455,0-6.155a11.782,11.782,0,0,0-10.661,0" transform="translate(16.109 14.936)" fill="#fce4bd"/>
            <path id="Trazado_1240069" data-name="Trazado 1240069" d="M214.96,212.63a6.3,6.3,0,0,0-.563-2.957,15.648,15.648,0,0,1-1.28-6.316,6.281,6.281,0,0,0,1.137.828c.164.1.337.184.512.269a15.545,15.545,0,0,0,1.2,5.219,6.314,6.314,0,0,1,.563,2.957l-.013,1.51c-.161-.073-.318-.151-.466-.236a3.429,3.429,0,0,1-1.089-.94Z" transform="translate(16.155 15.415)" fill="#fff"/>
            <path id="Trazado_1240070" data-name="Trazado 1240070" d="M213.852,202.644a4.266,4.266,0,0,0,1.512,1.367,10.2,10.2,0,0,0,9.228,0,4.257,4.257,0,0,0,1.509-1.367c.851-1.335.345-2.89-1.509-3.96a10.2,10.2,0,0,0-9.228,0c-1.855,1.07-2.36,2.625-1.512,3.96" transform="translate(16.18 14.977)" fill="#ff3636"/>
            <path id="Trazado_1240071" data-name="Trazado 1240071" d="M226.205,202.432a1,1,0,0,1-.108.215,4.28,4.28,0,0,1-1.506,1.366,10.187,10.187,0,0,1-9.23,0,4.28,4.28,0,0,1-1.506-1.366,1,1,0,0,1-.108-.215c-.689-1.28-.14-2.733,1.614-3.744a10.187,10.187,0,0,1,9.23,0c1.754,1.011,2.3,2.464,1.614,3.744" transform="translate(16.181 14.977)" fill="#ff3636"/>
            <path id="Trazado_1240072" data-name="Trazado 1240072" d="M226.185,202.278a1,1,0,0,1-.108.215,4.28,4.28,0,0,1-1.506,1.366,10.187,10.187,0,0,1-9.23,0,4.28,4.28,0,0,1-1.506-1.366,1,1,0,0,1-.108-.215,4.032,4.032,0,0,1,1.614-1.56,10.187,10.187,0,0,1,9.23,0,4.032,4.032,0,0,1,1.614,1.56" transform="translate(16.201 15.131)" fill="#603813"/>
          </g>
        </g>
      </g>
    </g>
  </g>
</svg>
